%TF.GenerationSoftware,KiCad,Pcbnew,(6.0.0)*%
%TF.CreationDate,2022-10-07T21:40:30-07:00*%
%TF.ProjectId,waveblaster-to-midi-module,77617665-626c-4617-9374-65722d746f2d,rev?*%
%TF.SameCoordinates,PX525bfc0PY8670810*%
%TF.FileFunction,Copper,L2,Bot*%
%TF.FilePolarity,Positive*%
%FSLAX46Y46*%
G04 Gerber Fmt 4.6, Leading zero omitted, Abs format (unit mm)*
G04 Created by KiCad (PCBNEW (6.0.0)) date 2022-10-07 21:40:30*
%MOMM*%
%LPD*%
G01*
G04 APERTURE LIST*
G04 Aperture macros list*
%AMRoundRect*
0 Rectangle with rounded corners*
0 $1 Rounding radius*
0 $2 $3 $4 $5 $6 $7 $8 $9 X,Y pos of 4 corners*
0 Add a 4 corners polygon primitive as box body*
4,1,4,$2,$3,$4,$5,$6,$7,$8,$9,$2,$3,0*
0 Add four circle primitives for the rounded corners*
1,1,$1+$1,$2,$3*
1,1,$1+$1,$4,$5*
1,1,$1+$1,$6,$7*
1,1,$1+$1,$8,$9*
0 Add four rect primitives between the rounded corners*
20,1,$1+$1,$2,$3,$4,$5,0*
20,1,$1+$1,$4,$5,$6,$7,0*
20,1,$1+$1,$6,$7,$8,$9,0*
20,1,$1+$1,$8,$9,$2,$3,0*%
G04 Aperture macros list end*
%TA.AperFunction,ComponentPad*%
%ADD10RoundRect,0.250000X-0.600000X-0.600000X0.600000X-0.600000X0.600000X0.600000X-0.600000X0.600000X0*%
%TD*%
%TA.AperFunction,ComponentPad*%
%ADD11C,1.700000*%
%TD*%
%TA.AperFunction,ComponentPad*%
%ADD12C,6.400000*%
%TD*%
%TA.AperFunction,ComponentPad*%
%ADD13O,1.800000X2.800000*%
%TD*%
%TA.AperFunction,ComponentPad*%
%ADD14C,1.600000*%
%TD*%
%TA.AperFunction,ComponentPad*%
%ADD15O,1.600000X1.600000*%
%TD*%
%TA.AperFunction,ComponentPad*%
%ADD16R,1.248000X1.248000*%
%TD*%
%TA.AperFunction,ComponentPad*%
%ADD17C,1.248000*%
%TD*%
%TA.AperFunction,ComponentPad*%
%ADD18O,2.400000X4.800000*%
%TD*%
%TA.AperFunction,ComponentPad*%
%ADD19O,3.400000X1.700000*%
%TD*%
%TA.AperFunction,ComponentPad*%
%ADD20R,1.600000X1.600000*%
%TD*%
%TA.AperFunction,Conductor*%
%ADD21C,0.254000*%
%TD*%
G04 APERTURE END LIST*
D10*
%TO.P,J7,1,Pin_1*%
%TO.N,GND*%
X167590000Y-80080000D03*
D11*
%TO.P,J7,2,Pin_2*%
%TO.N,unconnected-(J7-Pad2)*%
X170130000Y-80080000D03*
%TO.P,J7,3,Pin_3*%
%TO.N,GND*%
X167590000Y-82620000D03*
%TO.P,J7,4,Pin_4*%
%TO.N,WT_TX*%
X170130000Y-82620000D03*
%TO.P,J7,5,Pin_5*%
%TO.N,GND*%
X167590000Y-85160000D03*
%TO.P,J7,6,Pin_6*%
%TO.N,+5V*%
X170130000Y-85160000D03*
%TO.P,J7,7,Pin_7*%
%TO.N,GND*%
X167590000Y-87700000D03*
%TO.P,J7,8,Pin_8*%
%TO.N,WT_RX*%
X170130000Y-87700000D03*
%TO.P,J7,9,Pin_9*%
%TO.N,GND*%
X167590000Y-90240000D03*
%TO.P,J7,10,Pin_10*%
%TO.N,+5V*%
X170130000Y-90240000D03*
%TO.P,J7,11,Pin_11*%
%TO.N,GND*%
X167590000Y-92780000D03*
%TO.P,J7,12,Pin_12*%
%TO.N,WT_AUDIO_R_IN*%
X170130000Y-92780000D03*
%TO.P,J7,13,Pin_13*%
%TO.N,unconnected-(J7-Pad13)*%
X167590000Y-95320000D03*
%TO.P,J7,14,Pin_14*%
%TO.N,+5V*%
X170130000Y-95320000D03*
%TO.P,J7,15,Pin_15*%
%TO.N,GNDA*%
X167590000Y-97860000D03*
%TO.P,J7,16,Pin_16*%
%TO.N,WT_AUDIO_L_IN*%
X170130000Y-97860000D03*
%TO.P,J7,17,Pin_17*%
%TO.N,GNDA*%
X167590000Y-100400000D03*
%TO.P,J7,18,Pin_18*%
%TO.N,+12V*%
X170130000Y-100400000D03*
%TO.P,J7,19,Pin_19*%
%TO.N,GNDA*%
X167590000Y-102940000D03*
%TO.P,J7,20,Pin_20*%
%TO.N,WT_AUDIO_R_OUT*%
X170130000Y-102940000D03*
%TO.P,J7,21,Pin_21*%
%TO.N,GNDA*%
X167590000Y-105480000D03*
%TO.P,J7,22,Pin_22*%
%TO.N,-12V*%
X170130000Y-105480000D03*
%TO.P,J7,23,Pin_23*%
%TO.N,GNDA*%
X167590000Y-108020000D03*
%TO.P,J7,24,Pin_24*%
%TO.N,WT_AUDIO_L_OUT*%
X170130000Y-108020000D03*
%TO.P,J7,25,Pin_25*%
%TO.N,GNDA*%
X167590000Y-110560000D03*
%TO.P,J7,26,Pin_26*%
%TO.N,~{RESET}*%
X170130000Y-110560000D03*
%TD*%
D12*
%TO.P,H1,1,1*%
%TO.N,unconnected-(H1-Pad1)*%
X182716000Y-58900000D03*
%TO.P,H1,2,2*%
%TO.N,unconnected-(H1-Pad2)*%
X182716000Y-113800000D03*
%TD*%
D13*
%TO.P,J1,R*%
%TO.N,Net-(J1-PadR)*%
X180300000Y-80190000D03*
%TO.P,J1,S*%
%TO.N,GND*%
X188200000Y-78190000D03*
%TO.P,J1,T*%
%TO.N,Net-(J1-PadT)*%
X185800000Y-80190000D03*
%TD*%
D14*
%TO.P,R4,1*%
%TO.N,+5V*%
X176700000Y-92110000D03*
D15*
%TO.P,R4,2*%
%TO.N,Net-(J1-PadR)*%
X176700000Y-84490000D03*
%TD*%
D16*
%TO.P,U1,1*%
%TO.N,Net-(D1-Pad1)*%
X170130000Y-71440000D03*
D17*
%TO.P,U1,2*%
%TO.N,Net-(D1-Pad2)*%
X170130000Y-68900000D03*
%TO.P,U1,3*%
%TO.N,unconnected-(U1-Pad3)*%
X170130000Y-66360000D03*
%TO.P,U1,4*%
%TO.N,WT_RX*%
X162510000Y-66360000D03*
%TO.P,U1,5*%
%TO.N,GND*%
X162510000Y-68900000D03*
%TO.P,U1,6*%
%TO.N,+5V*%
X162510000Y-71440000D03*
%TD*%
D18*
%TO.P,J3,1*%
%TO.N,GNDA*%
X185580000Y-91350000D03*
D19*
%TO.P,J3,2*%
%TO.N,WT_AUDIO_R_OUT*%
X181080000Y-91350000D03*
%TD*%
D14*
%TO.P,R3,1*%
%TO.N,WT_TX*%
X173350000Y-92120000D03*
D15*
%TO.P,R3,2*%
%TO.N,Net-(J1-PadT)*%
X173350000Y-84500000D03*
%TD*%
D20*
%TO.P,D1,1,K*%
%TO.N,Net-(D1-Pad1)*%
X173300000Y-70684315D03*
D15*
%TO.P,D1,2,A*%
%TO.N,Net-(D1-Pad2)*%
X173300000Y-65604315D03*
%TD*%
D13*
%TO.P,J2,R*%
%TO.N,Net-(J2-PadR)*%
X180300000Y-69080000D03*
%TO.P,J2,S*%
%TO.N,unconnected-(J2-PadS)*%
X188200000Y-67080000D03*
%TO.P,J2,T*%
%TO.N,Net-(D1-Pad2)*%
X185800000Y-69080000D03*
%TD*%
D18*
%TO.P,J4,1*%
%TO.N,GNDA*%
X185580000Y-104600000D03*
D19*
%TO.P,J4,2*%
%TO.N,WT_AUDIO_L_OUT*%
X181080000Y-104600000D03*
%TD*%
D14*
%TO.P,R2,1*%
%TO.N,Net-(D1-Pad1)*%
X173350000Y-81760000D03*
D15*
%TO.P,R2,2*%
%TO.N,Net-(J2-PadR)*%
X173350000Y-74140000D03*
%TD*%
D14*
%TO.P,R1,1*%
%TO.N,+5V*%
X159200000Y-72660000D03*
D15*
%TO.P,R1,2*%
%TO.N,WT_RX*%
X159200000Y-65040000D03*
%TD*%
D21*
%TO.N,WT_TX*%
X171800000Y-84150000D02*
X171800000Y-90570000D01*
X171800000Y-90570000D02*
X173350000Y-92120000D01*
X170270000Y-82620000D02*
X171800000Y-84150000D01*
X170130000Y-82620000D02*
X170270000Y-82620000D01*
%TD*%
%TA.AperFunction,Conductor*%
%TO.N,GNDA*%
G36*
X187421445Y-86055354D02*
G01*
X187468048Y-86108914D01*
X187477991Y-86181201D01*
X187475014Y-86200000D01*
X187476565Y-86209792D01*
X187478449Y-86221687D01*
X187480000Y-86241398D01*
X187480000Y-87958602D01*
X187478449Y-87978311D01*
X187475014Y-88000000D01*
X187480000Y-88031481D01*
X187494835Y-88125148D01*
X187499336Y-88133981D01*
X187499336Y-88133982D01*
X187525175Y-88184693D01*
X187552359Y-88238045D01*
X187641955Y-88327641D01*
X187754852Y-88385165D01*
X187764645Y-88386716D01*
X187859998Y-88401818D01*
X187880000Y-88404986D01*
X187901689Y-88401551D01*
X187921398Y-88400000D01*
X189474000Y-88400000D01*
X189542121Y-88420002D01*
X189588614Y-88473658D01*
X189600000Y-88526000D01*
X189600000Y-94174000D01*
X189579998Y-94242121D01*
X189526342Y-94288614D01*
X189474000Y-94300000D01*
X187921398Y-94300000D01*
X187901689Y-94298449D01*
X187880000Y-94295014D01*
X187848519Y-94300000D01*
X187754852Y-94314835D01*
X187641955Y-94372359D01*
X187552359Y-94461955D01*
X187494835Y-94574852D01*
X187475014Y-94700000D01*
X187476565Y-94709792D01*
X187478449Y-94721687D01*
X187480000Y-94741398D01*
X187480000Y-96458602D01*
X187478449Y-96478311D01*
X187475014Y-96500000D01*
X187480000Y-96531481D01*
X187494835Y-96625148D01*
X187552359Y-96738045D01*
X187641955Y-96827641D01*
X187754852Y-96885165D01*
X187764645Y-96886716D01*
X187859998Y-96901818D01*
X187880000Y-96904986D01*
X187901689Y-96901551D01*
X187921398Y-96900000D01*
X189474000Y-96900000D01*
X189542121Y-96920002D01*
X189588614Y-96973658D01*
X189600000Y-97026000D01*
X189600000Y-98924000D01*
X189579998Y-98992121D01*
X189526342Y-99038614D01*
X189474000Y-99050000D01*
X187921398Y-99050000D01*
X187901689Y-99048449D01*
X187880000Y-99045014D01*
X187848519Y-99050000D01*
X187754852Y-99064835D01*
X187746019Y-99069336D01*
X187746018Y-99069336D01*
X187711288Y-99087032D01*
X187641955Y-99122359D01*
X187552359Y-99211955D01*
X187529952Y-99255932D01*
X187513852Y-99287530D01*
X187494835Y-99324852D01*
X187475014Y-99450000D01*
X187476565Y-99459792D01*
X187478449Y-99471687D01*
X187480000Y-99491398D01*
X187480000Y-101208602D01*
X187478449Y-101228311D01*
X187475014Y-101250000D01*
X187480000Y-101281481D01*
X187494835Y-101375148D01*
X187552359Y-101488045D01*
X187641955Y-101577641D01*
X187754852Y-101635165D01*
X187764645Y-101636716D01*
X187859998Y-101651818D01*
X187880000Y-101654986D01*
X187901689Y-101651551D01*
X187921398Y-101650000D01*
X189474000Y-101650000D01*
X189542121Y-101670002D01*
X189588614Y-101723658D01*
X189600000Y-101776000D01*
X189600000Y-107424000D01*
X189579998Y-107492121D01*
X189526342Y-107538614D01*
X189474000Y-107550000D01*
X187921398Y-107550000D01*
X187901689Y-107548449D01*
X187880000Y-107545014D01*
X187848519Y-107550000D01*
X187754852Y-107564835D01*
X187746019Y-107569336D01*
X187746018Y-107569336D01*
X187695307Y-107595175D01*
X187641955Y-107622359D01*
X187552359Y-107711955D01*
X187494835Y-107824852D01*
X187475014Y-107950000D01*
X187476565Y-107959792D01*
X187478449Y-107971687D01*
X187480000Y-107991398D01*
X187480000Y-109573989D01*
X187459998Y-109642110D01*
X187406342Y-109688603D01*
X187353999Y-109699989D01*
X176115390Y-109699944D01*
X176097274Y-109699944D01*
X176098244Y-111913257D01*
X176099404Y-114562770D01*
X176079432Y-114630899D01*
X176025796Y-114677416D01*
X175973711Y-114688825D01*
X157506307Y-114733826D01*
X157438138Y-114713990D01*
X157391514Y-114660447D01*
X157380000Y-114607826D01*
X157380000Y-111684853D01*
X166829977Y-111684853D01*
X166835258Y-111691907D01*
X166996756Y-111786279D01*
X167006042Y-111790729D01*
X167205001Y-111866703D01*
X167214899Y-111869579D01*
X167423595Y-111912038D01*
X167433823Y-111913257D01*
X167646650Y-111921062D01*
X167656936Y-111920595D01*
X167868185Y-111893534D01*
X167878262Y-111891392D01*
X168082255Y-111830191D01*
X168091842Y-111826433D01*
X168283098Y-111732738D01*
X168291944Y-111727465D01*
X168339247Y-111693723D01*
X168347648Y-111683023D01*
X168340660Y-111669870D01*
X167602812Y-110932022D01*
X167588868Y-110924408D01*
X167587035Y-110924539D01*
X167580420Y-110928790D01*
X166836737Y-111672473D01*
X166829977Y-111684853D01*
X157380000Y-111684853D01*
X157380000Y-110531863D01*
X166228050Y-110531863D01*
X166240309Y-110744477D01*
X166241745Y-110754697D01*
X166288565Y-110962446D01*
X166291645Y-110972275D01*
X166371770Y-111169603D01*
X166376413Y-111178794D01*
X166456460Y-111309420D01*
X166466916Y-111318880D01*
X166475694Y-111315096D01*
X167217978Y-110572812D01*
X167225592Y-110558868D01*
X167225461Y-110557035D01*
X167221210Y-110550420D01*
X166479849Y-109809059D01*
X166468313Y-109802759D01*
X166456031Y-109812382D01*
X166408089Y-109882662D01*
X166403004Y-109891613D01*
X166313338Y-110084783D01*
X166309775Y-110094470D01*
X166252864Y-110299681D01*
X166250933Y-110309800D01*
X166228302Y-110521574D01*
X166228050Y-110531863D01*
X157380000Y-110531863D01*
X157380000Y-109144853D01*
X166829977Y-109144853D01*
X166835258Y-109151907D01*
X166882479Y-109179501D01*
X166931203Y-109231139D01*
X166944274Y-109300922D01*
X166917543Y-109366694D01*
X166877087Y-109400053D01*
X166868466Y-109404541D01*
X166859734Y-109410039D01*
X166839677Y-109425099D01*
X166831223Y-109436427D01*
X166837968Y-109448758D01*
X167577188Y-110187978D01*
X167591132Y-110195592D01*
X167592965Y-110195461D01*
X167599580Y-110191210D01*
X168343389Y-109447401D01*
X168350410Y-109434544D01*
X168343611Y-109425213D01*
X168339559Y-109422521D01*
X168302116Y-109401852D01*
X168252145Y-109351420D01*
X168237373Y-109281977D01*
X168262489Y-109215572D01*
X168289840Y-109188965D01*
X168339247Y-109153723D01*
X168347648Y-109143023D01*
X168340660Y-109129870D01*
X167602812Y-108392022D01*
X167588868Y-108384408D01*
X167587035Y-108384539D01*
X167580420Y-108388790D01*
X166836737Y-109132473D01*
X166829977Y-109144853D01*
X157380000Y-109144853D01*
X157380000Y-107991863D01*
X166228050Y-107991863D01*
X166240309Y-108204477D01*
X166241745Y-108214697D01*
X166288565Y-108422446D01*
X166291645Y-108432275D01*
X166371770Y-108629603D01*
X166376413Y-108638794D01*
X166456460Y-108769420D01*
X166466916Y-108778880D01*
X166475694Y-108775096D01*
X167217978Y-108032812D01*
X167225592Y-108018868D01*
X167225461Y-108017035D01*
X167221210Y-108010420D01*
X166479849Y-107269059D01*
X166468313Y-107262759D01*
X166456031Y-107272382D01*
X166408089Y-107342662D01*
X166403004Y-107351613D01*
X166313338Y-107544783D01*
X166309775Y-107554470D01*
X166252864Y-107759681D01*
X166250933Y-107769800D01*
X166228302Y-107981574D01*
X166228050Y-107991863D01*
X157380000Y-107991863D01*
X157380000Y-106604853D01*
X166829977Y-106604853D01*
X166835258Y-106611907D01*
X166882479Y-106639501D01*
X166931203Y-106691139D01*
X166944274Y-106760922D01*
X166917543Y-106826694D01*
X166877087Y-106860053D01*
X166868466Y-106864541D01*
X166859734Y-106870039D01*
X166839677Y-106885099D01*
X166831223Y-106896427D01*
X166837968Y-106908758D01*
X167577188Y-107647978D01*
X167591132Y-107655592D01*
X167592965Y-107655461D01*
X167599580Y-107651210D01*
X168343389Y-106907401D01*
X168350410Y-106894544D01*
X168343611Y-106885213D01*
X168339559Y-106882521D01*
X168302116Y-106861852D01*
X168252145Y-106811420D01*
X168237373Y-106741977D01*
X168262489Y-106675572D01*
X168289840Y-106648965D01*
X168339247Y-106613723D01*
X168347648Y-106603023D01*
X168340660Y-106589870D01*
X167602812Y-105852022D01*
X167588868Y-105844408D01*
X167587035Y-105844539D01*
X167580420Y-105848790D01*
X166836737Y-106592473D01*
X166829977Y-106604853D01*
X157380000Y-106604853D01*
X157380000Y-105451863D01*
X166228050Y-105451863D01*
X166240309Y-105664477D01*
X166241745Y-105674697D01*
X166288565Y-105882446D01*
X166291645Y-105892275D01*
X166371770Y-106089603D01*
X166376413Y-106098794D01*
X166456460Y-106229420D01*
X166466916Y-106238880D01*
X166475694Y-106235096D01*
X167217978Y-105492812D01*
X167225592Y-105478868D01*
X167225461Y-105477035D01*
X167221210Y-105470420D01*
X166479849Y-104729059D01*
X166468313Y-104722759D01*
X166456031Y-104732382D01*
X166408089Y-104802662D01*
X166403004Y-104811613D01*
X166313338Y-105004783D01*
X166309775Y-105014470D01*
X166252864Y-105219681D01*
X166250933Y-105229800D01*
X166228302Y-105441574D01*
X166228050Y-105451863D01*
X157380000Y-105451863D01*
X157380000Y-104064853D01*
X166829977Y-104064853D01*
X166835258Y-104071907D01*
X166882479Y-104099501D01*
X166931203Y-104151139D01*
X166944274Y-104220922D01*
X166917543Y-104286694D01*
X166877087Y-104320053D01*
X166868466Y-104324541D01*
X166859734Y-104330039D01*
X166839677Y-104345099D01*
X166831223Y-104356427D01*
X166837968Y-104368758D01*
X167577188Y-105107978D01*
X167591132Y-105115592D01*
X167592965Y-105115461D01*
X167599580Y-105111210D01*
X168343389Y-104367401D01*
X168350410Y-104354544D01*
X168343611Y-104345213D01*
X168339559Y-104342521D01*
X168302116Y-104321852D01*
X168252145Y-104271420D01*
X168237373Y-104201977D01*
X168262489Y-104135572D01*
X168289840Y-104108965D01*
X168339247Y-104073723D01*
X168347648Y-104063023D01*
X168340660Y-104049870D01*
X167602812Y-103312022D01*
X167588868Y-103304408D01*
X167587035Y-103304539D01*
X167580420Y-103308790D01*
X166836737Y-104052473D01*
X166829977Y-104064853D01*
X157380000Y-104064853D01*
X157380000Y-102911863D01*
X166228050Y-102911863D01*
X166240309Y-103124477D01*
X166241745Y-103134697D01*
X166288565Y-103342446D01*
X166291645Y-103352275D01*
X166371770Y-103549603D01*
X166376413Y-103558794D01*
X166456460Y-103689420D01*
X166466916Y-103698880D01*
X166475694Y-103695096D01*
X167217978Y-102952812D01*
X167225592Y-102938868D01*
X167225461Y-102937035D01*
X167221210Y-102930420D01*
X166479849Y-102189059D01*
X166468313Y-102182759D01*
X166456031Y-102192382D01*
X166408089Y-102262662D01*
X166403004Y-102271613D01*
X166313338Y-102464783D01*
X166309775Y-102474470D01*
X166252864Y-102679681D01*
X166250933Y-102689800D01*
X166228302Y-102901574D01*
X166228050Y-102911863D01*
X157380000Y-102911863D01*
X157380000Y-101524853D01*
X166829977Y-101524853D01*
X166835258Y-101531907D01*
X166882479Y-101559501D01*
X166931203Y-101611139D01*
X166944274Y-101680922D01*
X166917543Y-101746694D01*
X166877087Y-101780053D01*
X166868466Y-101784541D01*
X166859734Y-101790039D01*
X166839677Y-101805099D01*
X166831223Y-101816427D01*
X166837968Y-101828758D01*
X167577188Y-102567978D01*
X167591132Y-102575592D01*
X167592965Y-102575461D01*
X167599580Y-102571210D01*
X168343389Y-101827401D01*
X168350410Y-101814544D01*
X168343611Y-101805213D01*
X168339559Y-101802521D01*
X168302116Y-101781852D01*
X168252145Y-101731420D01*
X168237373Y-101661977D01*
X168262489Y-101595572D01*
X168289840Y-101568965D01*
X168339247Y-101533723D01*
X168347648Y-101523023D01*
X168340660Y-101509870D01*
X167602812Y-100772022D01*
X167588868Y-100764408D01*
X167587035Y-100764539D01*
X167580420Y-100768790D01*
X166836737Y-101512473D01*
X166829977Y-101524853D01*
X157380000Y-101524853D01*
X157380000Y-100371863D01*
X166228050Y-100371863D01*
X166240309Y-100584477D01*
X166241745Y-100594697D01*
X166288565Y-100802446D01*
X166291645Y-100812275D01*
X166371770Y-101009603D01*
X166376413Y-101018794D01*
X166456460Y-101149420D01*
X166466916Y-101158880D01*
X166475694Y-101155096D01*
X167217978Y-100412812D01*
X167225592Y-100398868D01*
X167225461Y-100397035D01*
X167221210Y-100390420D01*
X166479849Y-99649059D01*
X166468313Y-99642759D01*
X166456031Y-99652382D01*
X166408089Y-99722662D01*
X166403004Y-99731613D01*
X166313338Y-99924783D01*
X166309775Y-99934470D01*
X166252864Y-100139681D01*
X166250933Y-100149800D01*
X166228302Y-100361574D01*
X166228050Y-100371863D01*
X157380000Y-100371863D01*
X157380000Y-98984853D01*
X166829977Y-98984853D01*
X166835258Y-98991907D01*
X166882479Y-99019501D01*
X166931203Y-99071139D01*
X166944274Y-99140922D01*
X166917543Y-99206694D01*
X166877087Y-99240053D01*
X166868466Y-99244541D01*
X166859734Y-99250039D01*
X166839677Y-99265099D01*
X166831223Y-99276427D01*
X166837968Y-99288758D01*
X167577188Y-100027978D01*
X167591132Y-100035592D01*
X167592965Y-100035461D01*
X167599580Y-100031210D01*
X168343389Y-99287401D01*
X168350410Y-99274544D01*
X168343611Y-99265213D01*
X168339559Y-99262521D01*
X168302116Y-99241852D01*
X168252145Y-99191420D01*
X168237373Y-99121977D01*
X168262489Y-99055572D01*
X168289840Y-99028965D01*
X168339247Y-98993723D01*
X168347648Y-98983023D01*
X168340660Y-98969870D01*
X167602812Y-98232022D01*
X167588868Y-98224408D01*
X167587035Y-98224539D01*
X167580420Y-98228790D01*
X166836737Y-98972473D01*
X166829977Y-98984853D01*
X157380000Y-98984853D01*
X157380000Y-97831863D01*
X166228050Y-97831863D01*
X166240309Y-98044477D01*
X166241745Y-98054697D01*
X166288565Y-98262446D01*
X166291645Y-98272275D01*
X166371770Y-98469603D01*
X166376413Y-98478794D01*
X166456460Y-98609420D01*
X166466916Y-98618880D01*
X166475694Y-98615096D01*
X167217978Y-97872812D01*
X167225592Y-97858868D01*
X167225461Y-97857035D01*
X167221210Y-97850420D01*
X166479849Y-97109059D01*
X166468313Y-97102759D01*
X166456031Y-97112382D01*
X166408089Y-97182662D01*
X166403004Y-97191613D01*
X166313338Y-97384783D01*
X166309775Y-97394470D01*
X166252864Y-97599681D01*
X166250933Y-97609800D01*
X166228302Y-97821574D01*
X166228050Y-97831863D01*
X157380000Y-97831863D01*
X157380000Y-95383125D01*
X157400002Y-95315004D01*
X157453658Y-95268511D01*
X157505319Y-95257127D01*
X159699436Y-95245283D01*
X166306213Y-95209618D01*
X166374441Y-95229252D01*
X166421222Y-95282656D01*
X166432623Y-95327375D01*
X166444036Y-95501503D01*
X166496301Y-95707299D01*
X166585195Y-95900124D01*
X166707740Y-96073521D01*
X166859832Y-96221683D01*
X166864628Y-96224888D01*
X166864631Y-96224890D01*
X166935886Y-96272501D01*
X167036377Y-96339647D01*
X167041680Y-96341926D01*
X167041685Y-96341928D01*
X167069293Y-96353789D01*
X167089862Y-96362626D01*
X167144554Y-96407892D01*
X167166092Y-96475543D01*
X167147635Y-96544099D01*
X167095045Y-96591794D01*
X167079271Y-96598157D01*
X167066873Y-96602210D01*
X167057359Y-96606209D01*
X166868466Y-96704540D01*
X166859734Y-96710039D01*
X166839677Y-96725099D01*
X166831223Y-96736427D01*
X166837968Y-96748758D01*
X167577188Y-97487978D01*
X167591132Y-97495592D01*
X167592965Y-97495461D01*
X167599580Y-97491210D01*
X168343389Y-96747401D01*
X168350410Y-96734544D01*
X168343611Y-96725213D01*
X168339554Y-96722518D01*
X168153117Y-96619599D01*
X168143704Y-96615368D01*
X168098197Y-96599253D01*
X168040660Y-96557658D01*
X168014745Y-96491560D01*
X168028679Y-96421945D01*
X168078690Y-96370546D01*
X168247172Y-96276192D01*
X168410420Y-96140420D01*
X168546192Y-95977172D01*
X168649940Y-95791916D01*
X168718191Y-95590855D01*
X168719019Y-95585146D01*
X168719020Y-95585141D01*
X168730334Y-95507105D01*
X168733287Y-95486738D01*
X168762857Y-95422193D01*
X168822628Y-95383881D01*
X168893625Y-95383965D01*
X168953305Y-95422420D01*
X168982722Y-95487036D01*
X168983565Y-95495147D01*
X168983658Y-95495733D01*
X168984036Y-95501503D01*
X169036301Y-95707299D01*
X169125195Y-95900124D01*
X169247740Y-96073521D01*
X169399832Y-96221683D01*
X169404628Y-96224888D01*
X169404631Y-96224890D01*
X169475886Y-96272501D01*
X169576377Y-96339647D01*
X169581685Y-96341928D01*
X169581686Y-96341928D01*
X169766160Y-96421184D01*
X169766163Y-96421185D01*
X169771463Y-96423462D01*
X169777092Y-96424736D01*
X169777093Y-96424736D01*
X169972087Y-96468859D01*
X170034114Y-96503402D01*
X170067618Y-96565996D01*
X170061964Y-96636767D01*
X170018945Y-96693246D01*
X169965617Y-96715932D01*
X169835395Y-96738308D01*
X169835392Y-96738309D01*
X169829705Y-96739286D01*
X169630500Y-96812776D01*
X169448023Y-96921339D01*
X169288385Y-97061337D01*
X169284818Y-97065862D01*
X169284813Y-97065867D01*
X169162663Y-97220814D01*
X169156933Y-97228083D01*
X169154245Y-97233192D01*
X169081702Y-97371074D01*
X169032282Y-97422047D01*
X168963150Y-97438210D01*
X168896254Y-97414431D01*
X168854643Y-97362649D01*
X168792972Y-97220814D01*
X168788105Y-97211739D01*
X168723063Y-97111197D01*
X168712377Y-97101995D01*
X168702812Y-97106398D01*
X167962022Y-97847188D01*
X167954408Y-97861132D01*
X167954539Y-97862965D01*
X167958790Y-97869580D01*
X168700474Y-98611264D01*
X168712484Y-98617823D01*
X168724223Y-98608855D01*
X168755004Y-98566019D01*
X168760315Y-98557180D01*
X168854673Y-98366260D01*
X168855578Y-98363976D01*
X168856191Y-98363191D01*
X168856964Y-98361626D01*
X168857287Y-98361786D01*
X168899253Y-98308003D01*
X168966256Y-98284527D01*
X169035314Y-98301003D01*
X169087155Y-98357609D01*
X169125195Y-98440124D01*
X169247740Y-98613521D01*
X169399832Y-98761683D01*
X169404628Y-98764888D01*
X169404631Y-98764890D01*
X169475886Y-98812501D01*
X169576377Y-98879647D01*
X169581685Y-98881928D01*
X169581686Y-98881928D01*
X169766160Y-98961184D01*
X169766163Y-98961185D01*
X169771463Y-98963462D01*
X169777092Y-98964736D01*
X169777093Y-98964736D01*
X169972087Y-99008859D01*
X170034114Y-99043402D01*
X170067618Y-99105996D01*
X170061964Y-99176767D01*
X170018945Y-99233246D01*
X169965617Y-99255932D01*
X169835395Y-99278308D01*
X169835392Y-99278309D01*
X169829705Y-99279286D01*
X169630500Y-99352776D01*
X169501024Y-99429807D01*
X169483543Y-99440207D01*
X169448023Y-99461339D01*
X169288385Y-99601337D01*
X169284818Y-99605862D01*
X169284813Y-99605867D01*
X169162663Y-99760814D01*
X169156933Y-99768083D01*
X169154245Y-99773192D01*
X169081702Y-99911074D01*
X169032282Y-99962047D01*
X168963150Y-99978210D01*
X168896254Y-99954431D01*
X168854643Y-99902649D01*
X168792972Y-99760814D01*
X168788105Y-99751739D01*
X168723063Y-99651197D01*
X168712377Y-99641995D01*
X168702812Y-99646398D01*
X167962022Y-100387188D01*
X167954408Y-100401132D01*
X167954539Y-100402965D01*
X167958790Y-100409580D01*
X168700474Y-101151264D01*
X168712484Y-101157823D01*
X168724223Y-101148855D01*
X168755004Y-101106019D01*
X168760315Y-101097180D01*
X168854673Y-100906260D01*
X168855578Y-100903976D01*
X168856191Y-100903191D01*
X168856964Y-100901626D01*
X168857287Y-100901786D01*
X168899253Y-100848003D01*
X168966256Y-100824527D01*
X169035314Y-100841003D01*
X169087155Y-100897609D01*
X169125195Y-100980124D01*
X169247740Y-101153521D01*
X169399832Y-101301683D01*
X169404628Y-101304888D01*
X169404631Y-101304890D01*
X169509780Y-101375148D01*
X169576377Y-101419647D01*
X169581685Y-101421928D01*
X169581686Y-101421928D01*
X169766160Y-101501184D01*
X169766163Y-101501185D01*
X169771463Y-101503462D01*
X169777092Y-101504736D01*
X169777093Y-101504736D01*
X169972087Y-101548859D01*
X170034114Y-101583402D01*
X170067618Y-101645996D01*
X170061964Y-101716767D01*
X170018945Y-101773246D01*
X169965617Y-101795932D01*
X169835395Y-101818308D01*
X169835392Y-101818309D01*
X169829705Y-101819286D01*
X169630500Y-101892776D01*
X169448023Y-102001339D01*
X169288385Y-102141337D01*
X169284818Y-102145862D01*
X169284813Y-102145867D01*
X169162663Y-102300814D01*
X169156933Y-102308083D01*
X169154245Y-102313192D01*
X169081702Y-102451074D01*
X169032282Y-102502047D01*
X168963150Y-102518210D01*
X168896254Y-102494431D01*
X168854643Y-102442649D01*
X168792972Y-102300814D01*
X168788105Y-102291739D01*
X168723063Y-102191197D01*
X168712377Y-102181995D01*
X168702812Y-102186398D01*
X167962022Y-102927188D01*
X167954408Y-102941132D01*
X167954539Y-102942965D01*
X167958790Y-102949580D01*
X168700474Y-103691264D01*
X168712484Y-103697823D01*
X168724223Y-103688855D01*
X168755004Y-103646019D01*
X168760315Y-103637180D01*
X168854673Y-103446260D01*
X168855578Y-103443976D01*
X168856191Y-103443191D01*
X168856964Y-103441626D01*
X168857287Y-103441786D01*
X168899253Y-103388003D01*
X168966256Y-103364527D01*
X169035314Y-103381003D01*
X169087155Y-103437609D01*
X169125195Y-103520124D01*
X169247740Y-103693521D01*
X169399832Y-103841683D01*
X169404628Y-103844888D01*
X169404631Y-103844890D01*
X169475886Y-103892501D01*
X169576377Y-103959647D01*
X169581685Y-103961928D01*
X169581686Y-103961928D01*
X169766160Y-104041184D01*
X169766163Y-104041185D01*
X169771463Y-104043462D01*
X169777092Y-104044736D01*
X169777093Y-104044736D01*
X169972087Y-104088859D01*
X170034114Y-104123402D01*
X170067618Y-104185996D01*
X170061964Y-104256767D01*
X170018945Y-104313246D01*
X169965617Y-104335932D01*
X169835395Y-104358308D01*
X169835392Y-104358309D01*
X169829705Y-104359286D01*
X169630500Y-104432776D01*
X169448023Y-104541339D01*
X169288385Y-104681337D01*
X169284818Y-104685862D01*
X169284813Y-104685867D01*
X169162663Y-104840814D01*
X169156933Y-104848083D01*
X169154245Y-104853192D01*
X169081702Y-104991074D01*
X169032282Y-105042047D01*
X168963150Y-105058210D01*
X168896254Y-105034431D01*
X168854643Y-104982649D01*
X168792972Y-104840814D01*
X168788105Y-104831739D01*
X168723063Y-104731197D01*
X168712377Y-104721995D01*
X168702812Y-104726398D01*
X167962022Y-105467188D01*
X167954408Y-105481132D01*
X167954539Y-105482965D01*
X167958790Y-105489580D01*
X168700474Y-106231264D01*
X168712484Y-106237823D01*
X168724223Y-106228855D01*
X168755004Y-106186019D01*
X168760315Y-106177180D01*
X168854673Y-105986260D01*
X168855578Y-105983976D01*
X168856191Y-105983191D01*
X168856964Y-105981626D01*
X168857287Y-105981786D01*
X168899253Y-105928003D01*
X168966256Y-105904527D01*
X169035314Y-105921003D01*
X169087155Y-105977609D01*
X169125195Y-106060124D01*
X169247740Y-106233521D01*
X169399832Y-106381683D01*
X169404628Y-106384888D01*
X169404631Y-106384890D01*
X169475886Y-106432501D01*
X169576377Y-106499647D01*
X169581685Y-106501928D01*
X169581686Y-106501928D01*
X169766160Y-106581184D01*
X169766163Y-106581185D01*
X169771463Y-106583462D01*
X169777092Y-106584736D01*
X169777093Y-106584736D01*
X169972087Y-106628859D01*
X170034114Y-106663402D01*
X170067618Y-106725996D01*
X170061964Y-106796767D01*
X170018945Y-106853246D01*
X169965617Y-106875932D01*
X169835395Y-106898308D01*
X169835392Y-106898309D01*
X169829705Y-106899286D01*
X169630500Y-106972776D01*
X169448023Y-107081339D01*
X169288385Y-107221337D01*
X169284818Y-107225862D01*
X169284813Y-107225867D01*
X169162663Y-107380814D01*
X169156933Y-107388083D01*
X169154245Y-107393192D01*
X169081702Y-107531074D01*
X169032282Y-107582047D01*
X168963150Y-107598210D01*
X168896254Y-107574431D01*
X168854643Y-107522649D01*
X168792972Y-107380814D01*
X168788105Y-107371739D01*
X168723063Y-107271197D01*
X168712377Y-107261995D01*
X168702812Y-107266398D01*
X167962022Y-108007188D01*
X167954408Y-108021132D01*
X167954539Y-108022965D01*
X167958790Y-108029580D01*
X168700474Y-108771264D01*
X168712484Y-108777823D01*
X168724223Y-108768855D01*
X168755004Y-108726019D01*
X168760315Y-108717180D01*
X168854673Y-108526260D01*
X168855578Y-108523976D01*
X168856191Y-108523191D01*
X168856964Y-108521626D01*
X168857287Y-108521786D01*
X168899253Y-108468003D01*
X168966256Y-108444527D01*
X169035314Y-108461003D01*
X169087155Y-108517609D01*
X169125195Y-108600124D01*
X169247740Y-108773521D01*
X169399832Y-108921683D01*
X169404628Y-108924888D01*
X169404631Y-108924890D01*
X169475886Y-108972501D01*
X169576377Y-109039647D01*
X169581685Y-109041928D01*
X169581686Y-109041928D01*
X169766160Y-109121184D01*
X169766163Y-109121185D01*
X169771463Y-109123462D01*
X169777092Y-109124736D01*
X169777093Y-109124736D01*
X169972087Y-109168859D01*
X170034114Y-109203402D01*
X170067618Y-109265996D01*
X170061964Y-109336767D01*
X170018945Y-109393246D01*
X169965617Y-109415932D01*
X169835395Y-109438308D01*
X169835392Y-109438309D01*
X169829705Y-109439286D01*
X169630500Y-109512776D01*
X169448023Y-109621339D01*
X169288385Y-109761337D01*
X169284818Y-109765862D01*
X169284813Y-109765867D01*
X169162663Y-109920814D01*
X169156933Y-109928083D01*
X169154245Y-109933192D01*
X169081702Y-110071074D01*
X169032282Y-110122047D01*
X168963150Y-110138210D01*
X168896254Y-110114431D01*
X168854643Y-110062649D01*
X168792972Y-109920814D01*
X168788105Y-109911739D01*
X168723063Y-109811197D01*
X168712377Y-109801995D01*
X168702812Y-109806398D01*
X167962022Y-110547188D01*
X167954408Y-110561132D01*
X167954539Y-110562965D01*
X167958790Y-110569580D01*
X168700474Y-111311264D01*
X168712484Y-111317823D01*
X168724223Y-111308855D01*
X168755004Y-111266019D01*
X168760315Y-111257180D01*
X168854673Y-111066260D01*
X168855578Y-111063976D01*
X168856191Y-111063191D01*
X168856964Y-111061626D01*
X168857287Y-111061786D01*
X168899253Y-111008003D01*
X168966256Y-110984527D01*
X169035314Y-111001003D01*
X169087155Y-111057609D01*
X169125195Y-111140124D01*
X169247740Y-111313521D01*
X169399832Y-111461683D01*
X169404628Y-111464888D01*
X169404631Y-111464890D01*
X169475886Y-111512501D01*
X169576377Y-111579647D01*
X169581685Y-111581928D01*
X169581686Y-111581928D01*
X169766160Y-111661184D01*
X169766163Y-111661185D01*
X169771463Y-111663462D01*
X169777092Y-111664736D01*
X169777093Y-111664736D01*
X169972921Y-111709048D01*
X169972924Y-111709048D01*
X169978557Y-111710323D01*
X169984328Y-111710550D01*
X169984330Y-111710550D01*
X170049086Y-111713094D01*
X170190723Y-111718659D01*
X170295789Y-111703425D01*
X170395141Y-111689020D01*
X170395146Y-111689019D01*
X170400855Y-111688191D01*
X170406319Y-111686336D01*
X170406324Y-111686335D01*
X170596448Y-111621796D01*
X170601916Y-111619940D01*
X170787172Y-111516192D01*
X170950420Y-111380420D01*
X171086192Y-111217172D01*
X171189940Y-111031916D01*
X171218664Y-110947299D01*
X171256335Y-110836324D01*
X171256336Y-110836319D01*
X171258191Y-110830855D01*
X171259019Y-110825146D01*
X171259020Y-110825141D01*
X171288126Y-110624397D01*
X171288659Y-110620723D01*
X171290249Y-110560000D01*
X171270821Y-110348561D01*
X171213186Y-110144204D01*
X171119275Y-109953772D01*
X170992233Y-109783642D01*
X170836315Y-109639513D01*
X170656742Y-109526211D01*
X170623068Y-109512776D01*
X170596096Y-109502015D01*
X170459529Y-109447530D01*
X170453861Y-109446403D01*
X170453859Y-109446402D01*
X170283567Y-109412529D01*
X170220657Y-109379622D01*
X170185525Y-109317927D01*
X170189325Y-109247032D01*
X170230851Y-109189446D01*
X170290066Y-109164255D01*
X170400855Y-109148191D01*
X170406319Y-109146336D01*
X170406324Y-109146335D01*
X170596448Y-109081796D01*
X170601916Y-109079940D01*
X170787172Y-108976192D01*
X170950420Y-108840420D01*
X171086192Y-108677172D01*
X171189940Y-108491916D01*
X171218664Y-108407299D01*
X171256335Y-108296324D01*
X171256336Y-108296319D01*
X171258191Y-108290855D01*
X171259019Y-108285146D01*
X171259020Y-108285141D01*
X171288126Y-108084397D01*
X171288659Y-108080723D01*
X171290249Y-108020000D01*
X171270821Y-107808561D01*
X171213186Y-107604204D01*
X171119275Y-107413772D01*
X171003023Y-107258091D01*
X170995686Y-107248266D01*
X170995685Y-107248265D01*
X170992233Y-107243642D01*
X170836315Y-107099513D01*
X170656742Y-106986211D01*
X170647148Y-106982383D01*
X170497562Y-106922704D01*
X170459529Y-106907530D01*
X170453861Y-106906403D01*
X170453859Y-106906402D01*
X170283567Y-106872529D01*
X170220657Y-106839622D01*
X170185525Y-106777927D01*
X170189325Y-106707032D01*
X170230851Y-106649446D01*
X170290066Y-106624255D01*
X170400855Y-106608191D01*
X170406319Y-106606336D01*
X170406324Y-106606335D01*
X170554240Y-106556124D01*
X170601916Y-106539940D01*
X170787172Y-106436192D01*
X170950420Y-106300420D01*
X171086192Y-106137172D01*
X171189940Y-105951916D01*
X171219890Y-105863687D01*
X183872000Y-105863687D01*
X183872181Y-105868453D01*
X183886321Y-106054347D01*
X183887763Y-106063770D01*
X183944281Y-106307601D01*
X183947137Y-106316714D01*
X184039880Y-106549177D01*
X184044083Y-106557757D01*
X184170923Y-106773518D01*
X184176374Y-106781361D01*
X184334393Y-106975457D01*
X184340966Y-106982383D01*
X184526521Y-107150340D01*
X184534073Y-107156198D01*
X184742902Y-107294157D01*
X184751239Y-107298798D01*
X184978535Y-107403582D01*
X184987489Y-107406912D01*
X185228027Y-107476113D01*
X185237361Y-107478045D01*
X185308034Y-107487162D01*
X185322264Y-107484904D01*
X185326000Y-107471829D01*
X185326000Y-107471578D01*
X185834000Y-107471578D01*
X185837773Y-107484429D01*
X185852870Y-107486349D01*
X186001308Y-107460042D01*
X186010540Y-107457671D01*
X186247556Y-107377215D01*
X186256325Y-107373475D01*
X186478447Y-107258091D01*
X186486547Y-107253069D01*
X186688659Y-107105416D01*
X186695915Y-107099219D01*
X186873356Y-106922704D01*
X186879596Y-106915475D01*
X187028300Y-106714147D01*
X187033370Y-106706066D01*
X187149910Y-106484560D01*
X187153699Y-106475804D01*
X187235395Y-106239212D01*
X187237814Y-106229990D01*
X187282917Y-105983031D01*
X187283853Y-105975025D01*
X187287912Y-105897573D01*
X187288000Y-105894237D01*
X187288000Y-104872115D01*
X187283525Y-104856876D01*
X187282135Y-104855671D01*
X187274452Y-104854000D01*
X185852115Y-104854000D01*
X185836876Y-104858475D01*
X185835671Y-104859865D01*
X185834000Y-104867548D01*
X185834000Y-107471578D01*
X185326000Y-107471578D01*
X185326000Y-104872115D01*
X185321525Y-104856876D01*
X185320135Y-104855671D01*
X185312452Y-104854000D01*
X183890115Y-104854000D01*
X183874876Y-104858475D01*
X183873671Y-104859865D01*
X183872000Y-104867548D01*
X183872000Y-105863687D01*
X171219890Y-105863687D01*
X171256335Y-105756324D01*
X171256336Y-105756319D01*
X171258191Y-105750855D01*
X171259019Y-105745146D01*
X171259020Y-105745141D01*
X171282120Y-105585819D01*
X171288659Y-105540723D01*
X171290249Y-105480000D01*
X171270821Y-105268561D01*
X171213186Y-105064204D01*
X171119275Y-104873772D01*
X170992233Y-104703642D01*
X170978592Y-104691032D01*
X179073328Y-104691032D01*
X179074307Y-104696729D01*
X179074307Y-104696730D01*
X179104729Y-104873772D01*
X179109286Y-104900295D01*
X179182776Y-105099500D01*
X179254277Y-105219681D01*
X179286781Y-105274315D01*
X179291339Y-105281977D01*
X179431337Y-105441615D01*
X179435862Y-105445182D01*
X179435867Y-105445187D01*
X179561715Y-105544397D01*
X179598083Y-105573067D01*
X179603192Y-105575755D01*
X179780880Y-105669241D01*
X179780885Y-105669243D01*
X179785992Y-105671930D01*
X179988771Y-105734895D01*
X180161176Y-105755300D01*
X181983861Y-105755300D01*
X182068671Y-105747507D01*
X182135685Y-105741350D01*
X182135688Y-105741349D01*
X182141439Y-105740821D01*
X182160044Y-105735574D01*
X182340236Y-105684754D01*
X182340235Y-105684754D01*
X182345796Y-105683186D01*
X182536228Y-105589275D01*
X182677605Y-105483704D01*
X182701734Y-105465686D01*
X182701735Y-105465685D01*
X182706358Y-105462233D01*
X182850487Y-105306315D01*
X182963789Y-105126742D01*
X182968238Y-105115592D01*
X183000618Y-105034431D01*
X183042470Y-104929529D01*
X183049417Y-104894605D01*
X183082766Y-104726946D01*
X183082766Y-104726944D01*
X183083893Y-104721279D01*
X183084064Y-104708266D01*
X183086596Y-104514750D01*
X183086672Y-104508968D01*
X183076418Y-104449292D01*
X183055556Y-104327885D01*
X183872000Y-104327885D01*
X183876475Y-104343124D01*
X183877865Y-104344329D01*
X183885548Y-104346000D01*
X185307885Y-104346000D01*
X185323124Y-104341525D01*
X185324329Y-104340135D01*
X185326000Y-104332452D01*
X185326000Y-104327885D01*
X185834000Y-104327885D01*
X185838475Y-104343124D01*
X185839865Y-104344329D01*
X185847548Y-104346000D01*
X187269885Y-104346000D01*
X187285124Y-104341525D01*
X187286329Y-104340135D01*
X187288000Y-104332452D01*
X187288000Y-103336313D01*
X187287819Y-103331547D01*
X187273679Y-103145653D01*
X187272237Y-103136230D01*
X187215719Y-102892399D01*
X187212863Y-102883286D01*
X187120120Y-102650823D01*
X187115917Y-102642243D01*
X186989077Y-102426482D01*
X186983626Y-102418639D01*
X186825607Y-102224543D01*
X186819034Y-102217617D01*
X186633479Y-102049660D01*
X186625927Y-102043802D01*
X186417098Y-101905843D01*
X186408761Y-101901202D01*
X186181465Y-101796418D01*
X186172511Y-101793088D01*
X185931973Y-101723887D01*
X185922639Y-101721955D01*
X185851966Y-101712838D01*
X185837736Y-101715096D01*
X185834000Y-101728171D01*
X185834000Y-104327885D01*
X185326000Y-104327885D01*
X185326000Y-101728422D01*
X185322227Y-101715571D01*
X185307130Y-101713651D01*
X185158692Y-101739958D01*
X185149460Y-101742329D01*
X184912444Y-101822785D01*
X184903675Y-101826525D01*
X184681553Y-101941909D01*
X184673453Y-101946931D01*
X184471341Y-102094584D01*
X184464085Y-102100781D01*
X184286644Y-102277296D01*
X184280404Y-102284525D01*
X184131700Y-102485853D01*
X184126630Y-102493934D01*
X184010090Y-102715440D01*
X184006301Y-102724196D01*
X183924605Y-102960788D01*
X183922186Y-102970010D01*
X183877083Y-103216969D01*
X183876147Y-103224975D01*
X183872088Y-103302427D01*
X183872000Y-103305763D01*
X183872000Y-104327885D01*
X183055556Y-104327885D01*
X183051692Y-104305395D01*
X183051691Y-104305392D01*
X183050714Y-104299705D01*
X182977224Y-104100500D01*
X182868661Y-103918023D01*
X182728663Y-103758385D01*
X182724138Y-103754818D01*
X182724133Y-103754813D01*
X182566451Y-103630507D01*
X182566449Y-103630506D01*
X182561917Y-103626933D01*
X182537679Y-103614181D01*
X182379120Y-103530759D01*
X182379115Y-103530757D01*
X182374008Y-103528070D01*
X182171229Y-103465105D01*
X181998824Y-103444700D01*
X180176139Y-103444700D01*
X180091329Y-103452493D01*
X180024315Y-103458650D01*
X180024312Y-103458651D01*
X180018561Y-103459179D01*
X180013002Y-103460747D01*
X180013001Y-103460747D01*
X179997549Y-103465105D01*
X179814204Y-103516814D01*
X179623772Y-103610725D01*
X179576508Y-103646019D01*
X179507134Y-103697823D01*
X179453642Y-103737767D01*
X179309513Y-103893685D01*
X179196211Y-104073258D01*
X179117530Y-104270471D01*
X179116403Y-104276139D01*
X179116402Y-104276141D01*
X179082574Y-104446211D01*
X179076107Y-104478721D01*
X179076031Y-104484496D01*
X179076031Y-104484500D01*
X179075090Y-104556431D01*
X179073328Y-104691032D01*
X170978592Y-104691032D01*
X170836315Y-104559513D01*
X170656742Y-104446211D01*
X170623068Y-104432776D01*
X170596096Y-104422015D01*
X170459529Y-104367530D01*
X170453861Y-104366403D01*
X170453859Y-104366402D01*
X170283567Y-104332529D01*
X170220657Y-104299622D01*
X170185525Y-104237927D01*
X170189325Y-104167032D01*
X170230851Y-104109446D01*
X170290066Y-104084255D01*
X170400855Y-104068191D01*
X170406319Y-104066336D01*
X170406324Y-104066335D01*
X170596448Y-104001796D01*
X170601916Y-103999940D01*
X170787172Y-103896192D01*
X170950420Y-103760420D01*
X171086192Y-103597172D01*
X171189940Y-103411916D01*
X171218664Y-103327299D01*
X171256335Y-103216324D01*
X171256336Y-103216319D01*
X171258191Y-103210855D01*
X171259019Y-103205146D01*
X171259020Y-103205141D01*
X171288126Y-103004397D01*
X171288659Y-103000723D01*
X171290249Y-102940000D01*
X171270821Y-102728561D01*
X171267121Y-102715440D01*
X171214754Y-102529764D01*
X171213186Y-102524204D01*
X171119275Y-102333772D01*
X170992233Y-102163642D01*
X170836315Y-102019513D01*
X170656742Y-101906211D01*
X170623068Y-101892776D01*
X170596096Y-101882015D01*
X170459529Y-101827530D01*
X170453861Y-101826403D01*
X170453859Y-101826402D01*
X170283567Y-101792529D01*
X170220657Y-101759622D01*
X170185525Y-101697927D01*
X170189325Y-101627032D01*
X170230851Y-101569446D01*
X170290066Y-101544255D01*
X170400855Y-101528191D01*
X170406319Y-101526336D01*
X170406324Y-101526335D01*
X170596448Y-101461796D01*
X170601916Y-101459940D01*
X170787172Y-101356192D01*
X170950420Y-101220420D01*
X171086192Y-101057172D01*
X171189940Y-100871916D01*
X171218664Y-100787299D01*
X171256335Y-100676324D01*
X171256336Y-100676319D01*
X171258191Y-100670855D01*
X171259019Y-100665146D01*
X171259020Y-100665141D01*
X171288126Y-100464397D01*
X171288659Y-100460723D01*
X171290249Y-100400000D01*
X171270821Y-100188561D01*
X171213186Y-99984204D01*
X171119275Y-99793772D01*
X170992233Y-99623642D01*
X170898378Y-99536883D01*
X170840555Y-99483432D01*
X170840552Y-99483430D01*
X170836315Y-99479513D01*
X170656742Y-99366211D01*
X170623068Y-99352776D01*
X170553076Y-99324852D01*
X170459529Y-99287530D01*
X170453861Y-99286403D01*
X170453859Y-99286402D01*
X170283567Y-99252529D01*
X170220657Y-99219622D01*
X170185525Y-99157927D01*
X170189325Y-99087032D01*
X170230851Y-99029446D01*
X170290066Y-99004255D01*
X170400855Y-98988191D01*
X170406319Y-98986336D01*
X170406324Y-98986335D01*
X170554240Y-98936124D01*
X170601916Y-98919940D01*
X170787172Y-98816192D01*
X170950420Y-98680420D01*
X171086192Y-98517172D01*
X171189940Y-98331916D01*
X171218664Y-98247299D01*
X171256335Y-98136324D01*
X171256336Y-98136319D01*
X171258191Y-98130855D01*
X171259019Y-98125146D01*
X171259020Y-98125141D01*
X171288126Y-97924397D01*
X171288659Y-97920723D01*
X171290249Y-97860000D01*
X171270821Y-97648561D01*
X171213186Y-97444204D01*
X171119275Y-97253772D01*
X170992233Y-97083642D01*
X170836315Y-96939513D01*
X170656742Y-96826211D01*
X170642754Y-96820630D01*
X170596096Y-96802015D01*
X170459529Y-96747530D01*
X170453861Y-96746403D01*
X170453859Y-96746402D01*
X170283567Y-96712529D01*
X170220657Y-96679622D01*
X170185525Y-96617927D01*
X170189325Y-96547032D01*
X170230851Y-96489446D01*
X170290066Y-96464255D01*
X170400855Y-96448191D01*
X170406319Y-96446336D01*
X170406324Y-96446335D01*
X170596448Y-96381796D01*
X170601916Y-96379940D01*
X170787172Y-96276192D01*
X170950420Y-96140420D01*
X171086192Y-95977172D01*
X171189940Y-95791916D01*
X171258191Y-95590855D01*
X171259019Y-95585146D01*
X171259020Y-95585141D01*
X171288126Y-95384397D01*
X171288659Y-95380723D01*
X171290249Y-95320000D01*
X171289909Y-95316305D01*
X171289788Y-95312599D01*
X171291597Y-95312540D01*
X171303877Y-95249932D01*
X171353040Y-95198711D01*
X171415000Y-95182039D01*
X177331884Y-95150098D01*
X177331885Y-95150098D01*
X177350000Y-95150000D01*
X178143813Y-92613687D01*
X183872000Y-92613687D01*
X183872181Y-92618453D01*
X183886321Y-92804347D01*
X183887763Y-92813770D01*
X183944281Y-93057601D01*
X183947137Y-93066714D01*
X184039880Y-93299177D01*
X184044083Y-93307757D01*
X184170923Y-93523518D01*
X184176374Y-93531361D01*
X184334393Y-93725457D01*
X184340966Y-93732383D01*
X184526521Y-93900340D01*
X184534073Y-93906198D01*
X184742902Y-94044157D01*
X184751239Y-94048798D01*
X184978535Y-94153582D01*
X184987489Y-94156912D01*
X185228027Y-94226113D01*
X185237361Y-94228045D01*
X185308034Y-94237162D01*
X185322264Y-94234904D01*
X185326000Y-94221829D01*
X185326000Y-94221578D01*
X185834000Y-94221578D01*
X185837773Y-94234429D01*
X185852870Y-94236349D01*
X186001308Y-94210042D01*
X186010540Y-94207671D01*
X186247556Y-94127215D01*
X186256325Y-94123475D01*
X186478447Y-94008091D01*
X186486547Y-94003069D01*
X186688659Y-93855416D01*
X186695915Y-93849219D01*
X186873356Y-93672704D01*
X186879596Y-93665475D01*
X187028300Y-93464147D01*
X187033370Y-93456066D01*
X187149910Y-93234560D01*
X187153699Y-93225804D01*
X187235395Y-92989212D01*
X187237814Y-92979990D01*
X187282917Y-92733031D01*
X187283853Y-92725025D01*
X187287912Y-92647573D01*
X187288000Y-92644237D01*
X187288000Y-91622115D01*
X187283525Y-91606876D01*
X187282135Y-91605671D01*
X187274452Y-91604000D01*
X185852115Y-91604000D01*
X185836876Y-91608475D01*
X185835671Y-91609865D01*
X185834000Y-91617548D01*
X185834000Y-94221578D01*
X185326000Y-94221578D01*
X185326000Y-91622115D01*
X185321525Y-91606876D01*
X185320135Y-91605671D01*
X185312452Y-91604000D01*
X183890115Y-91604000D01*
X183874876Y-91608475D01*
X183873671Y-91609865D01*
X183872000Y-91617548D01*
X183872000Y-92613687D01*
X178143813Y-92613687D01*
X178510830Y-91441032D01*
X179073328Y-91441032D01*
X179074307Y-91446729D01*
X179074307Y-91446730D01*
X179105130Y-91626107D01*
X179109286Y-91650295D01*
X179182776Y-91849500D01*
X179291339Y-92031977D01*
X179431337Y-92191615D01*
X179435862Y-92195182D01*
X179435867Y-92195187D01*
X179548080Y-92283648D01*
X179598083Y-92323067D01*
X179603192Y-92325755D01*
X179780880Y-92419241D01*
X179780885Y-92419243D01*
X179785992Y-92421930D01*
X179988771Y-92484895D01*
X180161176Y-92505300D01*
X181983861Y-92505300D01*
X182068671Y-92497507D01*
X182135685Y-92491350D01*
X182135688Y-92491349D01*
X182141439Y-92490821D01*
X182160044Y-92485574D01*
X182340236Y-92434754D01*
X182340235Y-92434754D01*
X182345796Y-92433186D01*
X182536228Y-92339275D01*
X182706358Y-92212233D01*
X182850487Y-92056315D01*
X182963789Y-91876742D01*
X183042470Y-91679529D01*
X183056327Y-91609865D01*
X183082766Y-91476946D01*
X183082766Y-91476944D01*
X183083893Y-91471279D01*
X183084215Y-91446730D01*
X183086596Y-91264750D01*
X183086672Y-91258968D01*
X183064675Y-91130952D01*
X183055556Y-91077885D01*
X183872000Y-91077885D01*
X183876475Y-91093124D01*
X183877865Y-91094329D01*
X183885548Y-91096000D01*
X185307885Y-91096000D01*
X185323124Y-91091525D01*
X185324329Y-91090135D01*
X185326000Y-91082452D01*
X185326000Y-91077885D01*
X185834000Y-91077885D01*
X185838475Y-91093124D01*
X185839865Y-91094329D01*
X185847548Y-91096000D01*
X187269885Y-91096000D01*
X187285124Y-91091525D01*
X187286329Y-91090135D01*
X187288000Y-91082452D01*
X187288000Y-90086313D01*
X187287819Y-90081547D01*
X187273679Y-89895653D01*
X187272237Y-89886230D01*
X187215719Y-89642399D01*
X187212863Y-89633286D01*
X187120120Y-89400823D01*
X187115917Y-89392243D01*
X186989077Y-89176482D01*
X186983626Y-89168639D01*
X186825607Y-88974543D01*
X186819034Y-88967617D01*
X186633479Y-88799660D01*
X186625927Y-88793802D01*
X186417098Y-88655843D01*
X186408761Y-88651202D01*
X186181465Y-88546418D01*
X186172511Y-88543088D01*
X185931973Y-88473887D01*
X185922639Y-88471955D01*
X185851966Y-88462838D01*
X185837736Y-88465096D01*
X185834000Y-88478171D01*
X185834000Y-91077885D01*
X185326000Y-91077885D01*
X185326000Y-88478422D01*
X185322227Y-88465571D01*
X185307130Y-88463651D01*
X185158692Y-88489958D01*
X185149460Y-88492329D01*
X184912444Y-88572785D01*
X184903675Y-88576525D01*
X184681553Y-88691909D01*
X184673453Y-88696931D01*
X184471341Y-88844584D01*
X184464085Y-88850781D01*
X184286644Y-89027296D01*
X184280404Y-89034525D01*
X184131700Y-89235853D01*
X184126630Y-89243934D01*
X184010090Y-89465440D01*
X184006301Y-89474196D01*
X183924605Y-89710788D01*
X183922186Y-89720010D01*
X183877083Y-89966969D01*
X183876147Y-89974975D01*
X183872088Y-90052427D01*
X183872000Y-90055763D01*
X183872000Y-91077885D01*
X183055556Y-91077885D01*
X183051692Y-91055395D01*
X183051691Y-91055392D01*
X183050714Y-91049705D01*
X182977224Y-90850500D01*
X182868661Y-90668023D01*
X182728663Y-90508385D01*
X182724138Y-90504818D01*
X182724133Y-90504813D01*
X182566451Y-90380507D01*
X182566449Y-90380506D01*
X182561917Y-90376933D01*
X182537679Y-90364181D01*
X182379120Y-90280759D01*
X182379115Y-90280757D01*
X182374008Y-90278070D01*
X182171229Y-90215105D01*
X181998824Y-90194700D01*
X180176139Y-90194700D01*
X180091329Y-90202493D01*
X180024315Y-90208650D01*
X180024312Y-90208651D01*
X180018561Y-90209179D01*
X180013002Y-90210747D01*
X180013001Y-90210747D01*
X179997549Y-90215105D01*
X179814204Y-90266814D01*
X179623772Y-90360725D01*
X179453642Y-90487767D01*
X179309513Y-90643685D01*
X179196211Y-90823258D01*
X179117530Y-91020471D01*
X179116403Y-91026139D01*
X179116402Y-91026141D01*
X179102507Y-91096000D01*
X179076107Y-91228721D01*
X179076031Y-91234496D01*
X179076031Y-91234500D01*
X179075711Y-91258968D01*
X179073328Y-91441032D01*
X178510830Y-91441032D01*
X180170450Y-86138382D01*
X180209886Y-86079345D01*
X180274979Y-86051001D01*
X180290439Y-86050017D01*
X187353283Y-86035492D01*
X187421445Y-86055354D01*
G37*
%TD.AperFunction*%
%TD*%
%TA.AperFunction,Conductor*%
%TO.N,GND*%
G36*
X189090613Y-63414254D02*
G01*
X189474113Y-63414598D01*
X189542216Y-63434661D01*
X189588661Y-63488359D01*
X189600000Y-63540598D01*
X189600000Y-66192372D01*
X189579998Y-66260493D01*
X189526342Y-66306986D01*
X189456068Y-66317090D01*
X189391488Y-66287596D01*
X189352731Y-66226574D01*
X189331633Y-66151767D01*
X189331632Y-66151765D01*
X189330065Y-66146208D01*
X189326641Y-66139263D01*
X189234645Y-65952715D01*
X189232090Y-65947534D01*
X189099550Y-65770041D01*
X188983116Y-65662410D01*
X188941124Y-65623593D01*
X188941121Y-65623591D01*
X188936884Y-65619674D01*
X188875627Y-65581024D01*
X188754423Y-65504550D01*
X188754418Y-65504548D01*
X188749539Y-65501469D01*
X188543790Y-65419383D01*
X188538130Y-65418257D01*
X188538126Y-65418256D01*
X188332196Y-65377294D01*
X188332191Y-65377294D01*
X188326528Y-65376167D01*
X188320753Y-65376091D01*
X188320749Y-65376091D01*
X188211551Y-65374662D01*
X188105028Y-65373267D01*
X187886709Y-65410782D01*
X187678882Y-65487453D01*
X187673921Y-65490405D01*
X187673920Y-65490405D01*
X187493475Y-65597758D01*
X187493472Y-65597760D01*
X187488507Y-65600714D01*
X187321960Y-65746772D01*
X187184819Y-65920734D01*
X187182128Y-65925850D01*
X187182126Y-65925852D01*
X187116152Y-66051248D01*
X187081677Y-66116775D01*
X187015988Y-66328330D01*
X187015309Y-66334067D01*
X186999199Y-66470181D01*
X186994700Y-66508190D01*
X186994700Y-67636200D01*
X187004510Y-67742965D01*
X187009259Y-67794649D01*
X186995574Y-67864314D01*
X186946398Y-67915522D01*
X186877343Y-67932013D01*
X186810335Y-67908553D01*
X186782830Y-67881567D01*
X186774397Y-67870273D01*
X186699550Y-67770041D01*
X186571649Y-67651810D01*
X186541124Y-67623593D01*
X186541121Y-67623591D01*
X186536884Y-67619674D01*
X186487886Y-67588759D01*
X186354423Y-67504550D01*
X186354418Y-67504548D01*
X186349539Y-67501469D01*
X186143790Y-67419383D01*
X186138130Y-67418257D01*
X186138126Y-67418256D01*
X185932196Y-67377294D01*
X185932191Y-67377294D01*
X185926528Y-67376167D01*
X185920753Y-67376091D01*
X185920749Y-67376091D01*
X185811551Y-67374662D01*
X185705028Y-67373267D01*
X185486709Y-67410782D01*
X185278882Y-67487453D01*
X185273921Y-67490405D01*
X185273920Y-67490405D01*
X185093475Y-67597758D01*
X185093472Y-67597760D01*
X185088507Y-67600714D01*
X184921960Y-67746772D01*
X184784819Y-67920734D01*
X184782128Y-67925850D01*
X184782126Y-67925852D01*
X184684369Y-68111658D01*
X184681677Y-68116775D01*
X184679964Y-68122292D01*
X184621853Y-68309443D01*
X184615988Y-68328330D01*
X184615309Y-68334067D01*
X184595888Y-68498154D01*
X184594700Y-68508190D01*
X184594700Y-69636200D01*
X184609805Y-69800590D01*
X184611373Y-69806149D01*
X184611373Y-69806150D01*
X184626407Y-69859454D01*
X184669935Y-70013792D01*
X184672487Y-70018968D01*
X184672489Y-70018972D01*
X184686973Y-70048342D01*
X184767910Y-70212466D01*
X184900450Y-70389959D01*
X184929741Y-70417035D01*
X185038645Y-70517705D01*
X185063116Y-70540326D01*
X185112114Y-70571241D01*
X185245577Y-70655450D01*
X185245582Y-70655452D01*
X185250461Y-70658531D01*
X185456210Y-70740617D01*
X185461870Y-70741743D01*
X185461874Y-70741744D01*
X185667804Y-70782706D01*
X185667809Y-70782706D01*
X185673472Y-70783833D01*
X185679247Y-70783909D01*
X185679251Y-70783909D01*
X185788449Y-70785338D01*
X185894972Y-70786733D01*
X186113291Y-70749218D01*
X186321118Y-70672547D01*
X186375689Y-70640081D01*
X186506525Y-70562242D01*
X186506528Y-70562240D01*
X186511493Y-70559286D01*
X186678040Y-70413228D01*
X186815181Y-70239266D01*
X186918323Y-70043225D01*
X186984012Y-69831670D01*
X186989418Y-69785998D01*
X187004864Y-69655497D01*
X187004864Y-69655490D01*
X187005300Y-69651810D01*
X187005300Y-68523800D01*
X186990741Y-68365351D01*
X187004426Y-68295686D01*
X187053602Y-68244478D01*
X187122657Y-68227987D01*
X187189665Y-68251447D01*
X187217169Y-68278432D01*
X187300450Y-68389959D01*
X187329741Y-68417035D01*
X187457995Y-68535592D01*
X187463116Y-68540326D01*
X187493166Y-68559286D01*
X187645577Y-68655450D01*
X187645582Y-68655452D01*
X187650461Y-68658531D01*
X187856210Y-68740617D01*
X187861870Y-68741743D01*
X187861874Y-68741744D01*
X188067804Y-68782706D01*
X188067809Y-68782706D01*
X188073472Y-68783833D01*
X188079247Y-68783909D01*
X188079251Y-68783909D01*
X188188449Y-68785338D01*
X188294972Y-68786733D01*
X188513291Y-68749218D01*
X188721118Y-68672547D01*
X188726080Y-68669595D01*
X188906525Y-68562242D01*
X188906528Y-68562240D01*
X188911493Y-68559286D01*
X189078040Y-68413228D01*
X189215181Y-68239266D01*
X189232899Y-68205591D01*
X189315631Y-68048342D01*
X189315632Y-68048340D01*
X189318323Y-68043225D01*
X189353667Y-67929398D01*
X189392970Y-67870273D01*
X189458000Y-67841782D01*
X189528109Y-67852972D01*
X189581039Y-67900289D01*
X189600000Y-67966762D01*
X189600000Y-76835493D01*
X189579998Y-76903614D01*
X189526342Y-76950107D01*
X189456068Y-76960211D01*
X189391488Y-76930717D01*
X189369480Y-76905860D01*
X189304253Y-76808976D01*
X189297594Y-76800693D01*
X189140029Y-76635522D01*
X189132058Y-76628470D01*
X188948918Y-76492210D01*
X188939881Y-76486606D01*
X188736394Y-76383149D01*
X188726541Y-76379148D01*
X188508539Y-76311456D01*
X188498152Y-76309172D01*
X188471957Y-76305700D01*
X188457793Y-76307896D01*
X188454000Y-76321081D01*
X188454000Y-80057282D01*
X188457973Y-80070813D01*
X188468580Y-80072338D01*
X188600840Y-80044587D01*
X188611037Y-80041527D01*
X188823340Y-79957685D01*
X188832876Y-79952951D01*
X189028025Y-79834532D01*
X189036618Y-79828266D01*
X189209027Y-79678658D01*
X189216447Y-79671028D01*
X189361178Y-79494515D01*
X189370159Y-79481447D01*
X189425227Y-79436636D01*
X189495780Y-79428710D01*
X189559418Y-79460186D01*
X189595936Y-79521070D01*
X189600000Y-79552813D01*
X189600000Y-84979928D01*
X189579998Y-85048049D01*
X189526342Y-85094542D01*
X189473870Y-85105928D01*
X179372933Y-85095341D01*
X179368933Y-85107732D01*
X178982684Y-86304254D01*
X177446156Y-91064111D01*
X177439791Y-91083827D01*
X177399830Y-91142509D01*
X177334486Y-91170271D01*
X177264506Y-91158298D01*
X177252659Y-91151688D01*
X177203945Y-91120952D01*
X177015267Y-91045677D01*
X176816030Y-91006046D01*
X176810255Y-91005970D01*
X176810251Y-91005970D01*
X176708762Y-91004642D01*
X176612908Y-91003387D01*
X176607211Y-91004366D01*
X176607210Y-91004366D01*
X176418399Y-91036810D01*
X176412702Y-91037789D01*
X176222118Y-91108099D01*
X176217157Y-91111051D01*
X176217156Y-91111051D01*
X176074047Y-91196192D01*
X176047538Y-91211963D01*
X175894809Y-91345902D01*
X175769046Y-91505432D01*
X175766357Y-91510543D01*
X175766355Y-91510546D01*
X175748130Y-91545187D01*
X175674461Y-91685208D01*
X175614222Y-91879211D01*
X175590345Y-92080943D01*
X175603631Y-92283648D01*
X175605052Y-92289244D01*
X175605053Y-92289249D01*
X175641609Y-92433186D01*
X175653635Y-92480537D01*
X175656052Y-92485780D01*
X175676345Y-92529800D01*
X175738681Y-92665017D01*
X175855923Y-92830910D01*
X176001432Y-92972659D01*
X176006228Y-92975864D01*
X176006231Y-92975866D01*
X176079480Y-93024809D01*
X176170337Y-93085518D01*
X176175640Y-93087796D01*
X176175643Y-93087798D01*
X176331144Y-93154606D01*
X176356980Y-93165706D01*
X176406809Y-93176981D01*
X176549474Y-93209263D01*
X176549479Y-93209264D01*
X176555111Y-93210538D01*
X176560882Y-93210765D01*
X176560884Y-93210765D01*
X176568817Y-93211077D01*
X176584794Y-93211704D01*
X176652076Y-93234365D01*
X176696427Y-93289804D01*
X176703765Y-93360420D01*
X176699756Y-93376306D01*
X176502014Y-93988871D01*
X176478263Y-94062447D01*
X176438302Y-94121129D01*
X176372958Y-94148891D01*
X176357999Y-94149739D01*
X172592435Y-94139077D01*
X170500942Y-94133155D01*
X170432879Y-94112961D01*
X170386539Y-94059174D01*
X170376634Y-93988871D01*
X170406310Y-93924374D01*
X170460798Y-93887843D01*
X170596451Y-93841795D01*
X170596450Y-93841795D01*
X170601916Y-93839940D01*
X170787172Y-93736192D01*
X170798280Y-93726954D01*
X170945982Y-93604111D01*
X170950420Y-93600420D01*
X171086192Y-93437172D01*
X171189940Y-93251916D01*
X171222972Y-93154606D01*
X171256335Y-93056324D01*
X171256336Y-93056319D01*
X171258191Y-93050855D01*
X171259019Y-93045146D01*
X171259020Y-93045141D01*
X171288126Y-92844397D01*
X171288659Y-92840723D01*
X171290249Y-92780000D01*
X171270821Y-92568561D01*
X171213186Y-92364204D01*
X171119275Y-92173772D01*
X170992233Y-92003642D01*
X170893255Y-91912148D01*
X170840555Y-91863432D01*
X170840552Y-91863430D01*
X170836315Y-91859513D01*
X170656742Y-91746211D01*
X170623068Y-91732776D01*
X170596096Y-91722015D01*
X170459529Y-91667530D01*
X170453861Y-91666403D01*
X170453859Y-91666402D01*
X170283567Y-91632529D01*
X170220657Y-91599622D01*
X170185525Y-91537927D01*
X170189325Y-91467032D01*
X170230851Y-91409446D01*
X170290066Y-91384255D01*
X170400855Y-91368191D01*
X170406319Y-91366336D01*
X170406324Y-91366335D01*
X170596448Y-91301796D01*
X170601916Y-91299940D01*
X170787172Y-91196192D01*
X170950420Y-91060420D01*
X171086192Y-90897172D01*
X171177835Y-90733531D01*
X171228572Y-90683869D01*
X171298104Y-90669521D01*
X171364355Y-90695043D01*
X171399583Y-90737012D01*
X171412320Y-90761533D01*
X171414069Y-90765035D01*
X171438414Y-90815733D01*
X171443119Y-90820822D01*
X171446312Y-90826970D01*
X171450442Y-90831807D01*
X171486130Y-90867495D01*
X171489559Y-90871061D01*
X171526655Y-90911191D01*
X171532808Y-90914765D01*
X171538485Y-90919850D01*
X172268146Y-91649511D01*
X172302172Y-91711823D01*
X172299384Y-91775969D01*
X172264222Y-91889211D01*
X172240345Y-92090943D01*
X172253631Y-92293648D01*
X172255052Y-92299244D01*
X172255053Y-92299249D01*
X172299674Y-92474942D01*
X172303635Y-92490537D01*
X172306052Y-92495780D01*
X172337041Y-92563001D01*
X172388681Y-92675017D01*
X172505923Y-92840910D01*
X172651432Y-92982659D01*
X172656228Y-92985864D01*
X172656231Y-92985866D01*
X172753494Y-93050855D01*
X172820337Y-93095518D01*
X172825640Y-93097796D01*
X172825643Y-93097798D01*
X172944331Y-93148790D01*
X173006980Y-93175706D01*
X173067345Y-93189365D01*
X173199474Y-93219263D01*
X173199479Y-93219264D01*
X173205111Y-93220538D01*
X173210882Y-93220765D01*
X173210884Y-93220765D01*
X173269801Y-93223080D01*
X173408095Y-93228514D01*
X173532074Y-93210538D01*
X173603411Y-93200195D01*
X173603415Y-93200194D01*
X173609133Y-93199365D01*
X173614605Y-93197507D01*
X173614607Y-93197507D01*
X173796028Y-93135922D01*
X173796030Y-93135921D01*
X173801492Y-93134067D01*
X173978731Y-93034809D01*
X174134913Y-92904913D01*
X174264809Y-92748731D01*
X174364067Y-92571492D01*
X174365922Y-92566028D01*
X174427507Y-92384607D01*
X174427507Y-92384605D01*
X174429365Y-92379133D01*
X174430724Y-92369764D01*
X174453564Y-92212233D01*
X174458514Y-92178095D01*
X174460035Y-92120000D01*
X174441447Y-91917712D01*
X174386307Y-91722199D01*
X174296460Y-91540008D01*
X174174917Y-91377242D01*
X174169146Y-91371907D01*
X174029986Y-91243269D01*
X174029983Y-91243267D01*
X174025746Y-91239350D01*
X173961812Y-91199011D01*
X173858829Y-91134033D01*
X173858824Y-91134031D01*
X173853945Y-91130952D01*
X173665267Y-91055677D01*
X173466030Y-91016046D01*
X173460255Y-91015970D01*
X173460251Y-91015970D01*
X173358762Y-91014642D01*
X173262908Y-91013387D01*
X173257211Y-91014366D01*
X173257210Y-91014366D01*
X173074993Y-91045677D01*
X173062702Y-91047789D01*
X173011596Y-91066643D01*
X172940764Y-91071455D01*
X172878891Y-91037526D01*
X172269205Y-90427840D01*
X172235179Y-90365528D01*
X172232300Y-90338745D01*
X172232300Y-85230344D01*
X172252302Y-85162223D01*
X172305958Y-85115730D01*
X172376232Y-85105626D01*
X172440812Y-85135120D01*
X172461196Y-85157623D01*
X172505923Y-85220910D01*
X172651432Y-85362659D01*
X172656228Y-85365864D01*
X172656231Y-85365866D01*
X172753494Y-85430855D01*
X172820337Y-85475518D01*
X172825640Y-85477796D01*
X172825643Y-85477798D01*
X172944331Y-85528790D01*
X173006980Y-85555706D01*
X173067345Y-85569365D01*
X173199474Y-85599263D01*
X173199479Y-85599264D01*
X173205111Y-85600538D01*
X173210882Y-85600765D01*
X173210884Y-85600765D01*
X173269801Y-85603080D01*
X173408095Y-85608514D01*
X173532074Y-85590538D01*
X173603411Y-85580195D01*
X173603415Y-85580194D01*
X173609133Y-85579365D01*
X173614605Y-85577507D01*
X173614607Y-85577507D01*
X173796028Y-85515922D01*
X173796030Y-85515921D01*
X173801492Y-85514067D01*
X173978731Y-85414809D01*
X174134913Y-85284913D01*
X174264809Y-85128731D01*
X174364067Y-84951492D01*
X174367462Y-84941492D01*
X174427507Y-84764607D01*
X174427507Y-84764605D01*
X174429365Y-84759133D01*
X174435847Y-84714431D01*
X174450645Y-84612367D01*
X174458514Y-84558095D01*
X174460035Y-84500000D01*
X174456446Y-84460943D01*
X175590345Y-84460943D01*
X175603631Y-84663648D01*
X175605052Y-84669244D01*
X175605053Y-84669249D01*
X175637141Y-84795592D01*
X175653635Y-84860537D01*
X175656052Y-84865780D01*
X175676345Y-84909800D01*
X175738681Y-85045017D01*
X175855923Y-85210910D01*
X176001432Y-85352659D01*
X176006228Y-85355864D01*
X176006231Y-85355866D01*
X176088922Y-85411118D01*
X176170337Y-85465518D01*
X176175640Y-85467796D01*
X176175643Y-85467798D01*
X176351673Y-85543426D01*
X176356980Y-85545706D01*
X176406809Y-85556981D01*
X176549474Y-85589263D01*
X176549479Y-85589264D01*
X176555111Y-85590538D01*
X176560882Y-85590765D01*
X176560884Y-85590765D01*
X176619801Y-85593080D01*
X176758095Y-85598514D01*
X176876121Y-85581401D01*
X176953411Y-85570195D01*
X176953415Y-85570194D01*
X176959133Y-85569365D01*
X176964605Y-85567507D01*
X176964607Y-85567507D01*
X177146028Y-85505922D01*
X177146030Y-85505921D01*
X177151492Y-85504067D01*
X177310875Y-85414809D01*
X177323694Y-85407630D01*
X177323695Y-85407629D01*
X177328731Y-85404809D01*
X177484913Y-85274913D01*
X177614809Y-85118731D01*
X177628356Y-85094542D01*
X177705648Y-84956525D01*
X177714067Y-84941492D01*
X177728260Y-84899681D01*
X177777507Y-84754607D01*
X177777507Y-84754605D01*
X177779365Y-84749133D01*
X177783293Y-84722047D01*
X177803125Y-84585264D01*
X177808514Y-84548095D01*
X177810035Y-84490000D01*
X177791447Y-84287712D01*
X177736307Y-84092199D01*
X177646460Y-83910008D01*
X177541059Y-83768859D01*
X177528370Y-83751866D01*
X177528369Y-83751865D01*
X177524917Y-83747242D01*
X177517550Y-83740432D01*
X177379986Y-83613269D01*
X177379983Y-83613267D01*
X177375746Y-83609350D01*
X177236802Y-83521683D01*
X177208829Y-83504033D01*
X177208824Y-83504031D01*
X177203945Y-83500952D01*
X177015267Y-83425677D01*
X176816030Y-83386046D01*
X176810255Y-83385970D01*
X176810251Y-83385970D01*
X176708762Y-83384642D01*
X176612908Y-83383387D01*
X176607211Y-83384366D01*
X176607210Y-83384366D01*
X176418399Y-83416810D01*
X176412702Y-83417789D01*
X176222118Y-83488099D01*
X176217157Y-83491051D01*
X176217156Y-83491051D01*
X176187303Y-83508812D01*
X176047538Y-83591963D01*
X175894809Y-83725902D01*
X175769046Y-83885432D01*
X175766357Y-83890543D01*
X175766355Y-83890546D01*
X175748130Y-83925187D01*
X175674461Y-84065208D01*
X175614222Y-84259211D01*
X175590345Y-84460943D01*
X174456446Y-84460943D01*
X174441447Y-84297712D01*
X174386307Y-84102199D01*
X174296460Y-83920008D01*
X174174917Y-83757242D01*
X174169146Y-83751907D01*
X174029986Y-83623269D01*
X174029983Y-83623267D01*
X174025746Y-83619350D01*
X173977658Y-83589009D01*
X173858829Y-83514033D01*
X173858824Y-83514031D01*
X173853945Y-83510952D01*
X173665267Y-83435677D01*
X173466030Y-83396046D01*
X173460255Y-83395970D01*
X173460251Y-83395970D01*
X173358762Y-83394642D01*
X173262908Y-83393387D01*
X173257211Y-83394366D01*
X173257210Y-83394366D01*
X173074993Y-83425677D01*
X173062702Y-83427789D01*
X172872118Y-83498099D01*
X172867157Y-83501051D01*
X172867156Y-83501051D01*
X172714347Y-83591963D01*
X172697538Y-83601963D01*
X172544809Y-83735902D01*
X172419046Y-83895432D01*
X172416357Y-83900543D01*
X172416355Y-83900546D01*
X172398869Y-83933782D01*
X172349450Y-83984754D01*
X172280317Y-84000917D01*
X172213421Y-83977138D01*
X172173777Y-83929655D01*
X172166922Y-83915380D01*
X172161586Y-83904267D01*
X172156884Y-83899180D01*
X172153689Y-83893030D01*
X172149558Y-83888193D01*
X172113870Y-83852505D01*
X172110441Y-83848939D01*
X172079739Y-83815726D01*
X172073345Y-83808809D01*
X172067192Y-83805235D01*
X172061515Y-83800150D01*
X171286738Y-83025373D01*
X171252712Y-82963061D01*
X171256156Y-82902222D01*
X171254986Y-82901941D01*
X171256335Y-82896322D01*
X171258191Y-82890855D01*
X171259019Y-82885146D01*
X171259020Y-82885141D01*
X171288126Y-82684397D01*
X171288659Y-82680723D01*
X171290249Y-82620000D01*
X171270821Y-82408561D01*
X171213186Y-82204204D01*
X171119275Y-82013772D01*
X170998283Y-81851744D01*
X170995686Y-81848266D01*
X170995685Y-81848265D01*
X170992233Y-81843642D01*
X170897752Y-81756305D01*
X170870316Y-81730943D01*
X172240345Y-81730943D01*
X172253631Y-81933648D01*
X172255052Y-81939244D01*
X172255053Y-81939249D01*
X172276732Y-82024607D01*
X172303635Y-82130537D01*
X172306052Y-82135780D01*
X172335208Y-82199025D01*
X172388681Y-82315017D01*
X172505923Y-82480910D01*
X172510057Y-82484937D01*
X172635551Y-82607188D01*
X172651432Y-82622659D01*
X172656228Y-82625864D01*
X172656231Y-82625866D01*
X172743829Y-82684397D01*
X172820337Y-82735518D01*
X172825640Y-82737796D01*
X172825643Y-82737798D01*
X172980844Y-82804477D01*
X173006980Y-82815706D01*
X173079381Y-82832088D01*
X173199474Y-82859263D01*
X173199479Y-82859264D01*
X173205111Y-82860538D01*
X173210882Y-82860765D01*
X173210884Y-82860765D01*
X173269801Y-82863080D01*
X173408095Y-82868514D01*
X173526121Y-82851401D01*
X173603411Y-82840195D01*
X173603415Y-82840194D01*
X173609133Y-82839365D01*
X173614605Y-82837507D01*
X173614607Y-82837507D01*
X173796028Y-82775922D01*
X173796030Y-82775921D01*
X173801492Y-82774067D01*
X173925714Y-82704500D01*
X173973694Y-82677630D01*
X173973695Y-82677629D01*
X173978731Y-82674809D01*
X174134913Y-82544913D01*
X174243531Y-82414315D01*
X174261118Y-82393169D01*
X174264809Y-82388731D01*
X174364067Y-82211492D01*
X174368576Y-82198210D01*
X174427507Y-82024607D01*
X174427507Y-82024605D01*
X174429365Y-82019133D01*
X174430814Y-82009144D01*
X174447254Y-81895754D01*
X174458514Y-81818095D01*
X174460035Y-81760000D01*
X174441447Y-81557712D01*
X174426264Y-81503875D01*
X174407373Y-81436893D01*
X174386307Y-81362199D01*
X174296460Y-81180008D01*
X174189068Y-81036192D01*
X174178370Y-81021866D01*
X174178369Y-81021865D01*
X174174917Y-81017242D01*
X174152786Y-80996784D01*
X174029986Y-80883269D01*
X174029983Y-80883267D01*
X174025746Y-80879350D01*
X173953111Y-80833521D01*
X173858829Y-80774033D01*
X173858824Y-80774031D01*
X173853945Y-80770952D01*
X173791904Y-80746200D01*
X179094700Y-80746200D01*
X179098210Y-80784396D01*
X179109210Y-80904111D01*
X179109805Y-80910590D01*
X179111373Y-80916149D01*
X179111373Y-80916150D01*
X179163769Y-81101928D01*
X179169935Y-81123792D01*
X179172487Y-81128968D01*
X179172489Y-81128972D01*
X179247923Y-81281937D01*
X179267910Y-81322466D01*
X179271364Y-81327092D01*
X179271365Y-81327093D01*
X179379967Y-81472529D01*
X179400450Y-81499959D01*
X179563116Y-81650326D01*
X179593166Y-81669286D01*
X179745577Y-81765450D01*
X179745582Y-81765452D01*
X179750461Y-81768531D01*
X179956210Y-81850617D01*
X179961870Y-81851743D01*
X179961874Y-81851744D01*
X180167804Y-81892706D01*
X180167809Y-81892706D01*
X180173472Y-81893833D01*
X180179247Y-81893909D01*
X180179251Y-81893909D01*
X180288449Y-81895338D01*
X180394972Y-81896733D01*
X180613291Y-81859218D01*
X180821118Y-81782547D01*
X180907857Y-81730943D01*
X181006525Y-81672242D01*
X181006528Y-81672240D01*
X181011493Y-81669286D01*
X181178040Y-81523228D01*
X181315181Y-81349266D01*
X181322578Y-81335208D01*
X181415631Y-81158342D01*
X181415632Y-81158340D01*
X181418323Y-81153225D01*
X181484012Y-80941670D01*
X181496336Y-80837548D01*
X181504864Y-80765497D01*
X181504864Y-80765490D01*
X181505300Y-80761810D01*
X181505300Y-80746200D01*
X184594700Y-80746200D01*
X184598210Y-80784396D01*
X184609210Y-80904111D01*
X184609805Y-80910590D01*
X184611373Y-80916149D01*
X184611373Y-80916150D01*
X184663769Y-81101928D01*
X184669935Y-81123792D01*
X184672487Y-81128968D01*
X184672489Y-81128972D01*
X184747923Y-81281937D01*
X184767910Y-81322466D01*
X184771364Y-81327092D01*
X184771365Y-81327093D01*
X184879967Y-81472529D01*
X184900450Y-81499959D01*
X185063116Y-81650326D01*
X185093166Y-81669286D01*
X185245577Y-81765450D01*
X185245582Y-81765452D01*
X185250461Y-81768531D01*
X185456210Y-81850617D01*
X185461870Y-81851743D01*
X185461874Y-81851744D01*
X185667804Y-81892706D01*
X185667809Y-81892706D01*
X185673472Y-81893833D01*
X185679247Y-81893909D01*
X185679251Y-81893909D01*
X185788449Y-81895338D01*
X185894972Y-81896733D01*
X186113291Y-81859218D01*
X186321118Y-81782547D01*
X186407857Y-81730943D01*
X186506525Y-81672242D01*
X186506528Y-81672240D01*
X186511493Y-81669286D01*
X186678040Y-81523228D01*
X186815181Y-81349266D01*
X186822578Y-81335208D01*
X186915631Y-81158342D01*
X186915632Y-81158340D01*
X186918323Y-81153225D01*
X186984012Y-80941670D01*
X186996336Y-80837548D01*
X187004864Y-80765497D01*
X187004864Y-80765490D01*
X187005300Y-80761810D01*
X187005300Y-79792138D01*
X187025302Y-79724017D01*
X187078958Y-79677524D01*
X187149232Y-79667420D01*
X187213812Y-79696914D01*
X187222470Y-79705166D01*
X187259977Y-79744483D01*
X187267942Y-79751530D01*
X187451082Y-79887790D01*
X187460119Y-79893394D01*
X187663606Y-79996851D01*
X187673459Y-80000852D01*
X187891461Y-80068544D01*
X187901848Y-80070828D01*
X187928043Y-80074300D01*
X187942207Y-80072104D01*
X187946000Y-80058919D01*
X187946000Y-78462115D01*
X187941525Y-78446876D01*
X187940135Y-78445671D01*
X187932452Y-78444000D01*
X186810115Y-78444000D01*
X186794876Y-78448475D01*
X186793671Y-78449865D01*
X186792000Y-78457548D01*
X186792000Y-78677440D01*
X186771998Y-78745561D01*
X186718342Y-78792054D01*
X186648068Y-78802158D01*
X186580472Y-78769965D01*
X186541130Y-78733598D01*
X186541124Y-78733593D01*
X186536884Y-78729674D01*
X186487886Y-78698759D01*
X186354423Y-78614550D01*
X186354418Y-78614548D01*
X186349539Y-78611469D01*
X186143790Y-78529383D01*
X186138130Y-78528257D01*
X186138126Y-78528256D01*
X185932196Y-78487294D01*
X185932191Y-78487294D01*
X185926528Y-78486167D01*
X185920753Y-78486091D01*
X185920749Y-78486091D01*
X185811551Y-78484662D01*
X185705028Y-78483267D01*
X185486709Y-78520782D01*
X185278882Y-78597453D01*
X185273921Y-78600405D01*
X185273920Y-78600405D01*
X185093475Y-78707758D01*
X185093472Y-78707760D01*
X185088507Y-78710714D01*
X184921960Y-78856772D01*
X184784819Y-79030734D01*
X184782128Y-79035850D01*
X184782126Y-79035852D01*
X184717065Y-79159513D01*
X184681677Y-79226775D01*
X184679964Y-79232292D01*
X184619681Y-79426438D01*
X184615988Y-79438330D01*
X184594700Y-79618190D01*
X184594700Y-80746200D01*
X181505300Y-80746200D01*
X181505300Y-79633800D01*
X181491072Y-79478951D01*
X181490724Y-79475164D01*
X181490723Y-79475161D01*
X181490195Y-79469410D01*
X181483348Y-79445134D01*
X181431633Y-79261767D01*
X181431632Y-79261765D01*
X181430065Y-79256208D01*
X181415551Y-79226775D01*
X181334645Y-79062715D01*
X181332090Y-79057534D01*
X181325936Y-79049292D01*
X181203003Y-78884665D01*
X181203002Y-78884664D01*
X181199550Y-78880041D01*
X181080471Y-78769965D01*
X181041124Y-78733593D01*
X181041121Y-78733591D01*
X181036884Y-78729674D01*
X180987886Y-78698759D01*
X180854423Y-78614550D01*
X180854418Y-78614548D01*
X180849539Y-78611469D01*
X180643790Y-78529383D01*
X180638130Y-78528257D01*
X180638126Y-78528256D01*
X180432196Y-78487294D01*
X180432191Y-78487294D01*
X180426528Y-78486167D01*
X180420753Y-78486091D01*
X180420749Y-78486091D01*
X180311551Y-78484662D01*
X180205028Y-78483267D01*
X179986709Y-78520782D01*
X179778882Y-78597453D01*
X179773921Y-78600405D01*
X179773920Y-78600405D01*
X179593475Y-78707758D01*
X179593472Y-78707760D01*
X179588507Y-78710714D01*
X179421960Y-78856772D01*
X179284819Y-79030734D01*
X179282128Y-79035850D01*
X179282126Y-79035852D01*
X179217065Y-79159513D01*
X179181677Y-79226775D01*
X179179964Y-79232292D01*
X179119681Y-79426438D01*
X179115988Y-79438330D01*
X179094700Y-79618190D01*
X179094700Y-80746200D01*
X173791904Y-80746200D01*
X173665267Y-80695677D01*
X173466030Y-80656046D01*
X173460255Y-80655970D01*
X173460251Y-80655970D01*
X173358762Y-80654642D01*
X173262908Y-80653387D01*
X173257211Y-80654366D01*
X173257210Y-80654366D01*
X173068399Y-80686810D01*
X173062702Y-80687789D01*
X172872118Y-80758099D01*
X172867157Y-80761051D01*
X172867156Y-80761051D01*
X172752598Y-80829206D01*
X172697538Y-80861963D01*
X172544809Y-80995902D01*
X172419046Y-81155432D01*
X172416357Y-81160543D01*
X172416355Y-81160546D01*
X172391288Y-81208191D01*
X172324461Y-81335208D01*
X172264222Y-81529211D01*
X172240345Y-81730943D01*
X170870316Y-81730943D01*
X170840555Y-81703432D01*
X170840552Y-81703430D01*
X170836315Y-81699513D01*
X170656742Y-81586211D01*
X170623068Y-81572776D01*
X170571363Y-81552148D01*
X170459529Y-81507530D01*
X170453861Y-81506403D01*
X170453859Y-81506402D01*
X170283567Y-81472529D01*
X170220657Y-81439622D01*
X170185525Y-81377927D01*
X170189325Y-81307032D01*
X170230851Y-81249446D01*
X170290066Y-81224255D01*
X170400855Y-81208191D01*
X170406319Y-81206336D01*
X170406324Y-81206335D01*
X170562780Y-81153225D01*
X170601916Y-81139940D01*
X170787172Y-81036192D01*
X170950420Y-80900420D01*
X171076279Y-80749091D01*
X171082501Y-80741610D01*
X171086192Y-80737172D01*
X171189940Y-80551916D01*
X171258191Y-80350855D01*
X171259019Y-80345146D01*
X171259020Y-80345141D01*
X171288126Y-80144397D01*
X171288659Y-80140723D01*
X171290249Y-80080000D01*
X171270821Y-79868561D01*
X171258818Y-79826000D01*
X171230055Y-79724017D01*
X171213186Y-79664204D01*
X171199622Y-79636698D01*
X171121829Y-79478951D01*
X171119275Y-79473772D01*
X170992233Y-79303642D01*
X170836315Y-79159513D01*
X170656742Y-79046211D01*
X170630778Y-79035852D01*
X170596096Y-79022015D01*
X170459529Y-78967530D01*
X170453861Y-78966403D01*
X170453859Y-78966402D01*
X170256946Y-78927234D01*
X170256944Y-78927234D01*
X170251279Y-78926107D01*
X170245504Y-78926031D01*
X170245500Y-78926031D01*
X170139283Y-78924641D01*
X170038968Y-78923328D01*
X170033271Y-78924307D01*
X170033270Y-78924307D01*
X169835395Y-78958308D01*
X169835392Y-78958309D01*
X169829705Y-78959286D01*
X169630500Y-79032776D01*
X169448023Y-79141339D01*
X169288385Y-79281337D01*
X169172206Y-79428710D01*
X169166223Y-79436299D01*
X169108342Y-79477412D01*
X169037422Y-79480706D01*
X168975979Y-79445134D01*
X168943522Y-79381992D01*
X168941946Y-79371297D01*
X168937743Y-79330794D01*
X168934851Y-79317400D01*
X168883412Y-79163216D01*
X168877239Y-79150038D01*
X168791937Y-79012193D01*
X168782901Y-79000792D01*
X168668171Y-78886261D01*
X168656760Y-78877249D01*
X168518757Y-78792184D01*
X168505576Y-78786037D01*
X168351290Y-78734862D01*
X168337914Y-78731995D01*
X168243562Y-78722328D01*
X168237145Y-78722000D01*
X167862115Y-78722000D01*
X167846876Y-78726475D01*
X167845671Y-78727865D01*
X167844000Y-78735548D01*
X167844000Y-80208000D01*
X167823998Y-80276121D01*
X167770342Y-80322614D01*
X167718000Y-80334000D01*
X166250116Y-80334000D01*
X166234877Y-80338475D01*
X166233672Y-80339865D01*
X166232001Y-80347548D01*
X166232001Y-80727095D01*
X166232338Y-80733614D01*
X166242257Y-80829206D01*
X166245149Y-80842600D01*
X166296588Y-80996784D01*
X166302761Y-81009962D01*
X166388063Y-81147807D01*
X166397099Y-81159208D01*
X166511829Y-81273739D01*
X166523240Y-81282751D01*
X166661243Y-81367816D01*
X166674424Y-81373963D01*
X166742256Y-81396462D01*
X166800615Y-81436893D01*
X166811502Y-81463100D01*
X166812650Y-81462472D01*
X166837968Y-81508758D01*
X167577188Y-82247978D01*
X167591132Y-82255592D01*
X167592965Y-82255461D01*
X167599580Y-82251210D01*
X168343389Y-81507401D01*
X168365934Y-81466115D01*
X168368318Y-81455155D01*
X168418520Y-81404953D01*
X168439029Y-81396017D01*
X168506784Y-81373412D01*
X168519962Y-81367239D01*
X168657807Y-81281937D01*
X168669208Y-81272901D01*
X168783739Y-81158171D01*
X168792751Y-81146760D01*
X168877816Y-81008757D01*
X168883963Y-80995576D01*
X168935138Y-80841290D01*
X168938005Y-80827915D01*
X168942464Y-80784396D01*
X168969305Y-80718669D01*
X169027420Y-80677887D01*
X169098358Y-80674999D01*
X169159596Y-80710921D01*
X169170704Y-80724518D01*
X169247740Y-80833521D01*
X169399832Y-80981683D01*
X169404628Y-80984888D01*
X169404631Y-80984890D01*
X169459970Y-81021866D01*
X169576377Y-81099647D01*
X169581685Y-81101928D01*
X169581686Y-81101928D01*
X169766160Y-81181184D01*
X169766163Y-81181185D01*
X169771463Y-81183462D01*
X169777092Y-81184736D01*
X169777093Y-81184736D01*
X169972087Y-81228859D01*
X170034114Y-81263402D01*
X170067618Y-81325996D01*
X170061964Y-81396767D01*
X170018945Y-81453246D01*
X169965617Y-81475932D01*
X169835395Y-81498308D01*
X169835392Y-81498309D01*
X169829705Y-81499286D01*
X169630500Y-81572776D01*
X169506738Y-81646407D01*
X169463314Y-81672242D01*
X169448023Y-81681339D01*
X169288385Y-81821337D01*
X169284818Y-81825862D01*
X169284813Y-81825867D01*
X169162663Y-81980814D01*
X169156933Y-81988083D01*
X169154245Y-81993192D01*
X169081702Y-82131074D01*
X169032282Y-82182047D01*
X168963150Y-82198210D01*
X168896254Y-82174431D01*
X168854643Y-82122649D01*
X168792972Y-81980814D01*
X168788105Y-81971739D01*
X168723063Y-81871197D01*
X168712377Y-81861995D01*
X168702812Y-81866398D01*
X167962022Y-82607188D01*
X167954408Y-82621132D01*
X167954539Y-82622965D01*
X167958790Y-82629580D01*
X168700474Y-83371264D01*
X168712484Y-83377823D01*
X168724223Y-83368855D01*
X168755004Y-83326019D01*
X168760315Y-83317180D01*
X168854673Y-83126260D01*
X168855578Y-83123976D01*
X168856191Y-83123191D01*
X168856964Y-83121626D01*
X168857287Y-83121786D01*
X168899253Y-83068003D01*
X168966256Y-83044527D01*
X169035314Y-83061003D01*
X169087155Y-83117609D01*
X169125195Y-83200124D01*
X169247740Y-83373521D01*
X169303478Y-83427819D01*
X169386620Y-83508812D01*
X169399832Y-83521683D01*
X169404628Y-83524888D01*
X169404631Y-83524890D01*
X169500592Y-83589009D01*
X169576377Y-83639647D01*
X169581685Y-83641928D01*
X169581686Y-83641928D01*
X169766160Y-83721184D01*
X169766163Y-83721185D01*
X169771463Y-83723462D01*
X169777092Y-83724736D01*
X169777093Y-83724736D01*
X169972087Y-83768859D01*
X170034114Y-83803402D01*
X170067618Y-83865996D01*
X170061964Y-83936767D01*
X170018945Y-83993246D01*
X169965617Y-84015932D01*
X169835395Y-84038308D01*
X169835392Y-84038309D01*
X169829705Y-84039286D01*
X169630500Y-84112776D01*
X169448023Y-84221339D01*
X169288385Y-84361337D01*
X169284818Y-84365862D01*
X169284813Y-84365867D01*
X169165557Y-84517143D01*
X169156933Y-84528083D01*
X169154245Y-84533192D01*
X169081702Y-84671074D01*
X169032282Y-84722047D01*
X168963150Y-84738210D01*
X168896254Y-84714431D01*
X168854643Y-84662649D01*
X168792972Y-84520814D01*
X168788105Y-84511739D01*
X168723063Y-84411197D01*
X168712377Y-84401995D01*
X168702812Y-84406398D01*
X167962022Y-85147188D01*
X167954408Y-85161132D01*
X167954539Y-85162965D01*
X167958790Y-85169580D01*
X168700474Y-85911264D01*
X168712484Y-85917823D01*
X168724223Y-85908855D01*
X168755004Y-85866019D01*
X168760315Y-85857180D01*
X168854673Y-85666260D01*
X168855578Y-85663976D01*
X168856191Y-85663191D01*
X168856964Y-85661626D01*
X168857287Y-85661786D01*
X168899253Y-85608003D01*
X168966256Y-85584527D01*
X169035314Y-85601003D01*
X169087155Y-85657609D01*
X169125195Y-85740124D01*
X169247740Y-85913521D01*
X169399832Y-86061683D01*
X169404628Y-86064888D01*
X169404631Y-86064890D01*
X169475886Y-86112501D01*
X169576377Y-86179647D01*
X169581685Y-86181928D01*
X169581686Y-86181928D01*
X169766160Y-86261184D01*
X169766163Y-86261185D01*
X169771463Y-86263462D01*
X169777092Y-86264736D01*
X169777093Y-86264736D01*
X169972087Y-86308859D01*
X170034114Y-86343402D01*
X170067618Y-86405996D01*
X170061964Y-86476767D01*
X170018945Y-86533246D01*
X169965617Y-86555932D01*
X169835395Y-86578308D01*
X169835392Y-86578309D01*
X169829705Y-86579286D01*
X169630500Y-86652776D01*
X169448023Y-86761339D01*
X169288385Y-86901337D01*
X169284818Y-86905862D01*
X169284813Y-86905867D01*
X169165557Y-87057143D01*
X169156933Y-87068083D01*
X169154245Y-87073192D01*
X169081702Y-87211074D01*
X169032282Y-87262047D01*
X168963150Y-87278210D01*
X168896254Y-87254431D01*
X168854643Y-87202649D01*
X168792972Y-87060814D01*
X168788105Y-87051739D01*
X168723063Y-86951197D01*
X168712377Y-86941995D01*
X168702812Y-86946398D01*
X167962022Y-87687188D01*
X167954408Y-87701132D01*
X167954539Y-87702965D01*
X167958790Y-87709580D01*
X168700474Y-88451264D01*
X168712484Y-88457823D01*
X168724223Y-88448855D01*
X168755004Y-88406019D01*
X168760315Y-88397180D01*
X168854673Y-88206260D01*
X168855578Y-88203976D01*
X168856191Y-88203191D01*
X168856964Y-88201626D01*
X168857287Y-88201786D01*
X168899253Y-88148003D01*
X168966256Y-88124527D01*
X169035314Y-88141003D01*
X169087155Y-88197609D01*
X169125195Y-88280124D01*
X169247740Y-88453521D01*
X169399832Y-88601683D01*
X169404628Y-88604888D01*
X169404631Y-88604890D01*
X169458259Y-88640723D01*
X169576377Y-88719647D01*
X169581685Y-88721928D01*
X169581686Y-88721928D01*
X169766160Y-88801184D01*
X169766163Y-88801185D01*
X169771463Y-88803462D01*
X169777092Y-88804736D01*
X169777093Y-88804736D01*
X169972087Y-88848859D01*
X170034114Y-88883402D01*
X170067618Y-88945996D01*
X170061964Y-89016767D01*
X170018945Y-89073246D01*
X169965617Y-89095932D01*
X169835395Y-89118308D01*
X169835392Y-89118309D01*
X169829705Y-89119286D01*
X169630500Y-89192776D01*
X169448023Y-89301339D01*
X169288385Y-89441337D01*
X169284818Y-89445862D01*
X169284813Y-89445867D01*
X169165557Y-89597143D01*
X169156933Y-89608083D01*
X169154245Y-89613192D01*
X169081702Y-89751074D01*
X169032282Y-89802047D01*
X168963150Y-89818210D01*
X168896254Y-89794431D01*
X168854643Y-89742649D01*
X168792972Y-89600814D01*
X168788105Y-89591739D01*
X168723063Y-89491197D01*
X168712377Y-89481995D01*
X168702812Y-89486398D01*
X167962022Y-90227188D01*
X167954408Y-90241132D01*
X167954539Y-90242965D01*
X167958790Y-90249580D01*
X168700474Y-90991264D01*
X168712484Y-90997823D01*
X168724223Y-90988855D01*
X168755004Y-90946019D01*
X168760315Y-90937180D01*
X168854673Y-90746260D01*
X168855578Y-90743976D01*
X168856191Y-90743191D01*
X168856964Y-90741626D01*
X168857287Y-90741786D01*
X168899253Y-90688003D01*
X168966256Y-90664527D01*
X169035314Y-90681003D01*
X169087155Y-90737609D01*
X169125195Y-90820124D01*
X169247740Y-90993521D01*
X169320202Y-91064111D01*
X169386620Y-91128812D01*
X169399832Y-91141683D01*
X169404628Y-91144888D01*
X169404631Y-91144890D01*
X169475886Y-91192501D01*
X169576377Y-91259647D01*
X169581685Y-91261928D01*
X169581686Y-91261928D01*
X169766160Y-91341184D01*
X169766163Y-91341185D01*
X169771463Y-91343462D01*
X169777092Y-91344736D01*
X169777093Y-91344736D01*
X169972087Y-91388859D01*
X170034114Y-91423402D01*
X170067618Y-91485996D01*
X170061964Y-91556767D01*
X170018945Y-91613246D01*
X169965617Y-91635932D01*
X169835395Y-91658308D01*
X169835392Y-91658309D01*
X169829705Y-91659286D01*
X169630500Y-91732776D01*
X169448023Y-91841339D01*
X169288385Y-91981337D01*
X169284818Y-91985862D01*
X169284813Y-91985867D01*
X169162663Y-92140814D01*
X169156933Y-92148083D01*
X169154245Y-92153192D01*
X169081702Y-92291074D01*
X169032282Y-92342047D01*
X168963150Y-92358210D01*
X168896254Y-92334431D01*
X168854643Y-92282649D01*
X168792972Y-92140814D01*
X168788105Y-92131739D01*
X168723063Y-92031197D01*
X168712377Y-92021995D01*
X168702812Y-92026398D01*
X167962022Y-92767188D01*
X167954408Y-92781132D01*
X167954539Y-92782965D01*
X167958790Y-92789580D01*
X168700474Y-93531264D01*
X168712484Y-93537823D01*
X168724223Y-93528855D01*
X168755004Y-93486019D01*
X168760315Y-93477180D01*
X168854673Y-93286260D01*
X168855578Y-93283976D01*
X168856191Y-93283191D01*
X168856964Y-93281626D01*
X168857287Y-93281786D01*
X168899253Y-93228003D01*
X168966256Y-93204527D01*
X169035314Y-93221003D01*
X169087155Y-93277609D01*
X169125195Y-93360124D01*
X169247740Y-93533521D01*
X169399832Y-93681683D01*
X169404628Y-93684888D01*
X169404631Y-93684890D01*
X169475886Y-93732501D01*
X169576377Y-93799647D01*
X169581685Y-93801928D01*
X169581686Y-93801928D01*
X169724090Y-93863109D01*
X169771463Y-93883462D01*
X169777094Y-93884736D01*
X169778417Y-93885166D01*
X169837023Y-93925240D01*
X169864660Y-93990636D01*
X169852553Y-94060593D01*
X169804547Y-94112899D01*
X169739126Y-94130998D01*
X168430330Y-94127292D01*
X168362267Y-94107098D01*
X168315927Y-94053311D01*
X168306022Y-93983008D01*
X168331583Y-93923484D01*
X168347647Y-93903023D01*
X168340660Y-93889870D01*
X167602812Y-93152022D01*
X167588868Y-93144408D01*
X167587035Y-93144539D01*
X167580420Y-93148790D01*
X166836737Y-93892473D01*
X166829977Y-93904852D01*
X166842065Y-93920999D01*
X166866876Y-93987519D01*
X166851785Y-94056894D01*
X166801583Y-94107096D01*
X166740841Y-94122508D01*
X157505641Y-94096357D01*
X157437579Y-94076164D01*
X157391239Y-94022377D01*
X157380000Y-93970359D01*
X157380000Y-92751863D01*
X166228050Y-92751863D01*
X166240309Y-92964477D01*
X166241745Y-92974697D01*
X166288565Y-93182446D01*
X166291645Y-93192275D01*
X166371770Y-93389603D01*
X166376413Y-93398794D01*
X166456460Y-93529420D01*
X166466916Y-93538880D01*
X166475694Y-93535096D01*
X167217978Y-92792812D01*
X167225592Y-92778868D01*
X167225461Y-92777035D01*
X167221210Y-92770420D01*
X166479849Y-92029059D01*
X166468313Y-92022759D01*
X166456031Y-92032382D01*
X166408089Y-92102662D01*
X166403004Y-92111613D01*
X166313338Y-92304783D01*
X166309775Y-92314470D01*
X166252864Y-92519681D01*
X166250933Y-92529800D01*
X166228302Y-92741574D01*
X166228050Y-92751863D01*
X157380000Y-92751863D01*
X157380000Y-91364853D01*
X166829977Y-91364853D01*
X166835258Y-91371907D01*
X166882479Y-91399501D01*
X166931203Y-91451139D01*
X166944274Y-91520922D01*
X166917543Y-91586694D01*
X166877087Y-91620053D01*
X166868466Y-91624541D01*
X166859734Y-91630039D01*
X166839677Y-91645099D01*
X166831223Y-91656427D01*
X166837968Y-91668758D01*
X167577188Y-92407978D01*
X167591132Y-92415592D01*
X167592965Y-92415461D01*
X167599580Y-92411210D01*
X168343389Y-91667401D01*
X168350410Y-91654544D01*
X168343611Y-91645213D01*
X168339559Y-91642521D01*
X168302116Y-91621852D01*
X168252145Y-91571420D01*
X168237373Y-91501977D01*
X168262489Y-91435572D01*
X168289840Y-91408965D01*
X168339247Y-91373723D01*
X168347648Y-91363023D01*
X168340660Y-91349870D01*
X167602812Y-90612022D01*
X167588868Y-90604408D01*
X167587035Y-90604539D01*
X167580420Y-90608790D01*
X166836737Y-91352473D01*
X166829977Y-91364853D01*
X157380000Y-91364853D01*
X157380000Y-90211863D01*
X166228050Y-90211863D01*
X166240309Y-90424477D01*
X166241745Y-90434697D01*
X166288565Y-90642446D01*
X166291645Y-90652275D01*
X166371770Y-90849603D01*
X166376413Y-90858794D01*
X166456460Y-90989420D01*
X166466916Y-90998880D01*
X166475694Y-90995096D01*
X167217978Y-90252812D01*
X167225592Y-90238868D01*
X167225461Y-90237035D01*
X167221210Y-90230420D01*
X166479849Y-89489059D01*
X166468313Y-89482759D01*
X166456031Y-89492382D01*
X166408089Y-89562662D01*
X166403004Y-89571613D01*
X166313338Y-89764783D01*
X166309775Y-89774470D01*
X166252864Y-89979681D01*
X166250933Y-89989800D01*
X166228302Y-90201574D01*
X166228050Y-90211863D01*
X157380000Y-90211863D01*
X157380000Y-88824853D01*
X166829977Y-88824853D01*
X166835258Y-88831907D01*
X166882479Y-88859501D01*
X166931203Y-88911139D01*
X166944274Y-88980922D01*
X166917543Y-89046694D01*
X166877087Y-89080053D01*
X166868466Y-89084541D01*
X166859734Y-89090039D01*
X166839677Y-89105099D01*
X166831223Y-89116427D01*
X166837968Y-89128758D01*
X167577188Y-89867978D01*
X167591132Y-89875592D01*
X167592965Y-89875461D01*
X167599580Y-89871210D01*
X168343389Y-89127401D01*
X168350410Y-89114544D01*
X168343611Y-89105213D01*
X168339559Y-89102521D01*
X168302116Y-89081852D01*
X168252145Y-89031420D01*
X168237373Y-88961977D01*
X168262489Y-88895572D01*
X168289840Y-88868965D01*
X168339247Y-88833723D01*
X168347648Y-88823023D01*
X168340660Y-88809870D01*
X167602812Y-88072022D01*
X167588868Y-88064408D01*
X167587035Y-88064539D01*
X167580420Y-88068790D01*
X166836737Y-88812473D01*
X166829977Y-88824853D01*
X157380000Y-88824853D01*
X157380000Y-87671863D01*
X166228050Y-87671863D01*
X166240309Y-87884477D01*
X166241745Y-87894697D01*
X166288565Y-88102446D01*
X166291645Y-88112275D01*
X166371770Y-88309603D01*
X166376413Y-88318794D01*
X166456460Y-88449420D01*
X166466916Y-88458880D01*
X166475694Y-88455096D01*
X167217978Y-87712812D01*
X167225592Y-87698868D01*
X167225461Y-87697035D01*
X167221210Y-87690420D01*
X166479849Y-86949059D01*
X166468313Y-86942759D01*
X166456031Y-86952382D01*
X166408089Y-87022662D01*
X166403004Y-87031613D01*
X166313338Y-87224783D01*
X166309775Y-87234470D01*
X166252864Y-87439681D01*
X166250933Y-87449800D01*
X166228302Y-87661574D01*
X166228050Y-87671863D01*
X157380000Y-87671863D01*
X157380000Y-86284853D01*
X166829977Y-86284853D01*
X166835258Y-86291907D01*
X166882479Y-86319501D01*
X166931203Y-86371139D01*
X166944274Y-86440922D01*
X166917543Y-86506694D01*
X166877087Y-86540053D01*
X166868466Y-86544541D01*
X166859734Y-86550039D01*
X166839677Y-86565099D01*
X166831223Y-86576427D01*
X166837968Y-86588758D01*
X167577188Y-87327978D01*
X167591132Y-87335592D01*
X167592965Y-87335461D01*
X167599580Y-87331210D01*
X168343389Y-86587401D01*
X168350410Y-86574544D01*
X168343611Y-86565213D01*
X168339559Y-86562521D01*
X168302116Y-86541852D01*
X168252145Y-86491420D01*
X168237373Y-86421977D01*
X168262489Y-86355572D01*
X168289840Y-86328965D01*
X168339247Y-86293723D01*
X168347648Y-86283023D01*
X168340660Y-86269870D01*
X167602812Y-85532022D01*
X167588868Y-85524408D01*
X167587035Y-85524539D01*
X167580420Y-85528790D01*
X166836737Y-86272473D01*
X166829977Y-86284853D01*
X157380000Y-86284853D01*
X157380000Y-85131863D01*
X166228050Y-85131863D01*
X166240309Y-85344477D01*
X166241745Y-85354697D01*
X166288565Y-85562446D01*
X166291645Y-85572275D01*
X166371770Y-85769603D01*
X166376413Y-85778794D01*
X166456460Y-85909420D01*
X166466916Y-85918880D01*
X166475694Y-85915096D01*
X167217978Y-85172812D01*
X167225592Y-85158868D01*
X167225461Y-85157035D01*
X167221210Y-85150420D01*
X166479849Y-84409059D01*
X166468313Y-84402759D01*
X166456031Y-84412382D01*
X166408089Y-84482662D01*
X166403004Y-84491613D01*
X166313338Y-84684783D01*
X166309775Y-84694470D01*
X166252864Y-84899681D01*
X166250933Y-84909800D01*
X166228302Y-85121574D01*
X166228050Y-85131863D01*
X157380000Y-85131863D01*
X157380000Y-83744853D01*
X166829977Y-83744853D01*
X166835258Y-83751907D01*
X166882479Y-83779501D01*
X166931203Y-83831139D01*
X166944274Y-83900922D01*
X166917543Y-83966694D01*
X166877087Y-84000053D01*
X166868466Y-84004541D01*
X166859734Y-84010039D01*
X166839677Y-84025099D01*
X166831223Y-84036427D01*
X166837968Y-84048758D01*
X167577188Y-84787978D01*
X167591132Y-84795592D01*
X167592965Y-84795461D01*
X167599580Y-84791210D01*
X168343389Y-84047401D01*
X168350410Y-84034544D01*
X168343611Y-84025213D01*
X168339559Y-84022521D01*
X168302116Y-84001852D01*
X168252145Y-83951420D01*
X168237373Y-83881977D01*
X168262489Y-83815572D01*
X168289840Y-83788965D01*
X168339247Y-83753723D01*
X168347648Y-83743023D01*
X168340660Y-83729870D01*
X167602812Y-82992022D01*
X167588868Y-82984408D01*
X167587035Y-82984539D01*
X167580420Y-82988790D01*
X166836737Y-83732473D01*
X166829977Y-83744853D01*
X157380000Y-83744853D01*
X157380000Y-82591863D01*
X166228050Y-82591863D01*
X166240309Y-82804477D01*
X166241745Y-82814697D01*
X166288565Y-83022446D01*
X166291645Y-83032275D01*
X166371770Y-83229603D01*
X166376413Y-83238794D01*
X166456460Y-83369420D01*
X166466916Y-83378880D01*
X166475694Y-83375096D01*
X167217978Y-82632812D01*
X167225592Y-82618868D01*
X167225461Y-82617035D01*
X167221210Y-82610420D01*
X166479849Y-81869059D01*
X166468313Y-81862759D01*
X166456031Y-81872382D01*
X166408089Y-81942662D01*
X166403004Y-81951613D01*
X166313338Y-82144783D01*
X166309775Y-82154470D01*
X166252864Y-82359681D01*
X166250933Y-82369800D01*
X166228302Y-82581574D01*
X166228050Y-82591863D01*
X157380000Y-82591863D01*
X157380000Y-79807885D01*
X166232000Y-79807885D01*
X166236475Y-79823124D01*
X166237865Y-79824329D01*
X166245548Y-79826000D01*
X167317885Y-79826000D01*
X167333124Y-79821525D01*
X167334329Y-79820135D01*
X167336000Y-79812452D01*
X167336000Y-78740116D01*
X167331525Y-78724877D01*
X167330135Y-78723672D01*
X167322452Y-78722001D01*
X166942905Y-78722001D01*
X166936386Y-78722338D01*
X166840794Y-78732257D01*
X166827400Y-78735149D01*
X166673216Y-78786588D01*
X166660038Y-78792761D01*
X166522193Y-78878063D01*
X166510792Y-78887099D01*
X166396261Y-79001829D01*
X166387249Y-79013240D01*
X166302184Y-79151243D01*
X166296037Y-79164424D01*
X166244862Y-79318710D01*
X166241995Y-79332086D01*
X166232328Y-79426438D01*
X166232000Y-79432855D01*
X166232000Y-79807885D01*
X157380000Y-79807885D01*
X157380000Y-77917885D01*
X186792000Y-77917885D01*
X186796475Y-77933124D01*
X186797865Y-77934329D01*
X186805548Y-77936000D01*
X187927885Y-77936000D01*
X187943124Y-77931525D01*
X187944329Y-77930135D01*
X187946000Y-77922452D01*
X187946000Y-76322718D01*
X187942027Y-76309187D01*
X187931420Y-76307662D01*
X187799160Y-76335413D01*
X187788963Y-76338473D01*
X187576660Y-76422315D01*
X187567124Y-76427049D01*
X187371975Y-76545468D01*
X187363382Y-76551734D01*
X187190973Y-76701342D01*
X187183553Y-76708972D01*
X187038820Y-76885488D01*
X187032794Y-76894255D01*
X186919871Y-77092633D01*
X186915405Y-77102297D01*
X186837519Y-77316868D01*
X186834749Y-77327135D01*
X186793919Y-77552932D01*
X186792984Y-77561162D01*
X186792070Y-77580550D01*
X186792000Y-77583526D01*
X186792000Y-77917885D01*
X157380000Y-77917885D01*
X157380000Y-74110943D01*
X172240345Y-74110943D01*
X172253631Y-74313648D01*
X172255052Y-74319244D01*
X172255053Y-74319249D01*
X172276732Y-74404607D01*
X172303635Y-74510537D01*
X172388681Y-74695017D01*
X172505923Y-74860910D01*
X172651432Y-75002659D01*
X172656228Y-75005864D01*
X172656231Y-75005866D01*
X172794375Y-75098171D01*
X172820337Y-75115518D01*
X172825640Y-75117796D01*
X172825643Y-75117798D01*
X172910062Y-75154067D01*
X173006980Y-75195706D01*
X173079381Y-75212088D01*
X173199474Y-75239263D01*
X173199479Y-75239264D01*
X173205111Y-75240538D01*
X173210882Y-75240765D01*
X173210884Y-75240765D01*
X173269801Y-75243080D01*
X173408095Y-75248514D01*
X173526121Y-75231401D01*
X173603411Y-75220195D01*
X173603415Y-75220194D01*
X173609133Y-75219365D01*
X173614605Y-75217507D01*
X173614607Y-75217507D01*
X173796028Y-75155922D01*
X173796030Y-75155921D01*
X173801492Y-75154067D01*
X173978731Y-75054809D01*
X174134913Y-74924913D01*
X174264809Y-74768731D01*
X174364067Y-74591492D01*
X174429365Y-74399133D01*
X174458514Y-74198095D01*
X174460035Y-74140000D01*
X174441447Y-73937712D01*
X174386307Y-73742199D01*
X174296460Y-73560008D01*
X174174917Y-73397242D01*
X174156732Y-73380432D01*
X174029986Y-73263269D01*
X174029983Y-73263267D01*
X174025746Y-73259350D01*
X173955482Y-73215017D01*
X173858829Y-73154033D01*
X173858824Y-73154031D01*
X173853945Y-73150952D01*
X173665267Y-73075677D01*
X173466030Y-73036046D01*
X173460255Y-73035970D01*
X173460251Y-73035970D01*
X173358762Y-73034642D01*
X173262908Y-73033387D01*
X173257211Y-73034366D01*
X173257210Y-73034366D01*
X173068399Y-73066810D01*
X173062702Y-73067789D01*
X172872118Y-73138099D01*
X172697538Y-73241963D01*
X172544809Y-73375902D01*
X172419046Y-73535432D01*
X172416357Y-73540543D01*
X172416355Y-73540546D01*
X172396844Y-73577630D01*
X172324461Y-73715208D01*
X172264222Y-73909211D01*
X172240345Y-74110943D01*
X157380000Y-74110943D01*
X157380000Y-72630943D01*
X158090345Y-72630943D01*
X158103631Y-72833648D01*
X158105052Y-72839244D01*
X158105053Y-72839249D01*
X158126732Y-72924607D01*
X158153635Y-73030537D01*
X158156052Y-73035780D01*
X158204582Y-73141051D01*
X158238681Y-73215017D01*
X158355923Y-73380910D01*
X158501432Y-73522659D01*
X158506228Y-73525864D01*
X158506231Y-73525866D01*
X158644375Y-73618171D01*
X158670337Y-73635518D01*
X158675640Y-73637796D01*
X158675643Y-73637798D01*
X158760062Y-73674067D01*
X158856980Y-73715706D01*
X158929381Y-73732088D01*
X159049474Y-73759263D01*
X159049479Y-73759264D01*
X159055111Y-73760538D01*
X159060882Y-73760765D01*
X159060884Y-73760765D01*
X159119801Y-73763080D01*
X159258095Y-73768514D01*
X159376121Y-73751401D01*
X159453411Y-73740195D01*
X159453415Y-73740194D01*
X159459133Y-73739365D01*
X159464605Y-73737507D01*
X159464607Y-73737507D01*
X159646028Y-73675922D01*
X159646030Y-73675921D01*
X159651492Y-73674067D01*
X159828731Y-73574809D01*
X159984913Y-73444913D01*
X160114809Y-73288731D01*
X160138867Y-73245773D01*
X160211248Y-73116525D01*
X160214067Y-73111492D01*
X160228223Y-73069790D01*
X160277507Y-72924607D01*
X160277507Y-72924605D01*
X160279365Y-72919133D01*
X160308514Y-72718095D01*
X160310035Y-72660000D01*
X160291447Y-72457712D01*
X160236307Y-72262199D01*
X160146460Y-72080008D01*
X160024917Y-71917242D01*
X160006732Y-71900432D01*
X159879986Y-71783269D01*
X159879983Y-71783267D01*
X159875746Y-71779350D01*
X159800770Y-71732044D01*
X159708829Y-71674033D01*
X159708824Y-71674031D01*
X159703945Y-71670952D01*
X159515267Y-71595677D01*
X159316030Y-71556046D01*
X159310255Y-71555970D01*
X159310251Y-71555970D01*
X159208762Y-71554642D01*
X159112908Y-71553387D01*
X159107211Y-71554366D01*
X159107210Y-71554366D01*
X158918399Y-71586810D01*
X158912702Y-71587789D01*
X158722118Y-71658099D01*
X158717157Y-71661051D01*
X158717156Y-71661051D01*
X158575565Y-71745289D01*
X158547538Y-71761963D01*
X158394809Y-71895902D01*
X158269046Y-72055432D01*
X158266357Y-72060543D01*
X158266355Y-72060546D01*
X158231897Y-72126040D01*
X158174461Y-72235208D01*
X158114222Y-72429211D01*
X158090345Y-72630943D01*
X157380000Y-72630943D01*
X157380000Y-71440000D01*
X161575581Y-71440000D01*
X161576271Y-71446565D01*
X161591825Y-71594550D01*
X161596000Y-71634277D01*
X161656366Y-71820062D01*
X161659669Y-71825783D01*
X161750736Y-71983518D01*
X161750739Y-71983522D01*
X161754039Y-71989238D01*
X161758457Y-71994145D01*
X161758458Y-71994146D01*
X161858898Y-72105695D01*
X161884752Y-72134409D01*
X161890091Y-72138288D01*
X162016448Y-72230092D01*
X162042790Y-72249231D01*
X162048819Y-72251915D01*
X162048822Y-72251917D01*
X162215213Y-72325998D01*
X162215216Y-72325999D01*
X162221249Y-72328685D01*
X162263088Y-72337578D01*
X162405870Y-72367928D01*
X162405874Y-72367928D01*
X162412327Y-72369300D01*
X162607673Y-72369300D01*
X162614126Y-72367928D01*
X162614130Y-72367928D01*
X162756912Y-72337578D01*
X162798751Y-72328685D01*
X162804784Y-72325999D01*
X162804787Y-72325998D01*
X162971178Y-72251917D01*
X162971181Y-72251915D01*
X162977210Y-72249231D01*
X163003553Y-72230092D01*
X163129909Y-72138288D01*
X163135248Y-72134409D01*
X163157805Y-72109358D01*
X169200700Y-72109358D01*
X169201996Y-72120252D01*
X169202685Y-72126040D01*
X169203867Y-72135978D01*
X169250036Y-72239919D01*
X169267164Y-72257017D01*
X169322295Y-72312052D01*
X169322297Y-72312053D01*
X169330528Y-72320270D01*
X169434549Y-72366258D01*
X169460642Y-72369300D01*
X170799358Y-72369300D01*
X170810252Y-72368004D01*
X170816593Y-72367250D01*
X170816596Y-72367249D01*
X170825978Y-72366133D01*
X170929919Y-72319964D01*
X170997847Y-72251917D01*
X171002052Y-72247705D01*
X171002053Y-72247703D01*
X171010270Y-72239472D01*
X171056258Y-72135451D01*
X171059300Y-72109358D01*
X171059300Y-71529673D01*
X172194700Y-71529673D01*
X172195996Y-71540567D01*
X172196685Y-71546355D01*
X172197867Y-71556293D01*
X172244036Y-71660234D01*
X172284186Y-71700313D01*
X172316295Y-71732367D01*
X172316297Y-71732368D01*
X172324528Y-71740585D01*
X172428549Y-71786573D01*
X172454642Y-71789615D01*
X174145358Y-71789615D01*
X174156252Y-71788319D01*
X174162593Y-71787565D01*
X174162596Y-71787564D01*
X174171978Y-71786448D01*
X174275919Y-71740279D01*
X174347261Y-71668812D01*
X174348052Y-71668020D01*
X174348053Y-71668018D01*
X174356270Y-71659787D01*
X174402258Y-71555766D01*
X174405300Y-71529673D01*
X174405300Y-69838957D01*
X174403751Y-69825933D01*
X174403250Y-69821722D01*
X174403249Y-69821719D01*
X174402133Y-69812337D01*
X174355964Y-69708396D01*
X174299279Y-69651810D01*
X174283705Y-69636263D01*
X174283703Y-69636262D01*
X174283641Y-69636200D01*
X179094700Y-69636200D01*
X179109805Y-69800590D01*
X179111373Y-69806149D01*
X179111373Y-69806150D01*
X179126407Y-69859454D01*
X179169935Y-70013792D01*
X179172487Y-70018968D01*
X179172489Y-70018972D01*
X179186973Y-70048342D01*
X179267910Y-70212466D01*
X179400450Y-70389959D01*
X179429741Y-70417035D01*
X179538645Y-70517705D01*
X179563116Y-70540326D01*
X179612114Y-70571241D01*
X179745577Y-70655450D01*
X179745582Y-70655452D01*
X179750461Y-70658531D01*
X179956210Y-70740617D01*
X179961870Y-70741743D01*
X179961874Y-70741744D01*
X180167804Y-70782706D01*
X180167809Y-70782706D01*
X180173472Y-70783833D01*
X180179247Y-70783909D01*
X180179251Y-70783909D01*
X180288449Y-70785338D01*
X180394972Y-70786733D01*
X180613291Y-70749218D01*
X180821118Y-70672547D01*
X180875689Y-70640081D01*
X181006525Y-70562242D01*
X181006528Y-70562240D01*
X181011493Y-70559286D01*
X181178040Y-70413228D01*
X181315181Y-70239266D01*
X181418323Y-70043225D01*
X181484012Y-69831670D01*
X181489418Y-69785998D01*
X181504864Y-69655497D01*
X181504864Y-69655490D01*
X181505300Y-69651810D01*
X181505300Y-68523800D01*
X181490195Y-68359410D01*
X181486372Y-68345854D01*
X181431633Y-68151767D01*
X181431632Y-68151765D01*
X181430065Y-68146208D01*
X181415551Y-68116775D01*
X181334645Y-67952715D01*
X181332090Y-67947534D01*
X181289231Y-67890138D01*
X181203003Y-67774665D01*
X181203002Y-67774664D01*
X181199550Y-67770041D01*
X181071649Y-67651810D01*
X181041124Y-67623593D01*
X181041121Y-67623591D01*
X181036884Y-67619674D01*
X180987886Y-67588759D01*
X180854423Y-67504550D01*
X180854418Y-67504548D01*
X180849539Y-67501469D01*
X180643790Y-67419383D01*
X180638130Y-67418257D01*
X180638126Y-67418256D01*
X180432196Y-67377294D01*
X180432191Y-67377294D01*
X180426528Y-67376167D01*
X180420753Y-67376091D01*
X180420749Y-67376091D01*
X180311551Y-67374662D01*
X180205028Y-67373267D01*
X179986709Y-67410782D01*
X179778882Y-67487453D01*
X179773921Y-67490405D01*
X179773920Y-67490405D01*
X179593475Y-67597758D01*
X179593472Y-67597760D01*
X179588507Y-67600714D01*
X179421960Y-67746772D01*
X179284819Y-67920734D01*
X179282128Y-67925850D01*
X179282126Y-67925852D01*
X179184369Y-68111658D01*
X179181677Y-68116775D01*
X179179964Y-68122292D01*
X179121853Y-68309443D01*
X179115988Y-68328330D01*
X179115309Y-68334067D01*
X179095888Y-68498154D01*
X179094700Y-68508190D01*
X179094700Y-69636200D01*
X174283641Y-69636200D01*
X174275472Y-69628045D01*
X174171451Y-69582057D01*
X174145358Y-69579015D01*
X172454642Y-69579015D01*
X172443748Y-69580311D01*
X172437407Y-69581065D01*
X172437404Y-69581066D01*
X172428022Y-69582182D01*
X172324081Y-69628351D01*
X172313360Y-69639091D01*
X172251948Y-69700610D01*
X172251947Y-69700612D01*
X172243730Y-69708843D01*
X172197742Y-69812864D01*
X172194700Y-69838957D01*
X172194700Y-71529673D01*
X171059300Y-71529673D01*
X171059300Y-70770642D01*
X171058004Y-70759748D01*
X171057250Y-70753407D01*
X171057249Y-70753404D01*
X171056133Y-70744022D01*
X171009964Y-70640081D01*
X170969814Y-70600002D01*
X170937705Y-70567948D01*
X170937703Y-70567947D01*
X170929472Y-70559730D01*
X170825451Y-70513742D01*
X170799358Y-70510700D01*
X169460642Y-70510700D01*
X169449748Y-70511996D01*
X169443407Y-70512750D01*
X169443404Y-70512751D01*
X169434022Y-70513867D01*
X169330081Y-70560036D01*
X169290002Y-70600186D01*
X169257948Y-70632295D01*
X169257947Y-70632297D01*
X169249730Y-70640528D01*
X169203742Y-70744549D01*
X169200700Y-70770642D01*
X169200700Y-72109358D01*
X163157805Y-72109358D01*
X163161103Y-72105695D01*
X163261542Y-71994146D01*
X163261543Y-71994145D01*
X163265961Y-71989238D01*
X163269261Y-71983522D01*
X163269264Y-71983518D01*
X163360331Y-71825783D01*
X163363634Y-71820062D01*
X163424000Y-71634277D01*
X163428176Y-71594550D01*
X163443729Y-71446565D01*
X163444419Y-71440000D01*
X163424000Y-71245723D01*
X163363634Y-71059938D01*
X163359332Y-71052487D01*
X163269264Y-70896482D01*
X163269261Y-70896478D01*
X163265961Y-70890762D01*
X163169750Y-70783909D01*
X163139663Y-70750494D01*
X163139661Y-70750493D01*
X163135248Y-70745591D01*
X163030649Y-70669595D01*
X162982552Y-70634650D01*
X162982551Y-70634649D01*
X162977210Y-70630769D01*
X162971181Y-70628085D01*
X162971178Y-70628083D01*
X162804787Y-70554002D01*
X162804784Y-70554001D01*
X162798751Y-70551315D01*
X162728615Y-70536407D01*
X162614130Y-70512072D01*
X162614126Y-70512072D01*
X162607673Y-70510700D01*
X162412327Y-70510700D01*
X162405874Y-70512072D01*
X162405870Y-70512072D01*
X162291385Y-70536407D01*
X162221249Y-70551315D01*
X162215216Y-70554001D01*
X162215213Y-70554002D01*
X162048823Y-70628083D01*
X162048820Y-70628085D01*
X162042791Y-70630769D01*
X162037450Y-70634649D01*
X162037449Y-70634650D01*
X161985288Y-70672547D01*
X161884752Y-70745591D01*
X161880339Y-70750493D01*
X161880337Y-70750494D01*
X161850250Y-70783909D01*
X161754039Y-70890762D01*
X161750739Y-70896478D01*
X161750736Y-70896482D01*
X161660668Y-71052487D01*
X161656366Y-71059938D01*
X161596000Y-71245723D01*
X161575581Y-71440000D01*
X157380000Y-71440000D01*
X157380000Y-69858598D01*
X161915762Y-69858598D01*
X161925644Y-69871087D01*
X161962738Y-69895873D01*
X161972848Y-69901363D01*
X162153387Y-69978929D01*
X162164330Y-69982484D01*
X162355974Y-70025849D01*
X162367384Y-70027351D01*
X162563730Y-70035065D01*
X162575212Y-70034463D01*
X162769678Y-70006268D01*
X162780860Y-70003583D01*
X162966927Y-69940422D01*
X162977440Y-69935741D01*
X163095663Y-69869532D01*
X163105528Y-69859454D01*
X163102572Y-69851782D01*
X162522812Y-69272022D01*
X162508868Y-69264408D01*
X162507035Y-69264539D01*
X162500420Y-69268790D01*
X161921958Y-69847252D01*
X161915762Y-69858598D01*
X157380000Y-69858598D01*
X157380000Y-68876007D01*
X161373918Y-68876007D01*
X161386769Y-69072075D01*
X161388570Y-69083445D01*
X161436936Y-69273888D01*
X161440777Y-69284735D01*
X161523041Y-69463179D01*
X161528791Y-69473140D01*
X161538568Y-69486974D01*
X161549156Y-69495361D01*
X161562457Y-69488333D01*
X162137978Y-68912812D01*
X162144356Y-68901132D01*
X162874408Y-68901132D01*
X162874539Y-68902965D01*
X162878790Y-68909580D01*
X163457868Y-69488658D01*
X163470248Y-69495418D01*
X163476828Y-69490492D01*
X163545741Y-69367440D01*
X163550422Y-69356927D01*
X163613583Y-69170860D01*
X163616268Y-69159678D01*
X163644759Y-68963172D01*
X163645389Y-68955789D01*
X163646753Y-68903704D01*
X163646631Y-68900000D01*
X169195581Y-68900000D01*
X169196271Y-68906565D01*
X169214862Y-69083445D01*
X169216000Y-69094277D01*
X169240884Y-69170860D01*
X169273754Y-69272022D01*
X169276366Y-69280062D01*
X169279669Y-69285783D01*
X169370736Y-69443518D01*
X169370739Y-69443522D01*
X169374039Y-69449238D01*
X169378457Y-69454145D01*
X169378458Y-69454146D01*
X169497080Y-69585888D01*
X169504752Y-69594409D01*
X169662790Y-69709231D01*
X169668819Y-69711915D01*
X169668822Y-69711917D01*
X169835213Y-69785998D01*
X169835216Y-69785999D01*
X169841249Y-69788685D01*
X169870187Y-69794836D01*
X170025870Y-69827928D01*
X170025874Y-69827928D01*
X170032327Y-69829300D01*
X170227673Y-69829300D01*
X170234126Y-69827928D01*
X170234130Y-69827928D01*
X170389813Y-69794836D01*
X170418751Y-69788685D01*
X170424784Y-69785999D01*
X170424787Y-69785998D01*
X170591178Y-69711917D01*
X170591181Y-69711915D01*
X170597210Y-69709231D01*
X170755248Y-69594409D01*
X170762921Y-69585888D01*
X170881542Y-69454146D01*
X170881543Y-69454145D01*
X170885961Y-69449238D01*
X170889261Y-69443522D01*
X170889264Y-69443518D01*
X170980331Y-69285783D01*
X170983634Y-69280062D01*
X170986247Y-69272022D01*
X171019116Y-69170860D01*
X171044000Y-69094277D01*
X171045139Y-69083445D01*
X171063729Y-68906565D01*
X171064419Y-68900000D01*
X171061897Y-68876007D01*
X171044691Y-68712293D01*
X171044690Y-68712289D01*
X171044000Y-68705723D01*
X170987297Y-68531210D01*
X170985675Y-68526219D01*
X170985674Y-68526218D01*
X170983634Y-68519938D01*
X170948933Y-68459834D01*
X170889264Y-68356482D01*
X170889261Y-68356478D01*
X170885961Y-68350762D01*
X170850321Y-68311180D01*
X170759663Y-68210494D01*
X170759661Y-68210493D01*
X170755248Y-68205591D01*
X170666385Y-68141028D01*
X170602552Y-68094650D01*
X170602551Y-68094649D01*
X170597210Y-68090769D01*
X170591181Y-68088085D01*
X170591178Y-68088083D01*
X170424787Y-68014002D01*
X170424784Y-68014001D01*
X170418751Y-68011315D01*
X170376912Y-68002422D01*
X170234130Y-67972072D01*
X170234126Y-67972072D01*
X170227673Y-67970700D01*
X170032327Y-67970700D01*
X170025874Y-67972072D01*
X170025870Y-67972072D01*
X169883088Y-68002422D01*
X169841249Y-68011315D01*
X169835216Y-68014001D01*
X169835213Y-68014002D01*
X169668823Y-68088083D01*
X169668820Y-68088085D01*
X169662791Y-68090769D01*
X169504752Y-68205591D01*
X169500339Y-68210493D01*
X169500337Y-68210494D01*
X169409679Y-68311180D01*
X169374039Y-68350762D01*
X169370739Y-68356478D01*
X169370736Y-68356482D01*
X169311067Y-68459834D01*
X169276366Y-68519938D01*
X169274326Y-68526218D01*
X169274325Y-68526219D01*
X169272703Y-68531210D01*
X169216000Y-68705723D01*
X169215310Y-68712289D01*
X169215309Y-68712293D01*
X169198103Y-68876007D01*
X169195581Y-68900000D01*
X163646631Y-68900000D01*
X163646510Y-68896305D01*
X163628342Y-68698583D01*
X163626244Y-68687262D01*
X163572910Y-68498154D01*
X163568786Y-68487407D01*
X163481879Y-68311180D01*
X163480815Y-68309443D01*
X163472017Y-68302840D01*
X163459597Y-68309613D01*
X162882022Y-68887188D01*
X162874408Y-68901132D01*
X162144356Y-68901132D01*
X162145592Y-68898868D01*
X162145461Y-68897035D01*
X162141210Y-68890420D01*
X161560771Y-68309981D01*
X161548391Y-68303221D01*
X161542425Y-68307687D01*
X161462377Y-68459834D01*
X161457974Y-68470467D01*
X161399705Y-68658121D01*
X161397315Y-68669365D01*
X161374219Y-68864506D01*
X161373918Y-68876007D01*
X157380000Y-68876007D01*
X157380000Y-67941164D01*
X161915276Y-67941164D01*
X161918762Y-67949552D01*
X162497188Y-68527978D01*
X162511132Y-68535592D01*
X162512965Y-68535461D01*
X162519580Y-68531210D01*
X163097682Y-67953108D01*
X163104442Y-67940728D01*
X163098412Y-67932673D01*
X163030999Y-67890138D01*
X163020756Y-67884920D01*
X162838247Y-67812106D01*
X162827219Y-67808839D01*
X162634500Y-67770505D01*
X162623054Y-67769302D01*
X162426586Y-67766731D01*
X162415106Y-67767634D01*
X162221459Y-67800908D01*
X162210339Y-67803888D01*
X162025989Y-67871898D01*
X162015611Y-67876848D01*
X161924874Y-67930831D01*
X161915276Y-67941164D01*
X157380000Y-67941164D01*
X157380000Y-66360000D01*
X161575581Y-66360000D01*
X161576271Y-66366565D01*
X161592797Y-66523800D01*
X161596000Y-66554277D01*
X161617432Y-66620237D01*
X161645000Y-66705080D01*
X161656366Y-66740062D01*
X161659669Y-66745783D01*
X161750736Y-66903518D01*
X161750739Y-66903522D01*
X161754039Y-66909238D01*
X161884752Y-67054409D01*
X162042790Y-67169231D01*
X162048819Y-67171915D01*
X162048822Y-67171917D01*
X162215213Y-67245998D01*
X162215216Y-67245999D01*
X162221249Y-67248685D01*
X162263088Y-67257578D01*
X162405870Y-67287928D01*
X162405874Y-67287928D01*
X162412327Y-67289300D01*
X162607673Y-67289300D01*
X162614126Y-67287928D01*
X162614130Y-67287928D01*
X162756912Y-67257578D01*
X162798751Y-67248685D01*
X162804784Y-67245999D01*
X162804787Y-67245998D01*
X162971178Y-67171917D01*
X162971181Y-67171915D01*
X162977210Y-67169231D01*
X163135248Y-67054409D01*
X163265961Y-66909238D01*
X163269261Y-66903522D01*
X163269264Y-66903518D01*
X163360331Y-66745783D01*
X163363634Y-66740062D01*
X163375001Y-66705080D01*
X163402568Y-66620237D01*
X163424000Y-66554277D01*
X163427204Y-66523800D01*
X163443729Y-66366565D01*
X163444419Y-66360000D01*
X169195581Y-66360000D01*
X169196271Y-66366565D01*
X169212797Y-66523800D01*
X169216000Y-66554277D01*
X169237432Y-66620237D01*
X169265000Y-66705080D01*
X169276366Y-66740062D01*
X169279669Y-66745783D01*
X169370736Y-66903518D01*
X169370739Y-66903522D01*
X169374039Y-66909238D01*
X169504752Y-67054409D01*
X169662790Y-67169231D01*
X169668819Y-67171915D01*
X169668822Y-67171917D01*
X169835213Y-67245998D01*
X169835216Y-67245999D01*
X169841249Y-67248685D01*
X169883088Y-67257578D01*
X170025870Y-67287928D01*
X170025874Y-67287928D01*
X170032327Y-67289300D01*
X170227673Y-67289300D01*
X170234126Y-67287928D01*
X170234130Y-67287928D01*
X170376912Y-67257578D01*
X170418751Y-67248685D01*
X170424784Y-67245999D01*
X170424787Y-67245998D01*
X170591178Y-67171917D01*
X170591181Y-67171915D01*
X170597210Y-67169231D01*
X170755248Y-67054409D01*
X170885961Y-66909238D01*
X170889261Y-66903522D01*
X170889264Y-66903518D01*
X170980331Y-66745783D01*
X170983634Y-66740062D01*
X170995001Y-66705080D01*
X171022568Y-66620237D01*
X171044000Y-66554277D01*
X171047204Y-66523800D01*
X171063729Y-66366565D01*
X171064419Y-66360000D01*
X171053961Y-66260493D01*
X171044691Y-66172293D01*
X171044690Y-66172289D01*
X171044000Y-66165723D01*
X170983634Y-65979938D01*
X170940869Y-65905866D01*
X170889264Y-65816482D01*
X170889261Y-65816478D01*
X170885961Y-65810762D01*
X170841074Y-65760910D01*
X170759663Y-65670494D01*
X170759661Y-65670493D01*
X170755248Y-65665591D01*
X170687807Y-65616592D01*
X170630916Y-65575258D01*
X172190345Y-65575258D01*
X172203631Y-65777963D01*
X172205052Y-65783559D01*
X172205053Y-65783564D01*
X172241190Y-65925852D01*
X172253635Y-65974852D01*
X172256052Y-65980095D01*
X172336263Y-66154087D01*
X172338681Y-66159332D01*
X172455923Y-66325225D01*
X172601432Y-66466974D01*
X172606228Y-66470179D01*
X172606231Y-66470181D01*
X172686478Y-66523800D01*
X172770337Y-66579833D01*
X172775640Y-66582111D01*
X172775643Y-66582113D01*
X172860062Y-66618382D01*
X172956980Y-66660021D01*
X173029381Y-66676403D01*
X173149474Y-66703578D01*
X173149479Y-66703579D01*
X173155111Y-66704853D01*
X173160882Y-66705080D01*
X173160884Y-66705080D01*
X173219801Y-66707395D01*
X173358095Y-66712829D01*
X173476121Y-66695716D01*
X173553411Y-66684510D01*
X173553415Y-66684509D01*
X173559133Y-66683680D01*
X173564605Y-66681822D01*
X173564607Y-66681822D01*
X173746028Y-66620237D01*
X173746030Y-66620236D01*
X173751492Y-66618382D01*
X173877692Y-66547707D01*
X173923694Y-66521945D01*
X173923695Y-66521944D01*
X173928731Y-66519124D01*
X174084913Y-66389228D01*
X174214809Y-66233046D01*
X174218434Y-66226574D01*
X174266341Y-66141028D01*
X174314067Y-66055807D01*
X174315922Y-66050343D01*
X174377507Y-65868922D01*
X174377507Y-65868920D01*
X174379365Y-65863448D01*
X174384953Y-65824913D01*
X174407342Y-65670494D01*
X174408514Y-65662410D01*
X174410035Y-65604315D01*
X174391447Y-65402027D01*
X174336307Y-65206514D01*
X174246460Y-65024323D01*
X174124917Y-64861557D01*
X174106732Y-64844747D01*
X173979986Y-64727584D01*
X173979983Y-64727582D01*
X173975746Y-64723665D01*
X173838417Y-64637017D01*
X173808829Y-64618348D01*
X173808824Y-64618346D01*
X173803945Y-64615267D01*
X173615267Y-64539992D01*
X173416030Y-64500361D01*
X173410255Y-64500285D01*
X173410251Y-64500285D01*
X173308762Y-64498957D01*
X173212908Y-64497702D01*
X173207211Y-64498681D01*
X173207210Y-64498681D01*
X173018399Y-64531125D01*
X173012702Y-64532104D01*
X172822118Y-64602414D01*
X172647538Y-64706278D01*
X172494809Y-64840217D01*
X172369046Y-64999747D01*
X172366357Y-65004858D01*
X172366355Y-65004861D01*
X172356116Y-65024323D01*
X172274461Y-65179523D01*
X172214222Y-65373526D01*
X172190345Y-65575258D01*
X170630916Y-65575258D01*
X170602552Y-65554650D01*
X170602551Y-65554649D01*
X170597210Y-65550769D01*
X170591181Y-65548085D01*
X170591178Y-65548083D01*
X170424787Y-65474002D01*
X170424784Y-65474001D01*
X170418751Y-65471315D01*
X170376912Y-65462422D01*
X170234130Y-65432072D01*
X170234126Y-65432072D01*
X170227673Y-65430700D01*
X170032327Y-65430700D01*
X170025874Y-65432072D01*
X170025870Y-65432072D01*
X169883088Y-65462422D01*
X169841249Y-65471315D01*
X169835216Y-65474001D01*
X169835213Y-65474002D01*
X169668823Y-65548083D01*
X169668820Y-65548085D01*
X169662791Y-65550769D01*
X169657450Y-65554649D01*
X169657449Y-65554650D01*
X169583993Y-65608019D01*
X169504752Y-65665591D01*
X169500339Y-65670493D01*
X169500337Y-65670494D01*
X169418926Y-65760910D01*
X169374039Y-65810762D01*
X169370739Y-65816478D01*
X169370736Y-65816482D01*
X169319131Y-65905866D01*
X169276366Y-65979938D01*
X169216000Y-66165723D01*
X169215310Y-66172289D01*
X169215309Y-66172293D01*
X169206039Y-66260493D01*
X169195581Y-66360000D01*
X163444419Y-66360000D01*
X163433961Y-66260493D01*
X163424691Y-66172293D01*
X163424690Y-66172289D01*
X163424000Y-66165723D01*
X163363634Y-65979938D01*
X163320869Y-65905866D01*
X163269264Y-65816482D01*
X163269261Y-65816478D01*
X163265961Y-65810762D01*
X163221074Y-65760910D01*
X163139663Y-65670494D01*
X163139661Y-65670493D01*
X163135248Y-65665591D01*
X163067807Y-65616592D01*
X162982552Y-65554650D01*
X162982551Y-65554649D01*
X162977210Y-65550769D01*
X162971181Y-65548085D01*
X162971178Y-65548083D01*
X162804787Y-65474002D01*
X162804784Y-65474001D01*
X162798751Y-65471315D01*
X162756912Y-65462422D01*
X162614130Y-65432072D01*
X162614126Y-65432072D01*
X162607673Y-65430700D01*
X162412327Y-65430700D01*
X162405874Y-65432072D01*
X162405870Y-65432072D01*
X162263088Y-65462422D01*
X162221249Y-65471315D01*
X162215216Y-65474001D01*
X162215213Y-65474002D01*
X162048823Y-65548083D01*
X162048820Y-65548085D01*
X162042791Y-65550769D01*
X162037450Y-65554649D01*
X162037449Y-65554650D01*
X161963993Y-65608019D01*
X161884752Y-65665591D01*
X161880339Y-65670493D01*
X161880337Y-65670494D01*
X161798926Y-65760910D01*
X161754039Y-65810762D01*
X161750739Y-65816478D01*
X161750736Y-65816482D01*
X161699131Y-65905866D01*
X161656366Y-65979938D01*
X161596000Y-66165723D01*
X161595310Y-66172289D01*
X161595309Y-66172293D01*
X161586039Y-66260493D01*
X161575581Y-66360000D01*
X157380000Y-66360000D01*
X157380000Y-63866300D01*
X157400002Y-63798179D01*
X157453658Y-63751686D01*
X157506072Y-63740300D01*
X158821798Y-63741051D01*
X158889907Y-63761092D01*
X158936369Y-63814774D01*
X158946433Y-63885054D01*
X158916903Y-63949618D01*
X158865338Y-63985263D01*
X158722118Y-64038099D01*
X158547538Y-64141963D01*
X158394809Y-64275902D01*
X158269046Y-64435432D01*
X158266357Y-64440543D01*
X158266355Y-64440546D01*
X158256116Y-64460008D01*
X158174461Y-64615208D01*
X158114222Y-64809211D01*
X158090345Y-65010943D01*
X158103631Y-65213648D01*
X158105052Y-65219244D01*
X158105053Y-65219249D01*
X158144189Y-65373343D01*
X158153635Y-65410537D01*
X158238681Y-65595017D01*
X158355923Y-65760910D01*
X158501432Y-65902659D01*
X158506228Y-65905864D01*
X158506231Y-65905866D01*
X158601103Y-65969257D01*
X158670337Y-66015518D01*
X158675640Y-66017796D01*
X158675643Y-66017798D01*
X158760062Y-66054067D01*
X158856980Y-66095706D01*
X158927478Y-66111658D01*
X159049474Y-66139263D01*
X159049479Y-66139264D01*
X159055111Y-66140538D01*
X159060882Y-66140765D01*
X159060884Y-66140765D01*
X159119801Y-66143080D01*
X159258095Y-66148514D01*
X159376121Y-66131401D01*
X159453411Y-66120195D01*
X159453415Y-66120194D01*
X159459133Y-66119365D01*
X159464605Y-66117507D01*
X159464607Y-66117507D01*
X159646028Y-66055922D01*
X159646030Y-66055921D01*
X159651492Y-66054067D01*
X159783860Y-65979938D01*
X159823694Y-65957630D01*
X159823695Y-65957629D01*
X159828731Y-65954809D01*
X159869702Y-65920734D01*
X159980481Y-65828599D01*
X159984913Y-65824913D01*
X160114809Y-65668731D01*
X160214067Y-65491492D01*
X160215922Y-65486028D01*
X160277507Y-65304607D01*
X160277507Y-65304605D01*
X160279365Y-65299133D01*
X160308514Y-65098095D01*
X160310035Y-65040000D01*
X160291447Y-64837712D01*
X160236307Y-64642199D01*
X160146460Y-64460008D01*
X160024917Y-64297242D01*
X160006732Y-64280432D01*
X159879986Y-64163269D01*
X159879983Y-64163267D01*
X159875746Y-64159350D01*
X159829207Y-64129986D01*
X159708829Y-64054033D01*
X159708824Y-64054031D01*
X159703945Y-64050952D01*
X159537422Y-63984516D01*
X159481562Y-63940695D01*
X159458262Y-63873631D01*
X159474918Y-63804616D01*
X159526242Y-63755562D01*
X159584183Y-63741486D01*
X174486089Y-63749992D01*
X174492628Y-63750166D01*
X174508042Y-63750977D01*
X174532339Y-63752256D01*
X174532340Y-63752256D01*
X174542243Y-63752777D01*
X174576727Y-63743546D01*
X174589664Y-63740801D01*
X174615131Y-63736782D01*
X174624928Y-63735236D01*
X174633770Y-63730737D01*
X174637082Y-63729663D01*
X174651877Y-63723991D01*
X174655062Y-63722574D01*
X174664640Y-63720010D01*
X174694577Y-63700578D01*
X174706040Y-63693966D01*
X174729018Y-63682275D01*
X174729019Y-63682274D01*
X174737858Y-63677777D01*
X174773036Y-63642638D01*
X174777766Y-63638154D01*
X175004568Y-63434033D01*
X175068582Y-63403330D01*
X175088965Y-63401688D01*
X189090613Y-63414254D01*
G37*
%TD.AperFunction*%
%TD*%
M02*
