%TF.GenerationSoftware,KiCad,Pcbnew,(6.0.1)*%
%TF.CreationDate,2022-07-28T18:42:17-07:00*%
%TF.ProjectId,waveblaster-to-midi-module,77617665-626c-4617-9374-65722d746f2d,rev?*%
%TF.SameCoordinates,PX525bfc0PY8670810*%
%TF.FileFunction,Other,Comment*%
%FSLAX46Y46*%
G04 Gerber Fmt 4.6, Leading zero omitted, Abs format (unit mm)*
G04 Created by KiCad (PCBNEW (6.0.1)) date 2022-07-28 18:42:17*
%MOMM*%
%LPD*%
G01*
G04 APERTURE LIST*
%ADD10C,0.150000*%
%ADD11C,0.100000*%
G04 APERTURE END LIST*
D10*
X218435000Y-164470000D02*
X218435000Y-168280000D01*
X200020000Y-164470000D02*
X200020000Y-168280000D01*
X211767500Y-50170000D02*
X211767500Y-55504000D01*
X197480000Y-59631500D02*
X201607500Y-55504000D01*
X215895000Y-59631500D02*
X215895000Y-161930000D01*
X218435000Y-168280000D02*
X200020000Y-168280000D01*
X197480000Y-161930000D02*
X197480000Y-59631500D01*
X211767500Y-50170000D02*
G75*
G03*
X209862500Y-48265000I-1905001J-1D01*
G01*
X197480000Y-161930000D02*
X200020000Y-164470000D01*
X209862500Y-48265000D02*
X203512500Y-48265000D01*
X210437500Y-147325000D02*
G75*
G03*
X210437500Y-147325000I-3750000J0D01*
G01*
X215895000Y-161930000D02*
X218435000Y-164470000D01*
X211767500Y-55504000D02*
X215895000Y-59631500D01*
X201607500Y-55504000D02*
X201607500Y-50170000D01*
X203512500Y-48265000D02*
G75*
G03*
X201607500Y-50170000I1J-1905001D01*
G01*
X199002380Y-75991904D02*
X199002380Y-75896666D01*
X199050000Y-75801428D01*
X199097619Y-75753809D01*
X199192857Y-75706190D01*
X199383333Y-75658571D01*
X199621428Y-75658571D01*
X199811904Y-75706190D01*
X199907142Y-75753809D01*
X199954761Y-75801428D01*
X200002380Y-75896666D01*
X200002380Y-75991904D01*
X199954761Y-76087142D01*
X199907142Y-76134761D01*
X199811904Y-76182380D01*
X199621428Y-76230000D01*
X199383333Y-76230000D01*
X199192857Y-76182380D01*
X199097619Y-76134761D01*
X199050000Y-76087142D01*
X199002380Y-75991904D01*
X199907142Y-75230000D02*
X199954761Y-75182380D01*
X200002380Y-75230000D01*
X199954761Y-75277619D01*
X199907142Y-75230000D01*
X200002380Y-75230000D01*
X199002380Y-74277619D02*
X199002380Y-74753809D01*
X199478571Y-74801428D01*
X199430952Y-74753809D01*
X199383333Y-74658571D01*
X199383333Y-74420476D01*
X199430952Y-74325238D01*
X199478571Y-74277619D01*
X199573809Y-74230000D01*
X199811904Y-74230000D01*
X199907142Y-74277619D01*
X199954761Y-74325238D01*
X200002380Y-74420476D01*
X200002380Y-74658571D01*
X199954761Y-74753809D01*
X199907142Y-74801428D01*
X199002380Y-73610952D02*
X199002380Y-73515714D01*
X199050000Y-73420476D01*
X199097619Y-73372857D01*
X199192857Y-73325238D01*
X199383333Y-73277619D01*
X199621428Y-73277619D01*
X199811904Y-73325238D01*
X199907142Y-73372857D01*
X199954761Y-73420476D01*
X200002380Y-73515714D01*
X200002380Y-73610952D01*
X199954761Y-73706190D01*
X199907142Y-73753809D01*
X199811904Y-73801428D01*
X199621428Y-73849047D01*
X199383333Y-73849047D01*
X199192857Y-73801428D01*
X199097619Y-73753809D01*
X199050000Y-73706190D01*
X199002380Y-73610952D01*
X199002380Y-72658571D02*
X199002380Y-72563333D01*
X199050000Y-72468095D01*
X199097619Y-72420476D01*
X199192857Y-72372857D01*
X199383333Y-72325238D01*
X199621428Y-72325238D01*
X199811904Y-72372857D01*
X199907142Y-72420476D01*
X199954761Y-72468095D01*
X200002380Y-72563333D01*
X200002380Y-72658571D01*
X199954761Y-72753809D01*
X199907142Y-72801428D01*
X199811904Y-72849047D01*
X199621428Y-72896666D01*
X199383333Y-72896666D01*
X199192857Y-72849047D01*
X199097619Y-72801428D01*
X199050000Y-72753809D01*
X199002380Y-72658571D01*
X199002380Y-71706190D02*
X199002380Y-71610952D01*
X199050000Y-71515714D01*
X199097619Y-71468095D01*
X199192857Y-71420476D01*
X199383333Y-71372857D01*
X199621428Y-71372857D01*
X199811904Y-71420476D01*
X199907142Y-71468095D01*
X199954761Y-71515714D01*
X200002380Y-71610952D01*
X200002380Y-71706190D01*
X199954761Y-71801428D01*
X199907142Y-71849047D01*
X199811904Y-71896666D01*
X199621428Y-71944285D01*
X199383333Y-71944285D01*
X199192857Y-71896666D01*
X199097619Y-71849047D01*
X199050000Y-71801428D01*
X199002380Y-71706190D01*
X200002380Y-70182380D02*
X199335714Y-70182380D01*
X199002380Y-70182380D02*
X199050000Y-70230000D01*
X199097619Y-70182380D01*
X199050000Y-70134761D01*
X199002380Y-70182380D01*
X199097619Y-70182380D01*
X199335714Y-69706190D02*
X200002380Y-69706190D01*
X199430952Y-69706190D02*
X199383333Y-69658571D01*
X199335714Y-69563333D01*
X199335714Y-69420476D01*
X199383333Y-69325238D01*
X199478571Y-69277619D01*
X200002380Y-69277619D01*
D11*
X193105634Y-66380000D02*
X201286420Y-66380000D01*
X193105634Y-79080000D02*
X201286420Y-79080000D01*
X200700000Y-66380000D02*
X200700000Y-79080000D01*
X200700000Y-66380000D02*
X200700000Y-79080000D01*
X200700000Y-66380000D02*
X200113579Y-67506504D01*
X200700000Y-66380000D02*
X201286421Y-67506504D01*
X200700000Y-79080000D02*
X201286421Y-77953496D01*
X200700000Y-79080000D02*
X200113579Y-77953496D01*
D10*
X178952380Y-158302380D02*
X178380952Y-158302380D01*
X178666666Y-158302380D02*
X178666666Y-157302380D01*
X178571428Y-157445238D01*
X178476190Y-157540476D01*
X178380952Y-157588095D01*
X179809523Y-157635714D02*
X179809523Y-158302380D01*
X179571428Y-157254761D02*
X179333333Y-157969047D01*
X179952380Y-157969047D01*
X180333333Y-158207142D02*
X180380952Y-158254761D01*
X180333333Y-158302380D01*
X180285714Y-158254761D01*
X180333333Y-158207142D01*
X180333333Y-158302380D01*
X181000000Y-157302380D02*
X181095238Y-157302380D01*
X181190476Y-157350000D01*
X181238095Y-157397619D01*
X181285714Y-157492857D01*
X181333333Y-157683333D01*
X181333333Y-157921428D01*
X181285714Y-158111904D01*
X181238095Y-158207142D01*
X181190476Y-158254761D01*
X181095238Y-158302380D01*
X181000000Y-158302380D01*
X180904761Y-158254761D01*
X180857142Y-158207142D01*
X180809523Y-158111904D01*
X180761904Y-157921428D01*
X180761904Y-157683333D01*
X180809523Y-157492857D01*
X180857142Y-157397619D01*
X180904761Y-157350000D01*
X181000000Y-157302380D01*
X181952380Y-157302380D02*
X182047619Y-157302380D01*
X182142857Y-157350000D01*
X182190476Y-157397619D01*
X182238095Y-157492857D01*
X182285714Y-157683333D01*
X182285714Y-157921428D01*
X182238095Y-158111904D01*
X182190476Y-158207142D01*
X182142857Y-158254761D01*
X182047619Y-158302380D01*
X181952380Y-158302380D01*
X181857142Y-158254761D01*
X181809523Y-158207142D01*
X181761904Y-158111904D01*
X181714285Y-157921428D01*
X181714285Y-157683333D01*
X181761904Y-157492857D01*
X181809523Y-157397619D01*
X181857142Y-157350000D01*
X181952380Y-157302380D01*
X182904761Y-157302380D02*
X183000000Y-157302380D01*
X183095238Y-157350000D01*
X183142857Y-157397619D01*
X183190476Y-157492857D01*
X183238095Y-157683333D01*
X183238095Y-157921428D01*
X183190476Y-158111904D01*
X183142857Y-158207142D01*
X183095238Y-158254761D01*
X183000000Y-158302380D01*
X182904761Y-158302380D01*
X182809523Y-158254761D01*
X182761904Y-158207142D01*
X182714285Y-158111904D01*
X182666666Y-157921428D01*
X182666666Y-157683333D01*
X182714285Y-157492857D01*
X182761904Y-157397619D01*
X182809523Y-157350000D01*
X182904761Y-157302380D01*
X183857142Y-157302380D02*
X183952380Y-157302380D01*
X184047619Y-157350000D01*
X184095238Y-157397619D01*
X184142857Y-157492857D01*
X184190476Y-157683333D01*
X184190476Y-157921428D01*
X184142857Y-158111904D01*
X184095238Y-158207142D01*
X184047619Y-158254761D01*
X183952380Y-158302380D01*
X183857142Y-158302380D01*
X183761904Y-158254761D01*
X183714285Y-158207142D01*
X183666666Y-158111904D01*
X183619047Y-157921428D01*
X183619047Y-157683333D01*
X183666666Y-157492857D01*
X183714285Y-157397619D01*
X183761904Y-157350000D01*
X183857142Y-157302380D01*
X185380952Y-158302380D02*
X185380952Y-157635714D01*
X185380952Y-157730952D02*
X185428571Y-157683333D01*
X185523809Y-157635714D01*
X185666666Y-157635714D01*
X185761904Y-157683333D01*
X185809523Y-157778571D01*
X185809523Y-158302380D01*
X185809523Y-157778571D02*
X185857142Y-157683333D01*
X185952380Y-157635714D01*
X186095238Y-157635714D01*
X186190476Y-157683333D01*
X186238095Y-157778571D01*
X186238095Y-158302380D01*
X186714285Y-158302380D02*
X186714285Y-157635714D01*
X186714285Y-157730952D02*
X186761904Y-157683333D01*
X186857142Y-157635714D01*
X187000000Y-157635714D01*
X187095238Y-157683333D01*
X187142857Y-157778571D01*
X187142857Y-158302380D01*
X187142857Y-157778571D02*
X187190476Y-157683333D01*
X187285714Y-157635714D01*
X187428571Y-157635714D01*
X187523809Y-157683333D01*
X187571428Y-157778571D01*
X187571428Y-158302380D01*
D11*
X190000000Y-153500000D02*
X190000000Y-159586420D01*
X176000000Y-153500000D02*
X176000000Y-159586420D01*
X190000000Y-159000000D02*
X176000000Y-159000000D01*
X190000000Y-159000000D02*
X176000000Y-159000000D01*
X190000000Y-159000000D02*
X188873496Y-158413579D01*
X190000000Y-159000000D02*
X188873496Y-159586421D01*
X176000000Y-159000000D02*
X177126504Y-159586421D01*
X176000000Y-159000000D02*
X177126504Y-158413579D01*
D10*
%TO.C,H1*%
X188500000Y-143500000D02*
G75*
G03*
X188500000Y-143500000I-3200000J0D01*
G01*
X188500000Y-57000000D02*
G75*
G03*
X188500000Y-57000000I-3200000J0D01*
G01*
%TD*%
M02*
