%TF.GenerationSoftware,KiCad,Pcbnew,(6.0.0)*%
%TF.CreationDate,2022-10-07T21:40:30-07:00*%
%TF.ProjectId,waveblaster-to-midi-module,77617665-626c-4617-9374-65722d746f2d,rev?*%
%TF.SameCoordinates,PX525bfc0PY8670810*%
%TF.FileFunction,Copper,L1,Top*%
%TF.FilePolarity,Positive*%
%FSLAX46Y46*%
G04 Gerber Fmt 4.6, Leading zero omitted, Abs format (unit mm)*
G04 Created by KiCad (PCBNEW (6.0.0)) date 2022-10-07 21:40:30*
%MOMM*%
%LPD*%
G01*
G04 APERTURE LIST*
G04 Aperture macros list*
%AMRoundRect*
0 Rectangle with rounded corners*
0 $1 Rounding radius*
0 $2 $3 $4 $5 $6 $7 $8 $9 X,Y pos of 4 corners*
0 Add a 4 corners polygon primitive as box body*
4,1,4,$2,$3,$4,$5,$6,$7,$8,$9,$2,$3,0*
0 Add four circle primitives for the rounded corners*
1,1,$1+$1,$2,$3*
1,1,$1+$1,$4,$5*
1,1,$1+$1,$6,$7*
1,1,$1+$1,$8,$9*
0 Add four rect primitives between the rounded corners*
20,1,$1+$1,$2,$3,$4,$5,0*
20,1,$1+$1,$4,$5,$6,$7,0*
20,1,$1+$1,$6,$7,$8,$9,0*
20,1,$1+$1,$8,$9,$2,$3,0*%
G04 Aperture macros list end*
%TA.AperFunction,ComponentPad*%
%ADD10RoundRect,0.250000X-0.600000X-0.600000X0.600000X-0.600000X0.600000X0.600000X-0.600000X0.600000X0*%
%TD*%
%TA.AperFunction,ComponentPad*%
%ADD11C,1.700000*%
%TD*%
%TA.AperFunction,ComponentPad*%
%ADD12C,6.400000*%
%TD*%
%TA.AperFunction,ComponentPad*%
%ADD13O,1.800000X2.800000*%
%TD*%
%TA.AperFunction,ComponentPad*%
%ADD14C,1.600000*%
%TD*%
%TA.AperFunction,ComponentPad*%
%ADD15O,1.600000X1.600000*%
%TD*%
%TA.AperFunction,ComponentPad*%
%ADD16R,1.248000X1.248000*%
%TD*%
%TA.AperFunction,ComponentPad*%
%ADD17C,1.248000*%
%TD*%
%TA.AperFunction,ComponentPad*%
%ADD18O,2.400000X4.800000*%
%TD*%
%TA.AperFunction,ComponentPad*%
%ADD19O,3.400000X1.700000*%
%TD*%
%TA.AperFunction,ComponentPad*%
%ADD20R,1.600000X1.600000*%
%TD*%
%TA.AperFunction,Conductor*%
%ADD21C,0.800000*%
%TD*%
%TA.AperFunction,Conductor*%
%ADD22C,0.635000*%
%TD*%
%TA.AperFunction,Conductor*%
%ADD23C,0.254000*%
%TD*%
G04 APERTURE END LIST*
D10*
%TO.P,J7,1,Pin_1*%
%TO.N,GND*%
X167590000Y-80080000D03*
D11*
%TO.P,J7,2,Pin_2*%
%TO.N,unconnected-(J7-Pad2)*%
X170130000Y-80080000D03*
%TO.P,J7,3,Pin_3*%
%TO.N,GND*%
X167590000Y-82620000D03*
%TO.P,J7,4,Pin_4*%
%TO.N,WT_TX*%
X170130000Y-82620000D03*
%TO.P,J7,5,Pin_5*%
%TO.N,GND*%
X167590000Y-85160000D03*
%TO.P,J7,6,Pin_6*%
%TO.N,+5V*%
X170130000Y-85160000D03*
%TO.P,J7,7,Pin_7*%
%TO.N,GND*%
X167590000Y-87700000D03*
%TO.P,J7,8,Pin_8*%
%TO.N,WT_RX*%
X170130000Y-87700000D03*
%TO.P,J7,9,Pin_9*%
%TO.N,GND*%
X167590000Y-90240000D03*
%TO.P,J7,10,Pin_10*%
%TO.N,+5V*%
X170130000Y-90240000D03*
%TO.P,J7,11,Pin_11*%
%TO.N,GND*%
X167590000Y-92780000D03*
%TO.P,J7,12,Pin_12*%
%TO.N,WT_AUDIO_R_IN*%
X170130000Y-92780000D03*
%TO.P,J7,13,Pin_13*%
%TO.N,unconnected-(J7-Pad13)*%
X167590000Y-95320000D03*
%TO.P,J7,14,Pin_14*%
%TO.N,+5V*%
X170130000Y-95320000D03*
%TO.P,J7,15,Pin_15*%
%TO.N,GNDA*%
X167590000Y-97860000D03*
%TO.P,J7,16,Pin_16*%
%TO.N,WT_AUDIO_L_IN*%
X170130000Y-97860000D03*
%TO.P,J7,17,Pin_17*%
%TO.N,GNDA*%
X167590000Y-100400000D03*
%TO.P,J7,18,Pin_18*%
%TO.N,+12V*%
X170130000Y-100400000D03*
%TO.P,J7,19,Pin_19*%
%TO.N,GNDA*%
X167590000Y-102940000D03*
%TO.P,J7,20,Pin_20*%
%TO.N,WT_AUDIO_R_OUT*%
X170130000Y-102940000D03*
%TO.P,J7,21,Pin_21*%
%TO.N,GNDA*%
X167590000Y-105480000D03*
%TO.P,J7,22,Pin_22*%
%TO.N,-12V*%
X170130000Y-105480000D03*
%TO.P,J7,23,Pin_23*%
%TO.N,GNDA*%
X167590000Y-108020000D03*
%TO.P,J7,24,Pin_24*%
%TO.N,WT_AUDIO_L_OUT*%
X170130000Y-108020000D03*
%TO.P,J7,25,Pin_25*%
%TO.N,GNDA*%
X167590000Y-110560000D03*
%TO.P,J7,26,Pin_26*%
%TO.N,~{RESET}*%
X170130000Y-110560000D03*
%TD*%
D12*
%TO.P,H1,1,1*%
%TO.N,unconnected-(H1-Pad1)*%
X182716000Y-58900000D03*
%TO.P,H1,2,2*%
%TO.N,unconnected-(H1-Pad2)*%
X182716000Y-113800000D03*
%TD*%
D13*
%TO.P,J1,R*%
%TO.N,Net-(J1-PadR)*%
X180300000Y-80190000D03*
%TO.P,J1,S*%
%TO.N,GND*%
X188200000Y-78190000D03*
%TO.P,J1,T*%
%TO.N,Net-(J1-PadT)*%
X185800000Y-80190000D03*
%TD*%
D14*
%TO.P,R4,1*%
%TO.N,+5V*%
X176700000Y-92110000D03*
D15*
%TO.P,R4,2*%
%TO.N,Net-(J1-PadR)*%
X176700000Y-84490000D03*
%TD*%
D16*
%TO.P,U1,1*%
%TO.N,Net-(D1-Pad1)*%
X170130000Y-71440000D03*
D17*
%TO.P,U1,2*%
%TO.N,Net-(D1-Pad2)*%
X170130000Y-68900000D03*
%TO.P,U1,3*%
%TO.N,unconnected-(U1-Pad3)*%
X170130000Y-66360000D03*
%TO.P,U1,4*%
%TO.N,WT_RX*%
X162510000Y-66360000D03*
%TO.P,U1,5*%
%TO.N,GND*%
X162510000Y-68900000D03*
%TO.P,U1,6*%
%TO.N,+5V*%
X162510000Y-71440000D03*
%TD*%
D18*
%TO.P,J3,1*%
%TO.N,GNDA*%
X185580000Y-91350000D03*
D19*
%TO.P,J3,2*%
%TO.N,WT_AUDIO_R_OUT*%
X181080000Y-91350000D03*
%TD*%
D14*
%TO.P,R3,1*%
%TO.N,WT_TX*%
X173350000Y-92120000D03*
D15*
%TO.P,R3,2*%
%TO.N,Net-(J1-PadT)*%
X173350000Y-84500000D03*
%TD*%
D20*
%TO.P,D1,1,K*%
%TO.N,Net-(D1-Pad1)*%
X173300000Y-70684315D03*
D15*
%TO.P,D1,2,A*%
%TO.N,Net-(D1-Pad2)*%
X173300000Y-65604315D03*
%TD*%
D13*
%TO.P,J2,R*%
%TO.N,Net-(J2-PadR)*%
X180300000Y-69080000D03*
%TO.P,J2,S*%
%TO.N,unconnected-(J2-PadS)*%
X188200000Y-67080000D03*
%TO.P,J2,T*%
%TO.N,Net-(D1-Pad2)*%
X185800000Y-69080000D03*
%TD*%
D18*
%TO.P,J4,1*%
%TO.N,GNDA*%
X185580000Y-104600000D03*
D19*
%TO.P,J4,2*%
%TO.N,WT_AUDIO_L_OUT*%
X181080000Y-104600000D03*
%TD*%
D14*
%TO.P,R2,1*%
%TO.N,Net-(D1-Pad1)*%
X173350000Y-81760000D03*
D15*
%TO.P,R2,2*%
%TO.N,Net-(J2-PadR)*%
X173350000Y-74140000D03*
%TD*%
D14*
%TO.P,R1,1*%
%TO.N,+5V*%
X159200000Y-72660000D03*
D15*
%TO.P,R1,2*%
%TO.N,WT_RX*%
X159200000Y-65040000D03*
%TD*%
D21*
%TO.N,+5V*%
X165040000Y-71440000D02*
X171650000Y-78050000D01*
D22*
X170810000Y-85170000D02*
X171470000Y-85830000D01*
X170130000Y-90240000D02*
X175140000Y-90240000D01*
X162510000Y-71440000D02*
X160420000Y-71440000D01*
X160420000Y-71440000D02*
X159200000Y-72660000D01*
X175140000Y-90240000D02*
X176900000Y-92000000D01*
D21*
X171690000Y-78070000D02*
X171690000Y-85150000D01*
D22*
X170130000Y-85180000D02*
X171690000Y-85180000D01*
X176900000Y-92000000D02*
X176900000Y-92110000D01*
X170800070Y-90240000D02*
X171460070Y-90900000D01*
X170830000Y-90240000D02*
X170130000Y-90240000D01*
X170120070Y-90250000D02*
X171680070Y-90250000D01*
X171845000Y-91255000D02*
X170830000Y-90240000D01*
X170860000Y-85080000D02*
X171520000Y-84420000D01*
D21*
X171690000Y-93780000D02*
X171690000Y-85180000D01*
X171650000Y-78050000D02*
X171700000Y-78050000D01*
X162510000Y-71440000D02*
X165040000Y-71440000D01*
D22*
X170850070Y-90150000D02*
X171510070Y-89490000D01*
D21*
X170130000Y-95340000D02*
X171690000Y-93780000D01*
D22*
X171690000Y-85150000D02*
X171660000Y-85180000D01*
D23*
%TO.N,WT_RX*%
X159200000Y-65040000D02*
X161190000Y-65040000D01*
X166600000Y-86400000D02*
X157550000Y-77350000D01*
X170130000Y-87700000D02*
X168830000Y-86400000D01*
X157550000Y-66690000D02*
X159200000Y-65040000D01*
X161190000Y-65040000D02*
X162510000Y-66360000D01*
X157550000Y-77350000D02*
X157550000Y-66690000D01*
X168830000Y-86400000D02*
X166600000Y-86400000D01*
%TO.N,Net-(J1-PadR)*%
X176700000Y-84490000D02*
X180300000Y-80890000D01*
X180300000Y-80890000D02*
X180300000Y-80690000D01*
%TO.N,Net-(J1-PadT)*%
X173350000Y-84050000D02*
X179400000Y-78000000D01*
X173350000Y-84500000D02*
X173350000Y-84050000D01*
X183610000Y-78000000D02*
X185800000Y-80190000D01*
X179400000Y-78000000D02*
X183610000Y-78000000D01*
%TO.N,Net-(D1-Pad1)*%
X171180000Y-70390000D02*
X173005685Y-70390000D01*
X170130000Y-71440000D02*
X171180000Y-70390000D01*
X173350000Y-81760000D02*
X173350000Y-77200000D01*
X173350000Y-77200000D02*
X170130000Y-73980000D01*
X170130000Y-73980000D02*
X170130000Y-71440000D01*
D21*
%TO.N,WT_AUDIO_L_OUT*%
X177300000Y-104700000D02*
X173980000Y-108020000D01*
X173980000Y-108020000D02*
X170130000Y-108020000D01*
X181080000Y-104700000D02*
X177300000Y-104700000D01*
%TO.N,WT_AUDIO_R_OUT*%
X170190000Y-103000000D02*
X170130000Y-102940000D01*
X181080000Y-94620000D02*
X172700000Y-103000000D01*
X172700000Y-103000000D02*
X170190000Y-103000000D01*
X181080000Y-91350000D02*
X181080000Y-94620000D01*
D23*
%TO.N,Net-(D1-Pad2)*%
X174300000Y-64604315D02*
X173300000Y-65604315D01*
X170130000Y-68900000D02*
X173300000Y-65730000D01*
X185800000Y-69080000D02*
X181324315Y-64604315D01*
X173300000Y-65730000D02*
X173300000Y-65604315D01*
X181324315Y-64604315D02*
X174300000Y-64604315D01*
%TO.N,Net-(J2-PadR)*%
X178260000Y-69080000D02*
X180300000Y-69080000D01*
X173350000Y-73990000D02*
X178260000Y-69080000D01*
%TD*%
%TA.AperFunction,Conductor*%
%TO.N,GNDA*%
G36*
X187421445Y-86055354D02*
G01*
X187468048Y-86108914D01*
X187477991Y-86181201D01*
X187475014Y-86200000D01*
X187476565Y-86209792D01*
X187478449Y-86221687D01*
X187480000Y-86241398D01*
X187480000Y-87958602D01*
X187478449Y-87978311D01*
X187475014Y-88000000D01*
X187480000Y-88031481D01*
X187494835Y-88125148D01*
X187499336Y-88133981D01*
X187499336Y-88133982D01*
X187525175Y-88184693D01*
X187552359Y-88238045D01*
X187641955Y-88327641D01*
X187754852Y-88385165D01*
X187764645Y-88386716D01*
X187859998Y-88401818D01*
X187880000Y-88404986D01*
X187901689Y-88401551D01*
X187921398Y-88400000D01*
X189474000Y-88400000D01*
X189542121Y-88420002D01*
X189588614Y-88473658D01*
X189600000Y-88526000D01*
X189600000Y-94174000D01*
X189579998Y-94242121D01*
X189526342Y-94288614D01*
X189474000Y-94300000D01*
X187921398Y-94300000D01*
X187901689Y-94298449D01*
X187880000Y-94295014D01*
X187848519Y-94300000D01*
X187754852Y-94314835D01*
X187641955Y-94372359D01*
X187552359Y-94461955D01*
X187494835Y-94574852D01*
X187475014Y-94700000D01*
X187476565Y-94709792D01*
X187478449Y-94721687D01*
X187480000Y-94741398D01*
X187480000Y-96458602D01*
X187478449Y-96478311D01*
X187475014Y-96500000D01*
X187480000Y-96531481D01*
X187494835Y-96625148D01*
X187552359Y-96738045D01*
X187641955Y-96827641D01*
X187754852Y-96885165D01*
X187764645Y-96886716D01*
X187859998Y-96901818D01*
X187880000Y-96904986D01*
X187901689Y-96901551D01*
X187921398Y-96900000D01*
X189474000Y-96900000D01*
X189542121Y-96920002D01*
X189588614Y-96973658D01*
X189600000Y-97026000D01*
X189600000Y-98924000D01*
X189579998Y-98992121D01*
X189526342Y-99038614D01*
X189474000Y-99050000D01*
X187921398Y-99050000D01*
X187901689Y-99048449D01*
X187880000Y-99045014D01*
X187848519Y-99050000D01*
X187754852Y-99064835D01*
X187746019Y-99069336D01*
X187746018Y-99069336D01*
X187711288Y-99087032D01*
X187641955Y-99122359D01*
X187552359Y-99211955D01*
X187529952Y-99255932D01*
X187513852Y-99287530D01*
X187494835Y-99324852D01*
X187475014Y-99450000D01*
X187476565Y-99459792D01*
X187478449Y-99471687D01*
X187480000Y-99491398D01*
X187480000Y-101208602D01*
X187478449Y-101228311D01*
X187475014Y-101250000D01*
X187480000Y-101281481D01*
X187494835Y-101375148D01*
X187552359Y-101488045D01*
X187641955Y-101577641D01*
X187754852Y-101635165D01*
X187764645Y-101636716D01*
X187859998Y-101651818D01*
X187880000Y-101654986D01*
X187901689Y-101651551D01*
X187921398Y-101650000D01*
X189474000Y-101650000D01*
X189542121Y-101670002D01*
X189588614Y-101723658D01*
X189600000Y-101776000D01*
X189600000Y-107424000D01*
X189579998Y-107492121D01*
X189526342Y-107538614D01*
X189474000Y-107550000D01*
X187921398Y-107550000D01*
X187901689Y-107548449D01*
X187880000Y-107545014D01*
X187848519Y-107550000D01*
X187754852Y-107564835D01*
X187746019Y-107569336D01*
X187746018Y-107569336D01*
X187695307Y-107595175D01*
X187641955Y-107622359D01*
X187552359Y-107711955D01*
X187494835Y-107824852D01*
X187475014Y-107950000D01*
X187476565Y-107959792D01*
X187478449Y-107971687D01*
X187480000Y-107991398D01*
X187480000Y-109573989D01*
X187459998Y-109642110D01*
X187406342Y-109688603D01*
X187353999Y-109699989D01*
X176115390Y-109699944D01*
X176097274Y-109699944D01*
X176098244Y-111913257D01*
X176099404Y-114562770D01*
X176079432Y-114630899D01*
X176025796Y-114677416D01*
X175973711Y-114688825D01*
X157506307Y-114733826D01*
X157438138Y-114713990D01*
X157391514Y-114660447D01*
X157380000Y-114607826D01*
X157380000Y-111684853D01*
X166829977Y-111684853D01*
X166835258Y-111691907D01*
X166996756Y-111786279D01*
X167006042Y-111790729D01*
X167205001Y-111866703D01*
X167214899Y-111869579D01*
X167423595Y-111912038D01*
X167433823Y-111913257D01*
X167646650Y-111921062D01*
X167656936Y-111920595D01*
X167868185Y-111893534D01*
X167878262Y-111891392D01*
X168082255Y-111830191D01*
X168091842Y-111826433D01*
X168283098Y-111732738D01*
X168291944Y-111727465D01*
X168339247Y-111693723D01*
X168347648Y-111683023D01*
X168340660Y-111669870D01*
X167602812Y-110932022D01*
X167588868Y-110924408D01*
X167587035Y-110924539D01*
X167580420Y-110928790D01*
X166836737Y-111672473D01*
X166829977Y-111684853D01*
X157380000Y-111684853D01*
X157380000Y-110531863D01*
X166228050Y-110531863D01*
X166240309Y-110744477D01*
X166241745Y-110754697D01*
X166288565Y-110962446D01*
X166291645Y-110972275D01*
X166371770Y-111169603D01*
X166376413Y-111178794D01*
X166456460Y-111309420D01*
X166466916Y-111318880D01*
X166475694Y-111315096D01*
X167217978Y-110572812D01*
X167225592Y-110558868D01*
X167225461Y-110557035D01*
X167221210Y-110550420D01*
X166479849Y-109809059D01*
X166468313Y-109802759D01*
X166456031Y-109812382D01*
X166408089Y-109882662D01*
X166403004Y-109891613D01*
X166313338Y-110084783D01*
X166309775Y-110094470D01*
X166252864Y-110299681D01*
X166250933Y-110309800D01*
X166228302Y-110521574D01*
X166228050Y-110531863D01*
X157380000Y-110531863D01*
X157380000Y-109144853D01*
X166829977Y-109144853D01*
X166835258Y-109151907D01*
X166882479Y-109179501D01*
X166931203Y-109231139D01*
X166944274Y-109300922D01*
X166917543Y-109366694D01*
X166877087Y-109400053D01*
X166868466Y-109404541D01*
X166859734Y-109410039D01*
X166839677Y-109425099D01*
X166831223Y-109436427D01*
X166837968Y-109448758D01*
X167577188Y-110187978D01*
X167591132Y-110195592D01*
X167592965Y-110195461D01*
X167599580Y-110191210D01*
X168343389Y-109447401D01*
X168350410Y-109434544D01*
X168343611Y-109425213D01*
X168339559Y-109422521D01*
X168302116Y-109401852D01*
X168252145Y-109351420D01*
X168237373Y-109281977D01*
X168262489Y-109215572D01*
X168289840Y-109188965D01*
X168339247Y-109153723D01*
X168347648Y-109143023D01*
X168340660Y-109129870D01*
X167602812Y-108392022D01*
X167588868Y-108384408D01*
X167587035Y-108384539D01*
X167580420Y-108388790D01*
X166836737Y-109132473D01*
X166829977Y-109144853D01*
X157380000Y-109144853D01*
X157380000Y-107991863D01*
X166228050Y-107991863D01*
X166240309Y-108204477D01*
X166241745Y-108214697D01*
X166288565Y-108422446D01*
X166291645Y-108432275D01*
X166371770Y-108629603D01*
X166376413Y-108638794D01*
X166456460Y-108769420D01*
X166466916Y-108778880D01*
X166475694Y-108775096D01*
X167217978Y-108032812D01*
X167225592Y-108018868D01*
X167225461Y-108017035D01*
X167221210Y-108010420D01*
X166479849Y-107269059D01*
X166468313Y-107262759D01*
X166456031Y-107272382D01*
X166408089Y-107342662D01*
X166403004Y-107351613D01*
X166313338Y-107544783D01*
X166309775Y-107554470D01*
X166252864Y-107759681D01*
X166250933Y-107769800D01*
X166228302Y-107981574D01*
X166228050Y-107991863D01*
X157380000Y-107991863D01*
X157380000Y-106604853D01*
X166829977Y-106604853D01*
X166835258Y-106611907D01*
X166882479Y-106639501D01*
X166931203Y-106691139D01*
X166944274Y-106760922D01*
X166917543Y-106826694D01*
X166877087Y-106860053D01*
X166868466Y-106864541D01*
X166859734Y-106870039D01*
X166839677Y-106885099D01*
X166831223Y-106896427D01*
X166837968Y-106908758D01*
X167577188Y-107647978D01*
X167591132Y-107655592D01*
X167592965Y-107655461D01*
X167599580Y-107651210D01*
X168343389Y-106907401D01*
X168350410Y-106894544D01*
X168343611Y-106885213D01*
X168339559Y-106882521D01*
X168302116Y-106861852D01*
X168252145Y-106811420D01*
X168237373Y-106741977D01*
X168262489Y-106675572D01*
X168289840Y-106648965D01*
X168339247Y-106613723D01*
X168347648Y-106603023D01*
X168340660Y-106589870D01*
X167602812Y-105852022D01*
X167588868Y-105844408D01*
X167587035Y-105844539D01*
X167580420Y-105848790D01*
X166836737Y-106592473D01*
X166829977Y-106604853D01*
X157380000Y-106604853D01*
X157380000Y-105451863D01*
X166228050Y-105451863D01*
X166240309Y-105664477D01*
X166241745Y-105674697D01*
X166288565Y-105882446D01*
X166291645Y-105892275D01*
X166371770Y-106089603D01*
X166376413Y-106098794D01*
X166456460Y-106229420D01*
X166466916Y-106238880D01*
X166475694Y-106235096D01*
X167217978Y-105492812D01*
X167225592Y-105478868D01*
X167225461Y-105477035D01*
X167221210Y-105470420D01*
X166479849Y-104729059D01*
X166468313Y-104722759D01*
X166456031Y-104732382D01*
X166408089Y-104802662D01*
X166403004Y-104811613D01*
X166313338Y-105004783D01*
X166309775Y-105014470D01*
X166252864Y-105219681D01*
X166250933Y-105229800D01*
X166228302Y-105441574D01*
X166228050Y-105451863D01*
X157380000Y-105451863D01*
X157380000Y-104064853D01*
X166829977Y-104064853D01*
X166835258Y-104071907D01*
X166882479Y-104099501D01*
X166931203Y-104151139D01*
X166944274Y-104220922D01*
X166917543Y-104286694D01*
X166877087Y-104320053D01*
X166868466Y-104324541D01*
X166859734Y-104330039D01*
X166839677Y-104345099D01*
X166831223Y-104356427D01*
X166837968Y-104368758D01*
X167577188Y-105107978D01*
X167591132Y-105115592D01*
X167592965Y-105115461D01*
X167599580Y-105111210D01*
X168343389Y-104367401D01*
X168350410Y-104354544D01*
X168343611Y-104345213D01*
X168339559Y-104342521D01*
X168302116Y-104321852D01*
X168252145Y-104271420D01*
X168237373Y-104201977D01*
X168262489Y-104135572D01*
X168289840Y-104108965D01*
X168339247Y-104073723D01*
X168347648Y-104063023D01*
X168340660Y-104049870D01*
X167602812Y-103312022D01*
X167588868Y-103304408D01*
X167587035Y-103304539D01*
X167580420Y-103308790D01*
X166836737Y-104052473D01*
X166829977Y-104064853D01*
X157380000Y-104064853D01*
X157380000Y-102911863D01*
X166228050Y-102911863D01*
X166240309Y-103124477D01*
X166241745Y-103134697D01*
X166288565Y-103342446D01*
X166291645Y-103352275D01*
X166371770Y-103549603D01*
X166376413Y-103558794D01*
X166456460Y-103689420D01*
X166466916Y-103698880D01*
X166475694Y-103695096D01*
X167217978Y-102952812D01*
X167225592Y-102938868D01*
X167225461Y-102937035D01*
X167221210Y-102930420D01*
X166479849Y-102189059D01*
X166468313Y-102182759D01*
X166456031Y-102192382D01*
X166408089Y-102262662D01*
X166403004Y-102271613D01*
X166313338Y-102464783D01*
X166309775Y-102474470D01*
X166252864Y-102679681D01*
X166250933Y-102689800D01*
X166228302Y-102901574D01*
X166228050Y-102911863D01*
X157380000Y-102911863D01*
X157380000Y-101524853D01*
X166829977Y-101524853D01*
X166835258Y-101531907D01*
X166882479Y-101559501D01*
X166931203Y-101611139D01*
X166944274Y-101680922D01*
X166917543Y-101746694D01*
X166877087Y-101780053D01*
X166868466Y-101784541D01*
X166859734Y-101790039D01*
X166839677Y-101805099D01*
X166831223Y-101816427D01*
X166837968Y-101828758D01*
X167577188Y-102567978D01*
X167591132Y-102575592D01*
X167592965Y-102575461D01*
X167599580Y-102571210D01*
X168343389Y-101827401D01*
X168350410Y-101814544D01*
X168343611Y-101805213D01*
X168339559Y-101802521D01*
X168302116Y-101781852D01*
X168252145Y-101731420D01*
X168237373Y-101661977D01*
X168262489Y-101595572D01*
X168289840Y-101568965D01*
X168339247Y-101533723D01*
X168347648Y-101523023D01*
X168340660Y-101509870D01*
X167602812Y-100772022D01*
X167588868Y-100764408D01*
X167587035Y-100764539D01*
X167580420Y-100768790D01*
X166836737Y-101512473D01*
X166829977Y-101524853D01*
X157380000Y-101524853D01*
X157380000Y-100371863D01*
X166228050Y-100371863D01*
X166240309Y-100584477D01*
X166241745Y-100594697D01*
X166288565Y-100802446D01*
X166291645Y-100812275D01*
X166371770Y-101009603D01*
X166376413Y-101018794D01*
X166456460Y-101149420D01*
X166466916Y-101158880D01*
X166475694Y-101155096D01*
X167217978Y-100412812D01*
X167225592Y-100398868D01*
X167225461Y-100397035D01*
X167221210Y-100390420D01*
X166479849Y-99649059D01*
X166468313Y-99642759D01*
X166456031Y-99652382D01*
X166408089Y-99722662D01*
X166403004Y-99731613D01*
X166313338Y-99924783D01*
X166309775Y-99934470D01*
X166252864Y-100139681D01*
X166250933Y-100149800D01*
X166228302Y-100361574D01*
X166228050Y-100371863D01*
X157380000Y-100371863D01*
X157380000Y-98984853D01*
X166829977Y-98984853D01*
X166835258Y-98991907D01*
X166882479Y-99019501D01*
X166931203Y-99071139D01*
X166944274Y-99140922D01*
X166917543Y-99206694D01*
X166877087Y-99240053D01*
X166868466Y-99244541D01*
X166859734Y-99250039D01*
X166839677Y-99265099D01*
X166831223Y-99276427D01*
X166837968Y-99288758D01*
X167577188Y-100027978D01*
X167591132Y-100035592D01*
X167592965Y-100035461D01*
X167599580Y-100031210D01*
X168343389Y-99287401D01*
X168350410Y-99274544D01*
X168343611Y-99265213D01*
X168339559Y-99262521D01*
X168302116Y-99241852D01*
X168252145Y-99191420D01*
X168237373Y-99121977D01*
X168262489Y-99055572D01*
X168289840Y-99028965D01*
X168339247Y-98993723D01*
X168347648Y-98983023D01*
X168340660Y-98969870D01*
X167602812Y-98232022D01*
X167588868Y-98224408D01*
X167587035Y-98224539D01*
X167580420Y-98228790D01*
X166836737Y-98972473D01*
X166829977Y-98984853D01*
X157380000Y-98984853D01*
X157380000Y-97831863D01*
X166228050Y-97831863D01*
X166240309Y-98044477D01*
X166241745Y-98054697D01*
X166288565Y-98262446D01*
X166291645Y-98272275D01*
X166371770Y-98469603D01*
X166376413Y-98478794D01*
X166456460Y-98609420D01*
X166466916Y-98618880D01*
X166475694Y-98615096D01*
X167217978Y-97872812D01*
X167225592Y-97858868D01*
X167225461Y-97857035D01*
X167221210Y-97850420D01*
X166479849Y-97109059D01*
X166468313Y-97102759D01*
X166456031Y-97112382D01*
X166408089Y-97182662D01*
X166403004Y-97191613D01*
X166313338Y-97384783D01*
X166309775Y-97394470D01*
X166252864Y-97599681D01*
X166250933Y-97609800D01*
X166228302Y-97821574D01*
X166228050Y-97831863D01*
X157380000Y-97831863D01*
X157380000Y-95383125D01*
X157400002Y-95315004D01*
X157453658Y-95268511D01*
X157505319Y-95257127D01*
X159699436Y-95245283D01*
X166306213Y-95209618D01*
X166374441Y-95229252D01*
X166421222Y-95282656D01*
X166432623Y-95327375D01*
X166444036Y-95501503D01*
X166496301Y-95707299D01*
X166585195Y-95900124D01*
X166707740Y-96073521D01*
X166859832Y-96221683D01*
X166864628Y-96224888D01*
X166864631Y-96224890D01*
X166935886Y-96272501D01*
X167036377Y-96339647D01*
X167041680Y-96341926D01*
X167041685Y-96341928D01*
X167069293Y-96353789D01*
X167089862Y-96362626D01*
X167144554Y-96407892D01*
X167166092Y-96475543D01*
X167147635Y-96544099D01*
X167095045Y-96591794D01*
X167079271Y-96598157D01*
X167066873Y-96602210D01*
X167057359Y-96606209D01*
X166868466Y-96704540D01*
X166859734Y-96710039D01*
X166839677Y-96725099D01*
X166831223Y-96736427D01*
X166837968Y-96748758D01*
X167577188Y-97487978D01*
X167591132Y-97495592D01*
X167592965Y-97495461D01*
X167599580Y-97491210D01*
X168343389Y-96747401D01*
X168350410Y-96734544D01*
X168343611Y-96725213D01*
X168339554Y-96722518D01*
X168153117Y-96619599D01*
X168143704Y-96615368D01*
X168098197Y-96599253D01*
X168040660Y-96557658D01*
X168014745Y-96491560D01*
X168028679Y-96421945D01*
X168078690Y-96370546D01*
X168247172Y-96276192D01*
X168410420Y-96140420D01*
X168546192Y-95977172D01*
X168649940Y-95791916D01*
X168718191Y-95590855D01*
X168719019Y-95585146D01*
X168719020Y-95585141D01*
X168730334Y-95507105D01*
X168733287Y-95486738D01*
X168762857Y-95422193D01*
X168822628Y-95383881D01*
X168893625Y-95383965D01*
X168953305Y-95422420D01*
X168982722Y-95487036D01*
X168983565Y-95495147D01*
X168983658Y-95495733D01*
X168984036Y-95501503D01*
X169036301Y-95707299D01*
X169125195Y-95900124D01*
X169247740Y-96073521D01*
X169399832Y-96221683D01*
X169404628Y-96224888D01*
X169404631Y-96224890D01*
X169475886Y-96272501D01*
X169576377Y-96339647D01*
X169581685Y-96341928D01*
X169581686Y-96341928D01*
X169766160Y-96421184D01*
X169766163Y-96421185D01*
X169771463Y-96423462D01*
X169777092Y-96424736D01*
X169777093Y-96424736D01*
X169972087Y-96468859D01*
X170034114Y-96503402D01*
X170067618Y-96565996D01*
X170061964Y-96636767D01*
X170018945Y-96693246D01*
X169965617Y-96715932D01*
X169835395Y-96738308D01*
X169835392Y-96738309D01*
X169829705Y-96739286D01*
X169630500Y-96812776D01*
X169448023Y-96921339D01*
X169288385Y-97061337D01*
X169284818Y-97065862D01*
X169284813Y-97065867D01*
X169162663Y-97220814D01*
X169156933Y-97228083D01*
X169154245Y-97233192D01*
X169081702Y-97371074D01*
X169032282Y-97422047D01*
X168963150Y-97438210D01*
X168896254Y-97414431D01*
X168854643Y-97362649D01*
X168792972Y-97220814D01*
X168788105Y-97211739D01*
X168723063Y-97111197D01*
X168712377Y-97101995D01*
X168702812Y-97106398D01*
X167962022Y-97847188D01*
X167954408Y-97861132D01*
X167954539Y-97862965D01*
X167958790Y-97869580D01*
X168700474Y-98611264D01*
X168712484Y-98617823D01*
X168724223Y-98608855D01*
X168755004Y-98566019D01*
X168760315Y-98557180D01*
X168854673Y-98366260D01*
X168855578Y-98363976D01*
X168856191Y-98363191D01*
X168856964Y-98361626D01*
X168857287Y-98361786D01*
X168899253Y-98308003D01*
X168966256Y-98284527D01*
X169035314Y-98301003D01*
X169087155Y-98357609D01*
X169125195Y-98440124D01*
X169247740Y-98613521D01*
X169399832Y-98761683D01*
X169404628Y-98764888D01*
X169404631Y-98764890D01*
X169475886Y-98812501D01*
X169576377Y-98879647D01*
X169581685Y-98881928D01*
X169581686Y-98881928D01*
X169766160Y-98961184D01*
X169766163Y-98961185D01*
X169771463Y-98963462D01*
X169777092Y-98964736D01*
X169777093Y-98964736D01*
X169972087Y-99008859D01*
X170034114Y-99043402D01*
X170067618Y-99105996D01*
X170061964Y-99176767D01*
X170018945Y-99233246D01*
X169965617Y-99255932D01*
X169835395Y-99278308D01*
X169835392Y-99278309D01*
X169829705Y-99279286D01*
X169630500Y-99352776D01*
X169501024Y-99429807D01*
X169483543Y-99440207D01*
X169448023Y-99461339D01*
X169288385Y-99601337D01*
X169284818Y-99605862D01*
X169284813Y-99605867D01*
X169162663Y-99760814D01*
X169156933Y-99768083D01*
X169154245Y-99773192D01*
X169081702Y-99911074D01*
X169032282Y-99962047D01*
X168963150Y-99978210D01*
X168896254Y-99954431D01*
X168854643Y-99902649D01*
X168792972Y-99760814D01*
X168788105Y-99751739D01*
X168723063Y-99651197D01*
X168712377Y-99641995D01*
X168702812Y-99646398D01*
X167962022Y-100387188D01*
X167954408Y-100401132D01*
X167954539Y-100402965D01*
X167958790Y-100409580D01*
X168700474Y-101151264D01*
X168712484Y-101157823D01*
X168724223Y-101148855D01*
X168755004Y-101106019D01*
X168760315Y-101097180D01*
X168854673Y-100906260D01*
X168855578Y-100903976D01*
X168856191Y-100903191D01*
X168856964Y-100901626D01*
X168857287Y-100901786D01*
X168899253Y-100848003D01*
X168966256Y-100824527D01*
X169035314Y-100841003D01*
X169087155Y-100897609D01*
X169125195Y-100980124D01*
X169247740Y-101153521D01*
X169399832Y-101301683D01*
X169404628Y-101304888D01*
X169404631Y-101304890D01*
X169509780Y-101375148D01*
X169576377Y-101419647D01*
X169581685Y-101421928D01*
X169581686Y-101421928D01*
X169766160Y-101501184D01*
X169766163Y-101501185D01*
X169771463Y-101503462D01*
X169777092Y-101504736D01*
X169777093Y-101504736D01*
X169972087Y-101548859D01*
X170034114Y-101583402D01*
X170067618Y-101645996D01*
X170061964Y-101716767D01*
X170018945Y-101773246D01*
X169965617Y-101795932D01*
X169835395Y-101818308D01*
X169835392Y-101818309D01*
X169829705Y-101819286D01*
X169630500Y-101892776D01*
X169448023Y-102001339D01*
X169288385Y-102141337D01*
X169284818Y-102145862D01*
X169284813Y-102145867D01*
X169169753Y-102291821D01*
X169156933Y-102308083D01*
X169154245Y-102313192D01*
X169081702Y-102451074D01*
X169032282Y-102502047D01*
X168963150Y-102518210D01*
X168896254Y-102494431D01*
X168854643Y-102442649D01*
X168792972Y-102300814D01*
X168788105Y-102291739D01*
X168723063Y-102191197D01*
X168712377Y-102181995D01*
X168702812Y-102186398D01*
X167962022Y-102927188D01*
X167954408Y-102941132D01*
X167954539Y-102942965D01*
X167958790Y-102949580D01*
X168700474Y-103691264D01*
X168712484Y-103697823D01*
X168724223Y-103688855D01*
X168755004Y-103646019D01*
X168760315Y-103637180D01*
X168854673Y-103446260D01*
X168855578Y-103443976D01*
X168856191Y-103443191D01*
X168856964Y-103441626D01*
X168857287Y-103441786D01*
X168899253Y-103388003D01*
X168966256Y-103364527D01*
X169035314Y-103381003D01*
X169087155Y-103437609D01*
X169125195Y-103520124D01*
X169247740Y-103693521D01*
X169399832Y-103841683D01*
X169404628Y-103844888D01*
X169404631Y-103844890D01*
X169485629Y-103899011D01*
X169576377Y-103959647D01*
X169581685Y-103961928D01*
X169581686Y-103961928D01*
X169766160Y-104041184D01*
X169766163Y-104041185D01*
X169771463Y-104043462D01*
X169777092Y-104044736D01*
X169777093Y-104044736D01*
X169972087Y-104088859D01*
X170034114Y-104123402D01*
X170067618Y-104185996D01*
X170061964Y-104256767D01*
X170018945Y-104313246D01*
X169965617Y-104335932D01*
X169835395Y-104358308D01*
X169835392Y-104358309D01*
X169829705Y-104359286D01*
X169630500Y-104432776D01*
X169448023Y-104541339D01*
X169288385Y-104681337D01*
X169284818Y-104685862D01*
X169284813Y-104685867D01*
X169162663Y-104840814D01*
X169156933Y-104848083D01*
X169154245Y-104853192D01*
X169081702Y-104991074D01*
X169032282Y-105042047D01*
X168963150Y-105058210D01*
X168896254Y-105034431D01*
X168854643Y-104982649D01*
X168792972Y-104840814D01*
X168788105Y-104831739D01*
X168723063Y-104731197D01*
X168712377Y-104721995D01*
X168702812Y-104726398D01*
X167962022Y-105467188D01*
X167954408Y-105481132D01*
X167954539Y-105482965D01*
X167958790Y-105489580D01*
X168700474Y-106231264D01*
X168712484Y-106237823D01*
X168724223Y-106228855D01*
X168755004Y-106186019D01*
X168760315Y-106177180D01*
X168854673Y-105986260D01*
X168855578Y-105983976D01*
X168856191Y-105983191D01*
X168856964Y-105981626D01*
X168857287Y-105981786D01*
X168899253Y-105928003D01*
X168966256Y-105904527D01*
X169035314Y-105921003D01*
X169087155Y-105977609D01*
X169125195Y-106060124D01*
X169247740Y-106233521D01*
X169399832Y-106381683D01*
X169404628Y-106384888D01*
X169404631Y-106384890D01*
X169475886Y-106432501D01*
X169576377Y-106499647D01*
X169581685Y-106501928D01*
X169581686Y-106501928D01*
X169766160Y-106581184D01*
X169766163Y-106581185D01*
X169771463Y-106583462D01*
X169777092Y-106584736D01*
X169777093Y-106584736D01*
X169972087Y-106628859D01*
X170034114Y-106663402D01*
X170067618Y-106725996D01*
X170061964Y-106796767D01*
X170018945Y-106853246D01*
X169965617Y-106875932D01*
X169835395Y-106898308D01*
X169835392Y-106898309D01*
X169829705Y-106899286D01*
X169630500Y-106972776D01*
X169448023Y-107081339D01*
X169288385Y-107221337D01*
X169284818Y-107225862D01*
X169284813Y-107225867D01*
X169162663Y-107380814D01*
X169156933Y-107388083D01*
X169154245Y-107393192D01*
X169081702Y-107531074D01*
X169032282Y-107582047D01*
X168963150Y-107598210D01*
X168896254Y-107574431D01*
X168854643Y-107522649D01*
X168792972Y-107380814D01*
X168788105Y-107371739D01*
X168723063Y-107271197D01*
X168712377Y-107261995D01*
X168702812Y-107266398D01*
X167962022Y-108007188D01*
X167954408Y-108021132D01*
X167954539Y-108022965D01*
X167958790Y-108029580D01*
X168700474Y-108771264D01*
X168712484Y-108777823D01*
X168724223Y-108768855D01*
X168755004Y-108726019D01*
X168760315Y-108717180D01*
X168854673Y-108526260D01*
X168855578Y-108523976D01*
X168856191Y-108523191D01*
X168856964Y-108521626D01*
X168857287Y-108521786D01*
X168899253Y-108468003D01*
X168966256Y-108444527D01*
X169035314Y-108461003D01*
X169087155Y-108517609D01*
X169125195Y-108600124D01*
X169247740Y-108773521D01*
X169399832Y-108921683D01*
X169404628Y-108924888D01*
X169404631Y-108924890D01*
X169475886Y-108972501D01*
X169576377Y-109039647D01*
X169581685Y-109041928D01*
X169581686Y-109041928D01*
X169766160Y-109121184D01*
X169766163Y-109121185D01*
X169771463Y-109123462D01*
X169777092Y-109124736D01*
X169777093Y-109124736D01*
X169972087Y-109168859D01*
X170034114Y-109203402D01*
X170067618Y-109265996D01*
X170061964Y-109336767D01*
X170018945Y-109393246D01*
X169965617Y-109415932D01*
X169835395Y-109438308D01*
X169835392Y-109438309D01*
X169829705Y-109439286D01*
X169630500Y-109512776D01*
X169448023Y-109621339D01*
X169288385Y-109761337D01*
X169284818Y-109765862D01*
X169284813Y-109765867D01*
X169162663Y-109920814D01*
X169156933Y-109928083D01*
X169154245Y-109933192D01*
X169081702Y-110071074D01*
X169032282Y-110122047D01*
X168963150Y-110138210D01*
X168896254Y-110114431D01*
X168854643Y-110062649D01*
X168792972Y-109920814D01*
X168788105Y-109911739D01*
X168723063Y-109811197D01*
X168712377Y-109801995D01*
X168702812Y-109806398D01*
X167962022Y-110547188D01*
X167954408Y-110561132D01*
X167954539Y-110562965D01*
X167958790Y-110569580D01*
X168700474Y-111311264D01*
X168712484Y-111317823D01*
X168724223Y-111308855D01*
X168755004Y-111266019D01*
X168760315Y-111257180D01*
X168854673Y-111066260D01*
X168855578Y-111063976D01*
X168856191Y-111063191D01*
X168856964Y-111061626D01*
X168857287Y-111061786D01*
X168899253Y-111008003D01*
X168966256Y-110984527D01*
X169035314Y-111001003D01*
X169087155Y-111057609D01*
X169125195Y-111140124D01*
X169247740Y-111313521D01*
X169399832Y-111461683D01*
X169404628Y-111464888D01*
X169404631Y-111464890D01*
X169475886Y-111512501D01*
X169576377Y-111579647D01*
X169581685Y-111581928D01*
X169581686Y-111581928D01*
X169766160Y-111661184D01*
X169766163Y-111661185D01*
X169771463Y-111663462D01*
X169777092Y-111664736D01*
X169777093Y-111664736D01*
X169972921Y-111709048D01*
X169972924Y-111709048D01*
X169978557Y-111710323D01*
X169984328Y-111710550D01*
X169984330Y-111710550D01*
X170049086Y-111713094D01*
X170190723Y-111718659D01*
X170295789Y-111703425D01*
X170395141Y-111689020D01*
X170395146Y-111689019D01*
X170400855Y-111688191D01*
X170406319Y-111686336D01*
X170406324Y-111686335D01*
X170596448Y-111621796D01*
X170601916Y-111619940D01*
X170787172Y-111516192D01*
X170950420Y-111380420D01*
X171086192Y-111217172D01*
X171189940Y-111031916D01*
X171218664Y-110947299D01*
X171256335Y-110836324D01*
X171256336Y-110836319D01*
X171258191Y-110830855D01*
X171259019Y-110825146D01*
X171259020Y-110825141D01*
X171288126Y-110624397D01*
X171288659Y-110620723D01*
X171290249Y-110560000D01*
X171270821Y-110348561D01*
X171213186Y-110144204D01*
X171119275Y-109953772D01*
X170992233Y-109783642D01*
X170836315Y-109639513D01*
X170656742Y-109526211D01*
X170623068Y-109512776D01*
X170596096Y-109502015D01*
X170459529Y-109447530D01*
X170453861Y-109446403D01*
X170453859Y-109446402D01*
X170283567Y-109412529D01*
X170220657Y-109379622D01*
X170185525Y-109317927D01*
X170189325Y-109247032D01*
X170230851Y-109189446D01*
X170290066Y-109164255D01*
X170400855Y-109148191D01*
X170406319Y-109146336D01*
X170406324Y-109146335D01*
X170596448Y-109081796D01*
X170601916Y-109079940D01*
X170787172Y-108976192D01*
X170950420Y-108840420D01*
X171008381Y-108770729D01*
X171067318Y-108731147D01*
X171105254Y-108725300D01*
X173951191Y-108725300D01*
X173959762Y-108725592D01*
X174017184Y-108729507D01*
X174024660Y-108728202D01*
X174024663Y-108728202D01*
X174079850Y-108718570D01*
X174086375Y-108717607D01*
X174141928Y-108710884D01*
X174149473Y-108709971D01*
X174156577Y-108707287D01*
X174159483Y-108706573D01*
X174175055Y-108702312D01*
X174177874Y-108701461D01*
X174185351Y-108700156D01*
X174192297Y-108697107D01*
X174192300Y-108697106D01*
X174243581Y-108674595D01*
X174249689Y-108672103D01*
X174309163Y-108649630D01*
X174315424Y-108645326D01*
X174318069Y-108643944D01*
X174332110Y-108636129D01*
X174334703Y-108634595D01*
X174341664Y-108631540D01*
X174392120Y-108592823D01*
X174397429Y-108588967D01*
X174449849Y-108552939D01*
X174491100Y-108506640D01*
X174496080Y-108501365D01*
X176024669Y-106972776D01*
X177133757Y-105863687D01*
X183872000Y-105863687D01*
X183872181Y-105868453D01*
X183886321Y-106054347D01*
X183887763Y-106063770D01*
X183944281Y-106307601D01*
X183947137Y-106316714D01*
X184039880Y-106549177D01*
X184044083Y-106557757D01*
X184170923Y-106773518D01*
X184176374Y-106781361D01*
X184334393Y-106975457D01*
X184340966Y-106982383D01*
X184526521Y-107150340D01*
X184534073Y-107156198D01*
X184742902Y-107294157D01*
X184751239Y-107298798D01*
X184978535Y-107403582D01*
X184987489Y-107406912D01*
X185228027Y-107476113D01*
X185237361Y-107478045D01*
X185308034Y-107487162D01*
X185322264Y-107484904D01*
X185326000Y-107471829D01*
X185326000Y-107471578D01*
X185834000Y-107471578D01*
X185837773Y-107484429D01*
X185852870Y-107486349D01*
X186001308Y-107460042D01*
X186010540Y-107457671D01*
X186247556Y-107377215D01*
X186256325Y-107373475D01*
X186478447Y-107258091D01*
X186486547Y-107253069D01*
X186688659Y-107105416D01*
X186695915Y-107099219D01*
X186873356Y-106922704D01*
X186879596Y-106915475D01*
X187028300Y-106714147D01*
X187033370Y-106706066D01*
X187149910Y-106484560D01*
X187153699Y-106475804D01*
X187235395Y-106239212D01*
X187237814Y-106229990D01*
X187282917Y-105983031D01*
X187283853Y-105975025D01*
X187287912Y-105897573D01*
X187288000Y-105894237D01*
X187288000Y-104872115D01*
X187283525Y-104856876D01*
X187282135Y-104855671D01*
X187274452Y-104854000D01*
X185852115Y-104854000D01*
X185836876Y-104858475D01*
X185835671Y-104859865D01*
X185834000Y-104867548D01*
X185834000Y-107471578D01*
X185326000Y-107471578D01*
X185326000Y-104872115D01*
X185321525Y-104856876D01*
X185320135Y-104855671D01*
X185312452Y-104854000D01*
X183890115Y-104854000D01*
X183874876Y-104858475D01*
X183873671Y-104859865D01*
X183872000Y-104867548D01*
X183872000Y-105863687D01*
X177133757Y-105863687D01*
X177555239Y-105442205D01*
X177617551Y-105408179D01*
X177644334Y-105405300D01*
X179343568Y-105405300D01*
X179411689Y-105425302D01*
X179428810Y-105438734D01*
X179431337Y-105441615D01*
X179435872Y-105445190D01*
X179435873Y-105445191D01*
X179484727Y-105483704D01*
X179598083Y-105573067D01*
X179603192Y-105575755D01*
X179780880Y-105669241D01*
X179780885Y-105669243D01*
X179785992Y-105671930D01*
X179988771Y-105734895D01*
X180161176Y-105755300D01*
X181983861Y-105755300D01*
X182068671Y-105747507D01*
X182135685Y-105741350D01*
X182135688Y-105741349D01*
X182141439Y-105740821D01*
X182160044Y-105735574D01*
X182340236Y-105684754D01*
X182340235Y-105684754D01*
X182345796Y-105683186D01*
X182536228Y-105589275D01*
X182677605Y-105483704D01*
X182701734Y-105465686D01*
X182701735Y-105465685D01*
X182706358Y-105462233D01*
X182850487Y-105306315D01*
X182963789Y-105126742D01*
X182968238Y-105115592D01*
X183000618Y-105034431D01*
X183042470Y-104929529D01*
X183043598Y-104923859D01*
X183082766Y-104726946D01*
X183082766Y-104726944D01*
X183083893Y-104721279D01*
X183084064Y-104708266D01*
X183086596Y-104514750D01*
X183086672Y-104508968D01*
X183076418Y-104449292D01*
X183055556Y-104327885D01*
X183872000Y-104327885D01*
X183876475Y-104343124D01*
X183877865Y-104344329D01*
X183885548Y-104346000D01*
X185307885Y-104346000D01*
X185323124Y-104341525D01*
X185324329Y-104340135D01*
X185326000Y-104332452D01*
X185326000Y-104327885D01*
X185834000Y-104327885D01*
X185838475Y-104343124D01*
X185839865Y-104344329D01*
X185847548Y-104346000D01*
X187269885Y-104346000D01*
X187285124Y-104341525D01*
X187286329Y-104340135D01*
X187288000Y-104332452D01*
X187288000Y-103336313D01*
X187287819Y-103331547D01*
X187273679Y-103145653D01*
X187272237Y-103136230D01*
X187215719Y-102892399D01*
X187212863Y-102883286D01*
X187120120Y-102650823D01*
X187115917Y-102642243D01*
X186989077Y-102426482D01*
X186983626Y-102418639D01*
X186825607Y-102224543D01*
X186819034Y-102217617D01*
X186633479Y-102049660D01*
X186625927Y-102043802D01*
X186417098Y-101905843D01*
X186408761Y-101901202D01*
X186181465Y-101796418D01*
X186172511Y-101793088D01*
X185931973Y-101723887D01*
X185922639Y-101721955D01*
X185851966Y-101712838D01*
X185837736Y-101715096D01*
X185834000Y-101728171D01*
X185834000Y-104327885D01*
X185326000Y-104327885D01*
X185326000Y-101728422D01*
X185322227Y-101715571D01*
X185307130Y-101713651D01*
X185158692Y-101739958D01*
X185149460Y-101742329D01*
X184912444Y-101822785D01*
X184903675Y-101826525D01*
X184681553Y-101941909D01*
X184673453Y-101946931D01*
X184471341Y-102094584D01*
X184464085Y-102100781D01*
X184286644Y-102277296D01*
X184280404Y-102284525D01*
X184131700Y-102485853D01*
X184126630Y-102493934D01*
X184010090Y-102715440D01*
X184006301Y-102724196D01*
X183924605Y-102960788D01*
X183922186Y-102970010D01*
X183877083Y-103216969D01*
X183876147Y-103224975D01*
X183872088Y-103302427D01*
X183872000Y-103305763D01*
X183872000Y-104327885D01*
X183055556Y-104327885D01*
X183051692Y-104305395D01*
X183051691Y-104305392D01*
X183050714Y-104299705D01*
X182977224Y-104100500D01*
X182868661Y-103918023D01*
X182728663Y-103758385D01*
X182724138Y-103754818D01*
X182724133Y-103754813D01*
X182566451Y-103630507D01*
X182566449Y-103630506D01*
X182561917Y-103626933D01*
X182532660Y-103611540D01*
X182379120Y-103530759D01*
X182379115Y-103530757D01*
X182374008Y-103528070D01*
X182171229Y-103465105D01*
X181998824Y-103444700D01*
X180176139Y-103444700D01*
X180091329Y-103452493D01*
X180024315Y-103458650D01*
X180024312Y-103458651D01*
X180018561Y-103459179D01*
X180013002Y-103460747D01*
X180013001Y-103460747D01*
X179997549Y-103465105D01*
X179814204Y-103516814D01*
X179623772Y-103610725D01*
X179576508Y-103646019D01*
X179489291Y-103711147D01*
X179453642Y-103737767D01*
X179309513Y-103893685D01*
X179306431Y-103898570D01*
X179306430Y-103898571D01*
X179282853Y-103935937D01*
X179229586Y-103982874D01*
X179176292Y-103994700D01*
X177328809Y-103994700D01*
X177320238Y-103994408D01*
X177262816Y-103990493D01*
X177255340Y-103991798D01*
X177255337Y-103991798D01*
X177200150Y-104001430D01*
X177193625Y-104002393D01*
X177147237Y-104008007D01*
X177130527Y-104010029D01*
X177123423Y-104012713D01*
X177120517Y-104013427D01*
X177104945Y-104017688D01*
X177102126Y-104018539D01*
X177094649Y-104019844D01*
X177087703Y-104022893D01*
X177087700Y-104022894D01*
X177052145Y-104038502D01*
X177046035Y-104041184D01*
X177036419Y-104045405D01*
X177030315Y-104047895D01*
X176970837Y-104070370D01*
X176964576Y-104074674D01*
X176961931Y-104076056D01*
X176947890Y-104083871D01*
X176945297Y-104085405D01*
X176938336Y-104088460D01*
X176887880Y-104127177D01*
X176882571Y-104131033D01*
X176830151Y-104167061D01*
X176825099Y-104172731D01*
X176825098Y-104172732D01*
X176788901Y-104213359D01*
X176783920Y-104218635D01*
X175246232Y-105756324D01*
X173724761Y-107277795D01*
X173662449Y-107311821D01*
X173635666Y-107314700D01*
X171108459Y-107314700D01*
X171040338Y-107294698D01*
X171007502Y-107264090D01*
X170999272Y-107253069D01*
X170992233Y-107243642D01*
X170897637Y-107156198D01*
X170840555Y-107103432D01*
X170840552Y-107103430D01*
X170836315Y-107099513D01*
X170656742Y-106986211D01*
X170647148Y-106982383D01*
X170497562Y-106922704D01*
X170459529Y-106907530D01*
X170453861Y-106906403D01*
X170453859Y-106906402D01*
X170283567Y-106872529D01*
X170220657Y-106839622D01*
X170185525Y-106777927D01*
X170189325Y-106707032D01*
X170230851Y-106649446D01*
X170290066Y-106624255D01*
X170400855Y-106608191D01*
X170406319Y-106606336D01*
X170406324Y-106606335D01*
X170554240Y-106556124D01*
X170601916Y-106539940D01*
X170787172Y-106436192D01*
X170950420Y-106300420D01*
X171086192Y-106137172D01*
X171189940Y-105951916D01*
X171219890Y-105863687D01*
X171256335Y-105756324D01*
X171256336Y-105756319D01*
X171258191Y-105750855D01*
X171259019Y-105745146D01*
X171259020Y-105745141D01*
X171282120Y-105585819D01*
X171288659Y-105540723D01*
X171290249Y-105480000D01*
X171270821Y-105268561D01*
X171213186Y-105064204D01*
X171119275Y-104873772D01*
X170992233Y-104703642D01*
X170836315Y-104559513D01*
X170656742Y-104446211D01*
X170623068Y-104432776D01*
X170596096Y-104422015D01*
X170459529Y-104367530D01*
X170453861Y-104366403D01*
X170453859Y-104366402D01*
X170283567Y-104332529D01*
X170220657Y-104299622D01*
X170185525Y-104237927D01*
X170189325Y-104167032D01*
X170230851Y-104109446D01*
X170290066Y-104084255D01*
X170400855Y-104068191D01*
X170406319Y-104066336D01*
X170406324Y-104066335D01*
X170554240Y-104016124D01*
X170601916Y-103999940D01*
X170787172Y-103896192D01*
X170950420Y-103760420D01*
X170958479Y-103750731D01*
X171017416Y-103711147D01*
X171055353Y-103705300D01*
X172671191Y-103705300D01*
X172679762Y-103705592D01*
X172737184Y-103709507D01*
X172744660Y-103708202D01*
X172744663Y-103708202D01*
X172799850Y-103698570D01*
X172806375Y-103697607D01*
X172861928Y-103690884D01*
X172869473Y-103689971D01*
X172876577Y-103687287D01*
X172879483Y-103686573D01*
X172895055Y-103682312D01*
X172897874Y-103681461D01*
X172905351Y-103680156D01*
X172912297Y-103677107D01*
X172912300Y-103677106D01*
X172963581Y-103654595D01*
X172969689Y-103652103D01*
X172985790Y-103646019D01*
X173029163Y-103629630D01*
X173035424Y-103625326D01*
X173038069Y-103623944D01*
X173052110Y-103616129D01*
X173054703Y-103614595D01*
X173061664Y-103611540D01*
X173112120Y-103572823D01*
X173117429Y-103568967D01*
X173169849Y-103532939D01*
X173175715Y-103526356D01*
X173211099Y-103486641D01*
X173216080Y-103481365D01*
X181558348Y-95139097D01*
X181564614Y-95133243D01*
X181602263Y-95100400D01*
X181607990Y-95095404D01*
X181644564Y-95043365D01*
X181648488Y-95038081D01*
X181652957Y-95032382D01*
X181687719Y-94988047D01*
X181690843Y-94981128D01*
X181692386Y-94978581D01*
X181700369Y-94964584D01*
X181701778Y-94961956D01*
X181706148Y-94955738D01*
X181708908Y-94948660D01*
X181708912Y-94948652D01*
X181729251Y-94896487D01*
X181731806Y-94890408D01*
X181754841Y-94839389D01*
X181757969Y-94832462D01*
X181759354Y-94824991D01*
X181760251Y-94822127D01*
X181764658Y-94806653D01*
X181765399Y-94803769D01*
X181768159Y-94796689D01*
X181776459Y-94733640D01*
X181777490Y-94727133D01*
X181778500Y-94721687D01*
X181789078Y-94664611D01*
X181785509Y-94602709D01*
X181785300Y-94595456D01*
X181785300Y-92631300D01*
X181790472Y-92613687D01*
X183872000Y-92613687D01*
X183872181Y-92618453D01*
X183886321Y-92804347D01*
X183887763Y-92813770D01*
X183944281Y-93057601D01*
X183947137Y-93066714D01*
X184039880Y-93299177D01*
X184044083Y-93307757D01*
X184170923Y-93523518D01*
X184176374Y-93531361D01*
X184334393Y-93725457D01*
X184340966Y-93732383D01*
X184526521Y-93900340D01*
X184534073Y-93906198D01*
X184742902Y-94044157D01*
X184751239Y-94048798D01*
X184978535Y-94153582D01*
X184987489Y-94156912D01*
X185228027Y-94226113D01*
X185237361Y-94228045D01*
X185308034Y-94237162D01*
X185322264Y-94234904D01*
X185326000Y-94221829D01*
X185326000Y-94221578D01*
X185834000Y-94221578D01*
X185837773Y-94234429D01*
X185852870Y-94236349D01*
X186001308Y-94210042D01*
X186010540Y-94207671D01*
X186247556Y-94127215D01*
X186256325Y-94123475D01*
X186478447Y-94008091D01*
X186486547Y-94003069D01*
X186688659Y-93855416D01*
X186695915Y-93849219D01*
X186873356Y-93672704D01*
X186879596Y-93665475D01*
X187028300Y-93464147D01*
X187033370Y-93456066D01*
X187149910Y-93234560D01*
X187153699Y-93225804D01*
X187235395Y-92989212D01*
X187237814Y-92979990D01*
X187282917Y-92733031D01*
X187283853Y-92725025D01*
X187287912Y-92647573D01*
X187288000Y-92644237D01*
X187288000Y-91622115D01*
X187283525Y-91606876D01*
X187282135Y-91605671D01*
X187274452Y-91604000D01*
X185852115Y-91604000D01*
X185836876Y-91608475D01*
X185835671Y-91609865D01*
X185834000Y-91617548D01*
X185834000Y-94221578D01*
X185326000Y-94221578D01*
X185326000Y-91622115D01*
X185321525Y-91606876D01*
X185320135Y-91605671D01*
X185312452Y-91604000D01*
X183890115Y-91604000D01*
X183874876Y-91608475D01*
X183873671Y-91609865D01*
X183872000Y-91617548D01*
X183872000Y-92613687D01*
X181790472Y-92613687D01*
X181805302Y-92563179D01*
X181858958Y-92516686D01*
X181911300Y-92505300D01*
X181983861Y-92505300D01*
X182068671Y-92497507D01*
X182135685Y-92491350D01*
X182135688Y-92491349D01*
X182141439Y-92490821D01*
X182160044Y-92485574D01*
X182340236Y-92434754D01*
X182340235Y-92434754D01*
X182345796Y-92433186D01*
X182536228Y-92339275D01*
X182706358Y-92212233D01*
X182850487Y-92056315D01*
X182963789Y-91876742D01*
X183042470Y-91679529D01*
X183056327Y-91609865D01*
X183082766Y-91476946D01*
X183082766Y-91476944D01*
X183083893Y-91471279D01*
X183084215Y-91446730D01*
X183086596Y-91264750D01*
X183086672Y-91258968D01*
X183069116Y-91156799D01*
X183055556Y-91077885D01*
X183872000Y-91077885D01*
X183876475Y-91093124D01*
X183877865Y-91094329D01*
X183885548Y-91096000D01*
X185307885Y-91096000D01*
X185323124Y-91091525D01*
X185324329Y-91090135D01*
X185326000Y-91082452D01*
X185326000Y-91077885D01*
X185834000Y-91077885D01*
X185838475Y-91093124D01*
X185839865Y-91094329D01*
X185847548Y-91096000D01*
X187269885Y-91096000D01*
X187285124Y-91091525D01*
X187286329Y-91090135D01*
X187288000Y-91082452D01*
X187288000Y-90086313D01*
X187287819Y-90081547D01*
X187273679Y-89895653D01*
X187272237Y-89886230D01*
X187215719Y-89642399D01*
X187212863Y-89633286D01*
X187120120Y-89400823D01*
X187115917Y-89392243D01*
X186989077Y-89176482D01*
X186983626Y-89168639D01*
X186825607Y-88974543D01*
X186819034Y-88967617D01*
X186633479Y-88799660D01*
X186625927Y-88793802D01*
X186417098Y-88655843D01*
X186408761Y-88651202D01*
X186181465Y-88546418D01*
X186172511Y-88543088D01*
X185931973Y-88473887D01*
X185922639Y-88471955D01*
X185851966Y-88462838D01*
X185837736Y-88465096D01*
X185834000Y-88478171D01*
X185834000Y-91077885D01*
X185326000Y-91077885D01*
X185326000Y-88478422D01*
X185322227Y-88465571D01*
X185307130Y-88463651D01*
X185158692Y-88489958D01*
X185149460Y-88492329D01*
X184912444Y-88572785D01*
X184903675Y-88576525D01*
X184681553Y-88691909D01*
X184673453Y-88696931D01*
X184471341Y-88844584D01*
X184464085Y-88850781D01*
X184286644Y-89027296D01*
X184280404Y-89034525D01*
X184131700Y-89235853D01*
X184126630Y-89243934D01*
X184010090Y-89465440D01*
X184006301Y-89474196D01*
X183924605Y-89710788D01*
X183922186Y-89720010D01*
X183877083Y-89966969D01*
X183876147Y-89974975D01*
X183872088Y-90052427D01*
X183872000Y-90055763D01*
X183872000Y-91077885D01*
X183055556Y-91077885D01*
X183051692Y-91055395D01*
X183051691Y-91055392D01*
X183050714Y-91049705D01*
X182977224Y-90850500D01*
X182868661Y-90668023D01*
X182728663Y-90508385D01*
X182724138Y-90504818D01*
X182724133Y-90504813D01*
X182566451Y-90380507D01*
X182566449Y-90380506D01*
X182561917Y-90376933D01*
X182537679Y-90364181D01*
X182379120Y-90280759D01*
X182379115Y-90280757D01*
X182374008Y-90278070D01*
X182171229Y-90215105D01*
X181998824Y-90194700D01*
X180176139Y-90194700D01*
X180091329Y-90202493D01*
X180024315Y-90208650D01*
X180024312Y-90208651D01*
X180018561Y-90209179D01*
X180013002Y-90210747D01*
X180013001Y-90210747D01*
X179997549Y-90215105D01*
X179814204Y-90266814D01*
X179623772Y-90360725D01*
X179453642Y-90487767D01*
X179309513Y-90643685D01*
X179196211Y-90823258D01*
X179117530Y-91020471D01*
X179116403Y-91026139D01*
X179116402Y-91026141D01*
X179102507Y-91096000D01*
X179076107Y-91228721D01*
X179076031Y-91234496D01*
X179076031Y-91234500D01*
X179075711Y-91258968D01*
X179073328Y-91441032D01*
X179074307Y-91446729D01*
X179074307Y-91446730D01*
X179105130Y-91626107D01*
X179109286Y-91650295D01*
X179182776Y-91849500D01*
X179291339Y-92031977D01*
X179431337Y-92191615D01*
X179435862Y-92195182D01*
X179435867Y-92195187D01*
X179548080Y-92283648D01*
X179598083Y-92323067D01*
X179603192Y-92325755D01*
X179780880Y-92419241D01*
X179780885Y-92419243D01*
X179785992Y-92421930D01*
X179988771Y-92484895D01*
X180161176Y-92505300D01*
X180248700Y-92505300D01*
X180316821Y-92525302D01*
X180363314Y-92578958D01*
X180374700Y-92631300D01*
X180374700Y-94275665D01*
X180354698Y-94343786D01*
X180337795Y-94364760D01*
X172444761Y-102257795D01*
X172382449Y-102291821D01*
X172355666Y-102294700D01*
X171153264Y-102294700D01*
X171085143Y-102274698D01*
X171052306Y-102244089D01*
X170995686Y-102168266D01*
X170995686Y-102168265D01*
X170992233Y-102163642D01*
X170836315Y-102019513D01*
X170656742Y-101906211D01*
X170623068Y-101892776D01*
X170596096Y-101882015D01*
X170459529Y-101827530D01*
X170453861Y-101826403D01*
X170453859Y-101826402D01*
X170283567Y-101792529D01*
X170220657Y-101759622D01*
X170185525Y-101697927D01*
X170189325Y-101627032D01*
X170230851Y-101569446D01*
X170290066Y-101544255D01*
X170400855Y-101528191D01*
X170406319Y-101526336D01*
X170406324Y-101526335D01*
X170596448Y-101461796D01*
X170601916Y-101459940D01*
X170787172Y-101356192D01*
X170950420Y-101220420D01*
X171086192Y-101057172D01*
X171189940Y-100871916D01*
X171218664Y-100787299D01*
X171256335Y-100676324D01*
X171256336Y-100676319D01*
X171258191Y-100670855D01*
X171259019Y-100665146D01*
X171259020Y-100665141D01*
X171288126Y-100464397D01*
X171288659Y-100460723D01*
X171290249Y-100400000D01*
X171270821Y-100188561D01*
X171213186Y-99984204D01*
X171119275Y-99793772D01*
X170992233Y-99623642D01*
X170898378Y-99536883D01*
X170840555Y-99483432D01*
X170840552Y-99483430D01*
X170836315Y-99479513D01*
X170656742Y-99366211D01*
X170623068Y-99352776D01*
X170553076Y-99324852D01*
X170459529Y-99287530D01*
X170453861Y-99286403D01*
X170453859Y-99286402D01*
X170283567Y-99252529D01*
X170220657Y-99219622D01*
X170185525Y-99157927D01*
X170189325Y-99087032D01*
X170230851Y-99029446D01*
X170290066Y-99004255D01*
X170400855Y-98988191D01*
X170406319Y-98986336D01*
X170406324Y-98986335D01*
X170554240Y-98936124D01*
X170601916Y-98919940D01*
X170787172Y-98816192D01*
X170950420Y-98680420D01*
X171086192Y-98517172D01*
X171189940Y-98331916D01*
X171218664Y-98247299D01*
X171256335Y-98136324D01*
X171256336Y-98136319D01*
X171258191Y-98130855D01*
X171259019Y-98125146D01*
X171259020Y-98125141D01*
X171288126Y-97924397D01*
X171288659Y-97920723D01*
X171290249Y-97860000D01*
X171270821Y-97648561D01*
X171213186Y-97444204D01*
X171119275Y-97253772D01*
X170992233Y-97083642D01*
X170836315Y-96939513D01*
X170656742Y-96826211D01*
X170642754Y-96820630D01*
X170596096Y-96802015D01*
X170459529Y-96747530D01*
X170453861Y-96746403D01*
X170453859Y-96746402D01*
X170283567Y-96712529D01*
X170220657Y-96679622D01*
X170185525Y-96617927D01*
X170189325Y-96547032D01*
X170230851Y-96489446D01*
X170290066Y-96464255D01*
X170400855Y-96448191D01*
X170406319Y-96446336D01*
X170406324Y-96446335D01*
X170596448Y-96381796D01*
X170601916Y-96379940D01*
X170787172Y-96276192D01*
X170950420Y-96140420D01*
X171086192Y-95977172D01*
X171189940Y-95791916D01*
X171258191Y-95590855D01*
X171259019Y-95585146D01*
X171259020Y-95585141D01*
X171288126Y-95384397D01*
X171288659Y-95380723D01*
X171290249Y-95320000D01*
X171289909Y-95316305D01*
X171289788Y-95312599D01*
X171291597Y-95312540D01*
X171303877Y-95249932D01*
X171353040Y-95198711D01*
X171415000Y-95182039D01*
X177331884Y-95150098D01*
X177331885Y-95150098D01*
X177350000Y-95150000D01*
X180170450Y-86138382D01*
X180209886Y-86079345D01*
X180274979Y-86051001D01*
X180290439Y-86050017D01*
X187353283Y-86035492D01*
X187421445Y-86055354D01*
G37*
%TD.AperFunction*%
%TD*%
M02*
