%TF.GenerationSoftware,KiCad,Pcbnew,(6.0.1)*%
%TF.CreationDate,2022-07-28T18:42:17-07:00*%
%TF.ProjectId,waveblaster-to-midi-module,77617665-626c-4617-9374-65722d746f2d,rev?*%
%TF.SameCoordinates,PX525bfc0PY8670810*%
%TF.FileFunction,Copper,L2,Bot*%
%TF.FilePolarity,Positive*%
%FSLAX46Y46*%
G04 Gerber Fmt 4.6, Leading zero omitted, Abs format (unit mm)*
G04 Created by KiCad (PCBNEW (6.0.1)) date 2022-07-28 18:42:17*
%MOMM*%
%LPD*%
G01*
G04 APERTURE LIST*
G04 Aperture macros list*
%AMRoundRect*
0 Rectangle with rounded corners*
0 $1 Rounding radius*
0 $2 $3 $4 $5 $6 $7 $8 $9 X,Y pos of 4 corners*
0 Add a 4 corners polygon primitive as box body*
4,1,4,$2,$3,$4,$5,$6,$7,$8,$9,$2,$3,0*
0 Add four circle primitives for the rounded corners*
1,1,$1+$1,$2,$3*
1,1,$1+$1,$4,$5*
1,1,$1+$1,$6,$7*
1,1,$1+$1,$8,$9*
0 Add four rect primitives between the rounded corners*
20,1,$1+$1,$2,$3,$4,$5,0*
20,1,$1+$1,$4,$5,$6,$7,0*
20,1,$1+$1,$6,$7,$8,$9,0*
20,1,$1+$1,$8,$9,$2,$3,0*%
G04 Aperture macros list end*
%TA.AperFunction,ComponentPad*%
%ADD10RoundRect,0.250000X-0.600000X-0.600000X0.600000X-0.600000X0.600000X0.600000X-0.600000X0.600000X0*%
%TD*%
%TA.AperFunction,ComponentPad*%
%ADD11C,1.700000*%
%TD*%
%TA.AperFunction,ComponentPad*%
%ADD12C,6.400000*%
%TD*%
%TA.AperFunction,ComponentPad*%
%ADD13O,1.800000X2.800000*%
%TD*%
%TA.AperFunction,ComponentPad*%
%ADD14C,1.600000*%
%TD*%
%TA.AperFunction,ComponentPad*%
%ADD15O,1.600000X1.600000*%
%TD*%
%TA.AperFunction,ComponentPad*%
%ADD16R,1.248000X1.248000*%
%TD*%
%TA.AperFunction,ComponentPad*%
%ADD17C,1.248000*%
%TD*%
%TA.AperFunction,ComponentPad*%
%ADD18O,2.400000X4.800000*%
%TD*%
%TA.AperFunction,ComponentPad*%
%ADD19O,3.400000X1.700000*%
%TD*%
%TA.AperFunction,ComponentPad*%
%ADD20R,1.600000X1.600000*%
%TD*%
%TA.AperFunction,Conductor*%
%ADD21C,0.800000*%
%TD*%
G04 APERTURE END LIST*
D10*
%TO.P,J7,1,Pin_1*%
%TO.N,GND*%
X168700000Y-89800000D03*
D11*
%TO.P,J7,2,Pin_2*%
%TO.N,unconnected-(J7-Pad2)*%
X171240000Y-89800000D03*
%TO.P,J7,3,Pin_3*%
%TO.N,GND*%
X168700000Y-92340000D03*
%TO.P,J7,4,Pin_4*%
%TO.N,WT_TX*%
X171240000Y-92340000D03*
%TO.P,J7,5,Pin_5*%
%TO.N,GND*%
X168700000Y-94880000D03*
%TO.P,J7,6,Pin_6*%
%TO.N,+5V*%
X171240000Y-94880000D03*
%TO.P,J7,7,Pin_7*%
%TO.N,GND*%
X168700000Y-97420000D03*
%TO.P,J7,8,Pin_8*%
%TO.N,WT_RX*%
X171240000Y-97420000D03*
%TO.P,J7,9,Pin_9*%
%TO.N,GND*%
X168700000Y-99960000D03*
%TO.P,J7,10,Pin_10*%
%TO.N,+5V*%
X171240000Y-99960000D03*
%TO.P,J7,11,Pin_11*%
%TO.N,GND*%
X168700000Y-102500000D03*
%TO.P,J7,12,Pin_12*%
%TO.N,WT_AUDIO_R_IN*%
X171240000Y-102500000D03*
%TO.P,J7,13,Pin_13*%
%TO.N,unconnected-(J7-Pad13)*%
X168700000Y-105040000D03*
%TO.P,J7,14,Pin_14*%
%TO.N,+5V*%
X171240000Y-105040000D03*
%TO.P,J7,15,Pin_15*%
%TO.N,GNDA*%
X168700000Y-107580000D03*
%TO.P,J7,16,Pin_16*%
%TO.N,WT_AUDIO_L_IN*%
X171240000Y-107580000D03*
%TO.P,J7,17,Pin_17*%
%TO.N,GNDA*%
X168700000Y-110120000D03*
%TO.P,J7,18,Pin_18*%
%TO.N,+12V*%
X171240000Y-110120000D03*
%TO.P,J7,19,Pin_19*%
%TO.N,GNDA*%
X168700000Y-112660000D03*
%TO.P,J7,20,Pin_20*%
%TO.N,WT_AUDIO_R_OUT*%
X171240000Y-112660000D03*
%TO.P,J7,21,Pin_21*%
%TO.N,GNDA*%
X168700000Y-115200000D03*
%TO.P,J7,22,Pin_22*%
%TO.N,-12V*%
X171240000Y-115200000D03*
%TO.P,J7,23,Pin_23*%
%TO.N,GNDA*%
X168700000Y-117740000D03*
%TO.P,J7,24,Pin_24*%
%TO.N,WT_AUDIO_L_OUT*%
X171240000Y-117740000D03*
%TO.P,J7,25,Pin_25*%
%TO.N,GNDA*%
X168700000Y-120280000D03*
%TO.P,J7,26,Pin_26*%
%TO.N,~{RESET}*%
X171240000Y-120280000D03*
%TD*%
D12*
%TO.P,H1,1,1*%
%TO.N,unconnected-(H1-Pad1)*%
X185300000Y-57000000D03*
%TO.P,H1,2,2*%
%TO.N,unconnected-(H1-Pad2)*%
X185300000Y-143500000D03*
%TD*%
D13*
%TO.P,J1,R*%
%TO.N,Net-(J1-PadR)*%
X180300000Y-80190000D03*
%TO.P,J1,S*%
%TO.N,GND*%
X188200000Y-78190000D03*
%TO.P,J1,T*%
%TO.N,Net-(J1-PadT)*%
X185800000Y-80190000D03*
%TD*%
D14*
%TO.P,R4,1*%
%TO.N,+5V*%
X164490000Y-77600000D03*
D15*
%TO.P,R4,2*%
%TO.N,Net-(J1-PadR)*%
X172110000Y-77600000D03*
%TD*%
D16*
%TO.P,U1,1*%
%TO.N,Net-(D1-Pad1)*%
X167160000Y-69100000D03*
D17*
%TO.P,U1,2*%
%TO.N,Net-(D1-Pad2)*%
X167160000Y-66560000D03*
%TO.P,U1,3*%
%TO.N,unconnected-(U1-Pad3)*%
X167160000Y-64020000D03*
%TO.P,U1,4*%
%TO.N,WT_RX*%
X159540000Y-64020000D03*
%TO.P,U1,5*%
%TO.N,GND*%
X159540000Y-66560000D03*
%TO.P,U1,6*%
%TO.N,+5V*%
X159540000Y-69100000D03*
%TD*%
D18*
%TO.P,J3,1*%
%TO.N,GNDA*%
X185580000Y-118336000D03*
D19*
%TO.P,J3,2*%
%TO.N,WT_AUDIO_R_OUT*%
X181080000Y-118336000D03*
%TD*%
D14*
%TO.P,R3,1*%
%TO.N,WT_TX*%
X164440000Y-81190000D03*
D15*
%TO.P,R3,2*%
%TO.N,Net-(J1-PadT)*%
X172060000Y-81190000D03*
%TD*%
D20*
%TO.P,D1,1,K*%
%TO.N,Net-(D1-Pad1)*%
X171070000Y-69649300D03*
D15*
%TO.P,D1,2,A*%
%TO.N,Net-(D1-Pad2)*%
X171070000Y-64569300D03*
%TD*%
D13*
%TO.P,J2,R*%
%TO.N,Net-(J2-PadR)*%
X180300000Y-67480000D03*
%TO.P,J2,S*%
%TO.N,unconnected-(J2-PadS)*%
X188200000Y-65480000D03*
%TO.P,J2,T*%
%TO.N,Net-(D1-Pad2)*%
X185800000Y-67480000D03*
%TD*%
D18*
%TO.P,J4,1*%
%TO.N,GNDA*%
X185580000Y-131686000D03*
D19*
%TO.P,J4,2*%
%TO.N,WT_AUDIO_L_OUT*%
X181080000Y-131686000D03*
%TD*%
D14*
%TO.P,R2,1*%
%TO.N,Net-(D1-Pad1)*%
X164440000Y-74060000D03*
D15*
%TO.P,R2,2*%
%TO.N,Net-(J2-PadR)*%
X172060000Y-74060000D03*
%TD*%
D18*
%TO.P,J5,1*%
%TO.N,GNDA*%
X185580000Y-91350000D03*
D19*
%TO.P,J5,2*%
%TO.N,WT_AUDIO_R_IN*%
X181080000Y-91350000D03*
%TD*%
D14*
%TO.P,R1,1*%
%TO.N,+5V*%
X159930000Y-81240000D03*
D15*
%TO.P,R1,2*%
%TO.N,WT_RX*%
X159930000Y-73620000D03*
%TD*%
D18*
%TO.P,J6,1*%
%TO.N,GNDA*%
X185580000Y-104700000D03*
D19*
%TO.P,J6,2*%
%TO.N,WT_AUDIO_L_IN*%
X181080000Y-104700000D03*
%TD*%
D21*
%TO.N,WT_AUDIO_R_IN*%
X181100000Y-91370000D02*
X181100000Y-94370000D01*
X181100000Y-94370000D02*
X172970000Y-102500000D01*
X181080000Y-91350000D02*
X181100000Y-91370000D01*
X172970000Y-102500000D02*
X171240000Y-102500000D01*
%TD*%
%TA.AperFunction,Conductor*%
%TO.N,GNDA*%
G36*
X187422026Y-86742335D02*
G01*
X187468567Y-86795949D01*
X187480000Y-86848394D01*
X187480000Y-87958602D01*
X187478449Y-87978311D01*
X187475014Y-88000000D01*
X187480000Y-88031481D01*
X187494835Y-88125148D01*
X187552359Y-88238045D01*
X187641955Y-88327641D01*
X187754852Y-88385165D01*
X187880000Y-88404986D01*
X187901689Y-88401551D01*
X187921398Y-88400000D01*
X189471195Y-88400000D01*
X189539316Y-88420002D01*
X189585809Y-88473658D01*
X189597195Y-88525995D01*
X189597297Y-90859940D01*
X189597439Y-94123475D01*
X189597441Y-94173995D01*
X189577442Y-94242116D01*
X189523788Y-94288611D01*
X189471441Y-94300000D01*
X187921398Y-94300000D01*
X187901689Y-94298449D01*
X187880000Y-94295014D01*
X187848519Y-94300000D01*
X187754852Y-94314835D01*
X187641955Y-94372359D01*
X187552359Y-94461955D01*
X187494835Y-94574852D01*
X187475014Y-94700000D01*
X187476565Y-94709792D01*
X187478449Y-94721687D01*
X187480000Y-94741398D01*
X187480000Y-96458602D01*
X187478449Y-96478311D01*
X187475014Y-96500000D01*
X187480000Y-96531481D01*
X187494835Y-96625148D01*
X187552359Y-96738045D01*
X187641955Y-96827641D01*
X187754852Y-96885165D01*
X187880000Y-96904986D01*
X187901689Y-96901551D01*
X187921398Y-96900000D01*
X189471565Y-96900000D01*
X189539686Y-96920002D01*
X189586179Y-96973658D01*
X189597565Y-97025995D01*
X189597648Y-98926211D01*
X189597652Y-99023995D01*
X189577653Y-99092116D01*
X189523999Y-99138611D01*
X189471652Y-99150000D01*
X187921398Y-99150000D01*
X187901689Y-99148449D01*
X187880000Y-99145014D01*
X187848519Y-99150000D01*
X187754852Y-99164835D01*
X187641955Y-99222359D01*
X187552359Y-99311955D01*
X187494835Y-99424852D01*
X187475014Y-99550000D01*
X187476565Y-99559792D01*
X187478449Y-99571687D01*
X187480000Y-99591398D01*
X187480000Y-101308602D01*
X187478449Y-101328311D01*
X187475014Y-101350000D01*
X187480000Y-101381481D01*
X187494835Y-101475148D01*
X187552359Y-101588045D01*
X187641955Y-101677641D01*
X187650788Y-101682141D01*
X187650787Y-101682141D01*
X187741330Y-101728275D01*
X187754852Y-101735165D01*
X187880000Y-101754986D01*
X187901689Y-101751551D01*
X187921398Y-101750000D01*
X189471775Y-101750000D01*
X189539896Y-101770002D01*
X189586389Y-101823658D01*
X189597775Y-101875994D01*
X189597879Y-104245867D01*
X189598020Y-107473475D01*
X189598022Y-107523994D01*
X189578023Y-107592116D01*
X189524369Y-107638611D01*
X189472022Y-107650000D01*
X187921398Y-107650000D01*
X187901689Y-107648449D01*
X187880000Y-107645014D01*
X187848519Y-107650000D01*
X187754852Y-107664835D01*
X187641955Y-107722359D01*
X187552359Y-107811955D01*
X187494835Y-107924852D01*
X187475014Y-108050000D01*
X187476565Y-108059792D01*
X187478449Y-108071687D01*
X187480000Y-108091398D01*
X187480000Y-109808602D01*
X187478449Y-109828311D01*
X187475014Y-109850000D01*
X187480000Y-109881481D01*
X187494835Y-109975148D01*
X187552359Y-110088045D01*
X187641955Y-110177641D01*
X187754852Y-110235165D01*
X187880000Y-110254986D01*
X187901689Y-110251551D01*
X187921398Y-110250000D01*
X189472145Y-110250000D01*
X189540266Y-110270002D01*
X189586759Y-110323658D01*
X189598145Y-110375994D01*
X189598184Y-111264254D01*
X189598245Y-112657035D01*
X189598245Y-112659994D01*
X189578246Y-112728116D01*
X189524592Y-112774611D01*
X189472245Y-112786000D01*
X187921398Y-112786000D01*
X187901689Y-112784449D01*
X187880000Y-112781014D01*
X187848519Y-112786000D01*
X187754852Y-112800835D01*
X187641955Y-112858359D01*
X187552359Y-112947955D01*
X187547859Y-112956787D01*
X187501741Y-113047299D01*
X187494835Y-113060852D01*
X187493284Y-113070645D01*
X187478627Y-113163191D01*
X187475014Y-113186000D01*
X187476565Y-113195792D01*
X187478449Y-113207687D01*
X187480000Y-113227398D01*
X187480000Y-114944602D01*
X187478449Y-114964311D01*
X187475014Y-114986000D01*
X187480000Y-115017481D01*
X187494835Y-115111148D01*
X187552359Y-115224045D01*
X187641955Y-115313641D01*
X187754852Y-115371165D01*
X187880000Y-115390986D01*
X187901689Y-115387551D01*
X187921398Y-115386000D01*
X189472369Y-115386000D01*
X189540490Y-115406002D01*
X189586983Y-115459658D01*
X189598369Y-115511995D01*
X189598474Y-117921503D01*
X189598613Y-121109475D01*
X189598615Y-121159995D01*
X189578616Y-121228116D01*
X189524962Y-121274611D01*
X189472615Y-121286000D01*
X187921398Y-121286000D01*
X187901689Y-121284449D01*
X187880000Y-121281014D01*
X187848519Y-121286000D01*
X187754852Y-121300835D01*
X187641955Y-121358359D01*
X187552359Y-121447955D01*
X187494835Y-121560852D01*
X187475014Y-121686000D01*
X187476565Y-121695792D01*
X187478449Y-121707687D01*
X187480000Y-121727398D01*
X187480000Y-123444602D01*
X187478449Y-123464311D01*
X187475014Y-123486000D01*
X187480000Y-123517481D01*
X187494835Y-123611148D01*
X187552359Y-123724045D01*
X187641955Y-123813641D01*
X187754852Y-123871165D01*
X187880000Y-123890986D01*
X187901689Y-123887551D01*
X187921398Y-123886000D01*
X189472738Y-123886000D01*
X189540859Y-123906002D01*
X189587352Y-123959658D01*
X189598738Y-124011994D01*
X189598826Y-126009994D01*
X189578827Y-126078116D01*
X189525173Y-126124611D01*
X189472826Y-126136000D01*
X187921398Y-126136000D01*
X187901689Y-126134449D01*
X187880000Y-126131014D01*
X187848519Y-126136000D01*
X187754852Y-126150835D01*
X187641955Y-126208359D01*
X187552359Y-126297955D01*
X187494835Y-126410852D01*
X187475014Y-126536000D01*
X187476565Y-126545792D01*
X187478449Y-126557687D01*
X187480000Y-126577398D01*
X187480000Y-128294602D01*
X187478449Y-128314311D01*
X187475014Y-128336000D01*
X187480000Y-128367481D01*
X187494835Y-128461148D01*
X187552359Y-128574045D01*
X187641955Y-128663641D01*
X187754852Y-128721165D01*
X187880000Y-128740986D01*
X187901689Y-128737551D01*
X187921398Y-128736000D01*
X189472949Y-128736000D01*
X189541070Y-128756002D01*
X189587563Y-128809658D01*
X189598949Y-128861994D01*
X189599051Y-131186500D01*
X189599194Y-134459475D01*
X189599196Y-134509994D01*
X189579197Y-134578116D01*
X189525543Y-134624611D01*
X189473196Y-134636000D01*
X187921398Y-134636000D01*
X187901689Y-134634449D01*
X187880000Y-134631014D01*
X187848519Y-134636000D01*
X187754852Y-134650835D01*
X187641955Y-134708359D01*
X187552359Y-134797955D01*
X187494835Y-134910852D01*
X187475014Y-135036000D01*
X187476565Y-135045792D01*
X187478449Y-135057687D01*
X187480000Y-135077398D01*
X187480000Y-136794602D01*
X187478449Y-136814311D01*
X187475014Y-136836000D01*
X187480000Y-136867481D01*
X187494835Y-136961148D01*
X187552359Y-137074045D01*
X187641955Y-137163641D01*
X187754852Y-137221165D01*
X187880000Y-137240986D01*
X187901689Y-137237551D01*
X187921398Y-137236000D01*
X189473319Y-137236000D01*
X189541440Y-137256002D01*
X189587933Y-137309658D01*
X189599319Y-137361994D01*
X189599353Y-138128459D01*
X189579354Y-138196581D01*
X189525700Y-138243076D01*
X189473658Y-138254465D01*
X157506305Y-138331889D01*
X157438136Y-138312052D01*
X157391513Y-138258509D01*
X157380000Y-138205889D01*
X157380000Y-132949687D01*
X183872000Y-132949687D01*
X183872181Y-132954453D01*
X183886321Y-133140347D01*
X183887763Y-133149770D01*
X183944281Y-133393601D01*
X183947137Y-133402714D01*
X184039880Y-133635177D01*
X184044083Y-133643757D01*
X184170923Y-133859518D01*
X184176374Y-133867361D01*
X184334393Y-134061457D01*
X184340966Y-134068383D01*
X184526521Y-134236340D01*
X184534073Y-134242198D01*
X184742902Y-134380157D01*
X184751239Y-134384798D01*
X184978535Y-134489582D01*
X184987489Y-134492912D01*
X185228027Y-134562113D01*
X185237361Y-134564045D01*
X185308034Y-134573162D01*
X185322264Y-134570904D01*
X185326000Y-134557829D01*
X185326000Y-134557578D01*
X185834000Y-134557578D01*
X185837773Y-134570429D01*
X185852870Y-134572349D01*
X186001308Y-134546042D01*
X186010540Y-134543671D01*
X186247556Y-134463215D01*
X186256325Y-134459475D01*
X186478447Y-134344091D01*
X186486547Y-134339069D01*
X186688659Y-134191416D01*
X186695915Y-134185219D01*
X186873356Y-134008704D01*
X186879596Y-134001475D01*
X187028300Y-133800147D01*
X187033370Y-133792066D01*
X187149910Y-133570560D01*
X187153699Y-133561804D01*
X187235395Y-133325212D01*
X187237814Y-133315990D01*
X187282917Y-133069031D01*
X187283853Y-133061025D01*
X187287912Y-132983573D01*
X187288000Y-132980237D01*
X187288000Y-131958115D01*
X187283525Y-131942876D01*
X187282135Y-131941671D01*
X187274452Y-131940000D01*
X185852115Y-131940000D01*
X185836876Y-131944475D01*
X185835671Y-131945865D01*
X185834000Y-131953548D01*
X185834000Y-134557578D01*
X185326000Y-134557578D01*
X185326000Y-131958115D01*
X185321525Y-131942876D01*
X185320135Y-131941671D01*
X185312452Y-131940000D01*
X183890115Y-131940000D01*
X183874876Y-131944475D01*
X183873671Y-131945865D01*
X183872000Y-131953548D01*
X183872000Y-132949687D01*
X157380000Y-132949687D01*
X157380000Y-131777032D01*
X179073328Y-131777032D01*
X179109286Y-131986295D01*
X179182776Y-132185500D01*
X179291339Y-132367977D01*
X179431337Y-132527615D01*
X179435862Y-132531182D01*
X179435867Y-132531187D01*
X179593549Y-132655493D01*
X179598083Y-132659067D01*
X179603192Y-132661755D01*
X179780880Y-132755241D01*
X179780885Y-132755243D01*
X179785992Y-132757930D01*
X179988771Y-132820895D01*
X180161176Y-132841300D01*
X181983861Y-132841300D01*
X182068671Y-132833507D01*
X182135685Y-132827350D01*
X182135688Y-132827349D01*
X182141439Y-132826821D01*
X182160044Y-132821574D01*
X182340236Y-132770754D01*
X182340235Y-132770754D01*
X182345796Y-132769186D01*
X182536228Y-132675275D01*
X182706358Y-132548233D01*
X182850487Y-132392315D01*
X182963789Y-132212742D01*
X183042470Y-132015529D01*
X183056327Y-131945865D01*
X183082766Y-131812946D01*
X183082766Y-131812944D01*
X183083893Y-131807279D01*
X183084215Y-131782730D01*
X183086596Y-131600750D01*
X183086672Y-131594968D01*
X183055556Y-131413885D01*
X183872000Y-131413885D01*
X183876475Y-131429124D01*
X183877865Y-131430329D01*
X183885548Y-131432000D01*
X185307885Y-131432000D01*
X185323124Y-131427525D01*
X185324329Y-131426135D01*
X185326000Y-131418452D01*
X185326000Y-131413885D01*
X185834000Y-131413885D01*
X185838475Y-131429124D01*
X185839865Y-131430329D01*
X185847548Y-131432000D01*
X187269885Y-131432000D01*
X187285124Y-131427525D01*
X187286329Y-131426135D01*
X187288000Y-131418452D01*
X187288000Y-130422313D01*
X187287819Y-130417547D01*
X187273679Y-130231653D01*
X187272237Y-130222230D01*
X187215719Y-129978399D01*
X187212863Y-129969286D01*
X187120120Y-129736823D01*
X187115917Y-129728243D01*
X186989077Y-129512482D01*
X186983626Y-129504639D01*
X186825607Y-129310543D01*
X186819034Y-129303617D01*
X186633479Y-129135660D01*
X186625927Y-129129802D01*
X186417098Y-128991843D01*
X186408761Y-128987202D01*
X186181465Y-128882418D01*
X186172511Y-128879088D01*
X185931973Y-128809887D01*
X185922639Y-128807955D01*
X185851966Y-128798838D01*
X185837736Y-128801096D01*
X185834000Y-128814171D01*
X185834000Y-131413885D01*
X185326000Y-131413885D01*
X185326000Y-128814422D01*
X185322227Y-128801571D01*
X185307130Y-128799651D01*
X185158692Y-128825958D01*
X185149460Y-128828329D01*
X184912444Y-128908785D01*
X184903675Y-128912525D01*
X184681553Y-129027909D01*
X184673453Y-129032931D01*
X184471341Y-129180584D01*
X184464085Y-129186781D01*
X184286644Y-129363296D01*
X184280404Y-129370525D01*
X184131700Y-129571853D01*
X184126630Y-129579934D01*
X184010090Y-129801440D01*
X184006301Y-129810196D01*
X183924605Y-130046788D01*
X183922186Y-130056010D01*
X183877083Y-130302969D01*
X183876147Y-130310975D01*
X183872088Y-130388427D01*
X183872000Y-130391763D01*
X183872000Y-131413885D01*
X183055556Y-131413885D01*
X183050714Y-131385705D01*
X182977224Y-131186500D01*
X182868661Y-131004023D01*
X182728663Y-130844385D01*
X182724138Y-130840818D01*
X182724133Y-130840813D01*
X182566451Y-130716507D01*
X182566449Y-130716506D01*
X182561917Y-130712933D01*
X182537679Y-130700181D01*
X182379120Y-130616759D01*
X182379115Y-130616757D01*
X182374008Y-130614070D01*
X182171229Y-130551105D01*
X181998824Y-130530700D01*
X180176139Y-130530700D01*
X180091329Y-130538493D01*
X180024315Y-130544650D01*
X180024312Y-130544651D01*
X180018561Y-130545179D01*
X180013002Y-130546747D01*
X180013001Y-130546747D01*
X179997549Y-130551105D01*
X179814204Y-130602814D01*
X179623772Y-130696725D01*
X179453642Y-130823767D01*
X179309513Y-130979685D01*
X179196211Y-131159258D01*
X179117530Y-131356471D01*
X179116403Y-131362139D01*
X179116402Y-131362141D01*
X179102507Y-131432000D01*
X179076107Y-131564721D01*
X179076031Y-131570496D01*
X179076031Y-131570500D01*
X179075711Y-131594968D01*
X179073328Y-131777032D01*
X157380000Y-131777032D01*
X157380000Y-121404853D01*
X167939977Y-121404853D01*
X167945258Y-121411907D01*
X168106756Y-121506279D01*
X168116042Y-121510729D01*
X168315001Y-121586703D01*
X168324899Y-121589579D01*
X168533595Y-121632038D01*
X168543823Y-121633257D01*
X168756650Y-121641062D01*
X168766936Y-121640595D01*
X168978185Y-121613534D01*
X168988262Y-121611392D01*
X169192255Y-121550191D01*
X169201842Y-121546433D01*
X169393098Y-121452738D01*
X169401944Y-121447465D01*
X169449247Y-121413723D01*
X169457648Y-121403023D01*
X169450660Y-121389870D01*
X168712812Y-120652022D01*
X168698868Y-120644408D01*
X168697035Y-120644539D01*
X168690420Y-120648790D01*
X167946737Y-121392473D01*
X167939977Y-121404853D01*
X157380000Y-121404853D01*
X157380000Y-120251863D01*
X167338050Y-120251863D01*
X167350309Y-120464477D01*
X167351745Y-120474697D01*
X167398565Y-120682446D01*
X167401645Y-120692275D01*
X167481770Y-120889603D01*
X167486413Y-120898794D01*
X167566460Y-121029420D01*
X167576916Y-121038880D01*
X167585694Y-121035096D01*
X168327978Y-120292812D01*
X168335592Y-120278868D01*
X168335461Y-120277035D01*
X168331210Y-120270420D01*
X167589849Y-119529059D01*
X167578313Y-119522759D01*
X167566031Y-119532382D01*
X167518089Y-119602662D01*
X167513004Y-119611613D01*
X167423338Y-119804783D01*
X167419775Y-119814470D01*
X167362864Y-120019681D01*
X167360933Y-120029800D01*
X167338302Y-120241574D01*
X167338050Y-120251863D01*
X157380000Y-120251863D01*
X157380000Y-118864853D01*
X167939977Y-118864853D01*
X167945258Y-118871907D01*
X167992479Y-118899501D01*
X168041203Y-118951139D01*
X168054274Y-119020922D01*
X168027543Y-119086694D01*
X167987087Y-119120053D01*
X167978466Y-119124541D01*
X167969734Y-119130039D01*
X167949677Y-119145099D01*
X167941223Y-119156427D01*
X167947968Y-119168758D01*
X168687188Y-119907978D01*
X168701132Y-119915592D01*
X168702965Y-119915461D01*
X168709580Y-119911210D01*
X169453389Y-119167401D01*
X169460410Y-119154544D01*
X169453611Y-119145213D01*
X169449559Y-119142521D01*
X169412116Y-119121852D01*
X169362145Y-119071420D01*
X169347373Y-119001977D01*
X169372489Y-118935572D01*
X169399840Y-118908965D01*
X169449247Y-118873723D01*
X169457648Y-118863023D01*
X169450660Y-118849870D01*
X168712812Y-118112022D01*
X168698868Y-118104408D01*
X168697035Y-118104539D01*
X168690420Y-118108790D01*
X167946737Y-118852473D01*
X167939977Y-118864853D01*
X157380000Y-118864853D01*
X157380000Y-117711863D01*
X167338050Y-117711863D01*
X167350309Y-117924477D01*
X167351745Y-117934697D01*
X167398565Y-118142446D01*
X167401645Y-118152275D01*
X167481770Y-118349603D01*
X167486413Y-118358794D01*
X167566460Y-118489420D01*
X167576916Y-118498880D01*
X167585694Y-118495096D01*
X168327978Y-117752812D01*
X168335592Y-117738868D01*
X168335461Y-117737035D01*
X168331210Y-117730420D01*
X167589849Y-116989059D01*
X167578313Y-116982759D01*
X167566031Y-116992382D01*
X167518089Y-117062662D01*
X167513004Y-117071613D01*
X167423338Y-117264783D01*
X167419775Y-117274470D01*
X167362864Y-117479681D01*
X167360933Y-117489800D01*
X167338302Y-117701574D01*
X167338050Y-117711863D01*
X157380000Y-117711863D01*
X157380000Y-116324853D01*
X167939977Y-116324853D01*
X167945258Y-116331907D01*
X167992479Y-116359501D01*
X168041203Y-116411139D01*
X168054274Y-116480922D01*
X168027543Y-116546694D01*
X167987087Y-116580053D01*
X167978466Y-116584541D01*
X167969734Y-116590039D01*
X167949677Y-116605099D01*
X167941223Y-116616427D01*
X167947968Y-116628758D01*
X168687188Y-117367978D01*
X168701132Y-117375592D01*
X168702965Y-117375461D01*
X168709580Y-117371210D01*
X169453389Y-116627401D01*
X169460410Y-116614544D01*
X169453611Y-116605213D01*
X169449559Y-116602521D01*
X169412116Y-116581852D01*
X169362145Y-116531420D01*
X169347373Y-116461977D01*
X169372489Y-116395572D01*
X169399840Y-116368965D01*
X169449247Y-116333723D01*
X169457648Y-116323023D01*
X169450660Y-116309870D01*
X168712812Y-115572022D01*
X168698868Y-115564408D01*
X168697035Y-115564539D01*
X168690420Y-115568790D01*
X167946737Y-116312473D01*
X167939977Y-116324853D01*
X157380000Y-116324853D01*
X157380000Y-115171863D01*
X167338050Y-115171863D01*
X167350309Y-115384477D01*
X167351745Y-115394697D01*
X167398565Y-115602446D01*
X167401645Y-115612275D01*
X167481770Y-115809603D01*
X167486413Y-115818794D01*
X167566460Y-115949420D01*
X167576916Y-115958880D01*
X167585694Y-115955096D01*
X168327978Y-115212812D01*
X168335592Y-115198868D01*
X168335461Y-115197035D01*
X168331210Y-115190420D01*
X167589849Y-114449059D01*
X167578313Y-114442759D01*
X167566031Y-114452382D01*
X167518089Y-114522662D01*
X167513004Y-114531613D01*
X167423338Y-114724783D01*
X167419775Y-114734470D01*
X167362864Y-114939681D01*
X167360933Y-114949800D01*
X167338302Y-115161574D01*
X167338050Y-115171863D01*
X157380000Y-115171863D01*
X157380000Y-113784853D01*
X167939977Y-113784853D01*
X167945258Y-113791907D01*
X167992479Y-113819501D01*
X168041203Y-113871139D01*
X168054274Y-113940922D01*
X168027543Y-114006694D01*
X167987087Y-114040053D01*
X167978466Y-114044541D01*
X167969734Y-114050039D01*
X167949677Y-114065099D01*
X167941223Y-114076427D01*
X167947968Y-114088758D01*
X168687188Y-114827978D01*
X168701132Y-114835592D01*
X168702965Y-114835461D01*
X168709580Y-114831210D01*
X169453389Y-114087401D01*
X169460410Y-114074544D01*
X169453611Y-114065213D01*
X169449559Y-114062521D01*
X169412116Y-114041852D01*
X169362145Y-113991420D01*
X169347373Y-113921977D01*
X169372489Y-113855572D01*
X169399840Y-113828965D01*
X169449247Y-113793723D01*
X169457648Y-113783023D01*
X169450660Y-113769870D01*
X168712812Y-113032022D01*
X168698868Y-113024408D01*
X168697035Y-113024539D01*
X168690420Y-113028790D01*
X167946737Y-113772473D01*
X167939977Y-113784853D01*
X157380000Y-113784853D01*
X157380000Y-112631863D01*
X167338050Y-112631863D01*
X167350309Y-112844477D01*
X167351745Y-112854697D01*
X167398565Y-113062446D01*
X167401645Y-113072275D01*
X167481770Y-113269603D01*
X167486413Y-113278794D01*
X167566460Y-113409420D01*
X167576916Y-113418880D01*
X167585694Y-113415096D01*
X168327978Y-112672812D01*
X168335592Y-112658868D01*
X168335461Y-112657035D01*
X168331210Y-112650420D01*
X167589849Y-111909059D01*
X167578313Y-111902759D01*
X167566031Y-111912382D01*
X167518089Y-111982662D01*
X167513004Y-111991613D01*
X167423338Y-112184783D01*
X167419775Y-112194470D01*
X167362864Y-112399681D01*
X167360933Y-112409800D01*
X167338302Y-112621574D01*
X167338050Y-112631863D01*
X157380000Y-112631863D01*
X157380000Y-111244853D01*
X167939977Y-111244853D01*
X167945258Y-111251907D01*
X167992479Y-111279501D01*
X168041203Y-111331139D01*
X168054274Y-111400922D01*
X168027543Y-111466694D01*
X167987087Y-111500053D01*
X167978466Y-111504541D01*
X167969734Y-111510039D01*
X167949677Y-111525099D01*
X167941223Y-111536427D01*
X167947968Y-111548758D01*
X168687188Y-112287978D01*
X168701132Y-112295592D01*
X168702965Y-112295461D01*
X168709580Y-112291210D01*
X169453389Y-111547401D01*
X169460410Y-111534544D01*
X169453611Y-111525213D01*
X169449559Y-111522521D01*
X169412116Y-111501852D01*
X169362145Y-111451420D01*
X169347373Y-111381977D01*
X169372489Y-111315572D01*
X169399840Y-111288965D01*
X169449247Y-111253723D01*
X169457648Y-111243023D01*
X169450660Y-111229870D01*
X168712812Y-110492022D01*
X168698868Y-110484408D01*
X168697035Y-110484539D01*
X168690420Y-110488790D01*
X167946737Y-111232473D01*
X167939977Y-111244853D01*
X157380000Y-111244853D01*
X157380000Y-110091863D01*
X167338050Y-110091863D01*
X167350309Y-110304477D01*
X167351745Y-110314697D01*
X167398565Y-110522446D01*
X167401645Y-110532275D01*
X167481770Y-110729603D01*
X167486413Y-110738794D01*
X167566460Y-110869420D01*
X167576916Y-110878880D01*
X167585694Y-110875096D01*
X168327978Y-110132812D01*
X168335592Y-110118868D01*
X168335461Y-110117035D01*
X168331210Y-110110420D01*
X167589849Y-109369059D01*
X167578313Y-109362759D01*
X167566031Y-109372382D01*
X167518089Y-109442662D01*
X167513004Y-109451613D01*
X167423338Y-109644783D01*
X167419775Y-109654470D01*
X167362864Y-109859681D01*
X167360933Y-109869800D01*
X167338302Y-110081574D01*
X167338050Y-110091863D01*
X157380000Y-110091863D01*
X157380000Y-108704853D01*
X167939977Y-108704853D01*
X167945258Y-108711907D01*
X167992479Y-108739501D01*
X168041203Y-108791139D01*
X168054274Y-108860922D01*
X168027543Y-108926694D01*
X167987087Y-108960053D01*
X167978466Y-108964541D01*
X167969734Y-108970039D01*
X167949677Y-108985099D01*
X167941223Y-108996427D01*
X167947968Y-109008758D01*
X168687188Y-109747978D01*
X168701132Y-109755592D01*
X168702965Y-109755461D01*
X168709580Y-109751210D01*
X169453389Y-109007401D01*
X169460410Y-108994544D01*
X169453611Y-108985213D01*
X169449559Y-108982521D01*
X169412116Y-108961852D01*
X169362145Y-108911420D01*
X169347373Y-108841977D01*
X169372489Y-108775572D01*
X169399840Y-108748965D01*
X169449247Y-108713723D01*
X169457648Y-108703023D01*
X169450660Y-108689870D01*
X168712812Y-107952022D01*
X168698868Y-107944408D01*
X168697035Y-107944539D01*
X168690420Y-107948790D01*
X167946737Y-108692473D01*
X167939977Y-108704853D01*
X157380000Y-108704853D01*
X157380000Y-107551863D01*
X167338050Y-107551863D01*
X167350309Y-107764477D01*
X167351745Y-107774697D01*
X167398565Y-107982446D01*
X167401645Y-107992275D01*
X167481770Y-108189603D01*
X167486413Y-108198794D01*
X167566460Y-108329420D01*
X167576916Y-108338880D01*
X167585694Y-108335096D01*
X168327978Y-107592812D01*
X168335592Y-107578868D01*
X168335461Y-107577035D01*
X168331210Y-107570420D01*
X167589849Y-106829059D01*
X167578313Y-106822759D01*
X167566031Y-106832382D01*
X167518089Y-106902662D01*
X167513004Y-106911613D01*
X167423338Y-107104783D01*
X167419775Y-107114470D01*
X167362864Y-107319681D01*
X167360933Y-107329800D01*
X167338302Y-107541574D01*
X167338050Y-107551863D01*
X157380000Y-107551863D01*
X157380000Y-105666195D01*
X157400002Y-105598074D01*
X157453658Y-105551581D01*
X157506111Y-105540195D01*
X167582261Y-105549264D01*
X167650364Y-105569327D01*
X167691267Y-105612263D01*
X167692775Y-105614875D01*
X167695195Y-105620124D01*
X167817740Y-105793521D01*
X167969832Y-105941683D01*
X167974628Y-105944888D01*
X167974631Y-105944890D01*
X168002763Y-105963687D01*
X168146377Y-106059647D01*
X168151680Y-106061926D01*
X168151685Y-106061928D01*
X168179293Y-106073789D01*
X168199862Y-106082626D01*
X168254554Y-106127892D01*
X168276092Y-106195543D01*
X168257635Y-106264099D01*
X168205045Y-106311794D01*
X168189271Y-106318157D01*
X168176873Y-106322210D01*
X168167359Y-106326209D01*
X167978466Y-106424540D01*
X167969734Y-106430039D01*
X167949677Y-106445099D01*
X167941223Y-106456427D01*
X167947968Y-106468758D01*
X168687188Y-107207978D01*
X168701132Y-107215592D01*
X168702965Y-107215461D01*
X168709580Y-107211210D01*
X169453389Y-106467401D01*
X169460410Y-106454544D01*
X169453611Y-106445213D01*
X169449554Y-106442518D01*
X169263117Y-106339599D01*
X169253704Y-106335368D01*
X169208197Y-106319253D01*
X169150660Y-106277658D01*
X169124745Y-106211560D01*
X169138679Y-106141945D01*
X169188690Y-106090546D01*
X169357172Y-105996192D01*
X169520420Y-105860420D01*
X169656192Y-105697172D01*
X169759940Y-105511916D01*
X169790565Y-105421699D01*
X169826335Y-105316324D01*
X169826336Y-105316319D01*
X169828191Y-105310855D01*
X169829019Y-105305146D01*
X169829020Y-105305141D01*
X169840387Y-105226742D01*
X169843287Y-105206738D01*
X169872857Y-105142193D01*
X169932628Y-105103881D01*
X170003625Y-105103965D01*
X170063305Y-105142420D01*
X170092722Y-105207036D01*
X170093565Y-105215147D01*
X170093658Y-105215733D01*
X170094036Y-105221503D01*
X170146301Y-105427299D01*
X170235195Y-105620124D01*
X170357740Y-105793521D01*
X170509832Y-105941683D01*
X170514628Y-105944888D01*
X170514631Y-105944890D01*
X170542763Y-105963687D01*
X170686377Y-106059647D01*
X170691685Y-106061928D01*
X170691686Y-106061928D01*
X170876160Y-106141184D01*
X170876163Y-106141185D01*
X170881463Y-106143462D01*
X170887092Y-106144736D01*
X170887093Y-106144736D01*
X171082087Y-106188859D01*
X171144114Y-106223402D01*
X171177618Y-106285996D01*
X171171964Y-106356767D01*
X171128945Y-106413246D01*
X171075617Y-106435932D01*
X170945395Y-106458308D01*
X170945392Y-106458309D01*
X170939705Y-106459286D01*
X170740500Y-106532776D01*
X170558023Y-106641339D01*
X170398385Y-106781337D01*
X170394818Y-106785862D01*
X170394813Y-106785867D01*
X170272663Y-106940814D01*
X170266933Y-106948083D01*
X170264245Y-106953192D01*
X170191702Y-107091074D01*
X170142282Y-107142047D01*
X170073150Y-107158210D01*
X170006254Y-107134431D01*
X169964643Y-107082649D01*
X169902972Y-106940814D01*
X169898105Y-106931739D01*
X169833063Y-106831197D01*
X169822377Y-106821995D01*
X169812812Y-106826398D01*
X169072022Y-107567188D01*
X169064408Y-107581132D01*
X169064539Y-107582965D01*
X169068790Y-107589580D01*
X169810474Y-108331264D01*
X169822484Y-108337823D01*
X169834223Y-108328855D01*
X169865004Y-108286019D01*
X169870315Y-108277180D01*
X169964673Y-108086260D01*
X169965578Y-108083976D01*
X169966191Y-108083191D01*
X169966964Y-108081626D01*
X169967287Y-108081786D01*
X170009253Y-108028003D01*
X170076256Y-108004527D01*
X170145314Y-108021003D01*
X170197155Y-108077609D01*
X170235195Y-108160124D01*
X170357740Y-108333521D01*
X170430202Y-108404111D01*
X170477309Y-108450000D01*
X170509832Y-108481683D01*
X170514628Y-108484888D01*
X170514631Y-108484890D01*
X170585886Y-108532501D01*
X170686377Y-108599647D01*
X170691685Y-108601928D01*
X170691686Y-108601928D01*
X170876160Y-108681184D01*
X170876163Y-108681185D01*
X170881463Y-108683462D01*
X170887092Y-108684736D01*
X170887093Y-108684736D01*
X171082087Y-108728859D01*
X171144114Y-108763402D01*
X171177618Y-108825996D01*
X171171964Y-108896767D01*
X171128945Y-108953246D01*
X171075617Y-108975932D01*
X170945395Y-108998308D01*
X170945392Y-108998309D01*
X170939705Y-108999286D01*
X170740500Y-109072776D01*
X170558023Y-109181339D01*
X170398385Y-109321337D01*
X170394818Y-109325862D01*
X170394813Y-109325867D01*
X170272663Y-109480814D01*
X170266933Y-109488083D01*
X170264245Y-109493192D01*
X170191702Y-109631074D01*
X170142282Y-109682047D01*
X170073150Y-109698210D01*
X170006254Y-109674431D01*
X169964643Y-109622649D01*
X169902972Y-109480814D01*
X169898105Y-109471739D01*
X169833063Y-109371197D01*
X169822377Y-109361995D01*
X169812812Y-109366398D01*
X169072022Y-110107188D01*
X169064408Y-110121132D01*
X169064539Y-110122965D01*
X169068790Y-110129580D01*
X169810474Y-110871264D01*
X169822484Y-110877823D01*
X169834223Y-110868855D01*
X169865004Y-110826019D01*
X169870315Y-110817180D01*
X169964673Y-110626260D01*
X169965578Y-110623976D01*
X169966191Y-110623191D01*
X169966964Y-110621626D01*
X169967287Y-110621786D01*
X170009253Y-110568003D01*
X170076256Y-110544527D01*
X170145314Y-110561003D01*
X170197155Y-110617609D01*
X170235195Y-110700124D01*
X170357740Y-110873521D01*
X170509832Y-111021683D01*
X170514628Y-111024888D01*
X170514631Y-111024890D01*
X170585886Y-111072501D01*
X170686377Y-111139647D01*
X170691685Y-111141928D01*
X170691686Y-111141928D01*
X170876160Y-111221184D01*
X170876163Y-111221185D01*
X170881463Y-111223462D01*
X170887092Y-111224736D01*
X170887093Y-111224736D01*
X171082087Y-111268859D01*
X171144114Y-111303402D01*
X171177618Y-111365996D01*
X171171964Y-111436767D01*
X171128945Y-111493246D01*
X171075617Y-111515932D01*
X170945395Y-111538308D01*
X170945392Y-111538309D01*
X170939705Y-111539286D01*
X170740500Y-111612776D01*
X170558023Y-111721339D01*
X170398385Y-111861337D01*
X170394818Y-111865862D01*
X170394813Y-111865867D01*
X170272663Y-112020814D01*
X170266933Y-112028083D01*
X170264245Y-112033192D01*
X170191702Y-112171074D01*
X170142282Y-112222047D01*
X170073150Y-112238210D01*
X170006254Y-112214431D01*
X169964643Y-112162649D01*
X169902972Y-112020814D01*
X169898105Y-112011739D01*
X169833063Y-111911197D01*
X169822377Y-111901995D01*
X169812812Y-111906398D01*
X169072022Y-112647188D01*
X169064408Y-112661132D01*
X169064539Y-112662965D01*
X169068790Y-112669580D01*
X169810474Y-113411264D01*
X169822484Y-113417823D01*
X169834223Y-113408855D01*
X169865004Y-113366019D01*
X169870315Y-113357180D01*
X169964673Y-113166260D01*
X169965578Y-113163976D01*
X169966191Y-113163191D01*
X169966964Y-113161626D01*
X169967287Y-113161786D01*
X170009253Y-113108003D01*
X170076256Y-113084527D01*
X170145314Y-113101003D01*
X170197155Y-113157609D01*
X170235195Y-113240124D01*
X170357740Y-113413521D01*
X170509832Y-113561683D01*
X170514628Y-113564888D01*
X170514631Y-113564890D01*
X170585886Y-113612501D01*
X170686377Y-113679647D01*
X170691685Y-113681928D01*
X170691686Y-113681928D01*
X170876160Y-113761184D01*
X170876163Y-113761185D01*
X170881463Y-113763462D01*
X170887092Y-113764736D01*
X170887093Y-113764736D01*
X171082087Y-113808859D01*
X171144114Y-113843402D01*
X171177618Y-113905996D01*
X171171964Y-113976767D01*
X171128945Y-114033246D01*
X171075617Y-114055932D01*
X170945395Y-114078308D01*
X170945392Y-114078309D01*
X170939705Y-114079286D01*
X170740500Y-114152776D01*
X170558023Y-114261339D01*
X170398385Y-114401337D01*
X170394818Y-114405862D01*
X170394813Y-114405867D01*
X170272663Y-114560814D01*
X170266933Y-114568083D01*
X170264245Y-114573192D01*
X170191702Y-114711074D01*
X170142282Y-114762047D01*
X170073150Y-114778210D01*
X170006254Y-114754431D01*
X169964643Y-114702649D01*
X169902972Y-114560814D01*
X169898105Y-114551739D01*
X169833063Y-114451197D01*
X169822377Y-114441995D01*
X169812812Y-114446398D01*
X169072022Y-115187188D01*
X169064408Y-115201132D01*
X169064539Y-115202965D01*
X169068790Y-115209580D01*
X169810474Y-115951264D01*
X169822484Y-115957823D01*
X169834223Y-115948855D01*
X169865004Y-115906019D01*
X169870315Y-115897180D01*
X169964673Y-115706260D01*
X169965578Y-115703976D01*
X169966191Y-115703191D01*
X169966964Y-115701626D01*
X169967287Y-115701786D01*
X170009253Y-115648003D01*
X170076256Y-115624527D01*
X170145314Y-115641003D01*
X170197155Y-115697609D01*
X170235195Y-115780124D01*
X170357740Y-115953521D01*
X170509832Y-116101683D01*
X170514628Y-116104888D01*
X170514631Y-116104890D01*
X170585886Y-116152501D01*
X170686377Y-116219647D01*
X170691685Y-116221928D01*
X170691686Y-116221928D01*
X170876160Y-116301184D01*
X170876163Y-116301185D01*
X170881463Y-116303462D01*
X170887092Y-116304736D01*
X170887093Y-116304736D01*
X171082087Y-116348859D01*
X171144114Y-116383402D01*
X171177618Y-116445996D01*
X171171964Y-116516767D01*
X171128945Y-116573246D01*
X171075617Y-116595932D01*
X170945395Y-116618308D01*
X170945392Y-116618309D01*
X170939705Y-116619286D01*
X170740500Y-116692776D01*
X170558023Y-116801339D01*
X170398385Y-116941337D01*
X170394818Y-116945862D01*
X170394813Y-116945867D01*
X170272663Y-117100814D01*
X170266933Y-117108083D01*
X170264245Y-117113192D01*
X170191702Y-117251074D01*
X170142282Y-117302047D01*
X170073150Y-117318210D01*
X170006254Y-117294431D01*
X169964643Y-117242649D01*
X169902972Y-117100814D01*
X169898105Y-117091739D01*
X169833063Y-116991197D01*
X169822377Y-116981995D01*
X169812812Y-116986398D01*
X169072022Y-117727188D01*
X169064408Y-117741132D01*
X169064539Y-117742965D01*
X169068790Y-117749580D01*
X169810474Y-118491264D01*
X169822484Y-118497823D01*
X169834223Y-118488855D01*
X169865004Y-118446019D01*
X169870315Y-118437180D01*
X169964673Y-118246260D01*
X169965578Y-118243976D01*
X169966191Y-118243191D01*
X169966964Y-118241626D01*
X169967287Y-118241786D01*
X170009253Y-118188003D01*
X170076256Y-118164527D01*
X170145314Y-118181003D01*
X170197155Y-118237609D01*
X170235195Y-118320124D01*
X170357740Y-118493521D01*
X170509832Y-118641683D01*
X170514628Y-118644888D01*
X170514631Y-118644890D01*
X170585886Y-118692501D01*
X170686377Y-118759647D01*
X170691685Y-118761928D01*
X170691686Y-118761928D01*
X170876160Y-118841184D01*
X170876163Y-118841185D01*
X170881463Y-118843462D01*
X170887092Y-118844736D01*
X170887093Y-118844736D01*
X171082087Y-118888859D01*
X171144114Y-118923402D01*
X171177618Y-118985996D01*
X171171964Y-119056767D01*
X171128945Y-119113246D01*
X171075617Y-119135932D01*
X170945395Y-119158308D01*
X170945392Y-119158309D01*
X170939705Y-119159286D01*
X170740500Y-119232776D01*
X170558023Y-119341339D01*
X170398385Y-119481337D01*
X170394818Y-119485862D01*
X170394813Y-119485867D01*
X170272663Y-119640814D01*
X170266933Y-119648083D01*
X170264245Y-119653192D01*
X170191702Y-119791074D01*
X170142282Y-119842047D01*
X170073150Y-119858210D01*
X170006254Y-119834431D01*
X169964643Y-119782649D01*
X169902972Y-119640814D01*
X169898105Y-119631739D01*
X169833063Y-119531197D01*
X169822377Y-119521995D01*
X169812812Y-119526398D01*
X169072022Y-120267188D01*
X169064408Y-120281132D01*
X169064539Y-120282965D01*
X169068790Y-120289580D01*
X169810474Y-121031264D01*
X169822484Y-121037823D01*
X169834223Y-121028855D01*
X169865004Y-120986019D01*
X169870315Y-120977180D01*
X169964673Y-120786260D01*
X169965578Y-120783976D01*
X169966191Y-120783191D01*
X169966964Y-120781626D01*
X169967287Y-120781786D01*
X170009253Y-120728003D01*
X170076256Y-120704527D01*
X170145314Y-120721003D01*
X170197155Y-120777609D01*
X170235195Y-120860124D01*
X170357740Y-121033521D01*
X170509832Y-121181683D01*
X170514628Y-121184888D01*
X170514631Y-121184890D01*
X170585886Y-121232501D01*
X170686377Y-121299647D01*
X170691685Y-121301928D01*
X170691686Y-121301928D01*
X170876160Y-121381184D01*
X170876163Y-121381185D01*
X170881463Y-121383462D01*
X170887092Y-121384736D01*
X170887093Y-121384736D01*
X171082921Y-121429048D01*
X171082924Y-121429048D01*
X171088557Y-121430323D01*
X171094328Y-121430550D01*
X171094330Y-121430550D01*
X171159086Y-121433094D01*
X171300723Y-121438659D01*
X171405789Y-121423425D01*
X171505141Y-121409020D01*
X171505146Y-121409019D01*
X171510855Y-121408191D01*
X171516319Y-121406336D01*
X171516324Y-121406335D01*
X171706448Y-121341796D01*
X171711916Y-121339940D01*
X171897172Y-121236192D01*
X172060420Y-121100420D01*
X172196192Y-120937172D01*
X172299940Y-120751916D01*
X172331581Y-120658704D01*
X172366335Y-120556324D01*
X172366336Y-120556319D01*
X172368191Y-120550855D01*
X172369019Y-120545146D01*
X172369020Y-120545141D01*
X172398126Y-120344397D01*
X172398659Y-120340723D01*
X172400249Y-120280000D01*
X172380821Y-120068561D01*
X172323186Y-119864204D01*
X172229275Y-119673772D01*
X172173953Y-119599687D01*
X183872000Y-119599687D01*
X183872181Y-119604453D01*
X183886321Y-119790347D01*
X183887763Y-119799770D01*
X183944281Y-120043601D01*
X183947137Y-120052714D01*
X184039880Y-120285177D01*
X184044083Y-120293757D01*
X184170923Y-120509518D01*
X184176374Y-120517361D01*
X184334393Y-120711457D01*
X184340966Y-120718383D01*
X184526521Y-120886340D01*
X184534073Y-120892198D01*
X184742902Y-121030157D01*
X184751239Y-121034798D01*
X184978535Y-121139582D01*
X184987489Y-121142912D01*
X185228027Y-121212113D01*
X185237361Y-121214045D01*
X185308034Y-121223162D01*
X185322264Y-121220904D01*
X185326000Y-121207829D01*
X185326000Y-121207578D01*
X185834000Y-121207578D01*
X185837773Y-121220429D01*
X185852870Y-121222349D01*
X186001308Y-121196042D01*
X186010540Y-121193671D01*
X186247556Y-121113215D01*
X186256325Y-121109475D01*
X186478447Y-120994091D01*
X186486547Y-120989069D01*
X186688659Y-120841416D01*
X186695915Y-120835219D01*
X186873356Y-120658704D01*
X186879596Y-120651475D01*
X187028300Y-120450147D01*
X187033370Y-120442066D01*
X187149910Y-120220560D01*
X187153699Y-120211804D01*
X187235395Y-119975212D01*
X187237814Y-119965990D01*
X187282917Y-119719031D01*
X187283853Y-119711025D01*
X187287912Y-119633573D01*
X187288000Y-119630237D01*
X187288000Y-118608115D01*
X187283525Y-118592876D01*
X187282135Y-118591671D01*
X187274452Y-118590000D01*
X185852115Y-118590000D01*
X185836876Y-118594475D01*
X185835671Y-118595865D01*
X185834000Y-118603548D01*
X185834000Y-121207578D01*
X185326000Y-121207578D01*
X185326000Y-118608115D01*
X185321525Y-118592876D01*
X185320135Y-118591671D01*
X185312452Y-118590000D01*
X183890115Y-118590000D01*
X183874876Y-118594475D01*
X183873671Y-118595865D01*
X183872000Y-118603548D01*
X183872000Y-119599687D01*
X172173953Y-119599687D01*
X172102233Y-119503642D01*
X172008106Y-119416632D01*
X171950555Y-119363432D01*
X171950552Y-119363430D01*
X171946315Y-119359513D01*
X171766742Y-119246211D01*
X171733068Y-119232776D01*
X171706096Y-119222015D01*
X171569529Y-119167530D01*
X171563861Y-119166403D01*
X171563859Y-119166402D01*
X171393567Y-119132529D01*
X171330657Y-119099622D01*
X171295525Y-119037927D01*
X171299325Y-118967032D01*
X171340851Y-118909446D01*
X171400066Y-118884255D01*
X171510855Y-118868191D01*
X171516319Y-118866336D01*
X171516324Y-118866335D01*
X171706448Y-118801796D01*
X171711916Y-118799940D01*
X171897172Y-118696192D01*
X172060420Y-118560420D01*
X172171358Y-118427032D01*
X179073328Y-118427032D01*
X179074307Y-118432729D01*
X179074307Y-118432730D01*
X179096883Y-118564111D01*
X179109286Y-118636295D01*
X179182776Y-118835500D01*
X179291339Y-119017977D01*
X179431337Y-119177615D01*
X179435862Y-119181182D01*
X179435867Y-119181187D01*
X179593549Y-119305493D01*
X179598083Y-119309067D01*
X179603192Y-119311755D01*
X179780880Y-119405241D01*
X179780885Y-119405243D01*
X179785992Y-119407930D01*
X179988771Y-119470895D01*
X180161176Y-119491300D01*
X181983861Y-119491300D01*
X182068671Y-119483507D01*
X182135685Y-119477350D01*
X182135688Y-119477349D01*
X182141439Y-119476821D01*
X182160044Y-119471574D01*
X182340236Y-119420754D01*
X182340235Y-119420754D01*
X182345796Y-119419186D01*
X182536228Y-119325275D01*
X182706358Y-119198233D01*
X182850487Y-119042315D01*
X182963789Y-118862742D01*
X182968925Y-118849870D01*
X183029112Y-118699011D01*
X183042470Y-118665529D01*
X183056327Y-118595865D01*
X183082766Y-118462946D01*
X183082766Y-118462944D01*
X183083893Y-118457279D01*
X183084041Y-118446019D01*
X183085359Y-118345283D01*
X183086672Y-118244968D01*
X183085693Y-118239270D01*
X183055556Y-118063885D01*
X183872000Y-118063885D01*
X183876475Y-118079124D01*
X183877865Y-118080329D01*
X183885548Y-118082000D01*
X185307885Y-118082000D01*
X185323124Y-118077525D01*
X185324329Y-118076135D01*
X185326000Y-118068452D01*
X185326000Y-118063885D01*
X185834000Y-118063885D01*
X185838475Y-118079124D01*
X185839865Y-118080329D01*
X185847548Y-118082000D01*
X187269885Y-118082000D01*
X187285124Y-118077525D01*
X187286329Y-118076135D01*
X187288000Y-118068452D01*
X187288000Y-117072313D01*
X187287819Y-117067547D01*
X187273679Y-116881653D01*
X187272237Y-116872230D01*
X187215719Y-116628399D01*
X187212863Y-116619286D01*
X187120120Y-116386823D01*
X187115917Y-116378243D01*
X186989077Y-116162482D01*
X186983626Y-116154639D01*
X186825607Y-115960543D01*
X186819034Y-115953617D01*
X186633479Y-115785660D01*
X186625927Y-115779802D01*
X186417098Y-115641843D01*
X186408761Y-115637202D01*
X186181465Y-115532418D01*
X186172511Y-115529088D01*
X185931973Y-115459887D01*
X185922639Y-115457955D01*
X185851966Y-115448838D01*
X185837736Y-115451096D01*
X185834000Y-115464171D01*
X185834000Y-118063885D01*
X185326000Y-118063885D01*
X185326000Y-115464422D01*
X185322227Y-115451571D01*
X185307130Y-115449651D01*
X185158692Y-115475958D01*
X185149460Y-115478329D01*
X184912444Y-115558785D01*
X184903675Y-115562525D01*
X184681553Y-115677909D01*
X184673453Y-115682931D01*
X184471341Y-115830584D01*
X184464085Y-115836781D01*
X184286644Y-116013296D01*
X184280404Y-116020525D01*
X184131700Y-116221853D01*
X184126630Y-116229934D01*
X184010090Y-116451440D01*
X184006301Y-116460196D01*
X183924605Y-116696788D01*
X183922186Y-116706010D01*
X183877083Y-116952969D01*
X183876147Y-116960975D01*
X183872088Y-117038427D01*
X183872000Y-117041763D01*
X183872000Y-118063885D01*
X183055556Y-118063885D01*
X183051692Y-118041395D01*
X183051691Y-118041392D01*
X183050714Y-118035705D01*
X182977224Y-117836500D01*
X182868661Y-117654023D01*
X182728663Y-117494385D01*
X182724138Y-117490818D01*
X182724133Y-117490813D01*
X182566451Y-117366507D01*
X182566449Y-117366506D01*
X182561917Y-117362933D01*
X182537679Y-117350181D01*
X182379120Y-117266759D01*
X182379115Y-117266757D01*
X182374008Y-117264070D01*
X182171229Y-117201105D01*
X181998824Y-117180700D01*
X180176139Y-117180700D01*
X180091329Y-117188493D01*
X180024315Y-117194650D01*
X180024312Y-117194651D01*
X180018561Y-117195179D01*
X180013002Y-117196747D01*
X180013001Y-117196747D01*
X179997549Y-117201105D01*
X179814204Y-117252814D01*
X179623772Y-117346725D01*
X179453642Y-117473767D01*
X179309513Y-117629685D01*
X179196211Y-117809258D01*
X179117530Y-118006471D01*
X179116403Y-118012139D01*
X179116402Y-118012141D01*
X179077753Y-118206448D01*
X179076107Y-118214721D01*
X179076031Y-118220496D01*
X179076031Y-118220500D01*
X179075734Y-118243191D01*
X179073328Y-118427032D01*
X172171358Y-118427032D01*
X172196192Y-118397172D01*
X172299940Y-118211916D01*
X172328664Y-118127299D01*
X172366335Y-118016324D01*
X172366336Y-118016319D01*
X172368191Y-118010855D01*
X172369019Y-118005146D01*
X172369020Y-118005141D01*
X172392686Y-117841919D01*
X172398659Y-117800723D01*
X172400249Y-117740000D01*
X172380821Y-117528561D01*
X172323186Y-117324204D01*
X172229275Y-117133772D01*
X172102233Y-116963642D01*
X171946315Y-116819513D01*
X171766742Y-116706211D01*
X171743124Y-116696788D01*
X171706096Y-116682015D01*
X171569529Y-116627530D01*
X171563861Y-116626403D01*
X171563859Y-116626402D01*
X171393567Y-116592529D01*
X171330657Y-116559622D01*
X171295525Y-116497927D01*
X171299325Y-116427032D01*
X171340851Y-116369446D01*
X171400066Y-116344255D01*
X171510855Y-116328191D01*
X171516319Y-116326336D01*
X171516324Y-116326335D01*
X171706448Y-116261796D01*
X171711916Y-116259940D01*
X171897172Y-116156192D01*
X172060420Y-116020420D01*
X172196192Y-115857172D01*
X172299940Y-115671916D01*
X172328664Y-115587299D01*
X172366335Y-115476324D01*
X172366336Y-115476319D01*
X172368191Y-115470855D01*
X172369019Y-115465146D01*
X172369020Y-115465141D01*
X172398126Y-115264397D01*
X172398659Y-115260723D01*
X172400249Y-115200000D01*
X172388368Y-115070702D01*
X172381350Y-114994315D01*
X172381349Y-114994312D01*
X172380821Y-114988561D01*
X172323186Y-114784204D01*
X172229275Y-114593772D01*
X172102233Y-114423642D01*
X171946315Y-114279513D01*
X171766742Y-114166211D01*
X171733068Y-114152776D01*
X171706096Y-114142015D01*
X171569529Y-114087530D01*
X171563861Y-114086403D01*
X171563859Y-114086402D01*
X171393567Y-114052529D01*
X171330657Y-114019622D01*
X171295525Y-113957927D01*
X171299325Y-113887032D01*
X171340851Y-113829446D01*
X171400066Y-113804255D01*
X171510855Y-113788191D01*
X171516319Y-113786336D01*
X171516324Y-113786335D01*
X171706448Y-113721796D01*
X171711916Y-113719940D01*
X171897172Y-113616192D01*
X172060420Y-113480420D01*
X172196192Y-113317172D01*
X172299940Y-113131916D01*
X172328664Y-113047299D01*
X172366335Y-112936324D01*
X172366336Y-112936319D01*
X172368191Y-112930855D01*
X172369019Y-112925146D01*
X172369020Y-112925141D01*
X172389917Y-112781014D01*
X172398659Y-112720723D01*
X172400249Y-112660000D01*
X172380821Y-112448561D01*
X172323186Y-112244204D01*
X172229275Y-112053772D01*
X172102233Y-111883642D01*
X171946315Y-111739513D01*
X171766742Y-111626211D01*
X171733068Y-111612776D01*
X171706096Y-111602015D01*
X171569529Y-111547530D01*
X171563861Y-111546403D01*
X171563859Y-111546402D01*
X171393567Y-111512529D01*
X171330657Y-111479622D01*
X171295525Y-111417927D01*
X171299325Y-111347032D01*
X171340851Y-111289446D01*
X171400066Y-111264255D01*
X171510855Y-111248191D01*
X171516319Y-111246336D01*
X171516324Y-111246335D01*
X171706448Y-111181796D01*
X171711916Y-111179940D01*
X171897172Y-111076192D01*
X172060420Y-110940420D01*
X172196192Y-110777172D01*
X172299940Y-110591916D01*
X172328664Y-110507299D01*
X172366335Y-110396324D01*
X172366336Y-110396319D01*
X172368191Y-110390855D01*
X172369019Y-110385146D01*
X172369020Y-110385141D01*
X172398126Y-110184397D01*
X172398659Y-110180723D01*
X172400249Y-110120000D01*
X172386939Y-109975148D01*
X172381350Y-109914315D01*
X172381349Y-109914312D01*
X172380821Y-109908561D01*
X172323186Y-109704204D01*
X172229275Y-109513772D01*
X172102233Y-109343642D01*
X171946315Y-109199513D01*
X171766742Y-109086211D01*
X171733068Y-109072776D01*
X171706096Y-109062015D01*
X171569529Y-109007530D01*
X171563861Y-109006403D01*
X171563859Y-109006402D01*
X171393567Y-108972529D01*
X171330657Y-108939622D01*
X171295525Y-108877927D01*
X171299325Y-108807032D01*
X171340851Y-108749446D01*
X171400066Y-108724255D01*
X171510855Y-108708191D01*
X171516319Y-108706336D01*
X171516324Y-108706335D01*
X171706448Y-108641796D01*
X171711916Y-108639940D01*
X171897172Y-108536192D01*
X172060420Y-108400420D01*
X172196192Y-108237172D01*
X172299940Y-108051916D01*
X172328664Y-107967299D01*
X172366335Y-107856324D01*
X172366336Y-107856319D01*
X172368191Y-107850855D01*
X172369019Y-107845146D01*
X172369020Y-107845141D01*
X172397314Y-107650000D01*
X172398659Y-107640723D01*
X172400249Y-107580000D01*
X172388368Y-107450702D01*
X172381350Y-107374315D01*
X172381349Y-107374312D01*
X172380821Y-107368561D01*
X172323186Y-107164204D01*
X172229275Y-106973772D01*
X172115938Y-106821995D01*
X172105686Y-106808266D01*
X172105685Y-106808265D01*
X172102233Y-106803642D01*
X171946315Y-106659513D01*
X171766742Y-106546211D01*
X171733068Y-106532776D01*
X171706096Y-106522015D01*
X171569529Y-106467530D01*
X171563861Y-106466403D01*
X171563859Y-106466402D01*
X171393567Y-106432529D01*
X171330657Y-106399622D01*
X171295525Y-106337927D01*
X171299325Y-106267032D01*
X171340851Y-106209446D01*
X171400066Y-106184255D01*
X171510855Y-106168191D01*
X171516319Y-106166336D01*
X171516324Y-106166335D01*
X171706448Y-106101796D01*
X171711916Y-106099940D01*
X171897172Y-105996192D01*
X171936255Y-105963687D01*
X183872000Y-105963687D01*
X183872181Y-105968453D01*
X183886321Y-106154347D01*
X183887763Y-106163770D01*
X183944281Y-106407601D01*
X183947137Y-106416714D01*
X184039880Y-106649177D01*
X184044083Y-106657757D01*
X184170923Y-106873518D01*
X184176374Y-106881361D01*
X184334393Y-107075457D01*
X184340966Y-107082383D01*
X184526521Y-107250340D01*
X184534073Y-107256198D01*
X184742902Y-107394157D01*
X184751239Y-107398798D01*
X184978535Y-107503582D01*
X184987489Y-107506912D01*
X185228027Y-107576113D01*
X185237361Y-107578045D01*
X185308034Y-107587162D01*
X185322264Y-107584904D01*
X185326000Y-107571829D01*
X185326000Y-107571578D01*
X185834000Y-107571578D01*
X185837773Y-107584429D01*
X185852870Y-107586349D01*
X186001308Y-107560042D01*
X186010540Y-107557671D01*
X186247556Y-107477215D01*
X186256325Y-107473475D01*
X186478447Y-107358091D01*
X186486547Y-107353069D01*
X186688659Y-107205416D01*
X186695915Y-107199219D01*
X186873356Y-107022704D01*
X186879596Y-107015475D01*
X187028300Y-106814147D01*
X187033370Y-106806066D01*
X187149910Y-106584560D01*
X187153699Y-106575804D01*
X187235395Y-106339212D01*
X187237814Y-106329990D01*
X187282917Y-106083031D01*
X187283853Y-106075025D01*
X187287912Y-105997573D01*
X187288000Y-105994237D01*
X187288000Y-104972115D01*
X187283525Y-104956876D01*
X187282135Y-104955671D01*
X187274452Y-104954000D01*
X185852115Y-104954000D01*
X185836876Y-104958475D01*
X185835671Y-104959865D01*
X185834000Y-104967548D01*
X185834000Y-107571578D01*
X185326000Y-107571578D01*
X185326000Y-104972115D01*
X185321525Y-104956876D01*
X185320135Y-104955671D01*
X185312452Y-104954000D01*
X183890115Y-104954000D01*
X183874876Y-104958475D01*
X183873671Y-104959865D01*
X183872000Y-104967548D01*
X183872000Y-105963687D01*
X171936255Y-105963687D01*
X172060420Y-105860420D01*
X172196192Y-105697172D01*
X172299940Y-105511916D01*
X172330565Y-105421699D01*
X172366335Y-105316324D01*
X172366336Y-105316319D01*
X172368191Y-105310855D01*
X172369019Y-105305146D01*
X172369020Y-105305141D01*
X172398126Y-105104397D01*
X172398659Y-105100723D01*
X172400249Y-105040000D01*
X172380821Y-104828561D01*
X172370237Y-104791032D01*
X179073328Y-104791032D01*
X179109286Y-105000295D01*
X179182776Y-105199500D01*
X179291339Y-105381977D01*
X179431337Y-105541615D01*
X179435862Y-105545182D01*
X179435867Y-105545187D01*
X179593549Y-105669493D01*
X179598083Y-105673067D01*
X179603192Y-105675755D01*
X179780880Y-105769241D01*
X179780885Y-105769243D01*
X179785992Y-105771930D01*
X179988771Y-105834895D01*
X180161176Y-105855300D01*
X181983861Y-105855300D01*
X182068671Y-105847507D01*
X182135685Y-105841350D01*
X182135688Y-105841349D01*
X182141439Y-105840821D01*
X182160044Y-105835574D01*
X182243617Y-105812004D01*
X182345796Y-105783186D01*
X182536228Y-105689275D01*
X182706358Y-105562233D01*
X182793117Y-105468378D01*
X182846568Y-105410555D01*
X182846570Y-105410552D01*
X182850487Y-105406315D01*
X182963789Y-105226742D01*
X182971770Y-105206739D01*
X183015546Y-105097014D01*
X183042470Y-105029529D01*
X183056327Y-104959865D01*
X183082766Y-104826946D01*
X183082766Y-104826944D01*
X183083893Y-104821279D01*
X183084113Y-104804510D01*
X183086400Y-104629764D01*
X183086672Y-104608968D01*
X183055556Y-104427885D01*
X183872000Y-104427885D01*
X183876475Y-104443124D01*
X183877865Y-104444329D01*
X183885548Y-104446000D01*
X185307885Y-104446000D01*
X185323124Y-104441525D01*
X185324329Y-104440135D01*
X185326000Y-104432452D01*
X185326000Y-104427885D01*
X185834000Y-104427885D01*
X185838475Y-104443124D01*
X185839865Y-104444329D01*
X185847548Y-104446000D01*
X187269885Y-104446000D01*
X187285124Y-104441525D01*
X187286329Y-104440135D01*
X187288000Y-104432452D01*
X187288000Y-103436313D01*
X187287819Y-103431547D01*
X187273679Y-103245653D01*
X187272237Y-103236230D01*
X187215719Y-102992399D01*
X187212863Y-102983286D01*
X187120120Y-102750823D01*
X187115917Y-102742243D01*
X186989077Y-102526482D01*
X186983626Y-102518639D01*
X186825607Y-102324543D01*
X186819034Y-102317617D01*
X186633479Y-102149660D01*
X186625927Y-102143802D01*
X186417098Y-102005843D01*
X186408761Y-102001202D01*
X186181465Y-101896418D01*
X186172511Y-101893088D01*
X185931973Y-101823887D01*
X185922639Y-101821955D01*
X185851966Y-101812838D01*
X185837736Y-101815096D01*
X185834000Y-101828171D01*
X185834000Y-104427885D01*
X185326000Y-104427885D01*
X185326000Y-101828422D01*
X185322227Y-101815571D01*
X185307130Y-101813651D01*
X185158692Y-101839958D01*
X185149460Y-101842329D01*
X184912444Y-101922785D01*
X184903675Y-101926525D01*
X184681553Y-102041909D01*
X184673453Y-102046931D01*
X184471341Y-102194584D01*
X184464085Y-102200781D01*
X184286644Y-102377296D01*
X184280404Y-102384525D01*
X184131700Y-102585853D01*
X184126630Y-102593934D01*
X184010090Y-102815440D01*
X184006301Y-102824196D01*
X183924605Y-103060788D01*
X183922186Y-103070010D01*
X183877083Y-103316969D01*
X183876147Y-103324975D01*
X183872088Y-103402427D01*
X183872000Y-103405763D01*
X183872000Y-104427885D01*
X183055556Y-104427885D01*
X183051692Y-104405395D01*
X183051691Y-104405392D01*
X183050714Y-104399705D01*
X182977224Y-104200500D01*
X182868661Y-104018023D01*
X182728663Y-103858385D01*
X182724138Y-103854818D01*
X182724133Y-103854813D01*
X182566451Y-103730507D01*
X182566449Y-103730506D01*
X182561917Y-103726933D01*
X182537679Y-103714181D01*
X182379120Y-103630759D01*
X182379115Y-103630757D01*
X182374008Y-103628070D01*
X182171229Y-103565105D01*
X181998824Y-103544700D01*
X180176139Y-103544700D01*
X180091329Y-103552493D01*
X180024315Y-103558650D01*
X180024312Y-103558651D01*
X180018561Y-103559179D01*
X180013002Y-103560747D01*
X180013001Y-103560747D01*
X179997549Y-103565105D01*
X179814204Y-103616814D01*
X179623772Y-103710725D01*
X179453642Y-103837767D01*
X179309513Y-103993685D01*
X179196211Y-104173258D01*
X179117530Y-104370471D01*
X179116403Y-104376139D01*
X179116402Y-104376141D01*
X179102507Y-104446000D01*
X179076107Y-104578721D01*
X179076031Y-104584496D01*
X179076031Y-104584500D01*
X179075439Y-104629764D01*
X179073328Y-104791032D01*
X172370237Y-104791032D01*
X172323186Y-104624204D01*
X172229275Y-104433772D01*
X172102233Y-104263642D01*
X171946315Y-104119513D01*
X171766742Y-104006211D01*
X171733068Y-103992776D01*
X171663269Y-103964929D01*
X171569529Y-103927530D01*
X171563861Y-103926403D01*
X171563859Y-103926402D01*
X171393567Y-103892529D01*
X171330657Y-103859622D01*
X171295525Y-103797927D01*
X171299325Y-103727032D01*
X171340851Y-103669446D01*
X171400066Y-103644255D01*
X171510855Y-103628191D01*
X171516319Y-103626336D01*
X171516324Y-103626335D01*
X171696700Y-103565105D01*
X171711916Y-103559940D01*
X171897172Y-103456192D01*
X172060420Y-103320420D01*
X172118381Y-103250729D01*
X172177318Y-103211147D01*
X172215254Y-103205300D01*
X172941191Y-103205300D01*
X172949762Y-103205592D01*
X173007184Y-103209507D01*
X173014660Y-103208202D01*
X173014663Y-103208202D01*
X173069850Y-103198570D01*
X173076375Y-103197607D01*
X173131928Y-103190884D01*
X173139473Y-103189971D01*
X173146577Y-103187287D01*
X173149483Y-103186573D01*
X173165055Y-103182312D01*
X173167874Y-103181461D01*
X173175351Y-103180156D01*
X173182297Y-103177107D01*
X173182300Y-103177106D01*
X173217855Y-103161498D01*
X173233586Y-103154593D01*
X173239689Y-103152103D01*
X173299163Y-103129630D01*
X173305424Y-103125326D01*
X173308069Y-103123944D01*
X173322110Y-103116129D01*
X173324703Y-103114595D01*
X173331664Y-103111540D01*
X173382120Y-103072823D01*
X173387429Y-103068967D01*
X173439849Y-103032939D01*
X173461534Y-103008601D01*
X173481099Y-102986641D01*
X173486080Y-102981365D01*
X181578348Y-94889097D01*
X181584614Y-94883243D01*
X181622263Y-94850400D01*
X181627990Y-94845404D01*
X181664557Y-94793374D01*
X181668490Y-94788078D01*
X181703031Y-94744026D01*
X181703032Y-94744024D01*
X181707718Y-94738048D01*
X181710842Y-94731128D01*
X181712388Y-94728576D01*
X181720372Y-94714579D01*
X181721780Y-94711953D01*
X181726148Y-94705738D01*
X181749245Y-94646498D01*
X181751801Y-94640417D01*
X181774846Y-94589379D01*
X181774846Y-94589378D01*
X181777969Y-94582462D01*
X181779352Y-94575002D01*
X181780235Y-94572184D01*
X181784655Y-94556665D01*
X181785398Y-94553771D01*
X181788159Y-94546689D01*
X181796459Y-94483644D01*
X181797491Y-94477129D01*
X181798667Y-94470787D01*
X181809078Y-94414612D01*
X181805509Y-94352715D01*
X181805300Y-94345463D01*
X181805300Y-92631300D01*
X181810472Y-92613687D01*
X183872000Y-92613687D01*
X183872181Y-92618453D01*
X183886321Y-92804347D01*
X183887763Y-92813770D01*
X183944281Y-93057601D01*
X183947137Y-93066714D01*
X184039880Y-93299177D01*
X184044083Y-93307757D01*
X184170923Y-93523518D01*
X184176374Y-93531361D01*
X184334393Y-93725457D01*
X184340966Y-93732383D01*
X184526521Y-93900340D01*
X184534073Y-93906198D01*
X184742902Y-94044157D01*
X184751239Y-94048798D01*
X184978535Y-94153582D01*
X184987489Y-94156912D01*
X185228027Y-94226113D01*
X185237361Y-94228045D01*
X185308034Y-94237162D01*
X185322264Y-94234904D01*
X185326000Y-94221829D01*
X185326000Y-94221578D01*
X185834000Y-94221578D01*
X185837773Y-94234429D01*
X185852870Y-94236349D01*
X186001308Y-94210042D01*
X186010540Y-94207671D01*
X186247556Y-94127215D01*
X186256325Y-94123475D01*
X186478447Y-94008091D01*
X186486547Y-94003069D01*
X186688659Y-93855416D01*
X186695915Y-93849219D01*
X186873356Y-93672704D01*
X186879596Y-93665475D01*
X187028300Y-93464147D01*
X187033370Y-93456066D01*
X187149910Y-93234560D01*
X187153699Y-93225804D01*
X187235395Y-92989212D01*
X187237814Y-92979990D01*
X187282917Y-92733031D01*
X187283853Y-92725025D01*
X187287912Y-92647573D01*
X187288000Y-92644237D01*
X187288000Y-91622115D01*
X187283525Y-91606876D01*
X187282135Y-91605671D01*
X187274452Y-91604000D01*
X185852115Y-91604000D01*
X185836876Y-91608475D01*
X185835671Y-91609865D01*
X185834000Y-91617548D01*
X185834000Y-94221578D01*
X185326000Y-94221578D01*
X185326000Y-91622115D01*
X185321525Y-91606876D01*
X185320135Y-91605671D01*
X185312452Y-91604000D01*
X183890115Y-91604000D01*
X183874876Y-91608475D01*
X183873671Y-91609865D01*
X183872000Y-91617548D01*
X183872000Y-92613687D01*
X181810472Y-92613687D01*
X181825302Y-92563179D01*
X181878958Y-92516686D01*
X181931300Y-92505300D01*
X181983861Y-92505300D01*
X182068671Y-92497507D01*
X182135685Y-92491350D01*
X182135688Y-92491349D01*
X182141439Y-92490821D01*
X182160044Y-92485574D01*
X182340236Y-92434754D01*
X182340235Y-92434754D01*
X182345796Y-92433186D01*
X182536228Y-92339275D01*
X182706358Y-92212233D01*
X182850487Y-92056315D01*
X182963789Y-91876742D01*
X183042470Y-91679529D01*
X183056327Y-91609865D01*
X183082766Y-91476946D01*
X183082766Y-91476944D01*
X183083893Y-91471279D01*
X183084215Y-91446730D01*
X183085359Y-91359283D01*
X183086672Y-91258968D01*
X183080501Y-91223054D01*
X183055556Y-91077885D01*
X183872000Y-91077885D01*
X183876475Y-91093124D01*
X183877865Y-91094329D01*
X183885548Y-91096000D01*
X185307885Y-91096000D01*
X185323124Y-91091525D01*
X185324329Y-91090135D01*
X185326000Y-91082452D01*
X185326000Y-91077885D01*
X185834000Y-91077885D01*
X185838475Y-91093124D01*
X185839865Y-91094329D01*
X185847548Y-91096000D01*
X187269885Y-91096000D01*
X187285124Y-91091525D01*
X187286329Y-91090135D01*
X187288000Y-91082452D01*
X187288000Y-90086313D01*
X187287819Y-90081547D01*
X187273679Y-89895653D01*
X187272237Y-89886230D01*
X187215719Y-89642399D01*
X187212863Y-89633286D01*
X187120120Y-89400823D01*
X187115917Y-89392243D01*
X186989077Y-89176482D01*
X186983626Y-89168639D01*
X186825607Y-88974543D01*
X186819034Y-88967617D01*
X186633479Y-88799660D01*
X186625927Y-88793802D01*
X186417098Y-88655843D01*
X186408761Y-88651202D01*
X186181465Y-88546418D01*
X186172511Y-88543088D01*
X185931973Y-88473887D01*
X185922639Y-88471955D01*
X185851966Y-88462838D01*
X185837736Y-88465096D01*
X185834000Y-88478171D01*
X185834000Y-91077885D01*
X185326000Y-91077885D01*
X185326000Y-88478422D01*
X185322227Y-88465571D01*
X185307130Y-88463651D01*
X185158692Y-88489958D01*
X185149460Y-88492329D01*
X184912444Y-88572785D01*
X184903675Y-88576525D01*
X184681553Y-88691909D01*
X184673453Y-88696931D01*
X184471341Y-88844584D01*
X184464085Y-88850781D01*
X184286644Y-89027296D01*
X184280404Y-89034525D01*
X184131700Y-89235853D01*
X184126630Y-89243934D01*
X184010090Y-89465440D01*
X184006301Y-89474196D01*
X183924605Y-89710788D01*
X183922186Y-89720010D01*
X183877083Y-89966969D01*
X183876147Y-89974975D01*
X183872088Y-90052427D01*
X183872000Y-90055763D01*
X183872000Y-91077885D01*
X183055556Y-91077885D01*
X183051692Y-91055395D01*
X183051691Y-91055392D01*
X183050714Y-91049705D01*
X182977224Y-90850500D01*
X182868661Y-90668023D01*
X182728663Y-90508385D01*
X182724138Y-90504818D01*
X182724133Y-90504813D01*
X182566451Y-90380507D01*
X182566449Y-90380506D01*
X182561917Y-90376933D01*
X182537679Y-90364181D01*
X182379120Y-90280759D01*
X182379115Y-90280757D01*
X182374008Y-90278070D01*
X182171229Y-90215105D01*
X181998824Y-90194700D01*
X180176139Y-90194700D01*
X180091329Y-90202493D01*
X180024315Y-90208650D01*
X180024312Y-90208651D01*
X180018561Y-90209179D01*
X180013002Y-90210747D01*
X180013001Y-90210747D01*
X179997549Y-90215105D01*
X179814204Y-90266814D01*
X179623772Y-90360725D01*
X179453642Y-90487767D01*
X179309513Y-90643685D01*
X179196211Y-90823258D01*
X179117530Y-91020471D01*
X179116403Y-91026139D01*
X179116402Y-91026141D01*
X179077984Y-91219286D01*
X179076107Y-91228721D01*
X179076031Y-91234496D01*
X179076031Y-91234500D01*
X179075093Y-91306211D01*
X179073328Y-91441032D01*
X179074307Y-91446729D01*
X179074307Y-91446730D01*
X179090564Y-91541337D01*
X179109286Y-91650295D01*
X179182776Y-91849500D01*
X179291339Y-92031977D01*
X179431337Y-92191615D01*
X179435862Y-92195182D01*
X179435867Y-92195187D01*
X179593549Y-92319493D01*
X179598083Y-92323067D01*
X179603192Y-92325755D01*
X179780880Y-92419241D01*
X179780885Y-92419243D01*
X179785992Y-92421930D01*
X179988771Y-92484895D01*
X180161176Y-92505300D01*
X180268700Y-92505300D01*
X180336821Y-92525302D01*
X180383314Y-92578958D01*
X180394700Y-92631300D01*
X180394700Y-94025665D01*
X180374698Y-94093786D01*
X180357795Y-94114760D01*
X172714761Y-101757795D01*
X172652449Y-101791821D01*
X172625666Y-101794700D01*
X172218459Y-101794700D01*
X172150338Y-101774698D01*
X172117502Y-101744090D01*
X172102233Y-101723642D01*
X172078104Y-101701337D01*
X171950555Y-101583432D01*
X171950552Y-101583430D01*
X171946315Y-101579513D01*
X171766742Y-101466211D01*
X171733068Y-101452776D01*
X171706096Y-101442015D01*
X171569529Y-101387530D01*
X171563861Y-101386403D01*
X171563859Y-101386402D01*
X171393567Y-101352529D01*
X171330657Y-101319622D01*
X171295525Y-101257927D01*
X171299325Y-101187032D01*
X171340851Y-101129446D01*
X171400066Y-101104255D01*
X171510855Y-101088191D01*
X171516319Y-101086336D01*
X171516324Y-101086335D01*
X171706448Y-101021796D01*
X171711916Y-101019940D01*
X171897172Y-100916192D01*
X172060420Y-100780420D01*
X172196192Y-100617172D01*
X172299940Y-100431916D01*
X172368191Y-100230855D01*
X172369019Y-100225146D01*
X172369020Y-100225141D01*
X172398126Y-100024397D01*
X172398659Y-100020723D01*
X172400249Y-99960000D01*
X172380821Y-99748561D01*
X172323186Y-99544204D01*
X172259923Y-99415920D01*
X172247733Y-99345977D01*
X172265446Y-99294439D01*
X173653146Y-97025995D01*
X179915412Y-86789199D01*
X179968021Y-86741528D01*
X180022781Y-86728952D01*
X187353887Y-86722394D01*
X187422026Y-86742335D01*
G37*
%TD.AperFunction*%
%TD*%
%TA.AperFunction,Conductor*%
%TO.N,GND*%
G36*
X179520211Y-60560059D02*
G01*
X179566704Y-60613714D01*
X179578077Y-60667951D01*
X179560000Y-61870000D01*
X189470041Y-61870000D01*
X189538162Y-61890002D01*
X189584655Y-61943658D01*
X189596041Y-61995994D01*
X189596153Y-64578731D01*
X189576155Y-64646851D01*
X189522501Y-64693346D01*
X189452228Y-64703453D01*
X189387646Y-64673963D01*
X189348885Y-64612937D01*
X189331633Y-64551767D01*
X189331632Y-64551765D01*
X189330065Y-64546208D01*
X189327124Y-64540243D01*
X189234645Y-64352715D01*
X189232090Y-64347534D01*
X189221233Y-64332994D01*
X189103003Y-64174665D01*
X189103002Y-64174664D01*
X189099550Y-64170041D01*
X188936884Y-64019674D01*
X188842615Y-63960195D01*
X188754423Y-63904550D01*
X188754418Y-63904548D01*
X188749539Y-63901469D01*
X188543790Y-63819383D01*
X188538130Y-63818257D01*
X188538126Y-63818256D01*
X188332196Y-63777294D01*
X188332191Y-63777294D01*
X188326528Y-63776167D01*
X188320753Y-63776091D01*
X188320749Y-63776091D01*
X188211551Y-63774662D01*
X188105028Y-63773267D01*
X187886709Y-63810782D01*
X187678882Y-63887453D01*
X187673921Y-63890405D01*
X187673920Y-63890405D01*
X187493475Y-63997758D01*
X187493472Y-63997760D01*
X187488507Y-64000714D01*
X187321960Y-64146772D01*
X187184819Y-64320734D01*
X187182128Y-64325850D01*
X187182126Y-64325852D01*
X187084369Y-64511658D01*
X187081677Y-64516775D01*
X187079964Y-64522292D01*
X187020311Y-64714409D01*
X187015988Y-64728330D01*
X187015309Y-64734067D01*
X187003728Y-64831917D01*
X186994700Y-64908190D01*
X186994700Y-66036200D01*
X187002385Y-66119834D01*
X187009259Y-66194649D01*
X186995574Y-66264314D01*
X186946398Y-66315522D01*
X186877343Y-66332013D01*
X186810335Y-66308553D01*
X186782830Y-66281567D01*
X186703003Y-66174665D01*
X186703002Y-66174664D01*
X186699550Y-66170041D01*
X186571649Y-66051810D01*
X186541124Y-66023593D01*
X186541121Y-66023591D01*
X186536884Y-66019674D01*
X186446807Y-65962840D01*
X186354423Y-65904550D01*
X186354418Y-65904548D01*
X186349539Y-65901469D01*
X186143790Y-65819383D01*
X186138130Y-65818257D01*
X186138126Y-65818256D01*
X185932196Y-65777294D01*
X185932191Y-65777294D01*
X185926528Y-65776167D01*
X185920753Y-65776091D01*
X185920749Y-65776091D01*
X185811551Y-65774662D01*
X185705028Y-65773267D01*
X185486709Y-65810782D01*
X185278882Y-65887453D01*
X185273921Y-65890405D01*
X185273920Y-65890405D01*
X185093475Y-65997758D01*
X185093472Y-65997760D01*
X185088507Y-66000714D01*
X184921960Y-66146772D01*
X184784819Y-66320734D01*
X184782128Y-66325850D01*
X184782126Y-66325852D01*
X184735859Y-66413792D01*
X184681677Y-66516775D01*
X184675705Y-66536007D01*
X184642025Y-66644478D01*
X184615988Y-66728330D01*
X184615309Y-66734067D01*
X184603853Y-66830860D01*
X184594700Y-66908190D01*
X184594700Y-68036200D01*
X184596473Y-68055497D01*
X184607350Y-68173867D01*
X184609805Y-68200590D01*
X184611373Y-68206149D01*
X184611373Y-68206150D01*
X184667180Y-68404022D01*
X184669935Y-68413792D01*
X184672487Y-68418968D01*
X184672489Y-68418972D01*
X184758325Y-68593030D01*
X184767910Y-68612466D01*
X184771364Y-68617092D01*
X184771365Y-68617093D01*
X184891407Y-68777849D01*
X184900450Y-68789959D01*
X185063116Y-68940326D01*
X185093166Y-68959286D01*
X185245577Y-69055450D01*
X185245582Y-69055452D01*
X185250461Y-69058531D01*
X185456210Y-69140617D01*
X185461870Y-69141743D01*
X185461874Y-69141744D01*
X185667804Y-69182706D01*
X185667809Y-69182706D01*
X185673472Y-69183833D01*
X185679247Y-69183909D01*
X185679251Y-69183909D01*
X185788449Y-69185338D01*
X185894972Y-69186733D01*
X186113291Y-69149218D01*
X186321118Y-69072547D01*
X186349856Y-69055450D01*
X186506525Y-68962242D01*
X186506528Y-68962240D01*
X186511493Y-68959286D01*
X186678040Y-68813228D01*
X186815181Y-68639266D01*
X186835014Y-68601571D01*
X186915631Y-68448342D01*
X186915632Y-68448340D01*
X186918323Y-68443225D01*
X186984012Y-68231670D01*
X186990415Y-68177573D01*
X187004864Y-68055497D01*
X187004864Y-68055490D01*
X187005300Y-68051810D01*
X187005300Y-66923800D01*
X186990741Y-66765351D01*
X187004426Y-66695686D01*
X187053602Y-66644478D01*
X187122657Y-66627987D01*
X187189665Y-66651447D01*
X187217169Y-66678432D01*
X187300450Y-66789959D01*
X187398229Y-66880345D01*
X187456036Y-66933781D01*
X187463116Y-66940326D01*
X187493166Y-66959286D01*
X187645577Y-67055450D01*
X187645582Y-67055452D01*
X187650461Y-67058531D01*
X187856210Y-67140617D01*
X187861870Y-67141743D01*
X187861874Y-67141744D01*
X188067804Y-67182706D01*
X188067809Y-67182706D01*
X188073472Y-67183833D01*
X188079247Y-67183909D01*
X188079251Y-67183909D01*
X188188449Y-67185338D01*
X188294972Y-67186733D01*
X188513291Y-67149218D01*
X188721118Y-67072547D01*
X188749856Y-67055450D01*
X188906525Y-66962242D01*
X188906528Y-66962240D01*
X188911493Y-66959286D01*
X189078040Y-66813228D01*
X189215181Y-66639266D01*
X189223649Y-66623172D01*
X189315631Y-66448342D01*
X189315632Y-66448340D01*
X189318323Y-66443225D01*
X189349899Y-66341533D01*
X189389202Y-66282408D01*
X189454232Y-66253917D01*
X189524341Y-66265107D01*
X189577271Y-66312424D01*
X189596232Y-66378891D01*
X189596521Y-73035380D01*
X189596686Y-76830566D01*
X189576687Y-76898687D01*
X189523033Y-76945182D01*
X189452760Y-76955289D01*
X189388178Y-76925799D01*
X189366166Y-76900938D01*
X189304253Y-76808976D01*
X189297594Y-76800693D01*
X189140029Y-76635522D01*
X189132058Y-76628470D01*
X188948918Y-76492210D01*
X188939881Y-76486606D01*
X188736394Y-76383149D01*
X188726541Y-76379148D01*
X188508539Y-76311456D01*
X188498152Y-76309172D01*
X188471957Y-76305700D01*
X188457793Y-76307896D01*
X188454000Y-76321081D01*
X188454000Y-80057282D01*
X188457973Y-80070813D01*
X188468580Y-80072338D01*
X188600840Y-80044587D01*
X188611037Y-80041527D01*
X188823340Y-79957685D01*
X188832876Y-79952951D01*
X189028025Y-79834532D01*
X189036618Y-79828266D01*
X189209027Y-79678658D01*
X189216447Y-79671028D01*
X189361181Y-79494511D01*
X189366967Y-79486093D01*
X189422037Y-79441284D01*
X189492590Y-79433361D01*
X189556226Y-79464839D01*
X189592742Y-79525725D01*
X189596805Y-79557456D01*
X189596924Y-82289263D01*
X189597071Y-85673995D01*
X189577072Y-85742116D01*
X189523418Y-85788611D01*
X189471071Y-85800000D01*
X187921398Y-85800000D01*
X187901689Y-85798449D01*
X187880000Y-85795014D01*
X187848519Y-85800000D01*
X187754852Y-85814835D01*
X187641955Y-85872359D01*
X187593845Y-85920469D01*
X187531533Y-85954495D01*
X187504619Y-85957374D01*
X179372038Y-85948851D01*
X172558203Y-97058365D01*
X172505538Y-97105975D01*
X172435492Y-97117555D01*
X172370305Y-97089427D01*
X172329528Y-97026691D01*
X172323186Y-97004204D01*
X172229275Y-96813772D01*
X172102233Y-96643642D01*
X171946315Y-96499513D01*
X171766742Y-96386211D01*
X171733068Y-96372776D01*
X171706096Y-96362015D01*
X171569529Y-96307530D01*
X171563861Y-96306403D01*
X171563859Y-96306402D01*
X171393567Y-96272529D01*
X171330657Y-96239622D01*
X171295525Y-96177927D01*
X171299325Y-96107032D01*
X171340851Y-96049446D01*
X171400066Y-96024255D01*
X171510855Y-96008191D01*
X171516319Y-96006336D01*
X171516324Y-96006335D01*
X171706448Y-95941796D01*
X171711916Y-95939940D01*
X171897172Y-95836192D01*
X172060420Y-95700420D01*
X172196192Y-95537172D01*
X172299940Y-95351916D01*
X172328664Y-95267299D01*
X172366335Y-95156324D01*
X172366336Y-95156319D01*
X172368191Y-95150855D01*
X172369019Y-95145146D01*
X172369020Y-95145141D01*
X172398126Y-94944397D01*
X172398659Y-94940723D01*
X172400249Y-94880000D01*
X172380821Y-94668561D01*
X172373731Y-94643420D01*
X172324754Y-94469764D01*
X172323186Y-94464204D01*
X172229275Y-94273772D01*
X172102233Y-94103642D01*
X171946315Y-93959513D01*
X171766742Y-93846211D01*
X171733068Y-93832776D01*
X171706096Y-93822015D01*
X171569529Y-93767530D01*
X171563861Y-93766403D01*
X171563859Y-93766402D01*
X171393567Y-93732529D01*
X171330657Y-93699622D01*
X171295525Y-93637927D01*
X171299325Y-93567032D01*
X171340851Y-93509446D01*
X171400066Y-93484255D01*
X171510855Y-93468191D01*
X171516319Y-93466336D01*
X171516324Y-93466335D01*
X171706448Y-93401796D01*
X171711916Y-93399940D01*
X171897172Y-93296192D01*
X172060420Y-93160420D01*
X172196192Y-92997172D01*
X172299940Y-92811916D01*
X172328664Y-92727299D01*
X172366335Y-92616324D01*
X172366336Y-92616319D01*
X172368191Y-92610855D01*
X172369019Y-92605146D01*
X172369020Y-92605141D01*
X172398126Y-92404397D01*
X172398659Y-92400723D01*
X172400249Y-92340000D01*
X172380821Y-92128561D01*
X172323186Y-91924204D01*
X172229275Y-91733772D01*
X172102233Y-91563642D01*
X171946315Y-91419513D01*
X171766742Y-91306211D01*
X171733068Y-91292776D01*
X171648328Y-91258968D01*
X171569529Y-91227530D01*
X171563861Y-91226403D01*
X171563859Y-91226402D01*
X171393567Y-91192529D01*
X171330657Y-91159622D01*
X171295525Y-91097927D01*
X171299325Y-91027032D01*
X171340851Y-90969446D01*
X171400066Y-90944255D01*
X171510855Y-90928191D01*
X171516319Y-90926336D01*
X171516324Y-90926335D01*
X171664240Y-90876124D01*
X171711916Y-90859940D01*
X171897172Y-90756192D01*
X172060420Y-90620420D01*
X172196192Y-90457172D01*
X172299940Y-90271916D01*
X172328664Y-90187299D01*
X172366335Y-90076324D01*
X172366336Y-90076319D01*
X172368191Y-90070855D01*
X172369019Y-90065146D01*
X172369020Y-90065141D01*
X172398126Y-89864397D01*
X172398659Y-89860723D01*
X172400249Y-89800000D01*
X172380821Y-89588561D01*
X172368818Y-89546000D01*
X172324754Y-89389764D01*
X172323186Y-89384204D01*
X172229275Y-89193772D01*
X172102233Y-89023642D01*
X171946315Y-88879513D01*
X171766742Y-88766211D01*
X171733068Y-88752776D01*
X171687309Y-88734520D01*
X171569529Y-88687530D01*
X171563861Y-88686403D01*
X171563859Y-88686402D01*
X171366946Y-88647234D01*
X171366944Y-88647234D01*
X171361279Y-88646107D01*
X171355504Y-88646031D01*
X171355500Y-88646031D01*
X171249283Y-88644641D01*
X171148968Y-88643328D01*
X171143271Y-88644307D01*
X171143270Y-88644307D01*
X170945395Y-88678308D01*
X170945392Y-88678309D01*
X170939705Y-88679286D01*
X170740500Y-88752776D01*
X170558023Y-88861339D01*
X170398385Y-89001337D01*
X170349258Y-89063655D01*
X170276223Y-89156299D01*
X170218342Y-89197412D01*
X170147422Y-89200706D01*
X170085979Y-89165134D01*
X170053522Y-89101992D01*
X170051946Y-89091297D01*
X170047743Y-89050794D01*
X170044851Y-89037400D01*
X169993412Y-88883216D01*
X169987239Y-88870038D01*
X169901937Y-88732193D01*
X169892901Y-88720792D01*
X169778171Y-88606261D01*
X169766760Y-88597249D01*
X169628757Y-88512184D01*
X169615576Y-88506037D01*
X169461290Y-88454862D01*
X169447914Y-88451995D01*
X169353562Y-88442328D01*
X169347145Y-88442000D01*
X168972115Y-88442000D01*
X168956876Y-88446475D01*
X168955671Y-88447865D01*
X168954000Y-88455548D01*
X168954000Y-89928000D01*
X168933998Y-89996121D01*
X168880342Y-90042614D01*
X168828000Y-90054000D01*
X167360116Y-90054000D01*
X167344877Y-90058475D01*
X167343672Y-90059865D01*
X167342001Y-90067548D01*
X167342001Y-90447095D01*
X167342338Y-90453614D01*
X167352257Y-90549206D01*
X167355149Y-90562600D01*
X167406588Y-90716784D01*
X167412761Y-90729962D01*
X167498063Y-90867807D01*
X167507099Y-90879208D01*
X167621829Y-90993739D01*
X167633240Y-91002751D01*
X167771243Y-91087816D01*
X167784424Y-91093963D01*
X167852256Y-91116462D01*
X167910615Y-91156893D01*
X167921502Y-91183100D01*
X167922650Y-91182472D01*
X167947968Y-91228758D01*
X168687188Y-91967978D01*
X168701132Y-91975592D01*
X168702965Y-91975461D01*
X168709580Y-91971210D01*
X169453389Y-91227401D01*
X169475934Y-91186115D01*
X169478318Y-91175155D01*
X169528520Y-91124953D01*
X169549029Y-91116017D01*
X169616784Y-91093412D01*
X169629962Y-91087239D01*
X169767807Y-91001937D01*
X169779208Y-90992901D01*
X169893739Y-90878171D01*
X169902751Y-90866760D01*
X169987816Y-90728757D01*
X169993963Y-90715576D01*
X170045138Y-90561290D01*
X170048005Y-90547915D01*
X170052464Y-90504396D01*
X170079305Y-90438669D01*
X170137420Y-90397887D01*
X170208358Y-90394999D01*
X170269596Y-90430921D01*
X170280704Y-90444518D01*
X170357740Y-90553521D01*
X170509832Y-90701683D01*
X170514628Y-90704888D01*
X170514631Y-90704890D01*
X170530624Y-90715576D01*
X170686377Y-90819647D01*
X170691685Y-90821928D01*
X170691686Y-90821928D01*
X170876160Y-90901184D01*
X170876163Y-90901185D01*
X170881463Y-90903462D01*
X170887092Y-90904736D01*
X170887093Y-90904736D01*
X171082087Y-90948859D01*
X171144114Y-90983402D01*
X171177618Y-91045996D01*
X171171964Y-91116767D01*
X171128945Y-91173246D01*
X171075617Y-91195932D01*
X170945395Y-91218308D01*
X170945392Y-91218309D01*
X170939705Y-91219286D01*
X170740500Y-91292776D01*
X170558023Y-91401339D01*
X170398385Y-91541337D01*
X170394818Y-91545862D01*
X170394813Y-91545867D01*
X170272663Y-91700814D01*
X170266933Y-91708083D01*
X170264245Y-91713192D01*
X170191702Y-91851074D01*
X170142282Y-91902047D01*
X170073150Y-91918210D01*
X170006254Y-91894431D01*
X169964643Y-91842649D01*
X169902972Y-91700814D01*
X169898105Y-91691739D01*
X169833063Y-91591197D01*
X169822377Y-91581995D01*
X169812812Y-91586398D01*
X169072022Y-92327188D01*
X169064408Y-92341132D01*
X169064539Y-92342965D01*
X169068790Y-92349580D01*
X169810474Y-93091264D01*
X169822484Y-93097823D01*
X169834223Y-93088855D01*
X169865004Y-93046019D01*
X169870315Y-93037180D01*
X169964673Y-92846260D01*
X169965578Y-92843976D01*
X169966191Y-92843191D01*
X169966964Y-92841626D01*
X169967287Y-92841786D01*
X170009253Y-92788003D01*
X170076256Y-92764527D01*
X170145314Y-92781003D01*
X170197155Y-92837609D01*
X170235195Y-92920124D01*
X170357740Y-93093521D01*
X170509832Y-93241683D01*
X170514628Y-93244888D01*
X170514631Y-93244890D01*
X170521782Y-93249668D01*
X170686377Y-93359647D01*
X170691685Y-93361928D01*
X170691686Y-93361928D01*
X170876160Y-93441184D01*
X170876163Y-93441185D01*
X170881463Y-93443462D01*
X170887092Y-93444736D01*
X170887093Y-93444736D01*
X171082087Y-93488859D01*
X171144114Y-93523402D01*
X171177618Y-93585996D01*
X171171964Y-93656767D01*
X171128945Y-93713246D01*
X171075617Y-93735932D01*
X170945395Y-93758308D01*
X170945392Y-93758309D01*
X170939705Y-93759286D01*
X170740500Y-93832776D01*
X170558023Y-93941339D01*
X170398385Y-94081337D01*
X170394818Y-94085862D01*
X170394813Y-94085867D01*
X170272663Y-94240814D01*
X170266933Y-94248083D01*
X170264245Y-94253192D01*
X170191702Y-94391074D01*
X170142282Y-94442047D01*
X170073150Y-94458210D01*
X170006254Y-94434431D01*
X169964643Y-94382649D01*
X169902972Y-94240814D01*
X169898105Y-94231739D01*
X169833063Y-94131197D01*
X169822377Y-94121995D01*
X169812812Y-94126398D01*
X169072022Y-94867188D01*
X169064408Y-94881132D01*
X169064539Y-94882965D01*
X169068790Y-94889580D01*
X169810474Y-95631264D01*
X169822484Y-95637823D01*
X169834223Y-95628855D01*
X169865004Y-95586019D01*
X169870315Y-95577180D01*
X169964673Y-95386260D01*
X169965578Y-95383976D01*
X169966191Y-95383191D01*
X169966964Y-95381626D01*
X169967287Y-95381786D01*
X170009253Y-95328003D01*
X170076256Y-95304527D01*
X170145314Y-95321003D01*
X170197155Y-95377609D01*
X170235195Y-95460124D01*
X170357740Y-95633521D01*
X170509832Y-95781683D01*
X170514628Y-95784888D01*
X170514631Y-95784890D01*
X170585886Y-95832501D01*
X170686377Y-95899647D01*
X170691685Y-95901928D01*
X170691686Y-95901928D01*
X170876160Y-95981184D01*
X170876163Y-95981185D01*
X170881463Y-95983462D01*
X170887092Y-95984736D01*
X170887093Y-95984736D01*
X171082087Y-96028859D01*
X171144114Y-96063402D01*
X171177618Y-96125996D01*
X171171964Y-96196767D01*
X171128945Y-96253246D01*
X171075617Y-96275932D01*
X170945395Y-96298308D01*
X170945392Y-96298309D01*
X170939705Y-96299286D01*
X170740500Y-96372776D01*
X170558023Y-96481339D01*
X170398385Y-96621337D01*
X170394818Y-96625862D01*
X170394813Y-96625867D01*
X170272663Y-96780814D01*
X170266933Y-96788083D01*
X170264245Y-96793192D01*
X170191702Y-96931074D01*
X170142282Y-96982047D01*
X170073150Y-96998210D01*
X170006254Y-96974431D01*
X169964643Y-96922649D01*
X169902972Y-96780814D01*
X169898105Y-96771739D01*
X169833063Y-96671197D01*
X169822377Y-96661995D01*
X169812812Y-96666398D01*
X169072022Y-97407188D01*
X169064408Y-97421132D01*
X169064539Y-97422965D01*
X169068790Y-97429580D01*
X169810474Y-98171264D01*
X169822484Y-98177823D01*
X169834223Y-98168855D01*
X169865004Y-98126019D01*
X169870315Y-98117180D01*
X169964673Y-97926260D01*
X169965578Y-97923976D01*
X169966191Y-97923191D01*
X169966964Y-97921626D01*
X169967287Y-97921786D01*
X170009253Y-97868003D01*
X170076256Y-97844527D01*
X170145314Y-97861003D01*
X170197155Y-97917609D01*
X170235195Y-98000124D01*
X170357740Y-98173521D01*
X170509832Y-98321683D01*
X170514628Y-98324888D01*
X170514631Y-98324890D01*
X170591410Y-98376192D01*
X170686377Y-98439647D01*
X170691685Y-98441928D01*
X170691686Y-98441928D01*
X170876160Y-98521184D01*
X170876163Y-98521185D01*
X170881463Y-98523462D01*
X170887092Y-98524736D01*
X170887093Y-98524736D01*
X171082087Y-98568859D01*
X171144114Y-98603402D01*
X171177618Y-98665996D01*
X171171964Y-98736767D01*
X171128945Y-98793246D01*
X171075617Y-98815932D01*
X170945395Y-98838308D01*
X170945392Y-98838309D01*
X170939705Y-98839286D01*
X170740500Y-98912776D01*
X170558023Y-99021339D01*
X170398385Y-99161337D01*
X170394818Y-99165862D01*
X170394813Y-99165867D01*
X170279647Y-99311955D01*
X170266933Y-99328083D01*
X170264245Y-99333192D01*
X170191702Y-99471074D01*
X170142282Y-99522047D01*
X170073150Y-99538210D01*
X170006254Y-99514431D01*
X169964643Y-99462649D01*
X169902972Y-99320814D01*
X169898105Y-99311739D01*
X169833063Y-99211197D01*
X169822377Y-99201995D01*
X169812812Y-99206398D01*
X169072022Y-99947188D01*
X169064408Y-99961132D01*
X169064539Y-99962965D01*
X169068790Y-99969580D01*
X169810474Y-100711264D01*
X169822484Y-100717823D01*
X169834223Y-100708855D01*
X169865004Y-100666019D01*
X169870315Y-100657180D01*
X169964673Y-100466260D01*
X169965578Y-100463976D01*
X169966191Y-100463191D01*
X169966964Y-100461626D01*
X169967287Y-100461786D01*
X170009253Y-100408003D01*
X170076256Y-100384527D01*
X170145314Y-100401003D01*
X170197155Y-100457609D01*
X170235195Y-100540124D01*
X170258620Y-100573269D01*
X170281600Y-100640442D01*
X170262388Y-100713056D01*
X169273609Y-102285601D01*
X167946737Y-103612473D01*
X167939977Y-103624853D01*
X167945258Y-103631907D01*
X168106756Y-103726279D01*
X168116043Y-103730729D01*
X168173297Y-103752592D01*
X168229800Y-103795579D01*
X168254093Y-103862291D01*
X168235016Y-103937369D01*
X168216142Y-103967386D01*
X168173899Y-104008602D01*
X168018023Y-104101339D01*
X167858385Y-104241337D01*
X167854813Y-104245868D01*
X167762765Y-104362630D01*
X167704884Y-104403743D01*
X167663594Y-104410624D01*
X157505779Y-104392772D01*
X157437693Y-104372650D01*
X157391295Y-104318913D01*
X157380000Y-104266772D01*
X157380000Y-102471863D01*
X167338050Y-102471863D01*
X167350309Y-102684477D01*
X167351745Y-102694697D01*
X167398565Y-102902446D01*
X167401645Y-102912275D01*
X167481770Y-103109603D01*
X167486413Y-103118794D01*
X167566460Y-103249420D01*
X167576916Y-103258880D01*
X167585694Y-103255096D01*
X168327978Y-102512812D01*
X168335592Y-102498868D01*
X168335461Y-102497035D01*
X168331210Y-102490420D01*
X167589849Y-101749059D01*
X167578313Y-101742759D01*
X167566031Y-101752382D01*
X167518089Y-101822662D01*
X167513004Y-101831613D01*
X167423338Y-102024783D01*
X167419775Y-102034470D01*
X167362864Y-102239681D01*
X167360933Y-102249800D01*
X167338302Y-102461574D01*
X167338050Y-102471863D01*
X157380000Y-102471863D01*
X157380000Y-101084853D01*
X167939977Y-101084853D01*
X167945258Y-101091907D01*
X167992479Y-101119501D01*
X168041203Y-101171139D01*
X168054274Y-101240922D01*
X168027543Y-101306694D01*
X167987087Y-101340053D01*
X167978466Y-101344541D01*
X167969734Y-101350039D01*
X167949677Y-101365099D01*
X167941223Y-101376427D01*
X167947968Y-101388758D01*
X168687188Y-102127978D01*
X168701132Y-102135592D01*
X168702965Y-102135461D01*
X168709580Y-102131210D01*
X169453389Y-101387401D01*
X169460410Y-101374544D01*
X169453611Y-101365213D01*
X169449559Y-101362521D01*
X169412116Y-101341852D01*
X169362145Y-101291420D01*
X169347373Y-101221977D01*
X169372489Y-101155572D01*
X169399840Y-101128965D01*
X169449247Y-101093723D01*
X169457648Y-101083023D01*
X169450660Y-101069870D01*
X168712812Y-100332022D01*
X168698868Y-100324408D01*
X168697035Y-100324539D01*
X168690420Y-100328790D01*
X167946737Y-101072473D01*
X167939977Y-101084853D01*
X157380000Y-101084853D01*
X157380000Y-99931863D01*
X167338050Y-99931863D01*
X167350309Y-100144477D01*
X167351745Y-100154697D01*
X167398565Y-100362446D01*
X167401645Y-100372275D01*
X167481770Y-100569603D01*
X167486413Y-100578794D01*
X167566460Y-100709420D01*
X167576916Y-100718880D01*
X167585694Y-100715096D01*
X168327978Y-99972812D01*
X168335592Y-99958868D01*
X168335461Y-99957035D01*
X168331210Y-99950420D01*
X167589849Y-99209059D01*
X167578313Y-99202759D01*
X167566031Y-99212382D01*
X167518089Y-99282662D01*
X167513004Y-99291613D01*
X167423338Y-99484783D01*
X167419775Y-99494470D01*
X167362864Y-99699681D01*
X167360933Y-99709800D01*
X167338302Y-99921574D01*
X167338050Y-99931863D01*
X157380000Y-99931863D01*
X157380000Y-98544853D01*
X167939977Y-98544853D01*
X167945258Y-98551907D01*
X167992479Y-98579501D01*
X168041203Y-98631139D01*
X168054274Y-98700922D01*
X168027543Y-98766694D01*
X167987087Y-98800053D01*
X167978466Y-98804541D01*
X167969734Y-98810039D01*
X167949677Y-98825099D01*
X167941223Y-98836427D01*
X167947968Y-98848758D01*
X168687188Y-99587978D01*
X168701132Y-99595592D01*
X168702965Y-99595461D01*
X168709580Y-99591210D01*
X169453389Y-98847401D01*
X169460410Y-98834544D01*
X169453611Y-98825213D01*
X169449559Y-98822521D01*
X169412116Y-98801852D01*
X169362145Y-98751420D01*
X169347373Y-98681977D01*
X169372489Y-98615572D01*
X169399840Y-98588965D01*
X169449247Y-98553723D01*
X169457648Y-98543023D01*
X169450660Y-98529870D01*
X168712812Y-97792022D01*
X168698868Y-97784408D01*
X168697035Y-97784539D01*
X168690420Y-97788790D01*
X167946737Y-98532473D01*
X167939977Y-98544853D01*
X157380000Y-98544853D01*
X157380000Y-97391863D01*
X167338050Y-97391863D01*
X167350309Y-97604477D01*
X167351745Y-97614697D01*
X167398565Y-97822446D01*
X167401645Y-97832275D01*
X167481770Y-98029603D01*
X167486413Y-98038794D01*
X167566460Y-98169420D01*
X167576916Y-98178880D01*
X167585694Y-98175096D01*
X168327978Y-97432812D01*
X168335592Y-97418868D01*
X168335461Y-97417035D01*
X168331210Y-97410420D01*
X167589849Y-96669059D01*
X167578313Y-96662759D01*
X167566031Y-96672382D01*
X167518089Y-96742662D01*
X167513004Y-96751613D01*
X167423338Y-96944783D01*
X167419775Y-96954470D01*
X167362864Y-97159681D01*
X167360933Y-97169800D01*
X167338302Y-97381574D01*
X167338050Y-97391863D01*
X157380000Y-97391863D01*
X157380000Y-96004853D01*
X167939977Y-96004853D01*
X167945258Y-96011907D01*
X167992479Y-96039501D01*
X168041203Y-96091139D01*
X168054274Y-96160922D01*
X168027543Y-96226694D01*
X167987087Y-96260053D01*
X167978466Y-96264541D01*
X167969734Y-96270039D01*
X167949677Y-96285099D01*
X167941223Y-96296427D01*
X167947968Y-96308758D01*
X168687188Y-97047978D01*
X168701132Y-97055592D01*
X168702965Y-97055461D01*
X168709580Y-97051210D01*
X169453389Y-96307401D01*
X169460410Y-96294544D01*
X169453611Y-96285213D01*
X169449559Y-96282521D01*
X169412116Y-96261852D01*
X169362145Y-96211420D01*
X169347373Y-96141977D01*
X169372489Y-96075572D01*
X169399840Y-96048965D01*
X169449247Y-96013723D01*
X169457648Y-96003023D01*
X169450660Y-95989870D01*
X168712812Y-95252022D01*
X168698868Y-95244408D01*
X168697035Y-95244539D01*
X168690420Y-95248790D01*
X167946737Y-95992473D01*
X167939977Y-96004853D01*
X157380000Y-96004853D01*
X157380000Y-94851863D01*
X167338050Y-94851863D01*
X167350309Y-95064477D01*
X167351745Y-95074697D01*
X167398565Y-95282446D01*
X167401645Y-95292275D01*
X167481770Y-95489603D01*
X167486413Y-95498794D01*
X167566460Y-95629420D01*
X167576916Y-95638880D01*
X167585694Y-95635096D01*
X168327978Y-94892812D01*
X168335592Y-94878868D01*
X168335461Y-94877035D01*
X168331210Y-94870420D01*
X167589849Y-94129059D01*
X167578313Y-94122759D01*
X167566031Y-94132382D01*
X167518089Y-94202662D01*
X167513004Y-94211613D01*
X167423338Y-94404783D01*
X167419775Y-94414470D01*
X167362864Y-94619681D01*
X167360933Y-94629800D01*
X167338302Y-94841574D01*
X167338050Y-94851863D01*
X157380000Y-94851863D01*
X157380000Y-93464853D01*
X167939977Y-93464853D01*
X167945258Y-93471907D01*
X167992479Y-93499501D01*
X168041203Y-93551139D01*
X168054274Y-93620922D01*
X168027543Y-93686694D01*
X167987087Y-93720053D01*
X167978466Y-93724541D01*
X167969734Y-93730039D01*
X167949677Y-93745099D01*
X167941223Y-93756427D01*
X167947968Y-93768758D01*
X168687188Y-94507978D01*
X168701132Y-94515592D01*
X168702965Y-94515461D01*
X168709580Y-94511210D01*
X169453389Y-93767401D01*
X169460410Y-93754544D01*
X169453611Y-93745213D01*
X169449559Y-93742521D01*
X169412116Y-93721852D01*
X169362145Y-93671420D01*
X169347373Y-93601977D01*
X169372489Y-93535572D01*
X169399840Y-93508965D01*
X169449247Y-93473723D01*
X169457648Y-93463023D01*
X169450660Y-93449870D01*
X168712812Y-92712022D01*
X168698868Y-92704408D01*
X168697035Y-92704539D01*
X168690420Y-92708790D01*
X167946737Y-93452473D01*
X167939977Y-93464853D01*
X157380000Y-93464853D01*
X157380000Y-92311863D01*
X167338050Y-92311863D01*
X167350309Y-92524477D01*
X167351745Y-92534697D01*
X167398565Y-92742446D01*
X167401645Y-92752275D01*
X167481770Y-92949603D01*
X167486413Y-92958794D01*
X167566460Y-93089420D01*
X167576916Y-93098880D01*
X167585694Y-93095096D01*
X168327978Y-92352812D01*
X168335592Y-92338868D01*
X168335461Y-92337035D01*
X168331210Y-92330420D01*
X167589849Y-91589059D01*
X167578313Y-91582759D01*
X167566031Y-91592382D01*
X167518089Y-91662662D01*
X167513004Y-91671613D01*
X167423338Y-91864783D01*
X167419775Y-91874470D01*
X167362864Y-92079681D01*
X167360933Y-92089800D01*
X167338302Y-92301574D01*
X167338050Y-92311863D01*
X157380000Y-92311863D01*
X157380000Y-89527885D01*
X167342000Y-89527885D01*
X167346475Y-89543124D01*
X167347865Y-89544329D01*
X167355548Y-89546000D01*
X168427885Y-89546000D01*
X168443124Y-89541525D01*
X168444329Y-89540135D01*
X168446000Y-89532452D01*
X168446000Y-88460116D01*
X168441525Y-88444877D01*
X168440135Y-88443672D01*
X168432452Y-88442001D01*
X168052905Y-88442001D01*
X168046386Y-88442338D01*
X167950794Y-88452257D01*
X167937400Y-88455149D01*
X167783216Y-88506588D01*
X167770038Y-88512761D01*
X167632193Y-88598063D01*
X167620792Y-88607099D01*
X167506261Y-88721829D01*
X167497249Y-88733240D01*
X167412184Y-88871243D01*
X167406037Y-88884424D01*
X167354862Y-89038710D01*
X167351995Y-89052086D01*
X167342328Y-89146438D01*
X167342000Y-89152855D01*
X167342000Y-89527885D01*
X157380000Y-89527885D01*
X157380000Y-81210943D01*
X158820345Y-81210943D01*
X158833631Y-81413648D01*
X158835052Y-81419244D01*
X158835053Y-81419249D01*
X158870936Y-81560537D01*
X158883635Y-81610537D01*
X158886052Y-81615780D01*
X158912081Y-81672242D01*
X158968681Y-81795017D01*
X159085923Y-81960910D01*
X159231432Y-82102659D01*
X159236228Y-82105864D01*
X159236231Y-82105866D01*
X159320703Y-82162308D01*
X159400337Y-82215518D01*
X159405640Y-82217796D01*
X159405643Y-82217798D01*
X159527601Y-82270195D01*
X159586980Y-82295706D01*
X159659381Y-82312088D01*
X159779474Y-82339263D01*
X159779479Y-82339264D01*
X159785111Y-82340538D01*
X159790882Y-82340765D01*
X159790884Y-82340765D01*
X159849801Y-82343080D01*
X159988095Y-82348514D01*
X160106121Y-82331401D01*
X160183411Y-82320195D01*
X160183415Y-82320194D01*
X160189133Y-82319365D01*
X160194605Y-82317507D01*
X160194607Y-82317507D01*
X160376028Y-82255922D01*
X160376030Y-82255921D01*
X160381492Y-82254067D01*
X160505714Y-82184500D01*
X160553694Y-82157630D01*
X160553695Y-82157629D01*
X160558731Y-82154809D01*
X160714913Y-82024913D01*
X160844809Y-81868731D01*
X160849590Y-81860195D01*
X160902649Y-81765450D01*
X160944067Y-81691492D01*
X160951605Y-81669286D01*
X161007507Y-81504607D01*
X161007507Y-81504605D01*
X161009365Y-81499133D01*
X161038514Y-81298095D01*
X161040035Y-81240000D01*
X161032771Y-81160943D01*
X163330345Y-81160943D01*
X163343631Y-81363648D01*
X163345052Y-81369244D01*
X163345053Y-81369249D01*
X163384160Y-81523228D01*
X163393635Y-81560537D01*
X163478681Y-81745017D01*
X163595923Y-81910910D01*
X163741432Y-82052659D01*
X163746228Y-82055864D01*
X163746231Y-82055866D01*
X163884375Y-82148171D01*
X163910337Y-82165518D01*
X163915640Y-82167796D01*
X163915643Y-82167798D01*
X164026715Y-82215518D01*
X164096980Y-82245706D01*
X164133931Y-82254067D01*
X164289474Y-82289263D01*
X164289479Y-82289264D01*
X164295111Y-82290538D01*
X164300882Y-82290765D01*
X164300884Y-82290765D01*
X164359801Y-82293080D01*
X164498095Y-82298514D01*
X164616121Y-82281401D01*
X164693411Y-82270195D01*
X164693415Y-82270194D01*
X164699133Y-82269365D01*
X164704605Y-82267507D01*
X164704607Y-82267507D01*
X164886028Y-82205922D01*
X164886030Y-82205921D01*
X164891492Y-82204067D01*
X165068731Y-82104809D01*
X165224913Y-81974913D01*
X165354809Y-81818731D01*
X165454067Y-81641492D01*
X165483447Y-81554942D01*
X165517507Y-81454607D01*
X165517507Y-81454605D01*
X165519365Y-81449133D01*
X165548514Y-81248095D01*
X165550035Y-81190000D01*
X165547365Y-81160943D01*
X170950345Y-81160943D01*
X170963631Y-81363648D01*
X170965052Y-81369244D01*
X170965053Y-81369249D01*
X171004160Y-81523228D01*
X171013635Y-81560537D01*
X171098681Y-81745017D01*
X171215923Y-81910910D01*
X171361432Y-82052659D01*
X171366228Y-82055864D01*
X171366231Y-82055866D01*
X171504375Y-82148171D01*
X171530337Y-82165518D01*
X171535640Y-82167796D01*
X171535643Y-82167798D01*
X171646715Y-82215518D01*
X171716980Y-82245706D01*
X171753931Y-82254067D01*
X171909474Y-82289263D01*
X171909479Y-82289264D01*
X171915111Y-82290538D01*
X171920882Y-82290765D01*
X171920884Y-82290765D01*
X171979801Y-82293080D01*
X172118095Y-82298514D01*
X172236121Y-82281401D01*
X172313411Y-82270195D01*
X172313415Y-82270194D01*
X172319133Y-82269365D01*
X172324605Y-82267507D01*
X172324607Y-82267507D01*
X172506028Y-82205922D01*
X172506030Y-82205921D01*
X172511492Y-82204067D01*
X172688731Y-82104809D01*
X172844913Y-81974913D01*
X172974809Y-81818731D01*
X173074067Y-81641492D01*
X173103447Y-81554942D01*
X173137507Y-81454607D01*
X173137507Y-81454605D01*
X173139365Y-81449133D01*
X173168514Y-81248095D01*
X173170035Y-81190000D01*
X173151447Y-80987712D01*
X173096307Y-80792199D01*
X173073623Y-80746200D01*
X179094700Y-80746200D01*
X179109805Y-80910590D01*
X179111373Y-80916149D01*
X179111373Y-80916150D01*
X179145658Y-81037712D01*
X179169935Y-81123792D01*
X179172487Y-81128968D01*
X179172489Y-81128972D01*
X179255892Y-81298095D01*
X179267910Y-81322466D01*
X179271364Y-81327092D01*
X179271365Y-81327093D01*
X179366584Y-81454607D01*
X179400450Y-81499959D01*
X179465983Y-81560537D01*
X179547649Y-81636028D01*
X179563116Y-81650326D01*
X179593166Y-81669286D01*
X179745577Y-81765450D01*
X179745582Y-81765452D01*
X179750461Y-81768531D01*
X179956210Y-81850617D01*
X179961870Y-81851743D01*
X179961874Y-81851744D01*
X180167804Y-81892706D01*
X180167809Y-81892706D01*
X180173472Y-81893833D01*
X180179247Y-81893909D01*
X180179251Y-81893909D01*
X180288449Y-81895338D01*
X180394972Y-81896733D01*
X180613291Y-81859218D01*
X180821118Y-81782547D01*
X180849856Y-81765450D01*
X181006525Y-81672242D01*
X181006528Y-81672240D01*
X181011493Y-81669286D01*
X181178040Y-81523228D01*
X181315181Y-81349266D01*
X181340171Y-81301769D01*
X181415631Y-81158342D01*
X181415632Y-81158340D01*
X181418323Y-81153225D01*
X181478565Y-80959211D01*
X181482299Y-80947187D01*
X181482299Y-80947186D01*
X181484012Y-80941670D01*
X181498980Y-80815208D01*
X181504864Y-80765497D01*
X181504864Y-80765490D01*
X181505300Y-80761810D01*
X181505300Y-80746200D01*
X184594700Y-80746200D01*
X184609805Y-80910590D01*
X184611373Y-80916149D01*
X184611373Y-80916150D01*
X184645658Y-81037712D01*
X184669935Y-81123792D01*
X184672487Y-81128968D01*
X184672489Y-81128972D01*
X184755892Y-81298095D01*
X184767910Y-81322466D01*
X184771364Y-81327092D01*
X184771365Y-81327093D01*
X184866584Y-81454607D01*
X184900450Y-81499959D01*
X184965983Y-81560537D01*
X185047649Y-81636028D01*
X185063116Y-81650326D01*
X185093166Y-81669286D01*
X185245577Y-81765450D01*
X185245582Y-81765452D01*
X185250461Y-81768531D01*
X185456210Y-81850617D01*
X185461870Y-81851743D01*
X185461874Y-81851744D01*
X185667804Y-81892706D01*
X185667809Y-81892706D01*
X185673472Y-81893833D01*
X185679247Y-81893909D01*
X185679251Y-81893909D01*
X185788449Y-81895338D01*
X185894972Y-81896733D01*
X186113291Y-81859218D01*
X186321118Y-81782547D01*
X186349856Y-81765450D01*
X186506525Y-81672242D01*
X186506528Y-81672240D01*
X186511493Y-81669286D01*
X186678040Y-81523228D01*
X186815181Y-81349266D01*
X186840171Y-81301769D01*
X186915631Y-81158342D01*
X186915632Y-81158340D01*
X186918323Y-81153225D01*
X186978565Y-80959211D01*
X186982299Y-80947187D01*
X186982299Y-80947186D01*
X186984012Y-80941670D01*
X186998980Y-80815208D01*
X187004864Y-80765497D01*
X187004864Y-80765490D01*
X187005300Y-80761810D01*
X187005300Y-79792138D01*
X187025302Y-79724017D01*
X187078958Y-79677524D01*
X187149232Y-79667420D01*
X187213812Y-79696914D01*
X187222470Y-79705166D01*
X187259977Y-79744483D01*
X187267942Y-79751530D01*
X187451082Y-79887790D01*
X187460119Y-79893394D01*
X187663606Y-79996851D01*
X187673459Y-80000852D01*
X187891461Y-80068544D01*
X187901848Y-80070828D01*
X187928043Y-80074300D01*
X187942207Y-80072104D01*
X187946000Y-80058919D01*
X187946000Y-78462115D01*
X187941525Y-78446876D01*
X187940135Y-78445671D01*
X187932452Y-78444000D01*
X186810115Y-78444000D01*
X186794876Y-78448475D01*
X186793671Y-78449865D01*
X186792000Y-78457548D01*
X186792000Y-78677440D01*
X186771998Y-78745561D01*
X186718342Y-78792054D01*
X186648068Y-78802158D01*
X186580472Y-78769965D01*
X186541130Y-78733598D01*
X186541124Y-78733593D01*
X186536884Y-78729674D01*
X186458464Y-78680195D01*
X186354423Y-78614550D01*
X186354418Y-78614548D01*
X186349539Y-78611469D01*
X186143790Y-78529383D01*
X186138130Y-78528257D01*
X186138126Y-78528256D01*
X185932196Y-78487294D01*
X185932191Y-78487294D01*
X185926528Y-78486167D01*
X185920753Y-78486091D01*
X185920749Y-78486091D01*
X185811551Y-78484662D01*
X185705028Y-78483267D01*
X185486709Y-78520782D01*
X185278882Y-78597453D01*
X185273921Y-78600405D01*
X185273920Y-78600405D01*
X185093475Y-78707758D01*
X185093472Y-78707760D01*
X185088507Y-78710714D01*
X184921960Y-78856772D01*
X184784819Y-79030734D01*
X184681677Y-79226775D01*
X184615988Y-79438330D01*
X184594700Y-79618190D01*
X184594700Y-80746200D01*
X181505300Y-80746200D01*
X181505300Y-79633800D01*
X181495370Y-79525725D01*
X181490724Y-79475164D01*
X181490723Y-79475161D01*
X181490195Y-79469410D01*
X181488627Y-79463850D01*
X181431633Y-79261767D01*
X181431632Y-79261765D01*
X181430065Y-79256208D01*
X181415551Y-79226775D01*
X181334645Y-79062715D01*
X181332090Y-79057534D01*
X181199550Y-78880041D01*
X181080471Y-78769965D01*
X181041124Y-78733593D01*
X181041121Y-78733591D01*
X181036884Y-78729674D01*
X180958464Y-78680195D01*
X180854423Y-78614550D01*
X180854418Y-78614548D01*
X180849539Y-78611469D01*
X180643790Y-78529383D01*
X180638130Y-78528257D01*
X180638126Y-78528256D01*
X180432196Y-78487294D01*
X180432191Y-78487294D01*
X180426528Y-78486167D01*
X180420753Y-78486091D01*
X180420749Y-78486091D01*
X180311551Y-78484662D01*
X180205028Y-78483267D01*
X179986709Y-78520782D01*
X179778882Y-78597453D01*
X179773921Y-78600405D01*
X179773920Y-78600405D01*
X179593475Y-78707758D01*
X179593472Y-78707760D01*
X179588507Y-78710714D01*
X179421960Y-78856772D01*
X179284819Y-79030734D01*
X179181677Y-79226775D01*
X179115988Y-79438330D01*
X179094700Y-79618190D01*
X179094700Y-80746200D01*
X173073623Y-80746200D01*
X173006460Y-80610008D01*
X172884917Y-80447242D01*
X172866732Y-80430432D01*
X172739986Y-80313269D01*
X172739983Y-80313267D01*
X172735746Y-80309350D01*
X172648074Y-80254033D01*
X172568829Y-80204033D01*
X172568824Y-80204031D01*
X172563945Y-80200952D01*
X172375267Y-80125677D01*
X172176030Y-80086046D01*
X172170255Y-80085970D01*
X172170251Y-80085970D01*
X172068762Y-80084642D01*
X171972908Y-80083387D01*
X171967211Y-80084366D01*
X171967210Y-80084366D01*
X171778399Y-80116810D01*
X171772702Y-80117789D01*
X171582118Y-80188099D01*
X171577157Y-80191051D01*
X171577156Y-80191051D01*
X171493114Y-80241051D01*
X171407538Y-80291963D01*
X171254809Y-80425902D01*
X171129046Y-80585432D01*
X171126357Y-80590543D01*
X171126355Y-80590546D01*
X171087085Y-80665187D01*
X171034461Y-80765208D01*
X171012164Y-80837017D01*
X170977956Y-80947187D01*
X170974222Y-80959211D01*
X170950345Y-81160943D01*
X165547365Y-81160943D01*
X165531447Y-80987712D01*
X165476307Y-80792199D01*
X165386460Y-80610008D01*
X165264917Y-80447242D01*
X165246732Y-80430432D01*
X165119986Y-80313269D01*
X165119983Y-80313267D01*
X165115746Y-80309350D01*
X165028074Y-80254033D01*
X164948829Y-80204033D01*
X164948824Y-80204031D01*
X164943945Y-80200952D01*
X164755267Y-80125677D01*
X164556030Y-80086046D01*
X164550255Y-80085970D01*
X164550251Y-80085970D01*
X164448762Y-80084642D01*
X164352908Y-80083387D01*
X164347211Y-80084366D01*
X164347210Y-80084366D01*
X164158399Y-80116810D01*
X164152702Y-80117789D01*
X163962118Y-80188099D01*
X163957157Y-80191051D01*
X163957156Y-80191051D01*
X163873114Y-80241051D01*
X163787538Y-80291963D01*
X163634809Y-80425902D01*
X163509046Y-80585432D01*
X163506357Y-80590543D01*
X163506355Y-80590546D01*
X163467085Y-80665187D01*
X163414461Y-80765208D01*
X163392164Y-80837017D01*
X163357956Y-80947187D01*
X163354222Y-80959211D01*
X163330345Y-81160943D01*
X161032771Y-81160943D01*
X161021447Y-81037712D01*
X160966307Y-80842199D01*
X160876460Y-80660008D01*
X160754917Y-80497242D01*
X160736732Y-80480432D01*
X160609986Y-80363269D01*
X160609983Y-80363267D01*
X160605746Y-80359350D01*
X160521616Y-80306268D01*
X160438829Y-80254033D01*
X160438824Y-80254031D01*
X160433945Y-80250952D01*
X160245267Y-80175677D01*
X160046030Y-80136046D01*
X160040255Y-80135970D01*
X160040251Y-80135970D01*
X159938762Y-80134642D01*
X159842908Y-80133387D01*
X159837211Y-80134366D01*
X159837210Y-80134366D01*
X159648399Y-80166810D01*
X159642702Y-80167789D01*
X159452118Y-80238099D01*
X159447157Y-80241051D01*
X159447156Y-80241051D01*
X159332356Y-80309350D01*
X159277538Y-80341963D01*
X159124809Y-80475902D01*
X158999046Y-80635432D01*
X158996357Y-80640543D01*
X158996355Y-80640546D01*
X158986116Y-80660008D01*
X158904461Y-80815208D01*
X158844222Y-81009211D01*
X158820345Y-81210943D01*
X157380000Y-81210943D01*
X157380000Y-77570943D01*
X163380345Y-77570943D01*
X163393631Y-77773648D01*
X163395052Y-77779244D01*
X163395053Y-77779249D01*
X163416732Y-77864607D01*
X163443635Y-77970537D01*
X163528681Y-78155017D01*
X163645923Y-78320910D01*
X163650057Y-78324937D01*
X163778299Y-78449865D01*
X163791432Y-78462659D01*
X163796228Y-78465864D01*
X163796231Y-78465866D01*
X163891291Y-78529383D01*
X163960337Y-78575518D01*
X163965640Y-78577796D01*
X163965643Y-78577798D01*
X164054380Y-78615922D01*
X164146980Y-78655706D01*
X164219381Y-78672088D01*
X164339474Y-78699263D01*
X164339479Y-78699264D01*
X164345111Y-78700538D01*
X164350882Y-78700765D01*
X164350884Y-78700765D01*
X164409801Y-78703080D01*
X164548095Y-78708514D01*
X164666121Y-78691401D01*
X164743411Y-78680195D01*
X164743415Y-78680194D01*
X164749133Y-78679365D01*
X164754605Y-78677507D01*
X164754607Y-78677507D01*
X164936028Y-78615922D01*
X164936030Y-78615921D01*
X164941492Y-78614067D01*
X165104498Y-78522780D01*
X165113694Y-78517630D01*
X165113695Y-78517629D01*
X165118731Y-78514809D01*
X165274913Y-78384913D01*
X165404809Y-78228731D01*
X165504067Y-78051492D01*
X165569365Y-77859133D01*
X165598514Y-77658095D01*
X165600035Y-77600000D01*
X165597365Y-77570943D01*
X171000345Y-77570943D01*
X171013631Y-77773648D01*
X171015052Y-77779244D01*
X171015053Y-77779249D01*
X171036732Y-77864607D01*
X171063635Y-77970537D01*
X171148681Y-78155017D01*
X171265923Y-78320910D01*
X171270057Y-78324937D01*
X171398299Y-78449865D01*
X171411432Y-78462659D01*
X171416228Y-78465864D01*
X171416231Y-78465866D01*
X171511291Y-78529383D01*
X171580337Y-78575518D01*
X171585640Y-78577796D01*
X171585643Y-78577798D01*
X171674380Y-78615922D01*
X171766980Y-78655706D01*
X171839381Y-78672088D01*
X171959474Y-78699263D01*
X171959479Y-78699264D01*
X171965111Y-78700538D01*
X171970882Y-78700765D01*
X171970884Y-78700765D01*
X172029801Y-78703080D01*
X172168095Y-78708514D01*
X172286121Y-78691401D01*
X172363411Y-78680195D01*
X172363415Y-78680194D01*
X172369133Y-78679365D01*
X172374605Y-78677507D01*
X172374607Y-78677507D01*
X172556028Y-78615922D01*
X172556030Y-78615921D01*
X172561492Y-78614067D01*
X172724498Y-78522780D01*
X172733694Y-78517630D01*
X172733695Y-78517629D01*
X172738731Y-78514809D01*
X172894913Y-78384913D01*
X173024809Y-78228731D01*
X173124067Y-78051492D01*
X173169421Y-77917885D01*
X186792000Y-77917885D01*
X186796475Y-77933124D01*
X186797865Y-77934329D01*
X186805548Y-77936000D01*
X187927885Y-77936000D01*
X187943124Y-77931525D01*
X187944329Y-77930135D01*
X187946000Y-77922452D01*
X187946000Y-76322718D01*
X187942027Y-76309187D01*
X187931420Y-76307662D01*
X187799160Y-76335413D01*
X187788963Y-76338473D01*
X187576660Y-76422315D01*
X187567124Y-76427049D01*
X187371975Y-76545468D01*
X187363382Y-76551734D01*
X187190973Y-76701342D01*
X187183553Y-76708972D01*
X187038820Y-76885488D01*
X187032794Y-76894255D01*
X186919871Y-77092633D01*
X186915405Y-77102297D01*
X186837519Y-77316868D01*
X186834749Y-77327135D01*
X186793919Y-77552932D01*
X186792984Y-77561162D01*
X186792070Y-77580550D01*
X186792000Y-77583526D01*
X186792000Y-77917885D01*
X173169421Y-77917885D01*
X173189365Y-77859133D01*
X173218514Y-77658095D01*
X173220035Y-77600000D01*
X173201447Y-77397712D01*
X173146307Y-77202199D01*
X173056460Y-77020008D01*
X172934917Y-76857242D01*
X172916732Y-76840432D01*
X172789986Y-76723269D01*
X172789983Y-76723267D01*
X172785746Y-76719350D01*
X172739207Y-76689986D01*
X172618829Y-76614033D01*
X172618824Y-76614031D01*
X172613945Y-76610952D01*
X172425267Y-76535677D01*
X172226030Y-76496046D01*
X172220255Y-76495970D01*
X172220251Y-76495970D01*
X172118762Y-76494642D01*
X172022908Y-76493387D01*
X172017211Y-76494366D01*
X172017210Y-76494366D01*
X171828399Y-76526810D01*
X171822702Y-76527789D01*
X171632118Y-76598099D01*
X171457538Y-76701963D01*
X171304809Y-76835902D01*
X171179046Y-76995432D01*
X171176357Y-77000543D01*
X171176355Y-77000546D01*
X171166116Y-77020008D01*
X171084461Y-77175208D01*
X171024222Y-77369211D01*
X171000345Y-77570943D01*
X165597365Y-77570943D01*
X165581447Y-77397712D01*
X165526307Y-77202199D01*
X165436460Y-77020008D01*
X165314917Y-76857242D01*
X165296732Y-76840432D01*
X165169986Y-76723269D01*
X165169983Y-76723267D01*
X165165746Y-76719350D01*
X165119207Y-76689986D01*
X164998829Y-76614033D01*
X164998824Y-76614031D01*
X164993945Y-76610952D01*
X164805267Y-76535677D01*
X164606030Y-76496046D01*
X164600255Y-76495970D01*
X164600251Y-76495970D01*
X164498762Y-76494642D01*
X164402908Y-76493387D01*
X164397211Y-76494366D01*
X164397210Y-76494366D01*
X164208399Y-76526810D01*
X164202702Y-76527789D01*
X164012118Y-76598099D01*
X163837538Y-76701963D01*
X163684809Y-76835902D01*
X163559046Y-76995432D01*
X163556357Y-77000543D01*
X163556355Y-77000546D01*
X163546116Y-77020008D01*
X163464461Y-77175208D01*
X163404222Y-77369211D01*
X163380345Y-77570943D01*
X157380000Y-77570943D01*
X157380000Y-73590943D01*
X158820345Y-73590943D01*
X158833631Y-73793648D01*
X158835052Y-73799244D01*
X158835053Y-73799249D01*
X158856732Y-73884607D01*
X158883635Y-73990537D01*
X158968681Y-74175017D01*
X159085923Y-74340910D01*
X159231432Y-74482659D01*
X159236228Y-74485864D01*
X159236231Y-74485866D01*
X159374375Y-74578171D01*
X159400337Y-74595518D01*
X159405640Y-74597796D01*
X159405643Y-74597798D01*
X159490062Y-74634067D01*
X159586980Y-74675706D01*
X159644543Y-74688731D01*
X159779474Y-74719263D01*
X159779479Y-74719264D01*
X159785111Y-74720538D01*
X159790882Y-74720765D01*
X159790884Y-74720765D01*
X159849801Y-74723080D01*
X159988095Y-74728514D01*
X160106121Y-74711401D01*
X160183411Y-74700195D01*
X160183415Y-74700194D01*
X160189133Y-74699365D01*
X160194605Y-74697507D01*
X160194607Y-74697507D01*
X160376028Y-74635922D01*
X160376030Y-74635921D01*
X160381492Y-74634067D01*
X160558731Y-74534809D01*
X160586767Y-74511492D01*
X160710481Y-74408599D01*
X160714913Y-74404913D01*
X160844809Y-74248731D01*
X160856486Y-74227881D01*
X160889028Y-74169772D01*
X160944067Y-74071492D01*
X160947968Y-74060000D01*
X160957832Y-74030943D01*
X163330345Y-74030943D01*
X163343631Y-74233648D01*
X163345052Y-74239244D01*
X163345053Y-74239249D01*
X163366732Y-74324607D01*
X163393635Y-74430537D01*
X163478681Y-74615017D01*
X163595923Y-74780910D01*
X163741432Y-74922659D01*
X163746228Y-74925864D01*
X163746231Y-74925866D01*
X163884375Y-75018171D01*
X163910337Y-75035518D01*
X163915640Y-75037796D01*
X163915643Y-75037798D01*
X164000062Y-75074067D01*
X164096980Y-75115706D01*
X164169381Y-75132088D01*
X164289474Y-75159263D01*
X164289479Y-75159264D01*
X164295111Y-75160538D01*
X164300882Y-75160765D01*
X164300884Y-75160765D01*
X164359801Y-75163080D01*
X164498095Y-75168514D01*
X164616121Y-75151401D01*
X164693411Y-75140195D01*
X164693415Y-75140194D01*
X164699133Y-75139365D01*
X164704605Y-75137507D01*
X164704607Y-75137507D01*
X164886028Y-75075922D01*
X164886030Y-75075921D01*
X164891492Y-75074067D01*
X165068731Y-74974809D01*
X165224913Y-74844913D01*
X165354809Y-74688731D01*
X165454067Y-74511492D01*
X165519365Y-74319133D01*
X165548514Y-74118095D01*
X165550035Y-74060000D01*
X165547365Y-74030943D01*
X170950345Y-74030943D01*
X170963631Y-74233648D01*
X170965052Y-74239244D01*
X170965053Y-74239249D01*
X170986732Y-74324607D01*
X171013635Y-74430537D01*
X171098681Y-74615017D01*
X171215923Y-74780910D01*
X171361432Y-74922659D01*
X171366228Y-74925864D01*
X171366231Y-74925866D01*
X171504375Y-75018171D01*
X171530337Y-75035518D01*
X171535640Y-75037796D01*
X171535643Y-75037798D01*
X171620062Y-75074067D01*
X171716980Y-75115706D01*
X171789381Y-75132088D01*
X171909474Y-75159263D01*
X171909479Y-75159264D01*
X171915111Y-75160538D01*
X171920882Y-75160765D01*
X171920884Y-75160765D01*
X171979801Y-75163080D01*
X172118095Y-75168514D01*
X172236121Y-75151401D01*
X172313411Y-75140195D01*
X172313415Y-75140194D01*
X172319133Y-75139365D01*
X172324605Y-75137507D01*
X172324607Y-75137507D01*
X172506028Y-75075922D01*
X172506030Y-75075921D01*
X172511492Y-75074067D01*
X172688731Y-74974809D01*
X172844913Y-74844913D01*
X172974809Y-74688731D01*
X173074067Y-74511492D01*
X173139365Y-74319133D01*
X173168514Y-74118095D01*
X173170035Y-74060000D01*
X173151447Y-73857712D01*
X173096307Y-73662199D01*
X173006460Y-73480008D01*
X172884917Y-73317242D01*
X172866732Y-73300432D01*
X172739986Y-73183269D01*
X172739983Y-73183267D01*
X172735746Y-73179350D01*
X172689207Y-73149986D01*
X172568829Y-73074033D01*
X172568824Y-73074031D01*
X172563945Y-73070952D01*
X172375267Y-72995677D01*
X172176030Y-72956046D01*
X172170255Y-72955970D01*
X172170251Y-72955970D01*
X172068762Y-72954642D01*
X171972908Y-72953387D01*
X171967211Y-72954366D01*
X171967210Y-72954366D01*
X171778399Y-72986810D01*
X171772702Y-72987789D01*
X171582118Y-73058099D01*
X171407538Y-73161963D01*
X171254809Y-73295902D01*
X171129046Y-73455432D01*
X171126357Y-73460543D01*
X171126355Y-73460546D01*
X171116116Y-73480008D01*
X171034461Y-73635208D01*
X170974222Y-73829211D01*
X170950345Y-74030943D01*
X165547365Y-74030943D01*
X165531447Y-73857712D01*
X165476307Y-73662199D01*
X165386460Y-73480008D01*
X165264917Y-73317242D01*
X165246732Y-73300432D01*
X165119986Y-73183269D01*
X165119983Y-73183267D01*
X165115746Y-73179350D01*
X165069207Y-73149986D01*
X164948829Y-73074033D01*
X164948824Y-73074031D01*
X164943945Y-73070952D01*
X164755267Y-72995677D01*
X164556030Y-72956046D01*
X164550255Y-72955970D01*
X164550251Y-72955970D01*
X164448762Y-72954642D01*
X164352908Y-72953387D01*
X164347211Y-72954366D01*
X164347210Y-72954366D01*
X164158399Y-72986810D01*
X164152702Y-72987789D01*
X163962118Y-73058099D01*
X163787538Y-73161963D01*
X163634809Y-73295902D01*
X163509046Y-73455432D01*
X163506357Y-73460543D01*
X163506355Y-73460546D01*
X163496116Y-73480008D01*
X163414461Y-73635208D01*
X163354222Y-73829211D01*
X163330345Y-74030943D01*
X160957832Y-74030943D01*
X161007507Y-73884607D01*
X161007507Y-73884605D01*
X161009365Y-73879133D01*
X161015772Y-73834948D01*
X161037981Y-73681769D01*
X161038514Y-73678095D01*
X161040035Y-73620000D01*
X161021447Y-73417712D01*
X160966307Y-73222199D01*
X160876460Y-73040008D01*
X160754917Y-72877242D01*
X160736732Y-72860432D01*
X160609986Y-72743269D01*
X160609983Y-72743267D01*
X160605746Y-72739350D01*
X160559207Y-72709986D01*
X160438829Y-72634033D01*
X160438824Y-72634031D01*
X160433945Y-72630952D01*
X160245267Y-72555677D01*
X160046030Y-72516046D01*
X160040255Y-72515970D01*
X160040251Y-72515970D01*
X159938762Y-72514642D01*
X159842908Y-72513387D01*
X159837211Y-72514366D01*
X159837210Y-72514366D01*
X159648399Y-72546810D01*
X159642702Y-72547789D01*
X159452118Y-72618099D01*
X159277538Y-72721963D01*
X159124809Y-72855902D01*
X158999046Y-73015432D01*
X158996357Y-73020543D01*
X158996355Y-73020546D01*
X158970961Y-73068812D01*
X158904461Y-73195208D01*
X158844222Y-73389211D01*
X158820345Y-73590943D01*
X157380000Y-73590943D01*
X157380000Y-70494658D01*
X169964700Y-70494658D01*
X169965996Y-70505552D01*
X169966685Y-70511340D01*
X169967867Y-70521278D01*
X170014036Y-70625219D01*
X170054186Y-70665298D01*
X170086295Y-70697352D01*
X170086297Y-70697353D01*
X170094528Y-70705570D01*
X170198549Y-70751558D01*
X170224642Y-70754600D01*
X171915358Y-70754600D01*
X171926252Y-70753304D01*
X171932593Y-70752550D01*
X171932596Y-70752549D01*
X171941978Y-70751433D01*
X172045919Y-70705264D01*
X172085998Y-70665114D01*
X172118052Y-70633005D01*
X172118053Y-70633003D01*
X172126270Y-70624772D01*
X172172258Y-70520751D01*
X172175300Y-70494658D01*
X172175300Y-68803942D01*
X172174004Y-68793048D01*
X172173250Y-68786707D01*
X172173249Y-68786704D01*
X172172133Y-68777322D01*
X172125964Y-68673381D01*
X172085814Y-68633302D01*
X172053705Y-68601248D01*
X172053703Y-68601247D01*
X172045472Y-68593030D01*
X171941451Y-68547042D01*
X171915358Y-68544000D01*
X170224642Y-68544000D01*
X170213748Y-68545296D01*
X170207407Y-68546050D01*
X170207404Y-68546051D01*
X170198022Y-68547167D01*
X170094081Y-68593336D01*
X170074985Y-68612466D01*
X170021948Y-68665595D01*
X170021947Y-68665597D01*
X170013730Y-68673828D01*
X169967742Y-68777849D01*
X169964700Y-68803942D01*
X169964700Y-70494658D01*
X157380000Y-70494658D01*
X157380000Y-69100000D01*
X158605581Y-69100000D01*
X158606271Y-69106565D01*
X158614274Y-69182706D01*
X158626000Y-69294277D01*
X158686366Y-69480062D01*
X158689669Y-69485783D01*
X158780736Y-69643518D01*
X158780739Y-69643522D01*
X158784039Y-69649238D01*
X158788457Y-69654145D01*
X158788458Y-69654146D01*
X158888898Y-69765695D01*
X158914752Y-69794409D01*
X159072790Y-69909231D01*
X159078819Y-69911915D01*
X159078822Y-69911917D01*
X159245213Y-69985998D01*
X159245216Y-69985999D01*
X159251249Y-69988685D01*
X159293088Y-69997578D01*
X159435870Y-70027928D01*
X159435874Y-70027928D01*
X159442327Y-70029300D01*
X159637673Y-70029300D01*
X159644126Y-70027928D01*
X159644130Y-70027928D01*
X159786912Y-69997578D01*
X159828751Y-69988685D01*
X159834784Y-69985999D01*
X159834787Y-69985998D01*
X160001178Y-69911917D01*
X160001181Y-69911915D01*
X160007210Y-69909231D01*
X160165248Y-69794409D01*
X160187805Y-69769358D01*
X166230700Y-69769358D01*
X166231996Y-69780252D01*
X166232685Y-69786040D01*
X166233867Y-69795978D01*
X166280036Y-69899919D01*
X166320186Y-69939998D01*
X166352295Y-69972052D01*
X166352297Y-69972053D01*
X166360528Y-69980270D01*
X166464549Y-70026258D01*
X166490642Y-70029300D01*
X167829358Y-70029300D01*
X167840252Y-70028004D01*
X167846593Y-70027250D01*
X167846596Y-70027249D01*
X167855978Y-70026133D01*
X167959919Y-69979964D01*
X168027847Y-69911917D01*
X168032052Y-69907705D01*
X168032053Y-69907703D01*
X168040270Y-69899472D01*
X168086258Y-69795451D01*
X168089300Y-69769358D01*
X168089300Y-68430642D01*
X168087912Y-68418972D01*
X168087250Y-68413407D01*
X168087249Y-68413404D01*
X168086133Y-68404022D01*
X168039964Y-68300081D01*
X167971433Y-68231670D01*
X167967705Y-68227948D01*
X167967703Y-68227947D01*
X167959472Y-68219730D01*
X167855451Y-68173742D01*
X167829358Y-68170700D01*
X166490642Y-68170700D01*
X166479748Y-68171996D01*
X166473407Y-68172750D01*
X166473404Y-68172751D01*
X166464022Y-68173867D01*
X166360081Y-68220036D01*
X166342960Y-68237187D01*
X166287948Y-68292295D01*
X166287947Y-68292297D01*
X166279730Y-68300528D01*
X166233742Y-68404549D01*
X166230700Y-68430642D01*
X166230700Y-69769358D01*
X160187805Y-69769358D01*
X160191103Y-69765695D01*
X160291542Y-69654146D01*
X160291543Y-69654145D01*
X160295961Y-69649238D01*
X160299261Y-69643522D01*
X160299264Y-69643518D01*
X160390331Y-69485783D01*
X160393634Y-69480062D01*
X160454000Y-69294277D01*
X160465727Y-69182706D01*
X160473729Y-69106565D01*
X160474419Y-69100000D01*
X160471223Y-69069595D01*
X160454691Y-68912293D01*
X160454690Y-68912289D01*
X160454000Y-68905723D01*
X160393634Y-68719938D01*
X160362009Y-68665161D01*
X160299264Y-68556482D01*
X160299261Y-68556478D01*
X160295961Y-68550762D01*
X160290255Y-68544425D01*
X160169663Y-68410494D01*
X160169661Y-68410493D01*
X160165248Y-68405591D01*
X160007210Y-68290769D01*
X160001181Y-68288085D01*
X160001178Y-68288083D01*
X159834787Y-68214002D01*
X159834784Y-68214001D01*
X159828751Y-68211315D01*
X159751224Y-68194836D01*
X159644130Y-68172072D01*
X159644126Y-68172072D01*
X159637673Y-68170700D01*
X159442327Y-68170700D01*
X159435874Y-68172072D01*
X159435870Y-68172072D01*
X159328776Y-68194836D01*
X159251249Y-68211315D01*
X159245216Y-68214001D01*
X159245213Y-68214002D01*
X159078823Y-68288083D01*
X159078820Y-68288085D01*
X159072791Y-68290769D01*
X158914752Y-68405591D01*
X158910339Y-68410493D01*
X158910337Y-68410494D01*
X158789745Y-68544425D01*
X158784039Y-68550762D01*
X158780739Y-68556478D01*
X158780736Y-68556482D01*
X158717991Y-68665161D01*
X158686366Y-68719938D01*
X158626000Y-68905723D01*
X158625310Y-68912289D01*
X158625309Y-68912293D01*
X158608777Y-69069595D01*
X158605581Y-69100000D01*
X157380000Y-69100000D01*
X157380000Y-68036200D01*
X179094700Y-68036200D01*
X179096473Y-68055497D01*
X179107350Y-68173867D01*
X179109805Y-68200590D01*
X179111373Y-68206149D01*
X179111373Y-68206150D01*
X179167180Y-68404022D01*
X179169935Y-68413792D01*
X179172487Y-68418968D01*
X179172489Y-68418972D01*
X179258325Y-68593030D01*
X179267910Y-68612466D01*
X179271364Y-68617092D01*
X179271365Y-68617093D01*
X179391407Y-68777849D01*
X179400450Y-68789959D01*
X179563116Y-68940326D01*
X179593166Y-68959286D01*
X179745577Y-69055450D01*
X179745582Y-69055452D01*
X179750461Y-69058531D01*
X179956210Y-69140617D01*
X179961870Y-69141743D01*
X179961874Y-69141744D01*
X180167804Y-69182706D01*
X180167809Y-69182706D01*
X180173472Y-69183833D01*
X180179247Y-69183909D01*
X180179251Y-69183909D01*
X180288449Y-69185338D01*
X180394972Y-69186733D01*
X180613291Y-69149218D01*
X180821118Y-69072547D01*
X180849856Y-69055450D01*
X181006525Y-68962242D01*
X181006528Y-68962240D01*
X181011493Y-68959286D01*
X181178040Y-68813228D01*
X181315181Y-68639266D01*
X181335014Y-68601571D01*
X181415631Y-68448342D01*
X181415632Y-68448340D01*
X181418323Y-68443225D01*
X181484012Y-68231670D01*
X181490415Y-68177573D01*
X181504864Y-68055497D01*
X181504864Y-68055490D01*
X181505300Y-68051810D01*
X181505300Y-66923800D01*
X181490195Y-66759410D01*
X181485692Y-66743445D01*
X181431633Y-66551767D01*
X181431632Y-66551765D01*
X181430065Y-66546208D01*
X181425035Y-66536007D01*
X181334645Y-66352715D01*
X181332090Y-66347534D01*
X181245571Y-66231670D01*
X181203003Y-66174665D01*
X181203002Y-66174664D01*
X181199550Y-66170041D01*
X181071649Y-66051810D01*
X181041124Y-66023593D01*
X181041121Y-66023591D01*
X181036884Y-66019674D01*
X180946807Y-65962840D01*
X180854423Y-65904550D01*
X180854418Y-65904548D01*
X180849539Y-65901469D01*
X180643790Y-65819383D01*
X180638130Y-65818257D01*
X180638126Y-65818256D01*
X180432196Y-65777294D01*
X180432191Y-65777294D01*
X180426528Y-65776167D01*
X180420753Y-65776091D01*
X180420749Y-65776091D01*
X180311551Y-65774662D01*
X180205028Y-65773267D01*
X179986709Y-65810782D01*
X179778882Y-65887453D01*
X179773921Y-65890405D01*
X179773920Y-65890405D01*
X179593475Y-65997758D01*
X179593472Y-65997760D01*
X179588507Y-66000714D01*
X179421960Y-66146772D01*
X179284819Y-66320734D01*
X179282128Y-66325850D01*
X179282126Y-66325852D01*
X179235859Y-66413792D01*
X179181677Y-66516775D01*
X179175705Y-66536007D01*
X179142025Y-66644478D01*
X179115988Y-66728330D01*
X179115309Y-66734067D01*
X179103853Y-66830860D01*
X179094700Y-66908190D01*
X179094700Y-68036200D01*
X157380000Y-68036200D01*
X157380000Y-67518598D01*
X158945762Y-67518598D01*
X158955644Y-67531087D01*
X158992738Y-67555873D01*
X159002848Y-67561363D01*
X159183387Y-67638929D01*
X159194330Y-67642484D01*
X159385974Y-67685849D01*
X159397384Y-67687351D01*
X159593730Y-67695065D01*
X159605212Y-67694463D01*
X159799678Y-67666268D01*
X159810860Y-67663583D01*
X159996927Y-67600422D01*
X160007440Y-67595741D01*
X160125663Y-67529532D01*
X160135528Y-67519454D01*
X160132572Y-67511782D01*
X159552812Y-66932022D01*
X159538868Y-66924408D01*
X159537035Y-66924539D01*
X159530420Y-66928790D01*
X158951958Y-67507252D01*
X158945762Y-67518598D01*
X157380000Y-67518598D01*
X157380000Y-66536007D01*
X158403918Y-66536007D01*
X158416769Y-66732075D01*
X158418570Y-66743445D01*
X158466936Y-66933888D01*
X158470777Y-66944735D01*
X158553041Y-67123179D01*
X158558791Y-67133140D01*
X158568568Y-67146974D01*
X158579156Y-67155361D01*
X158592457Y-67148333D01*
X159167978Y-66572812D01*
X159174356Y-66561132D01*
X159904408Y-66561132D01*
X159904539Y-66562965D01*
X159908790Y-66569580D01*
X160487868Y-67148658D01*
X160500248Y-67155418D01*
X160506828Y-67150492D01*
X160575741Y-67027440D01*
X160580422Y-67016927D01*
X160643583Y-66830860D01*
X160646268Y-66819678D01*
X160674759Y-66623172D01*
X160675389Y-66615789D01*
X160676753Y-66563704D01*
X160676631Y-66560000D01*
X166225581Y-66560000D01*
X166226271Y-66566565D01*
X166244862Y-66743445D01*
X166246000Y-66754277D01*
X166270884Y-66830860D01*
X166303754Y-66932022D01*
X166306366Y-66940062D01*
X166309669Y-66945783D01*
X166400736Y-67103518D01*
X166400739Y-67103522D01*
X166404039Y-67109238D01*
X166408457Y-67114145D01*
X166408458Y-67114146D01*
X166473748Y-67186657D01*
X166534752Y-67254409D01*
X166692790Y-67369231D01*
X166698819Y-67371915D01*
X166698822Y-67371917D01*
X166865213Y-67445998D01*
X166865216Y-67445999D01*
X166871249Y-67448685D01*
X166913088Y-67457578D01*
X167055870Y-67487928D01*
X167055874Y-67487928D01*
X167062327Y-67489300D01*
X167257673Y-67489300D01*
X167264126Y-67487928D01*
X167264130Y-67487928D01*
X167406912Y-67457578D01*
X167448751Y-67448685D01*
X167454784Y-67445999D01*
X167454787Y-67445998D01*
X167621178Y-67371917D01*
X167621181Y-67371915D01*
X167627210Y-67369231D01*
X167785248Y-67254409D01*
X167846253Y-67186657D01*
X167911542Y-67114146D01*
X167911543Y-67114145D01*
X167915961Y-67109238D01*
X167919261Y-67103522D01*
X167919264Y-67103518D01*
X168010331Y-66945783D01*
X168013634Y-66940062D01*
X168016247Y-66932022D01*
X168049116Y-66830860D01*
X168074000Y-66754277D01*
X168075139Y-66743445D01*
X168093729Y-66566565D01*
X168094419Y-66560000D01*
X168091897Y-66536007D01*
X168074691Y-66372293D01*
X168074690Y-66372289D01*
X168074000Y-66365723D01*
X168017297Y-66191210D01*
X168015675Y-66186219D01*
X168015674Y-66186218D01*
X168013634Y-66179938D01*
X167930648Y-66036200D01*
X167919264Y-66016482D01*
X167919261Y-66016478D01*
X167915961Y-66010762D01*
X167880321Y-65971180D01*
X167789663Y-65870494D01*
X167789661Y-65870493D01*
X167785248Y-65865591D01*
X167708466Y-65809805D01*
X167632552Y-65754650D01*
X167632551Y-65754649D01*
X167627210Y-65750769D01*
X167621181Y-65748085D01*
X167621178Y-65748083D01*
X167454787Y-65674002D01*
X167454784Y-65674001D01*
X167448751Y-65671315D01*
X167406912Y-65662422D01*
X167264130Y-65632072D01*
X167264126Y-65632072D01*
X167257673Y-65630700D01*
X167062327Y-65630700D01*
X167055874Y-65632072D01*
X167055870Y-65632072D01*
X166913088Y-65662422D01*
X166871249Y-65671315D01*
X166865216Y-65674001D01*
X166865213Y-65674002D01*
X166698823Y-65748083D01*
X166698820Y-65748085D01*
X166692791Y-65750769D01*
X166687450Y-65754649D01*
X166687449Y-65754650D01*
X166656282Y-65777294D01*
X166534752Y-65865591D01*
X166530339Y-65870493D01*
X166530337Y-65870494D01*
X166439679Y-65971180D01*
X166404039Y-66010762D01*
X166400739Y-66016478D01*
X166400736Y-66016482D01*
X166389352Y-66036200D01*
X166306366Y-66179938D01*
X166304326Y-66186218D01*
X166304325Y-66186219D01*
X166302703Y-66191210D01*
X166246000Y-66365723D01*
X166245310Y-66372289D01*
X166245309Y-66372293D01*
X166228103Y-66536007D01*
X166225581Y-66560000D01*
X160676631Y-66560000D01*
X160676510Y-66556305D01*
X160658342Y-66358583D01*
X160656244Y-66347262D01*
X160602910Y-66158154D01*
X160598786Y-66147407D01*
X160511879Y-65971180D01*
X160510815Y-65969443D01*
X160502017Y-65962840D01*
X160489597Y-65969613D01*
X159912022Y-66547188D01*
X159904408Y-66561132D01*
X159174356Y-66561132D01*
X159175592Y-66558868D01*
X159175461Y-66557035D01*
X159171210Y-66550420D01*
X158590771Y-65969981D01*
X158578391Y-65963221D01*
X158572425Y-65967687D01*
X158492377Y-66119834D01*
X158487974Y-66130467D01*
X158429705Y-66318121D01*
X158427315Y-66329365D01*
X158404219Y-66524506D01*
X158403918Y-66536007D01*
X157380000Y-66536007D01*
X157380000Y-65601164D01*
X158945276Y-65601164D01*
X158948762Y-65609552D01*
X159527188Y-66187978D01*
X159541132Y-66195592D01*
X159542965Y-66195461D01*
X159549580Y-66191210D01*
X160127682Y-65613108D01*
X160134442Y-65600728D01*
X160128412Y-65592673D01*
X160060999Y-65550138D01*
X160050756Y-65544920D01*
X159868247Y-65472106D01*
X159857219Y-65468839D01*
X159664500Y-65430505D01*
X159653054Y-65429302D01*
X159456586Y-65426731D01*
X159445106Y-65427634D01*
X159251459Y-65460908D01*
X159240339Y-65463888D01*
X159055989Y-65531898D01*
X159045611Y-65536848D01*
X158954874Y-65590831D01*
X158945276Y-65601164D01*
X157380000Y-65601164D01*
X157380000Y-64020000D01*
X158605581Y-64020000D01*
X158606271Y-64026565D01*
X158622089Y-64177064D01*
X158626000Y-64214277D01*
X158686366Y-64400062D01*
X158689669Y-64405783D01*
X158780736Y-64563518D01*
X158780739Y-64563522D01*
X158784039Y-64569238D01*
X158788457Y-64574145D01*
X158788458Y-64574146D01*
X158895787Y-64693346D01*
X158914752Y-64714409D01*
X159072790Y-64829231D01*
X159078819Y-64831915D01*
X159078822Y-64831917D01*
X159245213Y-64905998D01*
X159245216Y-64905999D01*
X159251249Y-64908685D01*
X159266403Y-64911906D01*
X159435870Y-64947928D01*
X159435874Y-64947928D01*
X159442327Y-64949300D01*
X159637673Y-64949300D01*
X159644126Y-64947928D01*
X159644130Y-64947928D01*
X159813597Y-64911906D01*
X159828751Y-64908685D01*
X159834784Y-64905999D01*
X159834787Y-64905998D01*
X160001178Y-64831917D01*
X160001181Y-64831915D01*
X160007210Y-64829231D01*
X160165248Y-64714409D01*
X160184214Y-64693346D01*
X160291542Y-64574146D01*
X160291543Y-64574145D01*
X160295961Y-64569238D01*
X160299261Y-64563522D01*
X160299264Y-64563518D01*
X160390331Y-64405783D01*
X160393634Y-64400062D01*
X160454000Y-64214277D01*
X160457912Y-64177064D01*
X160473729Y-64026565D01*
X160474419Y-64020000D01*
X166225581Y-64020000D01*
X166226271Y-64026565D01*
X166242089Y-64177064D01*
X166246000Y-64214277D01*
X166306366Y-64400062D01*
X166309669Y-64405783D01*
X166400736Y-64563518D01*
X166400739Y-64563522D01*
X166404039Y-64569238D01*
X166408457Y-64574145D01*
X166408458Y-64574146D01*
X166515787Y-64693346D01*
X166534752Y-64714409D01*
X166692790Y-64829231D01*
X166698819Y-64831915D01*
X166698822Y-64831917D01*
X166865213Y-64905998D01*
X166865216Y-64905999D01*
X166871249Y-64908685D01*
X166886403Y-64911906D01*
X167055870Y-64947928D01*
X167055874Y-64947928D01*
X167062327Y-64949300D01*
X167257673Y-64949300D01*
X167264126Y-64947928D01*
X167264130Y-64947928D01*
X167433597Y-64911906D01*
X167448751Y-64908685D01*
X167454784Y-64905999D01*
X167454787Y-64905998D01*
X167621178Y-64831917D01*
X167621181Y-64831915D01*
X167627210Y-64829231D01*
X167785248Y-64714409D01*
X167804214Y-64693346D01*
X167911542Y-64574146D01*
X167911543Y-64574145D01*
X167915961Y-64569238D01*
X167919261Y-64563522D01*
X167919264Y-64563518D01*
X167932702Y-64540243D01*
X169960345Y-64540243D01*
X169973631Y-64742948D01*
X169975052Y-64748544D01*
X169975053Y-64748549D01*
X170015723Y-64908685D01*
X170023635Y-64939837D01*
X170108681Y-65124317D01*
X170225923Y-65290210D01*
X170371432Y-65431959D01*
X170376228Y-65435164D01*
X170376231Y-65435166D01*
X170514375Y-65527471D01*
X170540337Y-65544818D01*
X170545640Y-65547096D01*
X170545643Y-65547098D01*
X170721673Y-65622726D01*
X170726980Y-65625006D01*
X170758208Y-65632072D01*
X170919474Y-65668563D01*
X170919479Y-65668564D01*
X170925111Y-65669838D01*
X170930882Y-65670065D01*
X170930884Y-65670065D01*
X170989801Y-65672380D01*
X171128095Y-65677814D01*
X171246121Y-65660701D01*
X171323411Y-65649495D01*
X171323415Y-65649494D01*
X171329133Y-65648665D01*
X171334605Y-65646807D01*
X171334607Y-65646807D01*
X171516028Y-65585222D01*
X171516030Y-65585221D01*
X171521492Y-65583367D01*
X171698731Y-65484109D01*
X171854913Y-65354213D01*
X171984809Y-65198031D01*
X172084067Y-65020792D01*
X172108336Y-64949300D01*
X172147507Y-64833907D01*
X172147507Y-64833905D01*
X172149365Y-64828433D01*
X172178514Y-64627395D01*
X172180035Y-64569300D01*
X172161447Y-64367012D01*
X172106307Y-64171499D01*
X172016460Y-63989308D01*
X171938909Y-63885455D01*
X171898370Y-63831166D01*
X171898369Y-63831165D01*
X171894917Y-63826542D01*
X171890681Y-63822626D01*
X171749986Y-63692569D01*
X171749983Y-63692567D01*
X171745746Y-63688650D01*
X171659475Y-63634217D01*
X171578829Y-63583333D01*
X171578824Y-63583331D01*
X171573945Y-63580252D01*
X171385267Y-63504977D01*
X171186030Y-63465346D01*
X171180255Y-63465270D01*
X171180251Y-63465270D01*
X171078762Y-63463942D01*
X170982908Y-63462687D01*
X170977211Y-63463666D01*
X170977210Y-63463666D01*
X170788399Y-63496110D01*
X170782702Y-63497089D01*
X170592118Y-63567399D01*
X170587157Y-63570351D01*
X170587156Y-63570351D01*
X170470191Y-63639938D01*
X170417538Y-63671263D01*
X170264809Y-63805202D01*
X170139046Y-63964732D01*
X170136357Y-63969843D01*
X170136355Y-63969846D01*
X170106514Y-64026565D01*
X170044461Y-64144508D01*
X169984222Y-64338511D01*
X169960345Y-64540243D01*
X167932702Y-64540243D01*
X168010331Y-64405783D01*
X168013634Y-64400062D01*
X168074000Y-64214277D01*
X168077912Y-64177064D01*
X168093729Y-64026565D01*
X168094419Y-64020000D01*
X168081736Y-63899329D01*
X168074691Y-63832293D01*
X168074690Y-63832289D01*
X168074000Y-63825723D01*
X168013634Y-63639938D01*
X168009332Y-63632487D01*
X167919264Y-63476482D01*
X167919261Y-63476478D01*
X167915961Y-63470762D01*
X167911542Y-63465854D01*
X167789663Y-63330494D01*
X167789661Y-63330493D01*
X167785248Y-63325591D01*
X167627210Y-63210769D01*
X167621181Y-63208085D01*
X167621178Y-63208083D01*
X167454787Y-63134002D01*
X167454784Y-63134001D01*
X167448751Y-63131315D01*
X167406912Y-63122422D01*
X167264130Y-63092072D01*
X167264126Y-63092072D01*
X167257673Y-63090700D01*
X167062327Y-63090700D01*
X167055874Y-63092072D01*
X167055870Y-63092072D01*
X166913088Y-63122422D01*
X166871249Y-63131315D01*
X166865216Y-63134001D01*
X166865213Y-63134002D01*
X166698823Y-63208083D01*
X166698820Y-63208085D01*
X166692791Y-63210769D01*
X166534752Y-63325591D01*
X166530339Y-63330493D01*
X166530337Y-63330494D01*
X166408458Y-63465854D01*
X166404039Y-63470762D01*
X166400739Y-63476478D01*
X166400736Y-63476482D01*
X166310668Y-63632487D01*
X166306366Y-63639938D01*
X166246000Y-63825723D01*
X166245310Y-63832289D01*
X166245309Y-63832293D01*
X166238264Y-63899329D01*
X166225581Y-64020000D01*
X160474419Y-64020000D01*
X160461736Y-63899329D01*
X160454691Y-63832293D01*
X160454690Y-63832289D01*
X160454000Y-63825723D01*
X160393634Y-63639938D01*
X160389332Y-63632487D01*
X160299264Y-63476482D01*
X160299261Y-63476478D01*
X160295961Y-63470762D01*
X160291542Y-63465854D01*
X160169663Y-63330494D01*
X160169661Y-63330493D01*
X160165248Y-63325591D01*
X160007210Y-63210769D01*
X160001181Y-63208085D01*
X160001178Y-63208083D01*
X159834787Y-63134002D01*
X159834784Y-63134001D01*
X159828751Y-63131315D01*
X159786912Y-63122422D01*
X159644130Y-63092072D01*
X159644126Y-63092072D01*
X159637673Y-63090700D01*
X159442327Y-63090700D01*
X159435874Y-63092072D01*
X159435870Y-63092072D01*
X159293088Y-63122422D01*
X159251249Y-63131315D01*
X159245216Y-63134001D01*
X159245213Y-63134002D01*
X159078823Y-63208083D01*
X159078820Y-63208085D01*
X159072791Y-63210769D01*
X158914752Y-63325591D01*
X158910339Y-63330493D01*
X158910337Y-63330494D01*
X158788458Y-63465854D01*
X158784039Y-63470762D01*
X158780739Y-63476478D01*
X158780736Y-63476482D01*
X158690668Y-63632487D01*
X158686366Y-63639938D01*
X158626000Y-63825723D01*
X158625310Y-63832289D01*
X158625309Y-63832293D01*
X158618264Y-63899329D01*
X158605581Y-64020000D01*
X157380000Y-64020000D01*
X157380000Y-61026000D01*
X157400002Y-60957879D01*
X157453658Y-60911386D01*
X157506000Y-60900000D01*
X172821558Y-60900000D01*
X172834430Y-60901430D01*
X172834436Y-60901338D01*
X172844333Y-60901975D01*
X172854006Y-60904151D01*
X172863877Y-60903232D01*
X172863880Y-60903232D01*
X172892753Y-60900543D01*
X172904435Y-60900000D01*
X172911481Y-60900000D01*
X172916366Y-60899226D01*
X172916368Y-60899226D01*
X172925888Y-60897718D01*
X172933914Y-60896710D01*
X172970291Y-60893323D01*
X172970293Y-60893322D01*
X172980168Y-60892403D01*
X172989277Y-60888476D01*
X172991843Y-60887821D01*
X172992354Y-60887716D01*
X172992836Y-60887534D01*
X172995354Y-60886716D01*
X173005148Y-60885165D01*
X173046549Y-60864070D01*
X173053865Y-60860634D01*
X173087419Y-60846170D01*
X173087420Y-60846170D01*
X173096524Y-60842245D01*
X173103971Y-60835698D01*
X173106216Y-60834278D01*
X173106660Y-60834025D01*
X173107054Y-60833710D01*
X173109213Y-60832141D01*
X173118045Y-60827641D01*
X173150883Y-60794803D01*
X173156784Y-60789268D01*
X173164031Y-60782897D01*
X173164032Y-60782896D01*
X173167748Y-60779629D01*
X173170907Y-60775821D01*
X173170913Y-60775815D01*
X173172252Y-60774201D01*
X173180130Y-60765556D01*
X173207641Y-60738045D01*
X173212144Y-60729207D01*
X173217973Y-60721184D01*
X173218048Y-60721239D01*
X173225166Y-60710419D01*
X173328691Y-60585635D01*
X173387580Y-60545979D01*
X173425662Y-60540086D01*
X179452090Y-60540057D01*
X179520211Y-60560059D01*
G37*
%TD.AperFunction*%
%TD*%
M02*
