%TF.GenerationSoftware,KiCad,Pcbnew,(6.0.7)*%
%TF.CreationDate,2022-09-20T22:55:45-07:00*%
%TF.ProjectId,waveblaster-to-midi-module,77617665-626c-4617-9374-65722d746f2d,rev?*%
%TF.SameCoordinates,PX525bfc0PY8670810*%
%TF.FileFunction,Legend,Bot*%
%TF.FilePolarity,Positive*%
%FSLAX46Y46*%
G04 Gerber Fmt 4.6, Leading zero omitted, Abs format (unit mm)*
G04 Created by KiCad (PCBNEW (6.0.7)) date 2022-09-20 22:55:45*
%MOMM*%
%LPD*%
G01*
G04 APERTURE LIST*
G04 Aperture macros list*
%AMRoundRect*
0 Rectangle with rounded corners*
0 $1 Rounding radius*
0 $2 $3 $4 $5 $6 $7 $8 $9 X,Y pos of 4 corners*
0 Add a 4 corners polygon primitive as box body*
4,1,4,$2,$3,$4,$5,$6,$7,$8,$9,$2,$3,0*
0 Add four circle primitives for the rounded corners*
1,1,$1+$1,$2,$3*
1,1,$1+$1,$4,$5*
1,1,$1+$1,$6,$7*
1,1,$1+$1,$8,$9*
0 Add four rect primitives between the rounded corners*
20,1,$1+$1,$2,$3,$4,$5,0*
20,1,$1+$1,$4,$5,$6,$7,0*
20,1,$1+$1,$6,$7,$8,$9,0*
20,1,$1+$1,$8,$9,$2,$3,0*%
G04 Aperture macros list end*
%ADD10C,0.150000*%
%ADD11C,0.100000*%
%ADD12C,0.300000*%
%ADD13RoundRect,0.250000X-0.600000X-0.600000X0.600000X-0.600000X0.600000X0.600000X-0.600000X0.600000X0*%
%ADD14C,1.700000*%
%ADD15C,6.400000*%
%ADD16O,1.800000X2.800000*%
%ADD17C,1.600000*%
%ADD18O,1.600000X1.600000*%
%ADD19R,1.248000X1.248000*%
%ADD20C,1.248000*%
%ADD21O,2.400000X4.800000*%
%ADD22O,3.400000X1.700000*%
%ADD23R,1.600000X1.600000*%
G04 APERTURE END LIST*
D10*
X160460000Y-92310000D02*
G75*
G03*
X160460000Y-92310000I-90000J0D01*
G01*
X162990000Y-89740000D02*
G75*
G03*
X162990000Y-89740000I-90000J0D01*
G01*
X164200000Y-95460000D02*
X164200000Y-95960000D01*
X160500000Y-89760000D02*
G75*
G03*
X160500000Y-89760000I-90000J0D01*
G01*
X163010000Y-92280000D02*
G75*
G03*
X163010000Y-92280000I-90000J0D01*
G01*
D11*
X159100000Y-88000000D02*
X159100000Y-93810000D01*
X164200000Y-93810000D02*
X164200000Y-88000000D01*
D10*
X159090000Y-94410000D02*
X159090000Y-94910000D01*
X164200000Y-94360000D02*
X164200000Y-94860000D01*
X159090000Y-95510000D02*
X159090000Y-96010000D01*
D11*
X164200000Y-88000000D02*
X159100000Y-88000000D01*
D12*
X159163571Y-106928571D02*
X160663571Y-107285714D01*
X159592142Y-107571428D01*
X160663571Y-107857142D01*
X159163571Y-108214285D01*
X160663571Y-109428571D02*
X159877857Y-109428571D01*
X159735000Y-109357142D01*
X159663571Y-109214285D01*
X159663571Y-108928571D01*
X159735000Y-108785714D01*
X160592142Y-109428571D02*
X160663571Y-109285714D01*
X160663571Y-108928571D01*
X160592142Y-108785714D01*
X160449285Y-108714285D01*
X160306428Y-108714285D01*
X160163571Y-108785714D01*
X160092142Y-108928571D01*
X160092142Y-109285714D01*
X160020714Y-109428571D01*
X159663571Y-110000000D02*
X160663571Y-110357142D01*
X159663571Y-110714285D01*
X160592142Y-111857142D02*
X160663571Y-111714285D01*
X160663571Y-111428571D01*
X160592142Y-111285714D01*
X160449285Y-111214285D01*
X159877857Y-111214285D01*
X159735000Y-111285714D01*
X159663571Y-111428571D01*
X159663571Y-111714285D01*
X159735000Y-111857142D01*
X159877857Y-111928571D01*
X160020714Y-111928571D01*
X160163571Y-111214285D01*
X160663571Y-112571428D02*
X159163571Y-112571428D01*
X159735000Y-112571428D02*
X159663571Y-112714285D01*
X159663571Y-113000000D01*
X159735000Y-113142857D01*
X159806428Y-113214285D01*
X159949285Y-113285714D01*
X160377857Y-113285714D01*
X160520714Y-113214285D01*
X160592142Y-113142857D01*
X160663571Y-113000000D01*
X160663571Y-112714285D01*
X160592142Y-112571428D01*
X160663571Y-114142857D02*
X160592142Y-114000000D01*
X160449285Y-113928571D01*
X159163571Y-113928571D01*
X160663571Y-115357142D02*
X159877857Y-115357142D01*
X159735000Y-115285714D01*
X159663571Y-115142857D01*
X159663571Y-114857142D01*
X159735000Y-114714285D01*
X160592142Y-115357142D02*
X160663571Y-115214285D01*
X160663571Y-114857142D01*
X160592142Y-114714285D01*
X160449285Y-114642857D01*
X160306428Y-114642857D01*
X160163571Y-114714285D01*
X160092142Y-114857142D01*
X160092142Y-115214285D01*
X160020714Y-115357142D01*
X160592142Y-116000000D02*
X160663571Y-116142857D01*
X160663571Y-116428571D01*
X160592142Y-116571428D01*
X160449285Y-116642857D01*
X160377857Y-116642857D01*
X160235000Y-116571428D01*
X160163571Y-116428571D01*
X160163571Y-116214285D01*
X160092142Y-116071428D01*
X159949285Y-116000000D01*
X159877857Y-116000000D01*
X159735000Y-116071428D01*
X159663571Y-116214285D01*
X159663571Y-116428571D01*
X159735000Y-116571428D01*
X159663571Y-117071428D02*
X159663571Y-117642857D01*
X159163571Y-117285714D02*
X160449285Y-117285714D01*
X160592142Y-117357142D01*
X160663571Y-117500000D01*
X160663571Y-117642857D01*
X160592142Y-118714285D02*
X160663571Y-118571428D01*
X160663571Y-118285714D01*
X160592142Y-118142857D01*
X160449285Y-118071428D01*
X159877857Y-118071428D01*
X159735000Y-118142857D01*
X159663571Y-118285714D01*
X159663571Y-118571428D01*
X159735000Y-118714285D01*
X159877857Y-118785714D01*
X160020714Y-118785714D01*
X160163571Y-118071428D01*
X160663571Y-119428571D02*
X159663571Y-119428571D01*
X159949285Y-119428571D02*
X159806428Y-119500000D01*
X159735000Y-119571428D01*
X159663571Y-119714285D01*
X159663571Y-119857142D01*
X159877857Y-122000000D02*
X159949285Y-122214285D01*
X160020714Y-122285714D01*
X160163571Y-122357142D01*
X160377857Y-122357142D01*
X160520714Y-122285714D01*
X160592142Y-122214285D01*
X160663571Y-122071428D01*
X160663571Y-121500000D01*
X159163571Y-121500000D01*
X159163571Y-122000000D01*
X159235000Y-122142857D01*
X159306428Y-122214285D01*
X159449285Y-122285714D01*
X159592142Y-122285714D01*
X159735000Y-122214285D01*
X159806428Y-122142857D01*
X159877857Y-122000000D01*
X159877857Y-121500000D01*
X160663571Y-123000000D02*
X159663571Y-123000000D01*
X159949285Y-123000000D02*
X159806428Y-123071428D01*
X159735000Y-123142857D01*
X159663571Y-123285714D01*
X159663571Y-123428571D01*
X160592142Y-124500000D02*
X160663571Y-124357142D01*
X160663571Y-124071428D01*
X160592142Y-123928571D01*
X160449285Y-123857142D01*
X159877857Y-123857142D01*
X159735000Y-123928571D01*
X159663571Y-124071428D01*
X159663571Y-124357142D01*
X159735000Y-124500000D01*
X159877857Y-124571428D01*
X160020714Y-124571428D01*
X160163571Y-123857142D01*
X160663571Y-125857142D02*
X159877857Y-125857142D01*
X159735000Y-125785714D01*
X159663571Y-125642857D01*
X159663571Y-125357142D01*
X159735000Y-125214285D01*
X160592142Y-125857142D02*
X160663571Y-125714285D01*
X160663571Y-125357142D01*
X160592142Y-125214285D01*
X160449285Y-125142857D01*
X160306428Y-125142857D01*
X160163571Y-125214285D01*
X160092142Y-125357142D01*
X160092142Y-125714285D01*
X160020714Y-125857142D01*
X160663571Y-126571428D02*
X159163571Y-126571428D01*
X160092142Y-126714285D02*
X160663571Y-127142857D01*
X159663571Y-127142857D02*
X160235000Y-126571428D01*
X160663571Y-128000000D02*
X160592142Y-127857142D01*
X160520714Y-127785714D01*
X160377857Y-127714285D01*
X159949285Y-127714285D01*
X159806428Y-127785714D01*
X159735000Y-127857142D01*
X159663571Y-128000000D01*
X159663571Y-128214285D01*
X159735000Y-128357142D01*
X159806428Y-128428571D01*
X159949285Y-128500000D01*
X160377857Y-128500000D01*
X160520714Y-128428571D01*
X160592142Y-128357142D01*
X160663571Y-128214285D01*
X160663571Y-128000000D01*
X159663571Y-129785714D02*
X160663571Y-129785714D01*
X159663571Y-129142857D02*
X160449285Y-129142857D01*
X160592142Y-129214285D01*
X160663571Y-129357142D01*
X160663571Y-129571428D01*
X160592142Y-129714285D01*
X160520714Y-129785714D01*
X159663571Y-130285714D02*
X159663571Y-130857142D01*
X159163571Y-130500000D02*
X160449285Y-130500000D01*
X160592142Y-130571428D01*
X160663571Y-130714285D01*
X160663571Y-130857142D01*
X160520714Y-133357142D02*
X160592142Y-133285714D01*
X160663571Y-133071428D01*
X160663571Y-132928571D01*
X160592142Y-132714285D01*
X160449285Y-132571428D01*
X160306428Y-132500000D01*
X160020714Y-132428571D01*
X159806428Y-132428571D01*
X159520714Y-132500000D01*
X159377857Y-132571428D01*
X159235000Y-132714285D01*
X159163571Y-132928571D01*
X159163571Y-133071428D01*
X159235000Y-133285714D01*
X159306428Y-133357142D01*
X160663571Y-134642857D02*
X159877857Y-134642857D01*
X159735000Y-134571428D01*
X159663571Y-134428571D01*
X159663571Y-134142857D01*
X159735000Y-134000000D01*
X160592142Y-134642857D02*
X160663571Y-134500000D01*
X160663571Y-134142857D01*
X160592142Y-134000000D01*
X160449285Y-133928571D01*
X160306428Y-133928571D01*
X160163571Y-134000000D01*
X160092142Y-134142857D01*
X160092142Y-134500000D01*
X160020714Y-134642857D01*
X160663571Y-135357142D02*
X159663571Y-135357142D01*
X159949285Y-135357142D02*
X159806428Y-135428571D01*
X159735000Y-135500000D01*
X159663571Y-135642857D01*
X159663571Y-135785714D01*
X160663571Y-136928571D02*
X159163571Y-136928571D01*
X160592142Y-136928571D02*
X160663571Y-136785714D01*
X160663571Y-136500000D01*
X160592142Y-136357142D01*
X160520714Y-136285714D01*
X160377857Y-136214285D01*
X159949285Y-136214285D01*
X159806428Y-136285714D01*
X159735000Y-136357142D01*
X159663571Y-136500000D01*
X159663571Y-136785714D01*
X159735000Y-136928571D01*
X162078571Y-119857142D02*
X163078571Y-120214285D01*
X162078571Y-120571428D01*
X163078571Y-121928571D02*
X163078571Y-121071428D01*
X163078571Y-121500000D02*
X161578571Y-121500000D01*
X161792857Y-121357142D01*
X161935714Y-121214285D01*
X162007142Y-121071428D01*
X162935714Y-122571428D02*
X163007142Y-122642857D01*
X163078571Y-122571428D01*
X163007142Y-122500000D01*
X162935714Y-122571428D01*
X163078571Y-122571428D01*
X163078571Y-124071428D02*
X163078571Y-123214285D01*
X163078571Y-123642857D02*
X161578571Y-123642857D01*
X161792857Y-123500000D01*
X161935714Y-123357142D01*
X162007142Y-123214285D01*
X165493571Y-115464285D02*
X163993571Y-115464285D01*
X164565000Y-115464285D02*
X164493571Y-115607142D01*
X164493571Y-115892857D01*
X164565000Y-116035714D01*
X164636428Y-116107142D01*
X164779285Y-116178571D01*
X165207857Y-116178571D01*
X165350714Y-116107142D01*
X165422142Y-116035714D01*
X165493571Y-115892857D01*
X165493571Y-115607142D01*
X165422142Y-115464285D01*
X164493571Y-116678571D02*
X165493571Y-117035714D01*
X164493571Y-117392857D02*
X165493571Y-117035714D01*
X165850714Y-116892857D01*
X165922142Y-116821428D01*
X165993571Y-116678571D01*
X165493571Y-119107142D02*
X163993571Y-119107142D01*
X165493571Y-119964285D01*
X163993571Y-119964285D01*
X165493571Y-120678571D02*
X164493571Y-120678571D01*
X163993571Y-120678571D02*
X164065000Y-120607142D01*
X164136428Y-120678571D01*
X164065000Y-120750000D01*
X163993571Y-120678571D01*
X164136428Y-120678571D01*
X165493571Y-121392857D02*
X163993571Y-121392857D01*
X164922142Y-121535714D02*
X165493571Y-121964285D01*
X164493571Y-121964285D02*
X165065000Y-121392857D01*
X165493571Y-122607142D02*
X164493571Y-122607142D01*
X163993571Y-122607142D02*
X164065000Y-122535714D01*
X164136428Y-122607142D01*
X164065000Y-122678571D01*
X163993571Y-122607142D01*
X164136428Y-122607142D01*
X164493571Y-123107142D02*
X164493571Y-123678571D01*
X163993571Y-123321428D02*
X165279285Y-123321428D01*
X165422142Y-123392857D01*
X165493571Y-123535714D01*
X165493571Y-123678571D01*
X165493571Y-124821428D02*
X164707857Y-124821428D01*
X164565000Y-124750000D01*
X164493571Y-124607142D01*
X164493571Y-124321428D01*
X164565000Y-124178571D01*
X165422142Y-124821428D02*
X165493571Y-124678571D01*
X165493571Y-124321428D01*
X165422142Y-124178571D01*
X165279285Y-124107142D01*
X165136428Y-124107142D01*
X164993571Y-124178571D01*
X164922142Y-124321428D01*
X164922142Y-124678571D01*
X164850714Y-124821428D01*
X165493571Y-125750000D02*
X165422142Y-125607142D01*
X165279285Y-125535714D01*
X163993571Y-125535714D01*
X165493571Y-126321428D02*
X164493571Y-126321428D01*
X163993571Y-126321428D02*
X164065000Y-126250000D01*
X164136428Y-126321428D01*
X164065000Y-126392857D01*
X163993571Y-126321428D01*
X164136428Y-126321428D01*
X164493571Y-126821428D02*
X164493571Y-127392857D01*
X163993571Y-127035714D02*
X165279285Y-127035714D01*
X165422142Y-127107142D01*
X165493571Y-127250000D01*
X165493571Y-127392857D01*
X165493571Y-128535714D02*
X164707857Y-128535714D01*
X164565000Y-128464285D01*
X164493571Y-128321428D01*
X164493571Y-128035714D01*
X164565000Y-127892857D01*
X165422142Y-128535714D02*
X165493571Y-128392857D01*
X165493571Y-128035714D01*
X165422142Y-127892857D01*
X165279285Y-127821428D01*
X165136428Y-127821428D01*
X164993571Y-127892857D01*
X164922142Y-128035714D01*
X164922142Y-128392857D01*
X164850714Y-128535714D01*
D10*
X159837619Y-86724285D02*
X159790000Y-86771904D01*
X159742380Y-86867142D01*
X159742380Y-87105238D01*
X159790000Y-87200476D01*
X159837619Y-87248095D01*
X159932857Y-87295714D01*
X160028095Y-87295714D01*
X160170952Y-87248095D01*
X160742380Y-86676666D01*
X160742380Y-87295714D01*
X157685714Y-88064761D02*
X157685714Y-88445714D01*
X157352380Y-88207619D02*
X158209523Y-88207619D01*
X158304761Y-88255238D01*
X158352380Y-88350476D01*
X158352380Y-88445714D01*
X158352380Y-88921904D02*
X158304761Y-88826666D01*
X158257142Y-88779047D01*
X158161904Y-88731428D01*
X157876190Y-88731428D01*
X157780952Y-88779047D01*
X157733333Y-88826666D01*
X157685714Y-88921904D01*
X157685714Y-89064761D01*
X157733333Y-89160000D01*
X157780952Y-89207619D01*
X157876190Y-89255238D01*
X158161904Y-89255238D01*
X158257142Y-89207619D01*
X158304761Y-89160000D01*
X158352380Y-89064761D01*
X158352380Y-88921904D01*
X157685714Y-89683809D02*
X158685714Y-89683809D01*
X157733333Y-89683809D02*
X157685714Y-89779047D01*
X157685714Y-89969523D01*
X157733333Y-90064761D01*
X157780952Y-90112380D01*
X157876190Y-90160000D01*
X158161904Y-90160000D01*
X158257142Y-90112380D01*
X158304761Y-90064761D01*
X158352380Y-89969523D01*
X158352380Y-89779047D01*
X158304761Y-89683809D01*
X174655714Y-85152380D02*
X175465238Y-85152380D01*
X175560476Y-85104761D01*
X175608095Y-85057142D01*
X175655714Y-84961904D01*
X175655714Y-84819047D01*
X175608095Y-84723809D01*
X175274761Y-85152380D02*
X175322380Y-85057142D01*
X175322380Y-84866666D01*
X175274761Y-84771428D01*
X175227142Y-84723809D01*
X175131904Y-84676190D01*
X174846190Y-84676190D01*
X174750952Y-84723809D01*
X174703333Y-84771428D01*
X174655714Y-84866666D01*
X174655714Y-85057142D01*
X174703333Y-85152380D01*
X175322380Y-85628571D02*
X174655714Y-85628571D01*
X174322380Y-85628571D02*
X174370000Y-85580952D01*
X174417619Y-85628571D01*
X174370000Y-85676190D01*
X174322380Y-85628571D01*
X174417619Y-85628571D01*
X174655714Y-85961904D02*
X174655714Y-86342857D01*
X174322380Y-86104761D02*
X175179523Y-86104761D01*
X175274761Y-86152380D01*
X175322380Y-86247619D01*
X175322380Y-86342857D01*
X175322380Y-86676190D02*
X174322380Y-86676190D01*
X175322380Y-87104761D02*
X174798571Y-87104761D01*
X174703333Y-87057142D01*
X174655714Y-86961904D01*
X174655714Y-86819047D01*
X174703333Y-86723809D01*
X174750952Y-86676190D01*
X174655714Y-88009523D02*
X175322380Y-88009523D01*
X174655714Y-87580952D02*
X175179523Y-87580952D01*
X175274761Y-87628571D01*
X175322380Y-87723809D01*
X175322380Y-87866666D01*
X175274761Y-87961904D01*
X175227142Y-88009523D01*
X175322380Y-88485714D02*
X174322380Y-88485714D01*
X174703333Y-88485714D02*
X174655714Y-88580952D01*
X174655714Y-88771428D01*
X174703333Y-88866666D01*
X174750952Y-88914285D01*
X174846190Y-88961904D01*
X175131904Y-88961904D01*
X175227142Y-88914285D01*
X175274761Y-88866666D01*
X175322380Y-88771428D01*
X175322380Y-88580952D01*
X175274761Y-88485714D01*
X175227142Y-89390476D02*
X175274761Y-89438095D01*
X175322380Y-89390476D01*
X175274761Y-89342857D01*
X175227142Y-89390476D01*
X175322380Y-89390476D01*
X175274761Y-90295238D02*
X175322380Y-90200000D01*
X175322380Y-90009523D01*
X175274761Y-89914285D01*
X175227142Y-89866666D01*
X175131904Y-89819047D01*
X174846190Y-89819047D01*
X174750952Y-89866666D01*
X174703333Y-89914285D01*
X174655714Y-90009523D01*
X174655714Y-90200000D01*
X174703333Y-90295238D01*
X175322380Y-90866666D02*
X175274761Y-90771428D01*
X175227142Y-90723809D01*
X175131904Y-90676190D01*
X174846190Y-90676190D01*
X174750952Y-90723809D01*
X174703333Y-90771428D01*
X174655714Y-90866666D01*
X174655714Y-91009523D01*
X174703333Y-91104761D01*
X174750952Y-91152380D01*
X174846190Y-91200000D01*
X175131904Y-91200000D01*
X175227142Y-91152380D01*
X175274761Y-91104761D01*
X175322380Y-91009523D01*
X175322380Y-90866666D01*
X175322380Y-91628571D02*
X174655714Y-91628571D01*
X174750952Y-91628571D02*
X174703333Y-91676190D01*
X174655714Y-91771428D01*
X174655714Y-91914285D01*
X174703333Y-92009523D01*
X174798571Y-92057142D01*
X175322380Y-92057142D01*
X174798571Y-92057142D02*
X174703333Y-92104761D01*
X174655714Y-92200000D01*
X174655714Y-92342857D01*
X174703333Y-92438095D01*
X174798571Y-92485714D01*
X175322380Y-92485714D01*
X174274761Y-93676190D02*
X175560476Y-92819047D01*
X174655714Y-94009523D02*
X175322380Y-94009523D01*
X174750952Y-94009523D02*
X174703333Y-94057142D01*
X174655714Y-94152380D01*
X174655714Y-94295238D01*
X174703333Y-94390476D01*
X174798571Y-94438095D01*
X175322380Y-94438095D01*
X175322380Y-94914285D02*
X174655714Y-94914285D01*
X174322380Y-94914285D02*
X174370000Y-94866666D01*
X174417619Y-94914285D01*
X174370000Y-94961904D01*
X174322380Y-94914285D01*
X174417619Y-94914285D01*
X175322380Y-95390476D02*
X174322380Y-95390476D01*
X174941428Y-95485714D02*
X175322380Y-95771428D01*
X174655714Y-95771428D02*
X175036666Y-95390476D01*
X175322380Y-96200000D02*
X174655714Y-96200000D01*
X174322380Y-96200000D02*
X174370000Y-96152380D01*
X174417619Y-96200000D01*
X174370000Y-96247619D01*
X174322380Y-96200000D01*
X174417619Y-96200000D01*
X174655714Y-96533333D02*
X174655714Y-96914285D01*
X174322380Y-96676190D02*
X175179523Y-96676190D01*
X175274761Y-96723809D01*
X175322380Y-96819047D01*
X175322380Y-96914285D01*
X175322380Y-97676190D02*
X174798571Y-97676190D01*
X174703333Y-97628571D01*
X174655714Y-97533333D01*
X174655714Y-97342857D01*
X174703333Y-97247619D01*
X175274761Y-97676190D02*
X175322380Y-97580952D01*
X175322380Y-97342857D01*
X175274761Y-97247619D01*
X175179523Y-97200000D01*
X175084285Y-97200000D01*
X174989047Y-97247619D01*
X174941428Y-97342857D01*
X174941428Y-97580952D01*
X174893809Y-97676190D01*
X175322380Y-98295238D02*
X175274761Y-98200000D01*
X175179523Y-98152380D01*
X174322380Y-98152380D01*
X175322380Y-98676190D02*
X174655714Y-98676190D01*
X174322380Y-98676190D02*
X174370000Y-98628571D01*
X174417619Y-98676190D01*
X174370000Y-98723809D01*
X174322380Y-98676190D01*
X174417619Y-98676190D01*
X174655714Y-99009523D02*
X174655714Y-99390476D01*
X174322380Y-99152380D02*
X175179523Y-99152380D01*
X175274761Y-99200000D01*
X175322380Y-99295238D01*
X175322380Y-99390476D01*
X175322380Y-100152380D02*
X174798571Y-100152380D01*
X174703333Y-100104761D01*
X174655714Y-100009523D01*
X174655714Y-99819047D01*
X174703333Y-99723809D01*
X175274761Y-100152380D02*
X175322380Y-100057142D01*
X175322380Y-99819047D01*
X175274761Y-99723809D01*
X175179523Y-99676190D01*
X175084285Y-99676190D01*
X174989047Y-99723809D01*
X174941428Y-99819047D01*
X174941428Y-100057142D01*
X174893809Y-100152380D01*
X174274761Y-101342857D02*
X175560476Y-100485714D01*
X174655714Y-101580952D02*
X175322380Y-101771428D01*
X174846190Y-101961904D01*
X175322380Y-102152380D01*
X174655714Y-102342857D01*
X175322380Y-103152380D02*
X174798571Y-103152380D01*
X174703333Y-103104761D01*
X174655714Y-103009523D01*
X174655714Y-102819047D01*
X174703333Y-102723809D01*
X175274761Y-103152380D02*
X175322380Y-103057142D01*
X175322380Y-102819047D01*
X175274761Y-102723809D01*
X175179523Y-102676190D01*
X175084285Y-102676190D01*
X174989047Y-102723809D01*
X174941428Y-102819047D01*
X174941428Y-103057142D01*
X174893809Y-103152380D01*
X174655714Y-103533333D02*
X175322380Y-103771428D01*
X174655714Y-104009523D01*
X175274761Y-104771428D02*
X175322380Y-104676190D01*
X175322380Y-104485714D01*
X175274761Y-104390476D01*
X175179523Y-104342857D01*
X174798571Y-104342857D01*
X174703333Y-104390476D01*
X174655714Y-104485714D01*
X174655714Y-104676190D01*
X174703333Y-104771428D01*
X174798571Y-104819047D01*
X174893809Y-104819047D01*
X174989047Y-104342857D01*
X175322380Y-105247619D02*
X174322380Y-105247619D01*
X174703333Y-105247619D02*
X174655714Y-105342857D01*
X174655714Y-105533333D01*
X174703333Y-105628571D01*
X174750952Y-105676190D01*
X174846190Y-105723809D01*
X175131904Y-105723809D01*
X175227142Y-105676190D01*
X175274761Y-105628571D01*
X175322380Y-105533333D01*
X175322380Y-105342857D01*
X175274761Y-105247619D01*
X175322380Y-106295238D02*
X175274761Y-106200000D01*
X175179523Y-106152380D01*
X174322380Y-106152380D01*
X175322380Y-107104761D02*
X174798571Y-107104761D01*
X174703333Y-107057142D01*
X174655714Y-106961904D01*
X174655714Y-106771428D01*
X174703333Y-106676190D01*
X175274761Y-107104761D02*
X175322380Y-107009523D01*
X175322380Y-106771428D01*
X175274761Y-106676190D01*
X175179523Y-106628571D01*
X175084285Y-106628571D01*
X174989047Y-106676190D01*
X174941428Y-106771428D01*
X174941428Y-107009523D01*
X174893809Y-107104761D01*
X175274761Y-107533333D02*
X175322380Y-107628571D01*
X175322380Y-107819047D01*
X175274761Y-107914285D01*
X175179523Y-107961904D01*
X175131904Y-107961904D01*
X175036666Y-107914285D01*
X174989047Y-107819047D01*
X174989047Y-107676190D01*
X174941428Y-107580952D01*
X174846190Y-107533333D01*
X174798571Y-107533333D01*
X174703333Y-107580952D01*
X174655714Y-107676190D01*
X174655714Y-107819047D01*
X174703333Y-107914285D01*
X174655714Y-108247619D02*
X174655714Y-108628571D01*
X174322380Y-108390476D02*
X175179523Y-108390476D01*
X175274761Y-108438095D01*
X175322380Y-108533333D01*
X175322380Y-108628571D01*
X175274761Y-109342857D02*
X175322380Y-109247619D01*
X175322380Y-109057142D01*
X175274761Y-108961904D01*
X175179523Y-108914285D01*
X174798571Y-108914285D01*
X174703333Y-108961904D01*
X174655714Y-109057142D01*
X174655714Y-109247619D01*
X174703333Y-109342857D01*
X174798571Y-109390476D01*
X174893809Y-109390476D01*
X174989047Y-108914285D01*
X175322380Y-109819047D02*
X174655714Y-109819047D01*
X174846190Y-109819047D02*
X174750952Y-109866666D01*
X174703333Y-109914285D01*
X174655714Y-110009523D01*
X174655714Y-110104761D01*
X174941428Y-110438095D02*
X174941428Y-111200000D01*
X174655714Y-111533333D02*
X174655714Y-111914285D01*
X174322380Y-111676190D02*
X175179523Y-111676190D01*
X175274761Y-111723809D01*
X175322380Y-111819047D01*
X175322380Y-111914285D01*
X175322380Y-112390476D02*
X175274761Y-112295238D01*
X175227142Y-112247619D01*
X175131904Y-112200000D01*
X174846190Y-112200000D01*
X174750952Y-112247619D01*
X174703333Y-112295238D01*
X174655714Y-112390476D01*
X174655714Y-112533333D01*
X174703333Y-112628571D01*
X174750952Y-112676190D01*
X174846190Y-112723809D01*
X175131904Y-112723809D01*
X175227142Y-112676190D01*
X175274761Y-112628571D01*
X175322380Y-112533333D01*
X175322380Y-112390476D01*
X174941428Y-113152380D02*
X174941428Y-113914285D01*
X175322380Y-114390476D02*
X174655714Y-114390476D01*
X174750952Y-114390476D02*
X174703333Y-114438095D01*
X174655714Y-114533333D01*
X174655714Y-114676190D01*
X174703333Y-114771428D01*
X174798571Y-114819047D01*
X175322380Y-114819047D01*
X174798571Y-114819047D02*
X174703333Y-114866666D01*
X174655714Y-114961904D01*
X174655714Y-115104761D01*
X174703333Y-115200000D01*
X174798571Y-115247619D01*
X175322380Y-115247619D01*
X175322380Y-115723809D02*
X174655714Y-115723809D01*
X174322380Y-115723809D02*
X174370000Y-115676190D01*
X174417619Y-115723809D01*
X174370000Y-115771428D01*
X174322380Y-115723809D01*
X174417619Y-115723809D01*
X175322380Y-116628571D02*
X174322380Y-116628571D01*
X175274761Y-116628571D02*
X175322380Y-116533333D01*
X175322380Y-116342857D01*
X175274761Y-116247619D01*
X175227142Y-116200000D01*
X175131904Y-116152380D01*
X174846190Y-116152380D01*
X174750952Y-116200000D01*
X174703333Y-116247619D01*
X174655714Y-116342857D01*
X174655714Y-116533333D01*
X174703333Y-116628571D01*
X175322380Y-117104761D02*
X174655714Y-117104761D01*
X174322380Y-117104761D02*
X174370000Y-117057142D01*
X174417619Y-117104761D01*
X174370000Y-117152380D01*
X174322380Y-117104761D01*
X174417619Y-117104761D01*
X174941428Y-117580952D02*
X174941428Y-118342857D01*
X175322380Y-118819047D02*
X174655714Y-118819047D01*
X174750952Y-118819047D02*
X174703333Y-118866666D01*
X174655714Y-118961904D01*
X174655714Y-119104761D01*
X174703333Y-119200000D01*
X174798571Y-119247619D01*
X175322380Y-119247619D01*
X174798571Y-119247619D02*
X174703333Y-119295238D01*
X174655714Y-119390476D01*
X174655714Y-119533333D01*
X174703333Y-119628571D01*
X174798571Y-119676190D01*
X175322380Y-119676190D01*
X175322380Y-120295238D02*
X175274761Y-120200000D01*
X175227142Y-120152380D01*
X175131904Y-120104761D01*
X174846190Y-120104761D01*
X174750952Y-120152380D01*
X174703333Y-120200000D01*
X174655714Y-120295238D01*
X174655714Y-120438095D01*
X174703333Y-120533333D01*
X174750952Y-120580952D01*
X174846190Y-120628571D01*
X175131904Y-120628571D01*
X175227142Y-120580952D01*
X175274761Y-120533333D01*
X175322380Y-120438095D01*
X175322380Y-120295238D01*
X175322380Y-121485714D02*
X174322380Y-121485714D01*
X175274761Y-121485714D02*
X175322380Y-121390476D01*
X175322380Y-121200000D01*
X175274761Y-121104761D01*
X175227142Y-121057142D01*
X175131904Y-121009523D01*
X174846190Y-121009523D01*
X174750952Y-121057142D01*
X174703333Y-121104761D01*
X174655714Y-121200000D01*
X174655714Y-121390476D01*
X174703333Y-121485714D01*
X174655714Y-122390476D02*
X175322380Y-122390476D01*
X174655714Y-121961904D02*
X175179523Y-121961904D01*
X175274761Y-122009523D01*
X175322380Y-122104761D01*
X175322380Y-122247619D01*
X175274761Y-122342857D01*
X175227142Y-122390476D01*
X175322380Y-123009523D02*
X175274761Y-122914285D01*
X175179523Y-122866666D01*
X174322380Y-122866666D01*
X175274761Y-123771428D02*
X175322380Y-123676190D01*
X175322380Y-123485714D01*
X175274761Y-123390476D01*
X175179523Y-123342857D01*
X174798571Y-123342857D01*
X174703333Y-123390476D01*
X174655714Y-123485714D01*
X174655714Y-123676190D01*
X174703333Y-123771428D01*
X174798571Y-123819047D01*
X174893809Y-123819047D01*
X174989047Y-123342857D01*
X174941428Y-124247619D02*
X174941428Y-125009523D01*
X175322380Y-125914285D02*
X174798571Y-125914285D01*
X174703333Y-125866666D01*
X174655714Y-125771428D01*
X174655714Y-125580952D01*
X174703333Y-125485714D01*
X175274761Y-125914285D02*
X175322380Y-125819047D01*
X175322380Y-125580952D01*
X175274761Y-125485714D01*
X175179523Y-125438095D01*
X175084285Y-125438095D01*
X174989047Y-125485714D01*
X174941428Y-125580952D01*
X174941428Y-125819047D01*
X174893809Y-125914285D01*
X175322380Y-126819047D02*
X174322380Y-126819047D01*
X175274761Y-126819047D02*
X175322380Y-126723809D01*
X175322380Y-126533333D01*
X175274761Y-126438095D01*
X175227142Y-126390476D01*
X175131904Y-126342857D01*
X174846190Y-126342857D01*
X174750952Y-126390476D01*
X174703333Y-126438095D01*
X174655714Y-126533333D01*
X174655714Y-126723809D01*
X174703333Y-126819047D01*
X175322380Y-127723809D02*
X174798571Y-127723809D01*
X174703333Y-127676190D01*
X174655714Y-127580952D01*
X174655714Y-127390476D01*
X174703333Y-127295238D01*
X175274761Y-127723809D02*
X175322380Y-127628571D01*
X175322380Y-127390476D01*
X175274761Y-127295238D01*
X175179523Y-127247619D01*
X175084285Y-127247619D01*
X174989047Y-127295238D01*
X174941428Y-127390476D01*
X174941428Y-127628571D01*
X174893809Y-127723809D01*
X174655714Y-128200000D02*
X175655714Y-128200000D01*
X174703333Y-128200000D02*
X174655714Y-128295238D01*
X174655714Y-128485714D01*
X174703333Y-128580952D01*
X174750952Y-128628571D01*
X174846190Y-128676190D01*
X175131904Y-128676190D01*
X175227142Y-128628571D01*
X175274761Y-128580952D01*
X175322380Y-128485714D01*
X175322380Y-128295238D01*
X175274761Y-128200000D01*
X174655714Y-128961904D02*
X174655714Y-129342857D01*
X174322380Y-129104761D02*
X175179523Y-129104761D01*
X175274761Y-129152380D01*
X175322380Y-129247619D01*
X175322380Y-129342857D01*
X175274761Y-130057142D02*
X175322380Y-129961904D01*
X175322380Y-129771428D01*
X175274761Y-129676190D01*
X175179523Y-129628571D01*
X174798571Y-129628571D01*
X174703333Y-129676190D01*
X174655714Y-129771428D01*
X174655714Y-129961904D01*
X174703333Y-130057142D01*
X174798571Y-130104761D01*
X174893809Y-130104761D01*
X174989047Y-129628571D01*
X175322380Y-130533333D02*
X174655714Y-130533333D01*
X174846190Y-130533333D02*
X174750952Y-130580952D01*
X174703333Y-130628571D01*
X174655714Y-130723809D01*
X174655714Y-130819047D01*
X165752380Y-88202857D02*
X164752380Y-88202857D01*
X165133333Y-88202857D02*
X165085714Y-88298095D01*
X165085714Y-88488571D01*
X165133333Y-88583809D01*
X165180952Y-88631428D01*
X165276190Y-88679047D01*
X165561904Y-88679047D01*
X165657142Y-88631428D01*
X165704761Y-88583809D01*
X165752380Y-88488571D01*
X165752380Y-88298095D01*
X165704761Y-88202857D01*
X165752380Y-89250476D02*
X165704761Y-89155238D01*
X165657142Y-89107619D01*
X165561904Y-89060000D01*
X165276190Y-89060000D01*
X165180952Y-89107619D01*
X165133333Y-89155238D01*
X165085714Y-89250476D01*
X165085714Y-89393333D01*
X165133333Y-89488571D01*
X165180952Y-89536190D01*
X165276190Y-89583809D01*
X165561904Y-89583809D01*
X165657142Y-89536190D01*
X165704761Y-89488571D01*
X165752380Y-89393333D01*
X165752380Y-89250476D01*
X165085714Y-89869523D02*
X165085714Y-90250476D01*
X164752380Y-90012380D02*
X165609523Y-90012380D01*
X165704761Y-90060000D01*
X165752380Y-90155238D01*
X165752380Y-90250476D01*
X165085714Y-90440952D02*
X165085714Y-90821904D01*
X164752380Y-90583809D02*
X165609523Y-90583809D01*
X165704761Y-90631428D01*
X165752380Y-90726666D01*
X165752380Y-90821904D01*
X165752380Y-91298095D02*
X165704761Y-91202857D01*
X165657142Y-91155238D01*
X165561904Y-91107619D01*
X165276190Y-91107619D01*
X165180952Y-91155238D01*
X165133333Y-91202857D01*
X165085714Y-91298095D01*
X165085714Y-91440952D01*
X165133333Y-91536190D01*
X165180952Y-91583809D01*
X165276190Y-91631428D01*
X165561904Y-91631428D01*
X165657142Y-91583809D01*
X165704761Y-91536190D01*
X165752380Y-91440952D01*
X165752380Y-91298095D01*
X165752380Y-92060000D02*
X165085714Y-92060000D01*
X165180952Y-92060000D02*
X165133333Y-92107619D01*
X165085714Y-92202857D01*
X165085714Y-92345714D01*
X165133333Y-92440952D01*
X165228571Y-92488571D01*
X165752380Y-92488571D01*
X165228571Y-92488571D02*
X165133333Y-92536190D01*
X165085714Y-92631428D01*
X165085714Y-92774285D01*
X165133333Y-92869523D01*
X165228571Y-92917142D01*
X165752380Y-92917142D01*
X163442380Y-87295714D02*
X163442380Y-86724285D01*
X163442380Y-87010000D02*
X162442380Y-87010000D01*
X162585238Y-86914761D01*
X162680476Y-86819523D01*
X162728095Y-86724285D01*
%LPC*%
D13*
%TO.C,J7*%
X168700000Y-89800000D03*
D14*
X171240000Y-89800000D03*
X168700000Y-92340000D03*
X171240000Y-92340000D03*
X168700000Y-94880000D03*
X171240000Y-94880000D03*
X168700000Y-97420000D03*
X171240000Y-97420000D03*
X168700000Y-99960000D03*
X171240000Y-99960000D03*
X168700000Y-102500000D03*
X171240000Y-102500000D03*
X168700000Y-105040000D03*
X171240000Y-105040000D03*
X168700000Y-107580000D03*
X171240000Y-107580000D03*
X168700000Y-110120000D03*
X171240000Y-110120000D03*
X168700000Y-112660000D03*
X171240000Y-112660000D03*
X168700000Y-115200000D03*
X171240000Y-115200000D03*
X168700000Y-117740000D03*
X171240000Y-117740000D03*
X168700000Y-120280000D03*
X171240000Y-120280000D03*
%TD*%
D15*
%TO.C,H1*%
X181216000Y-57100000D03*
X181216000Y-142500000D03*
%TD*%
D16*
%TO.C,J1*%
X180300000Y-80190000D03*
X188200000Y-78190000D03*
X185800000Y-80190000D03*
%TD*%
D17*
%TO.C,R4*%
X164490000Y-77600000D03*
D18*
X172110000Y-77600000D03*
%TD*%
D19*
%TO.C,U1*%
X167160000Y-69100000D03*
D20*
X167160000Y-66560000D03*
X167160000Y-64020000D03*
X159540000Y-64020000D03*
X159540000Y-66560000D03*
X159540000Y-69100000D03*
%TD*%
D21*
%TO.C,J3*%
X185580000Y-118050000D03*
D22*
X181080000Y-118050000D03*
%TD*%
D17*
%TO.C,R3*%
X164440000Y-81190000D03*
D18*
X172060000Y-81190000D03*
%TD*%
D23*
%TO.C,D1*%
X171070000Y-69649300D03*
D18*
X171070000Y-64569300D03*
%TD*%
D16*
%TO.C,J2*%
X180300000Y-67480000D03*
X188200000Y-65480000D03*
X185800000Y-67480000D03*
%TD*%
D21*
%TO.C,J4*%
X185580000Y-131400000D03*
D22*
X181080000Y-131400000D03*
%TD*%
D17*
%TO.C,R2*%
X164440000Y-74060000D03*
D18*
X172060000Y-74060000D03*
%TD*%
D21*
%TO.C,J5*%
X185580000Y-91350000D03*
D22*
X181080000Y-91350000D03*
%TD*%
D17*
%TO.C,R1*%
X159930000Y-81240000D03*
D18*
X159930000Y-73620000D03*
%TD*%
D21*
%TO.C,J6*%
X185580000Y-104700000D03*
D22*
X181080000Y-104700000D03*
%TD*%
M02*
