M48
; DRILL file {KiCad (6.0.7)} date Tue Sep 20 22:55:45 2022
; FORMAT={-:-/ absolute / inch / decimal}
; #@! TF.CreationDate,2022-09-20T22:55:45-07:00
; #@! TF.GenerationSoftware,Kicad,Pcbnew,(6.0.7)
; #@! TF.FileFunction,Plated,1,2,PTH
FMAT,2
INCH
; #@! TA.AperFunction,Plated,PTH,ComponentDrill
T1C0.0291
; #@! TA.AperFunction,Plated,PTH,ComponentDrill
T2C0.0315
; #@! TA.AperFunction,Plated,PTH,ComponentDrill
T3C0.0394
; #@! TA.AperFunction,Plated,PTH,ComponentDrill
T4C0.0512
; #@! TA.AperFunction,Plated,PTH,ComponentDrill
T5C0.1260
%
G90
G05
T1
X6.2811Y-2.5205
X6.2811Y-2.6205
X6.2811Y-2.7205
X6.5811Y-2.5205
X6.5811Y-2.6205
X6.5811Y-2.7205
T2
X6.2965Y-2.8984
X6.2965Y-3.1984
X6.474Y-2.9157
X6.474Y-3.1965
X6.476Y-3.0551
X6.735Y-2.5421
X6.735Y-2.7421
X6.774Y-2.9157
X6.774Y-3.1965
X6.776Y-3.0551
T3
X6.6417Y-3.5354
X6.6417Y-3.6354
X6.6417Y-3.7354
X6.6417Y-3.8354
X6.6417Y-3.9354
X6.6417Y-4.0354
X6.6417Y-4.1354
X6.6417Y-4.2354
X6.6417Y-4.3354
X6.6417Y-4.4354
X6.6417Y-4.5354
X6.6417Y-4.6354
X6.6417Y-4.7354
X6.7417Y-3.5354
X6.7417Y-3.6354
X6.7417Y-3.7354
X6.7417Y-3.8354
X6.7417Y-3.9354
X6.7417Y-4.0354
X6.7417Y-4.1354
X6.7417Y-4.2354
X6.7417Y-4.3354
X6.7417Y-4.4354
X6.7417Y-4.5354
X6.7417Y-4.6354
X6.7417Y-4.7354
T5
X7.1345Y-2.248
X7.1345Y-5.6102
T3
G00X7.0984Y-2.637
M15
G01X7.0984Y-2.6764
M16
G05
G00X7.0984Y-3.1374
M15
G01X7.0984Y-3.1768
M16
G05
G00X7.1035Y-3.5965
M15
G01X7.1547Y-3.5965
M16
G05
G00X7.1035Y-4.122
M15
G01X7.1547Y-4.122
M16
G05
G00X7.1035Y-4.6476
M15
G01X7.1547Y-4.6476
M16
G05
G00X7.1035Y-5.1732
M15
G01X7.1547Y-5.1732
M16
G05
G00X7.315Y-2.637
M15
G01X7.315Y-2.6764
M16
G05
G00X7.315Y-3.1374
M15
G01X7.315Y-3.1768
M16
G05
G00X7.4094Y-2.5583
M15
G01X7.4094Y-2.5976
M16
G05
G00X7.4094Y-3.0587
M15
G01X7.4094Y-3.098
M16
G05
T4
G00X7.3063Y-3.5551
M15
G01X7.3063Y-3.6378
M16
G05
G00X7.3063Y-4.0807
M15
G01X7.3063Y-4.1634
M16
G05
G00X7.3063Y-4.6063
M15
G01X7.3063Y-4.689
M16
G05
G00X7.3063Y-5.1319
M15
G01X7.3063Y-5.2146
M16
G05
T0
M30
