%TF.GenerationSoftware,KiCad,Pcbnew,(6.0.7)*%
%TF.CreationDate,2022-09-20T22:55:45-07:00*%
%TF.ProjectId,waveblaster-to-midi-module,77617665-626c-4617-9374-65722d746f2d,rev?*%
%TF.SameCoordinates,PX525bfc0PY8670810*%
%TF.FileFunction,Other,Comment*%
%FSLAX46Y46*%
G04 Gerber Fmt 4.6, Leading zero omitted, Abs format (unit mm)*
G04 Created by KiCad (PCBNEW (6.0.7)) date 2022-09-20 22:55:45*
%MOMM*%
%LPD*%
G01*
G04 APERTURE LIST*
%ADD10C,0.150000*%
%ADD11C,0.100000*%
%ADD12C,0.120000*%
G04 APERTURE END LIST*
D10*
X218435000Y-149470000D02*
X218435000Y-153280000D01*
X200020000Y-149470000D02*
X200020000Y-153280000D01*
X211767500Y-35170000D02*
X211767500Y-40504000D01*
X197480000Y-44631500D02*
X201607500Y-40504000D01*
X215895000Y-44631500D02*
X215895000Y-146930000D01*
X218435000Y-153280000D02*
X200020000Y-153280000D01*
X197480000Y-146930000D02*
X197480000Y-44631500D01*
X211767500Y-35170000D02*
G75*
G03*
X209862500Y-33265000I-1905000J0D01*
G01*
X197480000Y-146930000D02*
X200020000Y-149470000D01*
X209862500Y-33265000D02*
X203512500Y-33265000D01*
X210437500Y-132325000D02*
G75*
G03*
X210437500Y-132325000I-3750000J0D01*
G01*
X215895000Y-146930000D02*
X218435000Y-149470000D01*
X211767500Y-40504000D02*
X215895000Y-44631500D01*
X201607500Y-40504000D02*
X201607500Y-35170000D01*
X203512500Y-33265000D02*
G75*
G03*
X201607500Y-35170000I0J-1905000D01*
G01*
X227302380Y-114937857D02*
X227302380Y-115128333D01*
X227350000Y-115223571D01*
X227397619Y-115271190D01*
X227540476Y-115366428D01*
X227730952Y-115414047D01*
X228111904Y-115414047D01*
X228207142Y-115366428D01*
X228254761Y-115318809D01*
X228302380Y-115223571D01*
X228302380Y-115033095D01*
X228254761Y-114937857D01*
X228207142Y-114890238D01*
X228111904Y-114842619D01*
X227873809Y-114842619D01*
X227778571Y-114890238D01*
X227730952Y-114937857D01*
X227683333Y-115033095D01*
X227683333Y-115223571D01*
X227730952Y-115318809D01*
X227778571Y-115366428D01*
X227873809Y-115414047D01*
X227302380Y-114509285D02*
X227302380Y-113890238D01*
X227683333Y-114223571D01*
X227683333Y-114080714D01*
X227730952Y-113985476D01*
X227778571Y-113937857D01*
X227873809Y-113890238D01*
X228111904Y-113890238D01*
X228207142Y-113937857D01*
X228254761Y-113985476D01*
X228302380Y-114080714D01*
X228302380Y-114366428D01*
X228254761Y-114461666D01*
X228207142Y-114509285D01*
X228207142Y-113461666D02*
X228254761Y-113414047D01*
X228302380Y-113461666D01*
X228254761Y-113509285D01*
X228207142Y-113461666D01*
X228302380Y-113461666D01*
X227635714Y-112556904D02*
X228302380Y-112556904D01*
X227254761Y-112795000D02*
X227969047Y-113033095D01*
X227969047Y-112414047D01*
X228302380Y-111509285D02*
X228302380Y-112080714D01*
X228302380Y-111795000D02*
X227302380Y-111795000D01*
X227445238Y-111890238D01*
X227540476Y-111985476D01*
X227588095Y-112080714D01*
X227302380Y-110890238D02*
X227302380Y-110795000D01*
X227350000Y-110699761D01*
X227397619Y-110652142D01*
X227492857Y-110604523D01*
X227683333Y-110556904D01*
X227921428Y-110556904D01*
X228111904Y-110604523D01*
X228207142Y-110652142D01*
X228254761Y-110699761D01*
X228302380Y-110795000D01*
X228302380Y-110890238D01*
X228254761Y-110985476D01*
X228207142Y-111033095D01*
X228111904Y-111080714D01*
X227921428Y-111128333D01*
X227683333Y-111128333D01*
X227492857Y-111080714D01*
X227397619Y-111033095D01*
X227350000Y-110985476D01*
X227302380Y-110890238D01*
X227302380Y-109937857D02*
X227302380Y-109842619D01*
X227350000Y-109747380D01*
X227397619Y-109699761D01*
X227492857Y-109652142D01*
X227683333Y-109604523D01*
X227921428Y-109604523D01*
X228111904Y-109652142D01*
X228207142Y-109699761D01*
X228254761Y-109747380D01*
X228302380Y-109842619D01*
X228302380Y-109937857D01*
X228254761Y-110033095D01*
X228207142Y-110080714D01*
X228111904Y-110128333D01*
X227921428Y-110175952D01*
X227683333Y-110175952D01*
X227492857Y-110128333D01*
X227397619Y-110080714D01*
X227350000Y-110033095D01*
X227302380Y-109937857D01*
X228302380Y-108414047D02*
X227635714Y-108414047D01*
X227730952Y-108414047D02*
X227683333Y-108366428D01*
X227635714Y-108271190D01*
X227635714Y-108128333D01*
X227683333Y-108033095D01*
X227778571Y-107985476D01*
X228302380Y-107985476D01*
X227778571Y-107985476D02*
X227683333Y-107937857D01*
X227635714Y-107842619D01*
X227635714Y-107699761D01*
X227683333Y-107604523D01*
X227778571Y-107556904D01*
X228302380Y-107556904D01*
X228302380Y-107080714D02*
X227635714Y-107080714D01*
X227730952Y-107080714D02*
X227683333Y-107033095D01*
X227635714Y-106937857D01*
X227635714Y-106795000D01*
X227683333Y-106699761D01*
X227778571Y-106652142D01*
X228302380Y-106652142D01*
X227778571Y-106652142D02*
X227683333Y-106604523D01*
X227635714Y-106509285D01*
X227635714Y-106366428D01*
X227683333Y-106271190D01*
X227778571Y-106223571D01*
X228302380Y-106223571D01*
D11*
X194020000Y-79090000D02*
X229586420Y-79090000D01*
X194020000Y-142500000D02*
X229586420Y-142500000D01*
X229000000Y-79090000D02*
X229000000Y-142500000D01*
X229000000Y-79090000D02*
X229000000Y-142500000D01*
X229000000Y-79090000D02*
X228413579Y-80216504D01*
X229000000Y-79090000D02*
X229586421Y-80216504D01*
X229000000Y-142500000D02*
X229586421Y-141373496D01*
X229000000Y-142500000D02*
X228413579Y-141373496D01*
D10*
X206630952Y-104228571D02*
X206583333Y-104323809D01*
X206535714Y-104371428D01*
X206440476Y-104419047D01*
X206392857Y-104419047D01*
X206297619Y-104371428D01*
X206250000Y-104323809D01*
X206202380Y-104228571D01*
X206202380Y-104038095D01*
X206250000Y-103942857D01*
X206297619Y-103895238D01*
X206392857Y-103847619D01*
X206440476Y-103847619D01*
X206535714Y-103895238D01*
X206583333Y-103942857D01*
X206630952Y-104038095D01*
X206630952Y-104228571D01*
X206678571Y-104323809D01*
X206726190Y-104371428D01*
X206821428Y-104419047D01*
X207011904Y-104419047D01*
X207107142Y-104371428D01*
X207154761Y-104323809D01*
X207202380Y-104228571D01*
X207202380Y-104038095D01*
X207154761Y-103942857D01*
X207107142Y-103895238D01*
X207011904Y-103847619D01*
X206821428Y-103847619D01*
X206726190Y-103895238D01*
X206678571Y-103942857D01*
X206630952Y-104038095D01*
X206202380Y-102942857D02*
X206202380Y-103419047D01*
X206678571Y-103466666D01*
X206630952Y-103419047D01*
X206583333Y-103323809D01*
X206583333Y-103085714D01*
X206630952Y-102990476D01*
X206678571Y-102942857D01*
X206773809Y-102895238D01*
X207011904Y-102895238D01*
X207107142Y-102942857D01*
X207154761Y-102990476D01*
X207202380Y-103085714D01*
X207202380Y-103323809D01*
X207154761Y-103419047D01*
X207107142Y-103466666D01*
X207107142Y-102466666D02*
X207154761Y-102419047D01*
X207202380Y-102466666D01*
X207154761Y-102514285D01*
X207107142Y-102466666D01*
X207202380Y-102466666D01*
X206535714Y-101561904D02*
X207202380Y-101561904D01*
X206154761Y-101800000D02*
X206869047Y-102038095D01*
X206869047Y-101419047D01*
X206202380Y-100847619D02*
X206202380Y-100752380D01*
X206250000Y-100657142D01*
X206297619Y-100609523D01*
X206392857Y-100561904D01*
X206583333Y-100514285D01*
X206821428Y-100514285D01*
X207011904Y-100561904D01*
X207107142Y-100609523D01*
X207154761Y-100657142D01*
X207202380Y-100752380D01*
X207202380Y-100847619D01*
X207154761Y-100942857D01*
X207107142Y-100990476D01*
X207011904Y-101038095D01*
X206821428Y-101085714D01*
X206583333Y-101085714D01*
X206392857Y-101038095D01*
X206297619Y-100990476D01*
X206250000Y-100942857D01*
X206202380Y-100847619D01*
X206202380Y-99895238D02*
X206202380Y-99800000D01*
X206250000Y-99704761D01*
X206297619Y-99657142D01*
X206392857Y-99609523D01*
X206583333Y-99561904D01*
X206821428Y-99561904D01*
X207011904Y-99609523D01*
X207107142Y-99657142D01*
X207154761Y-99704761D01*
X207202380Y-99800000D01*
X207202380Y-99895238D01*
X207154761Y-99990476D01*
X207107142Y-100038095D01*
X207011904Y-100085714D01*
X206821428Y-100133333D01*
X206583333Y-100133333D01*
X206392857Y-100085714D01*
X206297619Y-100038095D01*
X206250000Y-99990476D01*
X206202380Y-99895238D01*
X206202380Y-98942857D02*
X206202380Y-98847619D01*
X206250000Y-98752380D01*
X206297619Y-98704761D01*
X206392857Y-98657142D01*
X206583333Y-98609523D01*
X206821428Y-98609523D01*
X207011904Y-98657142D01*
X207107142Y-98704761D01*
X207154761Y-98752380D01*
X207202380Y-98847619D01*
X207202380Y-98942857D01*
X207154761Y-99038095D01*
X207107142Y-99085714D01*
X207011904Y-99133333D01*
X206821428Y-99180952D01*
X206583333Y-99180952D01*
X206392857Y-99133333D01*
X206297619Y-99085714D01*
X206250000Y-99038095D01*
X206202380Y-98942857D01*
X207202380Y-97419047D02*
X206535714Y-97419047D01*
X206630952Y-97419047D02*
X206583333Y-97371428D01*
X206535714Y-97276190D01*
X206535714Y-97133333D01*
X206583333Y-97038095D01*
X206678571Y-96990476D01*
X207202380Y-96990476D01*
X206678571Y-96990476D02*
X206583333Y-96942857D01*
X206535714Y-96847619D01*
X206535714Y-96704761D01*
X206583333Y-96609523D01*
X206678571Y-96561904D01*
X207202380Y-96561904D01*
X207202380Y-96085714D02*
X206535714Y-96085714D01*
X206630952Y-96085714D02*
X206583333Y-96038095D01*
X206535714Y-95942857D01*
X206535714Y-95800000D01*
X206583333Y-95704761D01*
X206678571Y-95657142D01*
X207202380Y-95657142D01*
X206678571Y-95657142D02*
X206583333Y-95609523D01*
X206535714Y-95514285D01*
X206535714Y-95371428D01*
X206583333Y-95276190D01*
X206678571Y-95228571D01*
X207202380Y-95228571D01*
D11*
X181716000Y-142500000D02*
X208486420Y-142500000D01*
X181716000Y-57100000D02*
X208486420Y-57100000D01*
X207900000Y-142500000D02*
X207900000Y-57100000D01*
X207900000Y-142500000D02*
X207900000Y-57100000D01*
X207900000Y-142500000D02*
X208486421Y-141373496D01*
X207900000Y-142500000D02*
X207313579Y-141373496D01*
X207900000Y-57100000D02*
X207313579Y-58226504D01*
X207900000Y-57100000D02*
X208486421Y-58226504D01*
D10*
X257302380Y-121075238D02*
X257302380Y-121551428D01*
X257778571Y-121599047D01*
X257730952Y-121551428D01*
X257683333Y-121456190D01*
X257683333Y-121218095D01*
X257730952Y-121122857D01*
X257778571Y-121075238D01*
X257873809Y-121027619D01*
X258111904Y-121027619D01*
X258207142Y-121075238D01*
X258254761Y-121122857D01*
X258302380Y-121218095D01*
X258302380Y-121456190D01*
X258254761Y-121551428D01*
X258207142Y-121599047D01*
X258302380Y-120075238D02*
X258302380Y-120646666D01*
X258302380Y-120360952D02*
X257302380Y-120360952D01*
X257445238Y-120456190D01*
X257540476Y-120551428D01*
X257588095Y-120646666D01*
X258207142Y-119646666D02*
X258254761Y-119599047D01*
X258302380Y-119646666D01*
X258254761Y-119694285D01*
X258207142Y-119646666D01*
X258302380Y-119646666D01*
X257302380Y-118980000D02*
X257302380Y-118884761D01*
X257350000Y-118789523D01*
X257397619Y-118741904D01*
X257492857Y-118694285D01*
X257683333Y-118646666D01*
X257921428Y-118646666D01*
X258111904Y-118694285D01*
X258207142Y-118741904D01*
X258254761Y-118789523D01*
X258302380Y-118884761D01*
X258302380Y-118980000D01*
X258254761Y-119075238D01*
X258207142Y-119122857D01*
X258111904Y-119170476D01*
X257921428Y-119218095D01*
X257683333Y-119218095D01*
X257492857Y-119170476D01*
X257397619Y-119122857D01*
X257350000Y-119075238D01*
X257302380Y-118980000D01*
X257635714Y-117789523D02*
X258302380Y-117789523D01*
X257254761Y-118027619D02*
X257969047Y-118265714D01*
X257969047Y-117646666D01*
X257302380Y-117075238D02*
X257302380Y-116980000D01*
X257350000Y-116884761D01*
X257397619Y-116837142D01*
X257492857Y-116789523D01*
X257683333Y-116741904D01*
X257921428Y-116741904D01*
X258111904Y-116789523D01*
X258207142Y-116837142D01*
X258254761Y-116884761D01*
X258302380Y-116980000D01*
X258302380Y-117075238D01*
X258254761Y-117170476D01*
X258207142Y-117218095D01*
X258111904Y-117265714D01*
X257921428Y-117313333D01*
X257683333Y-117313333D01*
X257492857Y-117265714D01*
X257397619Y-117218095D01*
X257350000Y-117170476D01*
X257302380Y-117075238D01*
X257302380Y-116122857D02*
X257302380Y-116027619D01*
X257350000Y-115932380D01*
X257397619Y-115884761D01*
X257492857Y-115837142D01*
X257683333Y-115789523D01*
X257921428Y-115789523D01*
X258111904Y-115837142D01*
X258207142Y-115884761D01*
X258254761Y-115932380D01*
X258302380Y-116027619D01*
X258302380Y-116122857D01*
X258254761Y-116218095D01*
X258207142Y-116265714D01*
X258111904Y-116313333D01*
X257921428Y-116360952D01*
X257683333Y-116360952D01*
X257492857Y-116313333D01*
X257397619Y-116265714D01*
X257350000Y-116218095D01*
X257302380Y-116122857D01*
X258302380Y-114599047D02*
X257635714Y-114599047D01*
X257730952Y-114599047D02*
X257683333Y-114551428D01*
X257635714Y-114456190D01*
X257635714Y-114313333D01*
X257683333Y-114218095D01*
X257778571Y-114170476D01*
X258302380Y-114170476D01*
X257778571Y-114170476D02*
X257683333Y-114122857D01*
X257635714Y-114027619D01*
X257635714Y-113884761D01*
X257683333Y-113789523D01*
X257778571Y-113741904D01*
X258302380Y-113741904D01*
X258302380Y-113265714D02*
X257635714Y-113265714D01*
X257730952Y-113265714D02*
X257683333Y-113218095D01*
X257635714Y-113122857D01*
X257635714Y-112980000D01*
X257683333Y-112884761D01*
X257778571Y-112837142D01*
X258302380Y-112837142D01*
X257778571Y-112837142D02*
X257683333Y-112789523D01*
X257635714Y-112694285D01*
X257635714Y-112551428D01*
X257683333Y-112456190D01*
X257778571Y-112408571D01*
X258302380Y-112408571D01*
D11*
X181716000Y-142500000D02*
X259586420Y-142500000D01*
X181716000Y-91460000D02*
X259586420Y-91460000D01*
X259000000Y-142500000D02*
X259000000Y-91460000D01*
X259000000Y-142500000D02*
X259000000Y-91460000D01*
X259000000Y-142500000D02*
X259586421Y-141373496D01*
X259000000Y-142500000D02*
X258413579Y-141373496D01*
X259000000Y-91460000D02*
X258413579Y-92586504D01*
X259000000Y-91460000D02*
X259586421Y-92586504D01*
D10*
X219397619Y-134949047D02*
X219350000Y-134901428D01*
X219302380Y-134806190D01*
X219302380Y-134568095D01*
X219350000Y-134472857D01*
X219397619Y-134425238D01*
X219492857Y-134377619D01*
X219588095Y-134377619D01*
X219730952Y-134425238D01*
X220302380Y-134996666D01*
X220302380Y-134377619D01*
X219635714Y-133520476D02*
X220302380Y-133520476D01*
X219254761Y-133758571D02*
X219969047Y-133996666D01*
X219969047Y-133377619D01*
X220207142Y-132996666D02*
X220254761Y-132949047D01*
X220302380Y-132996666D01*
X220254761Y-133044285D01*
X220207142Y-132996666D01*
X220302380Y-132996666D01*
X219302380Y-132615714D02*
X219302380Y-131996666D01*
X219683333Y-132330000D01*
X219683333Y-132187142D01*
X219730952Y-132091904D01*
X219778571Y-132044285D01*
X219873809Y-131996666D01*
X220111904Y-131996666D01*
X220207142Y-132044285D01*
X220254761Y-132091904D01*
X220302380Y-132187142D01*
X220302380Y-132472857D01*
X220254761Y-132568095D01*
X220207142Y-132615714D01*
X219635714Y-131139523D02*
X220302380Y-131139523D01*
X219254761Y-131377619D02*
X219969047Y-131615714D01*
X219969047Y-130996666D01*
X219302380Y-130425238D02*
X219302380Y-130330000D01*
X219350000Y-130234761D01*
X219397619Y-130187142D01*
X219492857Y-130139523D01*
X219683333Y-130091904D01*
X219921428Y-130091904D01*
X220111904Y-130139523D01*
X220207142Y-130187142D01*
X220254761Y-130234761D01*
X220302380Y-130330000D01*
X220302380Y-130425238D01*
X220254761Y-130520476D01*
X220207142Y-130568095D01*
X220111904Y-130615714D01*
X219921428Y-130663333D01*
X219683333Y-130663333D01*
X219492857Y-130615714D01*
X219397619Y-130568095D01*
X219350000Y-130520476D01*
X219302380Y-130425238D01*
X219302380Y-129472857D02*
X219302380Y-129377619D01*
X219350000Y-129282380D01*
X219397619Y-129234761D01*
X219492857Y-129187142D01*
X219683333Y-129139523D01*
X219921428Y-129139523D01*
X220111904Y-129187142D01*
X220207142Y-129234761D01*
X220254761Y-129282380D01*
X220302380Y-129377619D01*
X220302380Y-129472857D01*
X220254761Y-129568095D01*
X220207142Y-129615714D01*
X220111904Y-129663333D01*
X219921428Y-129710952D01*
X219683333Y-129710952D01*
X219492857Y-129663333D01*
X219397619Y-129615714D01*
X219350000Y-129568095D01*
X219302380Y-129472857D01*
X220302380Y-127949047D02*
X219635714Y-127949047D01*
X219730952Y-127949047D02*
X219683333Y-127901428D01*
X219635714Y-127806190D01*
X219635714Y-127663333D01*
X219683333Y-127568095D01*
X219778571Y-127520476D01*
X220302380Y-127520476D01*
X219778571Y-127520476D02*
X219683333Y-127472857D01*
X219635714Y-127377619D01*
X219635714Y-127234761D01*
X219683333Y-127139523D01*
X219778571Y-127091904D01*
X220302380Y-127091904D01*
X220302380Y-126615714D02*
X219635714Y-126615714D01*
X219730952Y-126615714D02*
X219683333Y-126568095D01*
X219635714Y-126472857D01*
X219635714Y-126330000D01*
X219683333Y-126234761D01*
X219778571Y-126187142D01*
X220302380Y-126187142D01*
X219778571Y-126187142D02*
X219683333Y-126139523D01*
X219635714Y-126044285D01*
X219635714Y-125901428D01*
X219683333Y-125806190D01*
X219778571Y-125758571D01*
X220302380Y-125758571D01*
D11*
X199580000Y-118160000D02*
X221586420Y-118160000D01*
X199580000Y-142500000D02*
X221586420Y-142500000D01*
X221000000Y-118160000D02*
X221000000Y-142500000D01*
X221000000Y-118160000D02*
X221000000Y-142500000D01*
X221000000Y-118160000D02*
X220413579Y-119286504D01*
X221000000Y-118160000D02*
X221586421Y-119286504D01*
X221000000Y-142500000D02*
X221586421Y-141373496D01*
X221000000Y-142500000D02*
X220413579Y-141373496D01*
D10*
X235302380Y-109106666D02*
X235302380Y-108440000D01*
X236302380Y-108868571D01*
X235302380Y-107630476D02*
X235302380Y-107820952D01*
X235350000Y-107916190D01*
X235397619Y-107963809D01*
X235540476Y-108059047D01*
X235730952Y-108106666D01*
X236111904Y-108106666D01*
X236207142Y-108059047D01*
X236254761Y-108011428D01*
X236302380Y-107916190D01*
X236302380Y-107725714D01*
X236254761Y-107630476D01*
X236207142Y-107582857D01*
X236111904Y-107535238D01*
X235873809Y-107535238D01*
X235778571Y-107582857D01*
X235730952Y-107630476D01*
X235683333Y-107725714D01*
X235683333Y-107916190D01*
X235730952Y-108011428D01*
X235778571Y-108059047D01*
X235873809Y-108106666D01*
X236207142Y-107106666D02*
X236254761Y-107059047D01*
X236302380Y-107106666D01*
X236254761Y-107154285D01*
X236207142Y-107106666D01*
X236302380Y-107106666D01*
X236302380Y-106106666D02*
X236302380Y-106678095D01*
X236302380Y-106392380D02*
X235302380Y-106392380D01*
X235445238Y-106487619D01*
X235540476Y-106582857D01*
X235588095Y-106678095D01*
X235397619Y-105725714D02*
X235350000Y-105678095D01*
X235302380Y-105582857D01*
X235302380Y-105344761D01*
X235350000Y-105249523D01*
X235397619Y-105201904D01*
X235492857Y-105154285D01*
X235588095Y-105154285D01*
X235730952Y-105201904D01*
X236302380Y-105773333D01*
X236302380Y-105154285D01*
X235302380Y-104535238D02*
X235302380Y-104440000D01*
X235350000Y-104344761D01*
X235397619Y-104297142D01*
X235492857Y-104249523D01*
X235683333Y-104201904D01*
X235921428Y-104201904D01*
X236111904Y-104249523D01*
X236207142Y-104297142D01*
X236254761Y-104344761D01*
X236302380Y-104440000D01*
X236302380Y-104535238D01*
X236254761Y-104630476D01*
X236207142Y-104678095D01*
X236111904Y-104725714D01*
X235921428Y-104773333D01*
X235683333Y-104773333D01*
X235492857Y-104725714D01*
X235397619Y-104678095D01*
X235350000Y-104630476D01*
X235302380Y-104535238D01*
X235302380Y-103582857D02*
X235302380Y-103487619D01*
X235350000Y-103392380D01*
X235397619Y-103344761D01*
X235492857Y-103297142D01*
X235683333Y-103249523D01*
X235921428Y-103249523D01*
X236111904Y-103297142D01*
X236207142Y-103344761D01*
X236254761Y-103392380D01*
X236302380Y-103487619D01*
X236302380Y-103582857D01*
X236254761Y-103678095D01*
X236207142Y-103725714D01*
X236111904Y-103773333D01*
X235921428Y-103820952D01*
X235683333Y-103820952D01*
X235492857Y-103773333D01*
X235397619Y-103725714D01*
X235350000Y-103678095D01*
X235302380Y-103582857D01*
X236302380Y-102059047D02*
X235635714Y-102059047D01*
X235730952Y-102059047D02*
X235683333Y-102011428D01*
X235635714Y-101916190D01*
X235635714Y-101773333D01*
X235683333Y-101678095D01*
X235778571Y-101630476D01*
X236302380Y-101630476D01*
X235778571Y-101630476D02*
X235683333Y-101582857D01*
X235635714Y-101487619D01*
X235635714Y-101344761D01*
X235683333Y-101249523D01*
X235778571Y-101201904D01*
X236302380Y-101201904D01*
X236302380Y-100725714D02*
X235635714Y-100725714D01*
X235730952Y-100725714D02*
X235683333Y-100678095D01*
X235635714Y-100582857D01*
X235635714Y-100440000D01*
X235683333Y-100344761D01*
X235778571Y-100297142D01*
X236302380Y-100297142D01*
X235778571Y-100297142D02*
X235683333Y-100249523D01*
X235635714Y-100154285D01*
X235635714Y-100011428D01*
X235683333Y-99916190D01*
X235778571Y-99868571D01*
X236302380Y-99868571D01*
D11*
X193900000Y-66380000D02*
X237586420Y-66380000D01*
X193900000Y-142500000D02*
X237586420Y-142500000D01*
X237000000Y-66380000D02*
X237000000Y-142500000D01*
X237000000Y-66380000D02*
X237000000Y-142500000D01*
X237000000Y-66380000D02*
X236413579Y-67506504D01*
X237000000Y-66380000D02*
X237586421Y-67506504D01*
X237000000Y-142500000D02*
X237586421Y-141373496D01*
X237000000Y-142500000D02*
X236413579Y-141373496D01*
D10*
X199002380Y-75991904D02*
X199002380Y-75896666D01*
X199050000Y-75801428D01*
X199097619Y-75753809D01*
X199192857Y-75706190D01*
X199383333Y-75658571D01*
X199621428Y-75658571D01*
X199811904Y-75706190D01*
X199907142Y-75753809D01*
X199954761Y-75801428D01*
X200002380Y-75896666D01*
X200002380Y-75991904D01*
X199954761Y-76087142D01*
X199907142Y-76134761D01*
X199811904Y-76182380D01*
X199621428Y-76230000D01*
X199383333Y-76230000D01*
X199192857Y-76182380D01*
X199097619Y-76134761D01*
X199050000Y-76087142D01*
X199002380Y-75991904D01*
X199907142Y-75230000D02*
X199954761Y-75182380D01*
X200002380Y-75230000D01*
X199954761Y-75277619D01*
X199907142Y-75230000D01*
X200002380Y-75230000D01*
X199002380Y-74277619D02*
X199002380Y-74753809D01*
X199478571Y-74801428D01*
X199430952Y-74753809D01*
X199383333Y-74658571D01*
X199383333Y-74420476D01*
X199430952Y-74325238D01*
X199478571Y-74277619D01*
X199573809Y-74230000D01*
X199811904Y-74230000D01*
X199907142Y-74277619D01*
X199954761Y-74325238D01*
X200002380Y-74420476D01*
X200002380Y-74658571D01*
X199954761Y-74753809D01*
X199907142Y-74801428D01*
X199002380Y-73610952D02*
X199002380Y-73515714D01*
X199050000Y-73420476D01*
X199097619Y-73372857D01*
X199192857Y-73325238D01*
X199383333Y-73277619D01*
X199621428Y-73277619D01*
X199811904Y-73325238D01*
X199907142Y-73372857D01*
X199954761Y-73420476D01*
X200002380Y-73515714D01*
X200002380Y-73610952D01*
X199954761Y-73706190D01*
X199907142Y-73753809D01*
X199811904Y-73801428D01*
X199621428Y-73849047D01*
X199383333Y-73849047D01*
X199192857Y-73801428D01*
X199097619Y-73753809D01*
X199050000Y-73706190D01*
X199002380Y-73610952D01*
X199002380Y-72658571D02*
X199002380Y-72563333D01*
X199050000Y-72468095D01*
X199097619Y-72420476D01*
X199192857Y-72372857D01*
X199383333Y-72325238D01*
X199621428Y-72325238D01*
X199811904Y-72372857D01*
X199907142Y-72420476D01*
X199954761Y-72468095D01*
X200002380Y-72563333D01*
X200002380Y-72658571D01*
X199954761Y-72753809D01*
X199907142Y-72801428D01*
X199811904Y-72849047D01*
X199621428Y-72896666D01*
X199383333Y-72896666D01*
X199192857Y-72849047D01*
X199097619Y-72801428D01*
X199050000Y-72753809D01*
X199002380Y-72658571D01*
X199002380Y-71706190D02*
X199002380Y-71610952D01*
X199050000Y-71515714D01*
X199097619Y-71468095D01*
X199192857Y-71420476D01*
X199383333Y-71372857D01*
X199621428Y-71372857D01*
X199811904Y-71420476D01*
X199907142Y-71468095D01*
X199954761Y-71515714D01*
X200002380Y-71610952D01*
X200002380Y-71706190D01*
X199954761Y-71801428D01*
X199907142Y-71849047D01*
X199811904Y-71896666D01*
X199621428Y-71944285D01*
X199383333Y-71944285D01*
X199192857Y-71896666D01*
X199097619Y-71849047D01*
X199050000Y-71801428D01*
X199002380Y-71706190D01*
X200002380Y-70182380D02*
X199335714Y-70182380D01*
X199002380Y-70182380D02*
X199050000Y-70230000D01*
X199097619Y-70182380D01*
X199050000Y-70134761D01*
X199002380Y-70182380D01*
X199097619Y-70182380D01*
X199335714Y-69706190D02*
X200002380Y-69706190D01*
X199430952Y-69706190D02*
X199383333Y-69658571D01*
X199335714Y-69563333D01*
X199335714Y-69420476D01*
X199383333Y-69325238D01*
X199478571Y-69277619D01*
X200002380Y-69277619D01*
D11*
X193105634Y-66380000D02*
X201286420Y-66380000D01*
X193105634Y-79080000D02*
X201286420Y-79080000D01*
X200700000Y-66380000D02*
X200700000Y-79080000D01*
X200700000Y-66380000D02*
X200700000Y-79080000D01*
X200700000Y-66380000D02*
X200113579Y-67506504D01*
X200700000Y-66380000D02*
X201286421Y-67506504D01*
X200700000Y-79080000D02*
X201286421Y-77953496D01*
X200700000Y-79080000D02*
X200113579Y-77953496D01*
D10*
X201302380Y-141047619D02*
X201302380Y-141619047D01*
X201302380Y-141333333D02*
X200302380Y-141333333D01*
X200445238Y-141428571D01*
X200540476Y-141523809D01*
X200588095Y-141619047D01*
X201302380Y-140095238D02*
X201302380Y-140666666D01*
X201302380Y-140380952D02*
X200302380Y-140380952D01*
X200445238Y-140476190D01*
X200540476Y-140571428D01*
X200588095Y-140666666D01*
X201207142Y-139666666D02*
X201254761Y-139619047D01*
X201302380Y-139666666D01*
X201254761Y-139714285D01*
X201207142Y-139666666D01*
X201302380Y-139666666D01*
X200302380Y-139000000D02*
X200302380Y-138904761D01*
X200350000Y-138809523D01*
X200397619Y-138761904D01*
X200492857Y-138714285D01*
X200683333Y-138666666D01*
X200921428Y-138666666D01*
X201111904Y-138714285D01*
X201207142Y-138761904D01*
X201254761Y-138809523D01*
X201302380Y-138904761D01*
X201302380Y-139000000D01*
X201254761Y-139095238D01*
X201207142Y-139142857D01*
X201111904Y-139190476D01*
X200921428Y-139238095D01*
X200683333Y-139238095D01*
X200492857Y-139190476D01*
X200397619Y-139142857D01*
X200350000Y-139095238D01*
X200302380Y-139000000D01*
X200302380Y-138047619D02*
X200302380Y-137952380D01*
X200350000Y-137857142D01*
X200397619Y-137809523D01*
X200492857Y-137761904D01*
X200683333Y-137714285D01*
X200921428Y-137714285D01*
X201111904Y-137761904D01*
X201207142Y-137809523D01*
X201254761Y-137857142D01*
X201302380Y-137952380D01*
X201302380Y-138047619D01*
X201254761Y-138142857D01*
X201207142Y-138190476D01*
X201111904Y-138238095D01*
X200921428Y-138285714D01*
X200683333Y-138285714D01*
X200492857Y-138238095D01*
X200397619Y-138190476D01*
X200350000Y-138142857D01*
X200302380Y-138047619D01*
X200302380Y-137095238D02*
X200302380Y-137000000D01*
X200350000Y-136904761D01*
X200397619Y-136857142D01*
X200492857Y-136809523D01*
X200683333Y-136761904D01*
X200921428Y-136761904D01*
X201111904Y-136809523D01*
X201207142Y-136857142D01*
X201254761Y-136904761D01*
X201302380Y-137000000D01*
X201302380Y-137095238D01*
X201254761Y-137190476D01*
X201207142Y-137238095D01*
X201111904Y-137285714D01*
X200921428Y-137333333D01*
X200683333Y-137333333D01*
X200492857Y-137285714D01*
X200397619Y-137238095D01*
X200350000Y-137190476D01*
X200302380Y-137095238D01*
X200302380Y-136142857D02*
X200302380Y-136047619D01*
X200350000Y-135952380D01*
X200397619Y-135904761D01*
X200492857Y-135857142D01*
X200683333Y-135809523D01*
X200921428Y-135809523D01*
X201111904Y-135857142D01*
X201207142Y-135904761D01*
X201254761Y-135952380D01*
X201302380Y-136047619D01*
X201302380Y-136142857D01*
X201254761Y-136238095D01*
X201207142Y-136285714D01*
X201111904Y-136333333D01*
X200921428Y-136380952D01*
X200683333Y-136380952D01*
X200492857Y-136333333D01*
X200397619Y-136285714D01*
X200350000Y-136238095D01*
X200302380Y-136142857D01*
X201302380Y-134619047D02*
X200635714Y-134619047D01*
X200730952Y-134619047D02*
X200683333Y-134571428D01*
X200635714Y-134476190D01*
X200635714Y-134333333D01*
X200683333Y-134238095D01*
X200778571Y-134190476D01*
X201302380Y-134190476D01*
X200778571Y-134190476D02*
X200683333Y-134142857D01*
X200635714Y-134047619D01*
X200635714Y-133904761D01*
X200683333Y-133809523D01*
X200778571Y-133761904D01*
X201302380Y-133761904D01*
X201302380Y-133285714D02*
X200635714Y-133285714D01*
X200730952Y-133285714D02*
X200683333Y-133238095D01*
X200635714Y-133142857D01*
X200635714Y-133000000D01*
X200683333Y-132904761D01*
X200778571Y-132857142D01*
X201302380Y-132857142D01*
X200778571Y-132857142D02*
X200683333Y-132809523D01*
X200635714Y-132714285D01*
X200635714Y-132571428D01*
X200683333Y-132476190D01*
X200778571Y-132428571D01*
X201302380Y-132428571D01*
D11*
X199580000Y-131500000D02*
X202586420Y-131500000D01*
X199580000Y-142500000D02*
X202586420Y-142500000D01*
X202000000Y-131500000D02*
X202000000Y-142500000D01*
X202000000Y-131500000D02*
X202000000Y-142500000D01*
X202000000Y-131500000D02*
X201413579Y-132626504D01*
X202000000Y-131500000D02*
X202586421Y-132626504D01*
X202000000Y-142500000D02*
X202586421Y-141373496D01*
X202000000Y-142500000D02*
X201413579Y-141373496D01*
D10*
X248302380Y-128321666D02*
X248302380Y-127702619D01*
X248683333Y-128035952D01*
X248683333Y-127893095D01*
X248730952Y-127797857D01*
X248778571Y-127750238D01*
X248873809Y-127702619D01*
X249111904Y-127702619D01*
X249207142Y-127750238D01*
X249254761Y-127797857D01*
X249302380Y-127893095D01*
X249302380Y-128178809D01*
X249254761Y-128274047D01*
X249207142Y-128321666D01*
X248302380Y-127369285D02*
X248302380Y-126702619D01*
X249302380Y-127131190D01*
X249207142Y-126321666D02*
X249254761Y-126274047D01*
X249302380Y-126321666D01*
X249254761Y-126369285D01*
X249207142Y-126321666D01*
X249302380Y-126321666D01*
X248302380Y-125416904D02*
X248302380Y-125607380D01*
X248350000Y-125702619D01*
X248397619Y-125750238D01*
X248540476Y-125845476D01*
X248730952Y-125893095D01*
X249111904Y-125893095D01*
X249207142Y-125845476D01*
X249254761Y-125797857D01*
X249302380Y-125702619D01*
X249302380Y-125512142D01*
X249254761Y-125416904D01*
X249207142Y-125369285D01*
X249111904Y-125321666D01*
X248873809Y-125321666D01*
X248778571Y-125369285D01*
X248730952Y-125416904D01*
X248683333Y-125512142D01*
X248683333Y-125702619D01*
X248730952Y-125797857D01*
X248778571Y-125845476D01*
X248873809Y-125893095D01*
X249302380Y-124845476D02*
X249302380Y-124655000D01*
X249254761Y-124559761D01*
X249207142Y-124512142D01*
X249064285Y-124416904D01*
X248873809Y-124369285D01*
X248492857Y-124369285D01*
X248397619Y-124416904D01*
X248350000Y-124464523D01*
X248302380Y-124559761D01*
X248302380Y-124750238D01*
X248350000Y-124845476D01*
X248397619Y-124893095D01*
X248492857Y-124940714D01*
X248730952Y-124940714D01*
X248826190Y-124893095D01*
X248873809Y-124845476D01*
X248921428Y-124750238D01*
X248921428Y-124559761D01*
X248873809Y-124464523D01*
X248826190Y-124416904D01*
X248730952Y-124369285D01*
X248302380Y-123750238D02*
X248302380Y-123655000D01*
X248350000Y-123559761D01*
X248397619Y-123512142D01*
X248492857Y-123464523D01*
X248683333Y-123416904D01*
X248921428Y-123416904D01*
X249111904Y-123464523D01*
X249207142Y-123512142D01*
X249254761Y-123559761D01*
X249302380Y-123655000D01*
X249302380Y-123750238D01*
X249254761Y-123845476D01*
X249207142Y-123893095D01*
X249111904Y-123940714D01*
X248921428Y-123988333D01*
X248683333Y-123988333D01*
X248492857Y-123940714D01*
X248397619Y-123893095D01*
X248350000Y-123845476D01*
X248302380Y-123750238D01*
X248302380Y-122797857D02*
X248302380Y-122702619D01*
X248350000Y-122607380D01*
X248397619Y-122559761D01*
X248492857Y-122512142D01*
X248683333Y-122464523D01*
X248921428Y-122464523D01*
X249111904Y-122512142D01*
X249207142Y-122559761D01*
X249254761Y-122607380D01*
X249302380Y-122702619D01*
X249302380Y-122797857D01*
X249254761Y-122893095D01*
X249207142Y-122940714D01*
X249111904Y-122988333D01*
X248921428Y-123035952D01*
X248683333Y-123035952D01*
X248492857Y-122988333D01*
X248397619Y-122940714D01*
X248350000Y-122893095D01*
X248302380Y-122797857D01*
X249302380Y-121274047D02*
X248635714Y-121274047D01*
X248730952Y-121274047D02*
X248683333Y-121226428D01*
X248635714Y-121131190D01*
X248635714Y-120988333D01*
X248683333Y-120893095D01*
X248778571Y-120845476D01*
X249302380Y-120845476D01*
X248778571Y-120845476D02*
X248683333Y-120797857D01*
X248635714Y-120702619D01*
X248635714Y-120559761D01*
X248683333Y-120464523D01*
X248778571Y-120416904D01*
X249302380Y-120416904D01*
X249302380Y-119940714D02*
X248635714Y-119940714D01*
X248730952Y-119940714D02*
X248683333Y-119893095D01*
X248635714Y-119797857D01*
X248635714Y-119655000D01*
X248683333Y-119559761D01*
X248778571Y-119512142D01*
X249302380Y-119512142D01*
X248778571Y-119512142D02*
X248683333Y-119464523D01*
X248635714Y-119369285D01*
X248635714Y-119226428D01*
X248683333Y-119131190D01*
X248778571Y-119083571D01*
X249302380Y-119083571D01*
D11*
X181716000Y-142500000D02*
X250586420Y-142500000D01*
X181716000Y-104810000D02*
X250586420Y-104810000D01*
X250000000Y-142500000D02*
X250000000Y-104810000D01*
X250000000Y-142500000D02*
X250000000Y-104810000D01*
X250000000Y-142500000D02*
X250586421Y-141373496D01*
X250000000Y-142500000D02*
X249413579Y-141373496D01*
X250000000Y-104810000D02*
X249413579Y-105936504D01*
X250000000Y-104810000D02*
X250586421Y-105936504D01*
D10*
X178952380Y-158302380D02*
X178380952Y-158302380D01*
X178666666Y-158302380D02*
X178666666Y-157302380D01*
X178571428Y-157445238D01*
X178476190Y-157540476D01*
X178380952Y-157588095D01*
X179809523Y-157635714D02*
X179809523Y-158302380D01*
X179571428Y-157254761D02*
X179333333Y-157969047D01*
X179952380Y-157969047D01*
X180333333Y-158207142D02*
X180380952Y-158254761D01*
X180333333Y-158302380D01*
X180285714Y-158254761D01*
X180333333Y-158207142D01*
X180333333Y-158302380D01*
X181000000Y-157302380D02*
X181095238Y-157302380D01*
X181190476Y-157350000D01*
X181238095Y-157397619D01*
X181285714Y-157492857D01*
X181333333Y-157683333D01*
X181333333Y-157921428D01*
X181285714Y-158111904D01*
X181238095Y-158207142D01*
X181190476Y-158254761D01*
X181095238Y-158302380D01*
X181000000Y-158302380D01*
X180904761Y-158254761D01*
X180857142Y-158207142D01*
X180809523Y-158111904D01*
X180761904Y-157921428D01*
X180761904Y-157683333D01*
X180809523Y-157492857D01*
X180857142Y-157397619D01*
X180904761Y-157350000D01*
X181000000Y-157302380D01*
X181952380Y-157302380D02*
X182047619Y-157302380D01*
X182142857Y-157350000D01*
X182190476Y-157397619D01*
X182238095Y-157492857D01*
X182285714Y-157683333D01*
X182285714Y-157921428D01*
X182238095Y-158111904D01*
X182190476Y-158207142D01*
X182142857Y-158254761D01*
X182047619Y-158302380D01*
X181952380Y-158302380D01*
X181857142Y-158254761D01*
X181809523Y-158207142D01*
X181761904Y-158111904D01*
X181714285Y-157921428D01*
X181714285Y-157683333D01*
X181761904Y-157492857D01*
X181809523Y-157397619D01*
X181857142Y-157350000D01*
X181952380Y-157302380D01*
X182904761Y-157302380D02*
X183000000Y-157302380D01*
X183095238Y-157350000D01*
X183142857Y-157397619D01*
X183190476Y-157492857D01*
X183238095Y-157683333D01*
X183238095Y-157921428D01*
X183190476Y-158111904D01*
X183142857Y-158207142D01*
X183095238Y-158254761D01*
X183000000Y-158302380D01*
X182904761Y-158302380D01*
X182809523Y-158254761D01*
X182761904Y-158207142D01*
X182714285Y-158111904D01*
X182666666Y-157921428D01*
X182666666Y-157683333D01*
X182714285Y-157492857D01*
X182761904Y-157397619D01*
X182809523Y-157350000D01*
X182904761Y-157302380D01*
X183857142Y-157302380D02*
X183952380Y-157302380D01*
X184047619Y-157350000D01*
X184095238Y-157397619D01*
X184142857Y-157492857D01*
X184190476Y-157683333D01*
X184190476Y-157921428D01*
X184142857Y-158111904D01*
X184095238Y-158207142D01*
X184047619Y-158254761D01*
X183952380Y-158302380D01*
X183857142Y-158302380D01*
X183761904Y-158254761D01*
X183714285Y-158207142D01*
X183666666Y-158111904D01*
X183619047Y-157921428D01*
X183619047Y-157683333D01*
X183666666Y-157492857D01*
X183714285Y-157397619D01*
X183761904Y-157350000D01*
X183857142Y-157302380D01*
X185380952Y-158302380D02*
X185380952Y-157635714D01*
X185380952Y-157730952D02*
X185428571Y-157683333D01*
X185523809Y-157635714D01*
X185666666Y-157635714D01*
X185761904Y-157683333D01*
X185809523Y-157778571D01*
X185809523Y-158302380D01*
X185809523Y-157778571D02*
X185857142Y-157683333D01*
X185952380Y-157635714D01*
X186095238Y-157635714D01*
X186190476Y-157683333D01*
X186238095Y-157778571D01*
X186238095Y-158302380D01*
X186714285Y-158302380D02*
X186714285Y-157635714D01*
X186714285Y-157730952D02*
X186761904Y-157683333D01*
X186857142Y-157635714D01*
X187000000Y-157635714D01*
X187095238Y-157683333D01*
X187142857Y-157778571D01*
X187142857Y-158302380D01*
X187142857Y-157778571D02*
X187190476Y-157683333D01*
X187285714Y-157635714D01*
X187428571Y-157635714D01*
X187523809Y-157683333D01*
X187571428Y-157778571D01*
X187571428Y-158302380D01*
D11*
X190000000Y-153500000D02*
X190000000Y-159586420D01*
X176000000Y-153500000D02*
X176000000Y-159586420D01*
X190000000Y-159000000D02*
X176000000Y-159000000D01*
X190000000Y-159000000D02*
X176000000Y-159000000D01*
X190000000Y-159000000D02*
X188873496Y-158413579D01*
X190000000Y-159000000D02*
X188873496Y-159586421D01*
X176000000Y-159000000D02*
X177126504Y-159586421D01*
X176000000Y-159000000D02*
X177126504Y-158413579D01*
D12*
%TO.C,H1*%
X176141000Y-138750000D02*
X189871000Y-138750000D01*
X189871000Y-138750000D02*
X189871000Y-146250000D01*
X189871000Y-146250000D02*
X176141000Y-146250000D01*
X176141000Y-146250000D02*
X176141000Y-138750000D01*
X176161000Y-53350000D02*
X189321000Y-53350000D01*
X189321000Y-53350000D02*
X189321000Y-60850000D01*
X189321000Y-60850000D02*
X176161000Y-60850000D01*
X176161000Y-60850000D02*
X176161000Y-53350000D01*
D10*
X184416000Y-57100000D02*
G75*
G03*
X184416000Y-57100000I-3200000J0D01*
G01*
X184416000Y-142500000D02*
G75*
G03*
X184416000Y-142500000I-3200000J0D01*
G01*
%TD*%
M02*
