%TF.GenerationSoftware,KiCad,Pcbnew,(6.0.7)*%
%TF.CreationDate,2022-09-20T22:55:45-07:00*%
%TF.ProjectId,waveblaster-to-midi-module,77617665-626c-4617-9374-65722d746f2d,rev?*%
%TF.SameCoordinates,PX525bfc0PY8670810*%
%TF.FileFunction,Copper,L1,Top*%
%TF.FilePolarity,Positive*%
%FSLAX46Y46*%
G04 Gerber Fmt 4.6, Leading zero omitted, Abs format (unit mm)*
G04 Created by KiCad (PCBNEW (6.0.7)) date 2022-09-20 22:55:45*
%MOMM*%
%LPD*%
G01*
G04 APERTURE LIST*
G04 Aperture macros list*
%AMRoundRect*
0 Rectangle with rounded corners*
0 $1 Rounding radius*
0 $2 $3 $4 $5 $6 $7 $8 $9 X,Y pos of 4 corners*
0 Add a 4 corners polygon primitive as box body*
4,1,4,$2,$3,$4,$5,$6,$7,$8,$9,$2,$3,0*
0 Add four circle primitives for the rounded corners*
1,1,$1+$1,$2,$3*
1,1,$1+$1,$4,$5*
1,1,$1+$1,$6,$7*
1,1,$1+$1,$8,$9*
0 Add four rect primitives between the rounded corners*
20,1,$1+$1,$2,$3,$4,$5,0*
20,1,$1+$1,$4,$5,$6,$7,0*
20,1,$1+$1,$6,$7,$8,$9,0*
20,1,$1+$1,$8,$9,$2,$3,0*%
G04 Aperture macros list end*
%TA.AperFunction,ComponentPad*%
%ADD10RoundRect,0.250000X-0.600000X-0.600000X0.600000X-0.600000X0.600000X0.600000X-0.600000X0.600000X0*%
%TD*%
%TA.AperFunction,ComponentPad*%
%ADD11C,1.700000*%
%TD*%
%TA.AperFunction,ComponentPad*%
%ADD12C,6.400000*%
%TD*%
%TA.AperFunction,ComponentPad*%
%ADD13O,1.800000X2.800000*%
%TD*%
%TA.AperFunction,ComponentPad*%
%ADD14C,1.600000*%
%TD*%
%TA.AperFunction,ComponentPad*%
%ADD15O,1.600000X1.600000*%
%TD*%
%TA.AperFunction,ComponentPad*%
%ADD16R,1.248000X1.248000*%
%TD*%
%TA.AperFunction,ComponentPad*%
%ADD17C,1.248000*%
%TD*%
%TA.AperFunction,ComponentPad*%
%ADD18O,2.400000X4.800000*%
%TD*%
%TA.AperFunction,ComponentPad*%
%ADD19O,3.400000X1.700000*%
%TD*%
%TA.AperFunction,ComponentPad*%
%ADD20R,1.600000X1.600000*%
%TD*%
%TA.AperFunction,Conductor*%
%ADD21C,0.635000*%
%TD*%
%TA.AperFunction,Conductor*%
%ADD22C,0.800000*%
%TD*%
%TA.AperFunction,Conductor*%
%ADD23C,0.254000*%
%TD*%
G04 APERTURE END LIST*
D10*
%TO.P,J7,1,Pin_1*%
%TO.N,GND*%
X168700000Y-89800000D03*
D11*
%TO.P,J7,2,Pin_2*%
%TO.N,unconnected-(J7-Pad2)*%
X171240000Y-89800000D03*
%TO.P,J7,3,Pin_3*%
%TO.N,GND*%
X168700000Y-92340000D03*
%TO.P,J7,4,Pin_4*%
%TO.N,WT_TX*%
X171240000Y-92340000D03*
%TO.P,J7,5,Pin_5*%
%TO.N,GND*%
X168700000Y-94880000D03*
%TO.P,J7,6,Pin_6*%
%TO.N,+5V*%
X171240000Y-94880000D03*
%TO.P,J7,7,Pin_7*%
%TO.N,GND*%
X168700000Y-97420000D03*
%TO.P,J7,8,Pin_8*%
%TO.N,WT_RX*%
X171240000Y-97420000D03*
%TO.P,J7,9,Pin_9*%
%TO.N,GND*%
X168700000Y-99960000D03*
%TO.P,J7,10,Pin_10*%
%TO.N,+5V*%
X171240000Y-99960000D03*
%TO.P,J7,11,Pin_11*%
%TO.N,GND*%
X168700000Y-102500000D03*
%TO.P,J7,12,Pin_12*%
%TO.N,WT_AUDIO_R_IN*%
X171240000Y-102500000D03*
%TO.P,J7,13,Pin_13*%
%TO.N,unconnected-(J7-Pad13)*%
X168700000Y-105040000D03*
%TO.P,J7,14,Pin_14*%
%TO.N,+5V*%
X171240000Y-105040000D03*
%TO.P,J7,15,Pin_15*%
%TO.N,GNDA*%
X168700000Y-107580000D03*
%TO.P,J7,16,Pin_16*%
%TO.N,WT_AUDIO_L_IN*%
X171240000Y-107580000D03*
%TO.P,J7,17,Pin_17*%
%TO.N,GNDA*%
X168700000Y-110120000D03*
%TO.P,J7,18,Pin_18*%
%TO.N,+12V*%
X171240000Y-110120000D03*
%TO.P,J7,19,Pin_19*%
%TO.N,GNDA*%
X168700000Y-112660000D03*
%TO.P,J7,20,Pin_20*%
%TO.N,WT_AUDIO_R_OUT*%
X171240000Y-112660000D03*
%TO.P,J7,21,Pin_21*%
%TO.N,GNDA*%
X168700000Y-115200000D03*
%TO.P,J7,22,Pin_22*%
%TO.N,-12V*%
X171240000Y-115200000D03*
%TO.P,J7,23,Pin_23*%
%TO.N,GNDA*%
X168700000Y-117740000D03*
%TO.P,J7,24,Pin_24*%
%TO.N,WT_AUDIO_L_OUT*%
X171240000Y-117740000D03*
%TO.P,J7,25,Pin_25*%
%TO.N,GNDA*%
X168700000Y-120280000D03*
%TO.P,J7,26,Pin_26*%
%TO.N,~{RESET}*%
X171240000Y-120280000D03*
%TD*%
D12*
%TO.P,H1,1,1*%
%TO.N,unconnected-(H1-Pad1)*%
X181216000Y-57100000D03*
%TO.P,H1,2,2*%
%TO.N,unconnected-(H1-Pad2)*%
X181216000Y-142500000D03*
%TD*%
D13*
%TO.P,J1,R*%
%TO.N,Net-(J1-PadR)*%
X180300000Y-80190000D03*
%TO.P,J1,S*%
%TO.N,GND*%
X188200000Y-78190000D03*
%TO.P,J1,T*%
%TO.N,Net-(J1-PadT)*%
X185800000Y-80190000D03*
%TD*%
D14*
%TO.P,R4,1*%
%TO.N,+5V*%
X164490000Y-77600000D03*
D15*
%TO.P,R4,2*%
%TO.N,Net-(J1-PadR)*%
X172110000Y-77600000D03*
%TD*%
D16*
%TO.P,U1,1*%
%TO.N,Net-(D1-Pad1)*%
X167160000Y-69100000D03*
D17*
%TO.P,U1,2*%
%TO.N,Net-(D1-Pad2)*%
X167160000Y-66560000D03*
%TO.P,U1,3*%
%TO.N,unconnected-(U1-Pad3)*%
X167160000Y-64020000D03*
%TO.P,U1,4*%
%TO.N,WT_RX*%
X159540000Y-64020000D03*
%TO.P,U1,5*%
%TO.N,GND*%
X159540000Y-66560000D03*
%TO.P,U1,6*%
%TO.N,+5V*%
X159540000Y-69100000D03*
%TD*%
D18*
%TO.P,J3,1*%
%TO.N,GNDA*%
X185580000Y-118050000D03*
D19*
%TO.P,J3,2*%
%TO.N,WT_AUDIO_R_OUT*%
X181080000Y-118050000D03*
%TD*%
D14*
%TO.P,R3,1*%
%TO.N,WT_TX*%
X164440000Y-81190000D03*
D15*
%TO.P,R3,2*%
%TO.N,Net-(J1-PadT)*%
X172060000Y-81190000D03*
%TD*%
D20*
%TO.P,D1,1,K*%
%TO.N,Net-(D1-Pad1)*%
X171070000Y-69649300D03*
D15*
%TO.P,D1,2,A*%
%TO.N,Net-(D1-Pad2)*%
X171070000Y-64569300D03*
%TD*%
D13*
%TO.P,J2,R*%
%TO.N,Net-(J2-PadR)*%
X180300000Y-67480000D03*
%TO.P,J2,S*%
%TO.N,unconnected-(J2-PadS)*%
X188200000Y-65480000D03*
%TO.P,J2,T*%
%TO.N,Net-(D1-Pad2)*%
X185800000Y-67480000D03*
%TD*%
D18*
%TO.P,J4,1*%
%TO.N,GNDA*%
X185580000Y-131400000D03*
D19*
%TO.P,J4,2*%
%TO.N,WT_AUDIO_L_OUT*%
X181080000Y-131400000D03*
%TD*%
D14*
%TO.P,R2,1*%
%TO.N,Net-(D1-Pad1)*%
X164440000Y-74060000D03*
D15*
%TO.P,R2,2*%
%TO.N,Net-(J2-PadR)*%
X172060000Y-74060000D03*
%TD*%
D18*
%TO.P,J5,1*%
%TO.N,GNDA*%
X185580000Y-91350000D03*
D19*
%TO.P,J5,2*%
%TO.N,WT_AUDIO_R_IN*%
X181080000Y-91350000D03*
%TD*%
D14*
%TO.P,R1,1*%
%TO.N,+5V*%
X159930000Y-81240000D03*
D15*
%TO.P,R1,2*%
%TO.N,WT_RX*%
X159930000Y-73620000D03*
%TD*%
D18*
%TO.P,J6,1*%
%TO.N,GNDA*%
X185580000Y-104700000D03*
D19*
%TO.P,J6,2*%
%TO.N,WT_AUDIO_L_IN*%
X181080000Y-104700000D03*
%TD*%
D21*
%TO.N,+5V*%
X171920000Y-94870000D02*
X172580000Y-95530000D01*
D22*
X172800000Y-85910000D02*
X172800000Y-94850000D01*
D21*
X172800000Y-94880000D02*
X171240000Y-94880000D01*
X171910070Y-99940000D02*
X172570070Y-100600000D01*
X163570000Y-77600000D02*
X164490000Y-77600000D01*
X172790070Y-99950000D02*
X171230070Y-99950000D01*
X172770000Y-94880000D02*
X171240000Y-94880000D01*
X171970000Y-94780000D02*
X172630000Y-94120000D01*
D22*
X172800000Y-103480000D02*
X172800000Y-94880000D01*
X164490000Y-77600000D02*
X172800000Y-85910000D01*
D21*
X159930000Y-81240000D02*
X163570000Y-77600000D01*
X161965000Y-75995000D02*
X163570000Y-77600000D01*
X159540000Y-69100000D02*
X161965000Y-71525000D01*
X161965000Y-71525000D02*
X161965000Y-75995000D01*
X171960070Y-99850000D02*
X172620070Y-99190000D01*
D22*
X171240000Y-105040000D02*
X172800000Y-103480000D01*
D21*
X172760070Y-99950000D02*
X171230070Y-99950000D01*
X172800000Y-94850000D02*
X172770000Y-94880000D01*
D23*
%TO.N,WT_RX*%
X159930000Y-73620000D02*
X159930000Y-74747100D01*
X158547000Y-71109900D02*
X158547000Y-65013000D01*
X159930000Y-73056400D02*
X159930000Y-72492900D01*
X164680000Y-96150000D02*
X169970000Y-96150000D01*
X158250000Y-89720000D02*
X164680000Y-96150000D01*
X169970000Y-96150000D02*
X171240000Y-97420000D01*
X159930000Y-74747100D02*
X158250000Y-76427100D01*
X159930000Y-72492900D02*
X158547000Y-71109900D01*
X158547000Y-65013000D02*
X159540000Y-64020000D01*
X159930000Y-73056400D02*
X159930000Y-73620000D01*
X158250000Y-76427100D02*
X158250000Y-89720000D01*
%TO.N,WT_TX*%
X170000000Y-91100000D02*
X171240000Y-92340000D01*
X170000000Y-86750000D02*
X170000000Y-91100000D01*
X164440000Y-81190000D02*
X170000000Y-86750000D01*
%TO.N,Net-(J1-PadR)*%
X180300000Y-80190000D02*
X178172900Y-80190000D01*
X175582900Y-77600000D02*
X172110000Y-77600000D01*
X178172900Y-80190000D02*
X175582900Y-77600000D01*
%TO.N,Net-(J1-PadT)*%
X183672900Y-80190000D02*
X184900000Y-80190000D01*
X181512900Y-82350000D02*
X183672900Y-80190000D01*
X173220000Y-82350000D02*
X181512900Y-82350000D01*
X172060000Y-81190000D02*
X173220000Y-82350000D01*
%TO.N,Net-(D1-Pad1)*%
X170520700Y-69100000D02*
X167160000Y-69100000D01*
X164440000Y-74060000D02*
X164440000Y-72771100D01*
X167160000Y-69100000D02*
X167160000Y-70051100D01*
X171070000Y-69649300D02*
X170520700Y-69100000D01*
X164440000Y-72771100D02*
X167160000Y-70051100D01*
D22*
%TO.N,WT_AUDIO_L_IN*%
X176930000Y-107650000D02*
X171310000Y-107650000D01*
X179880000Y-104700000D02*
X176930000Y-107650000D01*
X181080000Y-104700000D02*
X179880000Y-104700000D01*
X171310000Y-107650000D02*
X171240000Y-107580000D01*
%TO.N,WT_AUDIO_L_OUT*%
X179880000Y-130200000D02*
X179880000Y-126380000D01*
X179880000Y-126380000D02*
X171240000Y-117740000D01*
X181080000Y-131400000D02*
X179880000Y-130200000D01*
X181080000Y-131686000D02*
X181080000Y-131400000D01*
%TO.N,WT_AUDIO_R_OUT*%
X180794000Y-118050000D02*
X178850000Y-118050000D01*
X173460000Y-112660000D02*
X171240000Y-112660000D01*
X178850000Y-118050000D02*
X173460000Y-112660000D01*
D23*
%TO.N,Net-(D1-Pad2)*%
X170910700Y-64569300D02*
X182359300Y-64569300D01*
X167160000Y-66560000D02*
X168920000Y-66560000D01*
X185270000Y-67480000D02*
X185800000Y-67480000D01*
X182359300Y-64569300D02*
X185270000Y-67480000D01*
X168920000Y-66560000D02*
X170910700Y-64569300D01*
%TO.N,Net-(J2-PadR)*%
X172060000Y-73592900D02*
X178172900Y-67480000D01*
X178172900Y-67480000D02*
X180300000Y-67480000D01*
X172060000Y-74060000D02*
X172060000Y-73592900D01*
%TD*%
%TA.AperFunction,Conductor*%
%TO.N,GNDA*%
G36*
X187421526Y-86742335D02*
G01*
X187468067Y-86795949D01*
X187479500Y-86848394D01*
X187479500Y-87958564D01*
X187477949Y-87978274D01*
X187474508Y-88000000D01*
X187479500Y-88031519D01*
X187494354Y-88125304D01*
X187551950Y-88238342D01*
X187641658Y-88328050D01*
X187754696Y-88385646D01*
X187764485Y-88387196D01*
X187764487Y-88387197D01*
X187870207Y-88403941D01*
X187880000Y-88405492D01*
X187901726Y-88402051D01*
X187921436Y-88400500D01*
X189470758Y-88400500D01*
X189538879Y-88420502D01*
X189585372Y-88474158D01*
X189596758Y-88526493D01*
X189596827Y-90019249D01*
X189597020Y-94173494D01*
X189577021Y-94241616D01*
X189523368Y-94288111D01*
X189471020Y-94299500D01*
X187921436Y-94299500D01*
X187901726Y-94297949D01*
X187889793Y-94296059D01*
X187880000Y-94294508D01*
X187848481Y-94299500D01*
X187754696Y-94314354D01*
X187641658Y-94371950D01*
X187551950Y-94461658D01*
X187494354Y-94574696D01*
X187492804Y-94584485D01*
X187492803Y-94584487D01*
X187479487Y-94668561D01*
X187474508Y-94700000D01*
X187476059Y-94709793D01*
X187477949Y-94721726D01*
X187479500Y-94741436D01*
X187479500Y-96458564D01*
X187477949Y-96478274D01*
X187474508Y-96500000D01*
X187479500Y-96531519D01*
X187494354Y-96625304D01*
X187551950Y-96738342D01*
X187641658Y-96828050D01*
X187754696Y-96885646D01*
X187764485Y-96887196D01*
X187764487Y-96887197D01*
X187870207Y-96903941D01*
X187880000Y-96905492D01*
X187901726Y-96902051D01*
X187921436Y-96900500D01*
X189471153Y-96900500D01*
X189539274Y-96920502D01*
X189585767Y-96974158D01*
X189597153Y-97026494D01*
X189597246Y-99023494D01*
X189577247Y-99091616D01*
X189523594Y-99138111D01*
X189471246Y-99149500D01*
X187921436Y-99149500D01*
X187901726Y-99147949D01*
X187889793Y-99146059D01*
X187880000Y-99144508D01*
X187848481Y-99149500D01*
X187754696Y-99164354D01*
X187641658Y-99221950D01*
X187551950Y-99311658D01*
X187494354Y-99424696D01*
X187474508Y-99550000D01*
X187476059Y-99559793D01*
X187477949Y-99571726D01*
X187479500Y-99591436D01*
X187479500Y-101308564D01*
X187477949Y-101328274D01*
X187474508Y-101350000D01*
X187479500Y-101381519D01*
X187494354Y-101475304D01*
X187551950Y-101588342D01*
X187641658Y-101678050D01*
X187754696Y-101735646D01*
X187764485Y-101737196D01*
X187764487Y-101737197D01*
X187870207Y-101753941D01*
X187880000Y-101755492D01*
X187901726Y-101752051D01*
X187921436Y-101750500D01*
X189471379Y-101750500D01*
X189539500Y-101770502D01*
X189585993Y-101824158D01*
X189597379Y-101876493D01*
X189597473Y-103895932D01*
X189597641Y-107523494D01*
X189577642Y-107591616D01*
X189523989Y-107638111D01*
X189471641Y-107649500D01*
X187921436Y-107649500D01*
X187901726Y-107647949D01*
X187889793Y-107646059D01*
X187880000Y-107644508D01*
X187848481Y-107649500D01*
X187754696Y-107664354D01*
X187641658Y-107721950D01*
X187551950Y-107811658D01*
X187494354Y-107924696D01*
X187474508Y-108050000D01*
X187476059Y-108059793D01*
X187477949Y-108071726D01*
X187479500Y-108091436D01*
X187479500Y-109808564D01*
X187477949Y-109828274D01*
X187474508Y-109850000D01*
X187479500Y-109881519D01*
X187494354Y-109975304D01*
X187551950Y-110088342D01*
X187641658Y-110178050D01*
X187754696Y-110235646D01*
X187764485Y-110237196D01*
X187764487Y-110237197D01*
X187870207Y-110253941D01*
X187880000Y-110255492D01*
X187901726Y-110252051D01*
X187921436Y-110250500D01*
X189471774Y-110250500D01*
X189539895Y-110270502D01*
X189586388Y-110324158D01*
X189597774Y-110376493D01*
X189597804Y-111021683D01*
X189597866Y-112373494D01*
X189577867Y-112441616D01*
X189524214Y-112488111D01*
X189471866Y-112499500D01*
X187921436Y-112499500D01*
X187901726Y-112497949D01*
X187889793Y-112496059D01*
X187880000Y-112494508D01*
X187848481Y-112499500D01*
X187754696Y-112514354D01*
X187641658Y-112571950D01*
X187551950Y-112661658D01*
X187494354Y-112774696D01*
X187474508Y-112900000D01*
X187476059Y-112909793D01*
X187477949Y-112921726D01*
X187479500Y-112941436D01*
X187479500Y-114658564D01*
X187477949Y-114678274D01*
X187474508Y-114700000D01*
X187479500Y-114731519D01*
X187494354Y-114825304D01*
X187551950Y-114938342D01*
X187641658Y-115028050D01*
X187754696Y-115085646D01*
X187764485Y-115087196D01*
X187764487Y-115087197D01*
X187870207Y-115103941D01*
X187880000Y-115105492D01*
X187901726Y-115102051D01*
X187921436Y-115100500D01*
X189471999Y-115100500D01*
X189540120Y-115120502D01*
X189586613Y-115174158D01*
X189597999Y-115226493D01*
X189598124Y-117921503D01*
X189598261Y-120873494D01*
X189578262Y-120941616D01*
X189524609Y-120988111D01*
X189472261Y-120999500D01*
X187921436Y-120999500D01*
X187901726Y-120997949D01*
X187889793Y-120996059D01*
X187880000Y-120994508D01*
X187848481Y-120999500D01*
X187754696Y-121014354D01*
X187641658Y-121071950D01*
X187551950Y-121161658D01*
X187494354Y-121274696D01*
X187492804Y-121284485D01*
X187492803Y-121284487D01*
X187477488Y-121381184D01*
X187474508Y-121400000D01*
X187476059Y-121409793D01*
X187477949Y-121421726D01*
X187479500Y-121441436D01*
X187479500Y-123158564D01*
X187477949Y-123178274D01*
X187474508Y-123200000D01*
X187479500Y-123231519D01*
X187494354Y-123325304D01*
X187551950Y-123438342D01*
X187641658Y-123528050D01*
X187754696Y-123585646D01*
X187764485Y-123587196D01*
X187764487Y-123587197D01*
X187870207Y-123603941D01*
X187880000Y-123605492D01*
X187901726Y-123602051D01*
X187921436Y-123600500D01*
X189472395Y-123600500D01*
X189540516Y-123620502D01*
X189587009Y-123674158D01*
X189598395Y-123726494D01*
X189598487Y-125723494D01*
X189578488Y-125791616D01*
X189524835Y-125838111D01*
X189472487Y-125849500D01*
X187921436Y-125849500D01*
X187901726Y-125847949D01*
X187889793Y-125846059D01*
X187880000Y-125844508D01*
X187870207Y-125846059D01*
X187858274Y-125847949D01*
X187848481Y-125849500D01*
X187754696Y-125864354D01*
X187641658Y-125921950D01*
X187551950Y-126011658D01*
X187494354Y-126124696D01*
X187492804Y-126134485D01*
X187492803Y-126134487D01*
X187483527Y-126193053D01*
X187474508Y-126250000D01*
X187476059Y-126259793D01*
X187477949Y-126271726D01*
X187479500Y-126291436D01*
X187479500Y-128008564D01*
X187477949Y-128028274D01*
X187474508Y-128050000D01*
X187479500Y-128081519D01*
X187494354Y-128175304D01*
X187551950Y-128288342D01*
X187641658Y-128378050D01*
X187754696Y-128435646D01*
X187764485Y-128437196D01*
X187764487Y-128437197D01*
X187870207Y-128453941D01*
X187880000Y-128455492D01*
X187901726Y-128452051D01*
X187921436Y-128450500D01*
X189472620Y-128450500D01*
X189540741Y-128470502D01*
X189587234Y-128524158D01*
X189598620Y-128576493D01*
X189598716Y-130647147D01*
X189598882Y-134223494D01*
X189578883Y-134291616D01*
X189525230Y-134338111D01*
X189472882Y-134349500D01*
X187921436Y-134349500D01*
X187901726Y-134347949D01*
X187889793Y-134346059D01*
X187880000Y-134344508D01*
X187848481Y-134349500D01*
X187754696Y-134364354D01*
X187641658Y-134421950D01*
X187551950Y-134511658D01*
X187494354Y-134624696D01*
X187474508Y-134750000D01*
X187476059Y-134759793D01*
X187477949Y-134771726D01*
X187479500Y-134791436D01*
X187479500Y-136508564D01*
X187477949Y-136528274D01*
X187474508Y-136550000D01*
X187479500Y-136581519D01*
X187494354Y-136675304D01*
X187551950Y-136788342D01*
X187641658Y-136878050D01*
X187754696Y-136935646D01*
X187764485Y-136937196D01*
X187764487Y-136937197D01*
X187870207Y-136953941D01*
X187880000Y-136955492D01*
X187901726Y-136952051D01*
X187921436Y-136950500D01*
X189473015Y-136950500D01*
X189541136Y-136970502D01*
X189587629Y-137024158D01*
X189599015Y-137076494D01*
X189599064Y-138128459D01*
X189579065Y-138196581D01*
X189525412Y-138243076D01*
X189473369Y-138254465D01*
X157506805Y-138331888D01*
X157438636Y-138312051D01*
X157392013Y-138258508D01*
X157380500Y-138205888D01*
X157380500Y-132663687D01*
X183872000Y-132663687D01*
X183872181Y-132668453D01*
X183886321Y-132854347D01*
X183887763Y-132863770D01*
X183944281Y-133107601D01*
X183947137Y-133116714D01*
X184039880Y-133349177D01*
X184044083Y-133357757D01*
X184170923Y-133573518D01*
X184176374Y-133581361D01*
X184334393Y-133775457D01*
X184340966Y-133782383D01*
X184526521Y-133950340D01*
X184534073Y-133956198D01*
X184742902Y-134094157D01*
X184751239Y-134098798D01*
X184978535Y-134203582D01*
X184987489Y-134206912D01*
X185228027Y-134276113D01*
X185237361Y-134278045D01*
X185308034Y-134287162D01*
X185322264Y-134284904D01*
X185326000Y-134271829D01*
X185326000Y-134271578D01*
X185834000Y-134271578D01*
X185837773Y-134284429D01*
X185852870Y-134286349D01*
X186001308Y-134260042D01*
X186010540Y-134257671D01*
X186247556Y-134177215D01*
X186256325Y-134173475D01*
X186478447Y-134058091D01*
X186486547Y-134053069D01*
X186688659Y-133905416D01*
X186695915Y-133899219D01*
X186873356Y-133722704D01*
X186879596Y-133715475D01*
X187028300Y-133514147D01*
X187033370Y-133506066D01*
X187149910Y-133284560D01*
X187153699Y-133275804D01*
X187235395Y-133039212D01*
X187237814Y-133029990D01*
X187282917Y-132783031D01*
X187283853Y-132775025D01*
X187287912Y-132697573D01*
X187288000Y-132694237D01*
X187288000Y-131672115D01*
X187283525Y-131656876D01*
X187282135Y-131655671D01*
X187274452Y-131654000D01*
X185852115Y-131654000D01*
X185836876Y-131658475D01*
X185835671Y-131659865D01*
X185834000Y-131667548D01*
X185834000Y-134271578D01*
X185326000Y-134271578D01*
X185326000Y-131672115D01*
X185321525Y-131656876D01*
X185320135Y-131655671D01*
X185312452Y-131654000D01*
X183890115Y-131654000D01*
X183874876Y-131658475D01*
X183873671Y-131659865D01*
X183872000Y-131667548D01*
X183872000Y-132663687D01*
X157380500Y-132663687D01*
X157380500Y-121404853D01*
X167939977Y-121404853D01*
X167945258Y-121411907D01*
X168106756Y-121506279D01*
X168116042Y-121510729D01*
X168315001Y-121586703D01*
X168324899Y-121589579D01*
X168533595Y-121632038D01*
X168543823Y-121633257D01*
X168756650Y-121641062D01*
X168766936Y-121640595D01*
X168978185Y-121613534D01*
X168988262Y-121611392D01*
X169192255Y-121550191D01*
X169201842Y-121546433D01*
X169393098Y-121452738D01*
X169401944Y-121447465D01*
X169449247Y-121413723D01*
X169457648Y-121403023D01*
X169450660Y-121389870D01*
X168712812Y-120652022D01*
X168698868Y-120644408D01*
X168697035Y-120644539D01*
X168690420Y-120648790D01*
X167946737Y-121392473D01*
X167939977Y-121404853D01*
X157380500Y-121404853D01*
X157380500Y-120251863D01*
X167338050Y-120251863D01*
X167350309Y-120464477D01*
X167351745Y-120474697D01*
X167398565Y-120682446D01*
X167401645Y-120692275D01*
X167481770Y-120889603D01*
X167486413Y-120898794D01*
X167566460Y-121029420D01*
X167576916Y-121038880D01*
X167585694Y-121035096D01*
X168327978Y-120292812D01*
X168335592Y-120278868D01*
X168335461Y-120277035D01*
X168331210Y-120270420D01*
X167589849Y-119529059D01*
X167578313Y-119522759D01*
X167566031Y-119532382D01*
X167518089Y-119602662D01*
X167513004Y-119611613D01*
X167423338Y-119804783D01*
X167419775Y-119814470D01*
X167362864Y-120019681D01*
X167360933Y-120029800D01*
X167338302Y-120241574D01*
X167338050Y-120251863D01*
X157380500Y-120251863D01*
X157380500Y-118864853D01*
X167939977Y-118864853D01*
X167945258Y-118871907D01*
X167992479Y-118899501D01*
X168041203Y-118951139D01*
X168054274Y-119020922D01*
X168027543Y-119086694D01*
X167987087Y-119120053D01*
X167978466Y-119124541D01*
X167969734Y-119130039D01*
X167949677Y-119145099D01*
X167941223Y-119156427D01*
X167947968Y-119168758D01*
X168687188Y-119907978D01*
X168701132Y-119915592D01*
X168702965Y-119915461D01*
X168709580Y-119911210D01*
X169453389Y-119167401D01*
X169460410Y-119154544D01*
X169453611Y-119145213D01*
X169449559Y-119142521D01*
X169412116Y-119121852D01*
X169362145Y-119071420D01*
X169347373Y-119001977D01*
X169372489Y-118935572D01*
X169399840Y-118908965D01*
X169449247Y-118873723D01*
X169457648Y-118863023D01*
X169450660Y-118849870D01*
X168712812Y-118112022D01*
X168698868Y-118104408D01*
X168697035Y-118104539D01*
X168690420Y-118108790D01*
X167946737Y-118852473D01*
X167939977Y-118864853D01*
X157380500Y-118864853D01*
X157380500Y-117711863D01*
X167338050Y-117711863D01*
X167350309Y-117924477D01*
X167351745Y-117934697D01*
X167398565Y-118142446D01*
X167401645Y-118152275D01*
X167481770Y-118349603D01*
X167486413Y-118358794D01*
X167566460Y-118489420D01*
X167576916Y-118498880D01*
X167585694Y-118495096D01*
X168327978Y-117752812D01*
X168335592Y-117738868D01*
X168335461Y-117737035D01*
X168331210Y-117730420D01*
X167589849Y-116989059D01*
X167578313Y-116982759D01*
X167566031Y-116992382D01*
X167518089Y-117062662D01*
X167513004Y-117071613D01*
X167423338Y-117264783D01*
X167419775Y-117274470D01*
X167362864Y-117479681D01*
X167360933Y-117489800D01*
X167338302Y-117701574D01*
X167338050Y-117711863D01*
X157380500Y-117711863D01*
X157380500Y-116324853D01*
X167939977Y-116324853D01*
X167945258Y-116331907D01*
X167992479Y-116359501D01*
X168041203Y-116411139D01*
X168054274Y-116480922D01*
X168027543Y-116546694D01*
X167987087Y-116580053D01*
X167978466Y-116584541D01*
X167969734Y-116590039D01*
X167949677Y-116605099D01*
X167941223Y-116616427D01*
X167947968Y-116628758D01*
X168687188Y-117367978D01*
X168701132Y-117375592D01*
X168702965Y-117375461D01*
X168709580Y-117371210D01*
X169453389Y-116627401D01*
X169460410Y-116614544D01*
X169453611Y-116605213D01*
X169449559Y-116602521D01*
X169412116Y-116581852D01*
X169362145Y-116531420D01*
X169347373Y-116461977D01*
X169372489Y-116395572D01*
X169399840Y-116368965D01*
X169449247Y-116333723D01*
X169457648Y-116323023D01*
X169450660Y-116309870D01*
X168712812Y-115572022D01*
X168698868Y-115564408D01*
X168697035Y-115564539D01*
X168690420Y-115568790D01*
X167946737Y-116312473D01*
X167939977Y-116324853D01*
X157380500Y-116324853D01*
X157380500Y-115171863D01*
X167338050Y-115171863D01*
X167350309Y-115384477D01*
X167351745Y-115394697D01*
X167398565Y-115602446D01*
X167401645Y-115612275D01*
X167481770Y-115809603D01*
X167486413Y-115818794D01*
X167566460Y-115949420D01*
X167576916Y-115958880D01*
X167585694Y-115955096D01*
X168327978Y-115212812D01*
X168335592Y-115198868D01*
X168335461Y-115197035D01*
X168331210Y-115190420D01*
X167589849Y-114449059D01*
X167578313Y-114442759D01*
X167566031Y-114452382D01*
X167518089Y-114522662D01*
X167513004Y-114531613D01*
X167423338Y-114724783D01*
X167419775Y-114734470D01*
X167362864Y-114939681D01*
X167360933Y-114949800D01*
X167338302Y-115161574D01*
X167338050Y-115171863D01*
X157380500Y-115171863D01*
X157380500Y-113784853D01*
X167939977Y-113784853D01*
X167945258Y-113791907D01*
X167992479Y-113819501D01*
X168041203Y-113871139D01*
X168054274Y-113940922D01*
X168027543Y-114006694D01*
X167987087Y-114040053D01*
X167978466Y-114044541D01*
X167969734Y-114050039D01*
X167949677Y-114065099D01*
X167941223Y-114076427D01*
X167947968Y-114088758D01*
X168687188Y-114827978D01*
X168701132Y-114835592D01*
X168702965Y-114835461D01*
X168709580Y-114831210D01*
X169453389Y-114087401D01*
X169460410Y-114074544D01*
X169453611Y-114065213D01*
X169449559Y-114062521D01*
X169412116Y-114041852D01*
X169362145Y-113991420D01*
X169347373Y-113921977D01*
X169372489Y-113855572D01*
X169399840Y-113828965D01*
X169449247Y-113793723D01*
X169457648Y-113783023D01*
X169450660Y-113769870D01*
X168712812Y-113032022D01*
X168698868Y-113024408D01*
X168697035Y-113024539D01*
X168690420Y-113028790D01*
X167946737Y-113772473D01*
X167939977Y-113784853D01*
X157380500Y-113784853D01*
X157380500Y-112631863D01*
X167338050Y-112631863D01*
X167350309Y-112844477D01*
X167351745Y-112854697D01*
X167398565Y-113062446D01*
X167401645Y-113072275D01*
X167481770Y-113269603D01*
X167486413Y-113278794D01*
X167566460Y-113409420D01*
X167576916Y-113418880D01*
X167585694Y-113415096D01*
X168327978Y-112672812D01*
X168335592Y-112658868D01*
X168335461Y-112657035D01*
X168331210Y-112650420D01*
X167589849Y-111909059D01*
X167578313Y-111902759D01*
X167566031Y-111912382D01*
X167518089Y-111982662D01*
X167513004Y-111991613D01*
X167423338Y-112184783D01*
X167419775Y-112194470D01*
X167362864Y-112399681D01*
X167360933Y-112409800D01*
X167338302Y-112621574D01*
X167338050Y-112631863D01*
X157380500Y-112631863D01*
X157380500Y-111244853D01*
X167939977Y-111244853D01*
X167945258Y-111251907D01*
X167992479Y-111279501D01*
X168041203Y-111331139D01*
X168054274Y-111400922D01*
X168027543Y-111466694D01*
X167987087Y-111500053D01*
X167978466Y-111504541D01*
X167969734Y-111510039D01*
X167949677Y-111525099D01*
X167941223Y-111536427D01*
X167947968Y-111548758D01*
X168687188Y-112287978D01*
X168701132Y-112295592D01*
X168702965Y-112295461D01*
X168709580Y-112291210D01*
X169453389Y-111547401D01*
X169460410Y-111534544D01*
X169453611Y-111525213D01*
X169449559Y-111522521D01*
X169412116Y-111501852D01*
X169362145Y-111451420D01*
X169347373Y-111381977D01*
X169372489Y-111315572D01*
X169399840Y-111288965D01*
X169449247Y-111253723D01*
X169457648Y-111243023D01*
X169450660Y-111229870D01*
X168712812Y-110492022D01*
X168698868Y-110484408D01*
X168697035Y-110484539D01*
X168690420Y-110488790D01*
X167946737Y-111232473D01*
X167939977Y-111244853D01*
X157380500Y-111244853D01*
X157380500Y-110091863D01*
X167338050Y-110091863D01*
X167350309Y-110304477D01*
X167351745Y-110314697D01*
X167398565Y-110522446D01*
X167401645Y-110532275D01*
X167481770Y-110729603D01*
X167486413Y-110738794D01*
X167566460Y-110869420D01*
X167576916Y-110878880D01*
X167585694Y-110875096D01*
X168327978Y-110132812D01*
X168335592Y-110118868D01*
X168335461Y-110117035D01*
X168331210Y-110110420D01*
X167589849Y-109369059D01*
X167578313Y-109362759D01*
X167566031Y-109372382D01*
X167518089Y-109442662D01*
X167513004Y-109451613D01*
X167423338Y-109644783D01*
X167419775Y-109654470D01*
X167362864Y-109859681D01*
X167360933Y-109869800D01*
X167338302Y-110081574D01*
X167338050Y-110091863D01*
X157380500Y-110091863D01*
X157380500Y-108704853D01*
X167939977Y-108704853D01*
X167945258Y-108711907D01*
X167992479Y-108739501D01*
X168041203Y-108791139D01*
X168054274Y-108860922D01*
X168027543Y-108926694D01*
X167987087Y-108960053D01*
X167978466Y-108964541D01*
X167969734Y-108970039D01*
X167949677Y-108985099D01*
X167941223Y-108996427D01*
X167947968Y-109008758D01*
X168687188Y-109747978D01*
X168701132Y-109755592D01*
X168702965Y-109755461D01*
X168709580Y-109751210D01*
X169453389Y-109007401D01*
X169460410Y-108994544D01*
X169453611Y-108985213D01*
X169449559Y-108982521D01*
X169412116Y-108961852D01*
X169362145Y-108911420D01*
X169347373Y-108841977D01*
X169372489Y-108775572D01*
X169399840Y-108748965D01*
X169449247Y-108713723D01*
X169457648Y-108703023D01*
X169450660Y-108689870D01*
X168712812Y-107952022D01*
X168698868Y-107944408D01*
X168697035Y-107944539D01*
X168690420Y-107948790D01*
X167946737Y-108692473D01*
X167939977Y-108704853D01*
X157380500Y-108704853D01*
X157380500Y-107551863D01*
X167338050Y-107551863D01*
X167350309Y-107764477D01*
X167351745Y-107774697D01*
X167398565Y-107982446D01*
X167401645Y-107992275D01*
X167481770Y-108189603D01*
X167486413Y-108198794D01*
X167566460Y-108329420D01*
X167576916Y-108338880D01*
X167585694Y-108335096D01*
X168327978Y-107592812D01*
X168335592Y-107578868D01*
X168335461Y-107577035D01*
X168331210Y-107570420D01*
X167589849Y-106829059D01*
X167578313Y-106822759D01*
X167566031Y-106832382D01*
X167518089Y-106902662D01*
X167513004Y-106911613D01*
X167423338Y-107104783D01*
X167419775Y-107114470D01*
X167362864Y-107319681D01*
X167360933Y-107329800D01*
X167338302Y-107541574D01*
X167338050Y-107551863D01*
X157380500Y-107551863D01*
X157380500Y-105666196D01*
X157400502Y-105598075D01*
X157454158Y-105551582D01*
X157506613Y-105540196D01*
X163355817Y-105545460D01*
X167582261Y-105549264D01*
X167650364Y-105569327D01*
X167691267Y-105612263D01*
X167692775Y-105614875D01*
X167695195Y-105620124D01*
X167817740Y-105793521D01*
X167969832Y-105941683D01*
X167974628Y-105944888D01*
X167974631Y-105944890D01*
X168002763Y-105963687D01*
X168146377Y-106059647D01*
X168151680Y-106061926D01*
X168151685Y-106061928D01*
X168179293Y-106073789D01*
X168199862Y-106082626D01*
X168254554Y-106127892D01*
X168276092Y-106195543D01*
X168257635Y-106264099D01*
X168205045Y-106311794D01*
X168189271Y-106318157D01*
X168176873Y-106322210D01*
X168167359Y-106326209D01*
X167978466Y-106424540D01*
X167969734Y-106430039D01*
X167949677Y-106445099D01*
X167941223Y-106456427D01*
X167947968Y-106468758D01*
X168687188Y-107207978D01*
X168701132Y-107215592D01*
X168702965Y-107215461D01*
X168709580Y-107211210D01*
X169453389Y-106467401D01*
X169460410Y-106454544D01*
X169453611Y-106445213D01*
X169449554Y-106442518D01*
X169263117Y-106339599D01*
X169253704Y-106335368D01*
X169208197Y-106319253D01*
X169150660Y-106277658D01*
X169124745Y-106211560D01*
X169138679Y-106141945D01*
X169188690Y-106090546D01*
X169357172Y-105996192D01*
X169520420Y-105860420D01*
X169656192Y-105697172D01*
X169759940Y-105511916D01*
X169790565Y-105421699D01*
X169826335Y-105316324D01*
X169826336Y-105316319D01*
X169828191Y-105310855D01*
X169829019Y-105305146D01*
X169829020Y-105305141D01*
X169840387Y-105226742D01*
X169843287Y-105206738D01*
X169872857Y-105142193D01*
X169932628Y-105103881D01*
X170003625Y-105103965D01*
X170063305Y-105142420D01*
X170092722Y-105207036D01*
X170093565Y-105215147D01*
X170093658Y-105215733D01*
X170094036Y-105221503D01*
X170146301Y-105427299D01*
X170235195Y-105620124D01*
X170357740Y-105793521D01*
X170509832Y-105941683D01*
X170514628Y-105944888D01*
X170514631Y-105944890D01*
X170542763Y-105963687D01*
X170686377Y-106059647D01*
X170691685Y-106061928D01*
X170691686Y-106061928D01*
X170876160Y-106141184D01*
X170876163Y-106141185D01*
X170881463Y-106143462D01*
X170887092Y-106144736D01*
X170887093Y-106144736D01*
X171082087Y-106188859D01*
X171144114Y-106223402D01*
X171177618Y-106285996D01*
X171171964Y-106356767D01*
X171128945Y-106413246D01*
X171075617Y-106435932D01*
X170945395Y-106458308D01*
X170945392Y-106458309D01*
X170939705Y-106459286D01*
X170740500Y-106532776D01*
X170558023Y-106641339D01*
X170398385Y-106781337D01*
X170394818Y-106785862D01*
X170394813Y-106785867D01*
X170272663Y-106940814D01*
X170266933Y-106948083D01*
X170264245Y-106953192D01*
X170191702Y-107091074D01*
X170142282Y-107142047D01*
X170073150Y-107158210D01*
X170006254Y-107134431D01*
X169964643Y-107082649D01*
X169902972Y-106940814D01*
X169898105Y-106931739D01*
X169833063Y-106831197D01*
X169822377Y-106821995D01*
X169812812Y-106826398D01*
X169072022Y-107567188D01*
X169064408Y-107581132D01*
X169064539Y-107582965D01*
X169068790Y-107589580D01*
X169810474Y-108331264D01*
X169822484Y-108337823D01*
X169834223Y-108328855D01*
X169865004Y-108286019D01*
X169870315Y-108277180D01*
X169964673Y-108086260D01*
X169965578Y-108083976D01*
X169966191Y-108083191D01*
X169966964Y-108081626D01*
X169967287Y-108081786D01*
X170009253Y-108028003D01*
X170076256Y-108004527D01*
X170145314Y-108021003D01*
X170197155Y-108077609D01*
X170235195Y-108160124D01*
X170357740Y-108333521D01*
X170509832Y-108481683D01*
X170514628Y-108484888D01*
X170514631Y-108484890D01*
X170585886Y-108532501D01*
X170686377Y-108599647D01*
X170691685Y-108601928D01*
X170691686Y-108601928D01*
X170876160Y-108681184D01*
X170876163Y-108681185D01*
X170881463Y-108683462D01*
X170887092Y-108684736D01*
X170887093Y-108684736D01*
X171082087Y-108728859D01*
X171144114Y-108763402D01*
X171177618Y-108825996D01*
X171171964Y-108896767D01*
X171128945Y-108953246D01*
X171075617Y-108975932D01*
X170945395Y-108998308D01*
X170945392Y-108998309D01*
X170939705Y-108999286D01*
X170740500Y-109072776D01*
X170558023Y-109181339D01*
X170398385Y-109321337D01*
X170394818Y-109325862D01*
X170394813Y-109325867D01*
X170272663Y-109480814D01*
X170266933Y-109488083D01*
X170264245Y-109493192D01*
X170191702Y-109631074D01*
X170142282Y-109682047D01*
X170073150Y-109698210D01*
X170006254Y-109674431D01*
X169964643Y-109622649D01*
X169902972Y-109480814D01*
X169898105Y-109471739D01*
X169833063Y-109371197D01*
X169822377Y-109361995D01*
X169812812Y-109366398D01*
X169072022Y-110107188D01*
X169064408Y-110121132D01*
X169064539Y-110122965D01*
X169068790Y-110129580D01*
X169810474Y-110871264D01*
X169822484Y-110877823D01*
X169834223Y-110868855D01*
X169865004Y-110826019D01*
X169870315Y-110817180D01*
X169964673Y-110626260D01*
X169965578Y-110623976D01*
X169966191Y-110623191D01*
X169966964Y-110621626D01*
X169967287Y-110621786D01*
X170009253Y-110568003D01*
X170076256Y-110544527D01*
X170145314Y-110561003D01*
X170197155Y-110617609D01*
X170235195Y-110700124D01*
X170357740Y-110873521D01*
X170509832Y-111021683D01*
X170514628Y-111024888D01*
X170514631Y-111024890D01*
X170585886Y-111072501D01*
X170686377Y-111139647D01*
X170691685Y-111141928D01*
X170691686Y-111141928D01*
X170876160Y-111221184D01*
X170876163Y-111221185D01*
X170881463Y-111223462D01*
X170887092Y-111224736D01*
X170887093Y-111224736D01*
X171082087Y-111268859D01*
X171144114Y-111303402D01*
X171177618Y-111365996D01*
X171171964Y-111436767D01*
X171128945Y-111493246D01*
X171075617Y-111515932D01*
X170945395Y-111538308D01*
X170945392Y-111538309D01*
X170939705Y-111539286D01*
X170740500Y-111612776D01*
X170558023Y-111721339D01*
X170398385Y-111861337D01*
X170394818Y-111865862D01*
X170394813Y-111865867D01*
X170272663Y-112020814D01*
X170266933Y-112028083D01*
X170264245Y-112033192D01*
X170191702Y-112171074D01*
X170142282Y-112222047D01*
X170073150Y-112238210D01*
X170006254Y-112214431D01*
X169964643Y-112162649D01*
X169902972Y-112020814D01*
X169898105Y-112011739D01*
X169833063Y-111911197D01*
X169822377Y-111901995D01*
X169812812Y-111906398D01*
X169072022Y-112647188D01*
X169064408Y-112661132D01*
X169064539Y-112662965D01*
X169068790Y-112669580D01*
X169810474Y-113411264D01*
X169822484Y-113417823D01*
X169834223Y-113408855D01*
X169865004Y-113366019D01*
X169870315Y-113357180D01*
X169964673Y-113166260D01*
X169965578Y-113163976D01*
X169966191Y-113163191D01*
X169966964Y-113161626D01*
X169967287Y-113161786D01*
X170009253Y-113108003D01*
X170076256Y-113084527D01*
X170145314Y-113101003D01*
X170197155Y-113157609D01*
X170235195Y-113240124D01*
X170357740Y-113413521D01*
X170509832Y-113561683D01*
X170514628Y-113564888D01*
X170514631Y-113564890D01*
X170585886Y-113612501D01*
X170686377Y-113679647D01*
X170691685Y-113681928D01*
X170691686Y-113681928D01*
X170876160Y-113761184D01*
X170876163Y-113761185D01*
X170881463Y-113763462D01*
X170887092Y-113764736D01*
X170887093Y-113764736D01*
X171082087Y-113808859D01*
X171144114Y-113843402D01*
X171177618Y-113905996D01*
X171171964Y-113976767D01*
X171128945Y-114033246D01*
X171075617Y-114055932D01*
X170945395Y-114078308D01*
X170945392Y-114078309D01*
X170939705Y-114079286D01*
X170740500Y-114152776D01*
X170558023Y-114261339D01*
X170398385Y-114401337D01*
X170394818Y-114405862D01*
X170394813Y-114405867D01*
X170272663Y-114560814D01*
X170266933Y-114568083D01*
X170264245Y-114573192D01*
X170191702Y-114711074D01*
X170142282Y-114762047D01*
X170073150Y-114778210D01*
X170006254Y-114754431D01*
X169964643Y-114702649D01*
X169902972Y-114560814D01*
X169898105Y-114551739D01*
X169833063Y-114451197D01*
X169822377Y-114441995D01*
X169812812Y-114446398D01*
X169072022Y-115187188D01*
X169064408Y-115201132D01*
X169064539Y-115202965D01*
X169068790Y-115209580D01*
X169810474Y-115951264D01*
X169822484Y-115957823D01*
X169834223Y-115948855D01*
X169865004Y-115906019D01*
X169870315Y-115897180D01*
X169964673Y-115706260D01*
X169965578Y-115703976D01*
X169966191Y-115703191D01*
X169966964Y-115701626D01*
X169967287Y-115701786D01*
X170009253Y-115648003D01*
X170076256Y-115624527D01*
X170145314Y-115641003D01*
X170197155Y-115697609D01*
X170235195Y-115780124D01*
X170357740Y-115953521D01*
X170430202Y-116024111D01*
X170500142Y-116092243D01*
X170509832Y-116101683D01*
X170514628Y-116104888D01*
X170514631Y-116104890D01*
X170585886Y-116152501D01*
X170686377Y-116219647D01*
X170691685Y-116221928D01*
X170691686Y-116221928D01*
X170876160Y-116301184D01*
X170876163Y-116301185D01*
X170881463Y-116303462D01*
X170887092Y-116304736D01*
X170887093Y-116304736D01*
X171082087Y-116348859D01*
X171144114Y-116383402D01*
X171177618Y-116445996D01*
X171171964Y-116516767D01*
X171128945Y-116573246D01*
X171075617Y-116595932D01*
X170945395Y-116618308D01*
X170945392Y-116618309D01*
X170939705Y-116619286D01*
X170740500Y-116692776D01*
X170558023Y-116801339D01*
X170398385Y-116941337D01*
X170394818Y-116945862D01*
X170394813Y-116945867D01*
X170272663Y-117100814D01*
X170266933Y-117108083D01*
X170264245Y-117113192D01*
X170191702Y-117251074D01*
X170142282Y-117302047D01*
X170073150Y-117318210D01*
X170006254Y-117294431D01*
X169964643Y-117242649D01*
X169902972Y-117100814D01*
X169898105Y-117091739D01*
X169833063Y-116991197D01*
X169822377Y-116981995D01*
X169812812Y-116986398D01*
X169072022Y-117727188D01*
X169064408Y-117741132D01*
X169064539Y-117742965D01*
X169068790Y-117749580D01*
X169810474Y-118491264D01*
X169822484Y-118497823D01*
X169834223Y-118488855D01*
X169865004Y-118446019D01*
X169870315Y-118437180D01*
X169964673Y-118246260D01*
X169965578Y-118243976D01*
X169966191Y-118243191D01*
X169966964Y-118241626D01*
X169967287Y-118241786D01*
X170009253Y-118188003D01*
X170076256Y-118164527D01*
X170145314Y-118181003D01*
X170197155Y-118237609D01*
X170235195Y-118320124D01*
X170357740Y-118493521D01*
X170509832Y-118641683D01*
X170514628Y-118644888D01*
X170514631Y-118644890D01*
X170634289Y-118724843D01*
X170686377Y-118759647D01*
X170691685Y-118761928D01*
X170691686Y-118761928D01*
X170876160Y-118841184D01*
X170876163Y-118841185D01*
X170881463Y-118843462D01*
X170887092Y-118844736D01*
X170887093Y-118844736D01*
X171082087Y-118888859D01*
X171144114Y-118923402D01*
X171177618Y-118985996D01*
X171171964Y-119056767D01*
X171128945Y-119113246D01*
X171075617Y-119135932D01*
X170945395Y-119158308D01*
X170945392Y-119158309D01*
X170939705Y-119159286D01*
X170740500Y-119232776D01*
X170558023Y-119341339D01*
X170398385Y-119481337D01*
X170394818Y-119485862D01*
X170394813Y-119485867D01*
X170272663Y-119640814D01*
X170266933Y-119648083D01*
X170264245Y-119653192D01*
X170191702Y-119791074D01*
X170142282Y-119842047D01*
X170073150Y-119858210D01*
X170006254Y-119834431D01*
X169964643Y-119782649D01*
X169902972Y-119640814D01*
X169898105Y-119631739D01*
X169833063Y-119531197D01*
X169822377Y-119521995D01*
X169812812Y-119526398D01*
X169072022Y-120267188D01*
X169064408Y-120281132D01*
X169064539Y-120282965D01*
X169068790Y-120289580D01*
X169810474Y-121031264D01*
X169822484Y-121037823D01*
X169834223Y-121028855D01*
X169865004Y-120986019D01*
X169870315Y-120977180D01*
X169964673Y-120786260D01*
X169965578Y-120783976D01*
X169966191Y-120783191D01*
X169966964Y-120781626D01*
X169967287Y-120781786D01*
X170009253Y-120728003D01*
X170076256Y-120704527D01*
X170145314Y-120721003D01*
X170197155Y-120777609D01*
X170235195Y-120860124D01*
X170357740Y-121033521D01*
X170509832Y-121181683D01*
X170514628Y-121184888D01*
X170514631Y-121184890D01*
X170585886Y-121232501D01*
X170686377Y-121299647D01*
X170691685Y-121301928D01*
X170691686Y-121301928D01*
X170876160Y-121381184D01*
X170876163Y-121381185D01*
X170881463Y-121383462D01*
X170887092Y-121384736D01*
X170887093Y-121384736D01*
X171082921Y-121429048D01*
X171082924Y-121429048D01*
X171088557Y-121430323D01*
X171094328Y-121430550D01*
X171094330Y-121430550D01*
X171159086Y-121433094D01*
X171300723Y-121438659D01*
X171417507Y-121421726D01*
X171505141Y-121409020D01*
X171505146Y-121409019D01*
X171510855Y-121408191D01*
X171516319Y-121406336D01*
X171516324Y-121406335D01*
X171706448Y-121341796D01*
X171711916Y-121339940D01*
X171897172Y-121236192D01*
X172060420Y-121100420D01*
X172196192Y-120937172D01*
X172299940Y-120751916D01*
X172328664Y-120667299D01*
X172366335Y-120556324D01*
X172366336Y-120556319D01*
X172368191Y-120550855D01*
X172369019Y-120545146D01*
X172369020Y-120545141D01*
X172398126Y-120344397D01*
X172398659Y-120340723D01*
X172400249Y-120280000D01*
X172393458Y-120206093D01*
X172407143Y-120136428D01*
X172456319Y-120085221D01*
X172525374Y-120068729D01*
X172592382Y-120092189D01*
X172608024Y-120105469D01*
X179137795Y-126635240D01*
X179171821Y-126697552D01*
X179174700Y-126724335D01*
X179174700Y-130171191D01*
X179174408Y-130179762D01*
X179170493Y-130237184D01*
X179171798Y-130244660D01*
X179171798Y-130244663D01*
X179181430Y-130299850D01*
X179182393Y-130306375D01*
X179190029Y-130369473D01*
X179192713Y-130376577D01*
X179193427Y-130379483D01*
X179197688Y-130395055D01*
X179198539Y-130397874D01*
X179199844Y-130405351D01*
X179202893Y-130412297D01*
X179202894Y-130412300D01*
X179225405Y-130463581D01*
X179227895Y-130469685D01*
X179250370Y-130529163D01*
X179254674Y-130535424D01*
X179256056Y-130538069D01*
X179263871Y-130552110D01*
X179265405Y-130554704D01*
X179268460Y-130561664D01*
X179273087Y-130567694D01*
X179283241Y-130580927D01*
X179308841Y-130647147D01*
X179294576Y-130716696D01*
X179289841Y-130724863D01*
X179196211Y-130873258D01*
X179117530Y-131070471D01*
X179116403Y-131076139D01*
X179116402Y-131076141D01*
X179102507Y-131146000D01*
X179076107Y-131278721D01*
X179076031Y-131284496D01*
X179076031Y-131284500D01*
X179075711Y-131308968D01*
X179073328Y-131491032D01*
X179109286Y-131700295D01*
X179182776Y-131899500D01*
X179291339Y-132081977D01*
X179431337Y-132241615D01*
X179435862Y-132245182D01*
X179435867Y-132245187D01*
X179593549Y-132369493D01*
X179598083Y-132373067D01*
X179603192Y-132375755D01*
X179780880Y-132469241D01*
X179780885Y-132469243D01*
X179785992Y-132471930D01*
X179988771Y-132534895D01*
X180161176Y-132555300D01*
X181983861Y-132555300D01*
X182068671Y-132547507D01*
X182135685Y-132541350D01*
X182135688Y-132541349D01*
X182141439Y-132540821D01*
X182160044Y-132535574D01*
X182340236Y-132484754D01*
X182340235Y-132484754D01*
X182345796Y-132483186D01*
X182536228Y-132389275D01*
X182706358Y-132262233D01*
X182850487Y-132106315D01*
X182963789Y-131926742D01*
X183042470Y-131729529D01*
X183056327Y-131659865D01*
X183082766Y-131526946D01*
X183082766Y-131526944D01*
X183083893Y-131521279D01*
X183084215Y-131496730D01*
X183086596Y-131314750D01*
X183086672Y-131308968D01*
X183055556Y-131127885D01*
X183872000Y-131127885D01*
X183876475Y-131143124D01*
X183877865Y-131144329D01*
X183885548Y-131146000D01*
X185307885Y-131146000D01*
X185323124Y-131141525D01*
X185324329Y-131140135D01*
X185326000Y-131132452D01*
X185326000Y-131127885D01*
X185834000Y-131127885D01*
X185838475Y-131143124D01*
X185839865Y-131144329D01*
X185847548Y-131146000D01*
X187269885Y-131146000D01*
X187285124Y-131141525D01*
X187286329Y-131140135D01*
X187288000Y-131132452D01*
X187288000Y-130136313D01*
X187287819Y-130131547D01*
X187273679Y-129945653D01*
X187272237Y-129936230D01*
X187215719Y-129692399D01*
X187212863Y-129683286D01*
X187120120Y-129450823D01*
X187115917Y-129442243D01*
X186989077Y-129226482D01*
X186983626Y-129218639D01*
X186825607Y-129024543D01*
X186819034Y-129017617D01*
X186633479Y-128849660D01*
X186625927Y-128843802D01*
X186417098Y-128705843D01*
X186408761Y-128701202D01*
X186181465Y-128596418D01*
X186172511Y-128593088D01*
X185931973Y-128523887D01*
X185922639Y-128521955D01*
X185851966Y-128512838D01*
X185837736Y-128515096D01*
X185834000Y-128528171D01*
X185834000Y-131127885D01*
X185326000Y-131127885D01*
X185326000Y-128528422D01*
X185322227Y-128515571D01*
X185307130Y-128513651D01*
X185158692Y-128539958D01*
X185149460Y-128542329D01*
X184912444Y-128622785D01*
X184903675Y-128626525D01*
X184681553Y-128741909D01*
X184673453Y-128746931D01*
X184471341Y-128894584D01*
X184464085Y-128900781D01*
X184286644Y-129077296D01*
X184280404Y-129084525D01*
X184131700Y-129285853D01*
X184126630Y-129293934D01*
X184010090Y-129515440D01*
X184006301Y-129524196D01*
X183924605Y-129760788D01*
X183922186Y-129770010D01*
X183877083Y-130016969D01*
X183876147Y-130024975D01*
X183872088Y-130102427D01*
X183872000Y-130105763D01*
X183872000Y-131127885D01*
X183055556Y-131127885D01*
X183050714Y-131099705D01*
X182977224Y-130900500D01*
X182868661Y-130718023D01*
X182728663Y-130558385D01*
X182724138Y-130554818D01*
X182724133Y-130554813D01*
X182566451Y-130430507D01*
X182566449Y-130430506D01*
X182561917Y-130426933D01*
X182520896Y-130405351D01*
X182379120Y-130330759D01*
X182379115Y-130330757D01*
X182374008Y-130328070D01*
X182171229Y-130265105D01*
X181998824Y-130244700D01*
X180974334Y-130244700D01*
X180906213Y-130224698D01*
X180885239Y-130207795D01*
X180622205Y-129944761D01*
X180588179Y-129882449D01*
X180585300Y-129855666D01*
X180585300Y-126408808D01*
X180585592Y-126400237D01*
X180588990Y-126350392D01*
X180589507Y-126342816D01*
X180588202Y-126335337D01*
X180578570Y-126280150D01*
X180577607Y-126273625D01*
X180570884Y-126218072D01*
X180569971Y-126210527D01*
X180567287Y-126203423D01*
X180566573Y-126200517D01*
X180562312Y-126184945D01*
X180561461Y-126182126D01*
X180560156Y-126174649D01*
X180534593Y-126116414D01*
X180532103Y-126110311D01*
X180509630Y-126050837D01*
X180505326Y-126044576D01*
X180503944Y-126041931D01*
X180496129Y-126027890D01*
X180494595Y-126025297D01*
X180491540Y-126018336D01*
X180452823Y-125967880D01*
X180448959Y-125962561D01*
X180412939Y-125910151D01*
X180366640Y-125868900D01*
X180361365Y-125863920D01*
X173811131Y-119313687D01*
X183872000Y-119313687D01*
X183872181Y-119318453D01*
X183886321Y-119504347D01*
X183887763Y-119513770D01*
X183944281Y-119757601D01*
X183947137Y-119766714D01*
X184039880Y-119999177D01*
X184044083Y-120007757D01*
X184170923Y-120223518D01*
X184176374Y-120231361D01*
X184334393Y-120425457D01*
X184340966Y-120432383D01*
X184526521Y-120600340D01*
X184534073Y-120606198D01*
X184742902Y-120744157D01*
X184751239Y-120748798D01*
X184978535Y-120853582D01*
X184987489Y-120856912D01*
X185228027Y-120926113D01*
X185237361Y-120928045D01*
X185308034Y-120937162D01*
X185322264Y-120934904D01*
X185326000Y-120921829D01*
X185326000Y-120921578D01*
X185834000Y-120921578D01*
X185837773Y-120934429D01*
X185852870Y-120936349D01*
X186001308Y-120910042D01*
X186010540Y-120907671D01*
X186247556Y-120827215D01*
X186256325Y-120823475D01*
X186478447Y-120708091D01*
X186486547Y-120703069D01*
X186688659Y-120555416D01*
X186695915Y-120549219D01*
X186873356Y-120372704D01*
X186879596Y-120365475D01*
X187028300Y-120164147D01*
X187033370Y-120156066D01*
X187149910Y-119934560D01*
X187153699Y-119925804D01*
X187235395Y-119689212D01*
X187237814Y-119679990D01*
X187282917Y-119433031D01*
X187283853Y-119425025D01*
X187287912Y-119347573D01*
X187288000Y-119344237D01*
X187288000Y-118322115D01*
X187283525Y-118306876D01*
X187282135Y-118305671D01*
X187274452Y-118304000D01*
X185852115Y-118304000D01*
X185836876Y-118308475D01*
X185835671Y-118309865D01*
X185834000Y-118317548D01*
X185834000Y-120921578D01*
X185326000Y-120921578D01*
X185326000Y-118322115D01*
X185321525Y-118306876D01*
X185320135Y-118305671D01*
X185312452Y-118304000D01*
X183890115Y-118304000D01*
X183874876Y-118308475D01*
X183873671Y-118309865D01*
X183872000Y-118317548D01*
X183872000Y-119313687D01*
X173811131Y-119313687D01*
X172430598Y-117933154D01*
X172396572Y-117870842D01*
X172394997Y-117825978D01*
X172398127Y-117804394D01*
X172398127Y-117804389D01*
X172398659Y-117800723D01*
X172400249Y-117740000D01*
X172380821Y-117528561D01*
X172323186Y-117324204D01*
X172229275Y-117133772D01*
X172102233Y-116963642D01*
X171946315Y-116819513D01*
X171766742Y-116706211D01*
X171733068Y-116692776D01*
X171668382Y-116666969D01*
X171569529Y-116627530D01*
X171563861Y-116626403D01*
X171563859Y-116626402D01*
X171393567Y-116592529D01*
X171330657Y-116559622D01*
X171295525Y-116497927D01*
X171299325Y-116427032D01*
X171340851Y-116369446D01*
X171400066Y-116344255D01*
X171510855Y-116328191D01*
X171516319Y-116326336D01*
X171516324Y-116326335D01*
X171706448Y-116261796D01*
X171711916Y-116259940D01*
X171897172Y-116156192D01*
X172060420Y-116020420D01*
X172196192Y-115857172D01*
X172299940Y-115671916D01*
X172328664Y-115587299D01*
X172366335Y-115476324D01*
X172366336Y-115476319D01*
X172368191Y-115470855D01*
X172369019Y-115465146D01*
X172369020Y-115465141D01*
X172398126Y-115264397D01*
X172398659Y-115260723D01*
X172400249Y-115200000D01*
X172384863Y-115032550D01*
X172381350Y-114994315D01*
X172381349Y-114994312D01*
X172380821Y-114988561D01*
X172323186Y-114784204D01*
X172229275Y-114593772D01*
X172102233Y-114423642D01*
X171946315Y-114279513D01*
X171766742Y-114166211D01*
X171733068Y-114152776D01*
X171706096Y-114142015D01*
X171569529Y-114087530D01*
X171563861Y-114086403D01*
X171563859Y-114086402D01*
X171393567Y-114052529D01*
X171330657Y-114019622D01*
X171295525Y-113957927D01*
X171299325Y-113887032D01*
X171340851Y-113829446D01*
X171400066Y-113804255D01*
X171510855Y-113788191D01*
X171516319Y-113786336D01*
X171516324Y-113786335D01*
X171706448Y-113721796D01*
X171711916Y-113719940D01*
X171897172Y-113616192D01*
X172060420Y-113480420D01*
X172118381Y-113410729D01*
X172177318Y-113371147D01*
X172215254Y-113365300D01*
X173115665Y-113365300D01*
X173183786Y-113385302D01*
X173204760Y-113402205D01*
X178330896Y-118528340D01*
X178336749Y-118534605D01*
X178374596Y-118577990D01*
X178380810Y-118582357D01*
X178426634Y-118614563D01*
X178431929Y-118618496D01*
X178465591Y-118644890D01*
X178481952Y-118657719D01*
X178488874Y-118660844D01*
X178491408Y-118662379D01*
X178505415Y-118670368D01*
X178508042Y-118671777D01*
X178514262Y-118676148D01*
X178521345Y-118678910D01*
X178521346Y-118678910D01*
X178573498Y-118699243D01*
X178579571Y-118701795D01*
X178637538Y-118727969D01*
X178645006Y-118729353D01*
X178647862Y-118730248D01*
X178663347Y-118734658D01*
X178666231Y-118735399D01*
X178673311Y-118738159D01*
X178736360Y-118746459D01*
X178742858Y-118747489D01*
X178805389Y-118759078D01*
X178812969Y-118758641D01*
X178812970Y-118758641D01*
X178867284Y-118755509D01*
X178874537Y-118755300D01*
X179254703Y-118755300D01*
X179322824Y-118775302D01*
X179349436Y-118798223D01*
X179431337Y-118891615D01*
X179435862Y-118895182D01*
X179435867Y-118895187D01*
X179571330Y-119001977D01*
X179598083Y-119023067D01*
X179603192Y-119025755D01*
X179780880Y-119119241D01*
X179780885Y-119119243D01*
X179785992Y-119121930D01*
X179988771Y-119184895D01*
X180161176Y-119205300D01*
X181983861Y-119205300D01*
X182068671Y-119197507D01*
X182135685Y-119191350D01*
X182135688Y-119191349D01*
X182141439Y-119190821D01*
X182160044Y-119185574D01*
X182340236Y-119134754D01*
X182340235Y-119134754D01*
X182345796Y-119133186D01*
X182536228Y-119039275D01*
X182706358Y-118912233D01*
X182832936Y-118775302D01*
X182846568Y-118760555D01*
X182846570Y-118760552D01*
X182850487Y-118756315D01*
X182963789Y-118576742D01*
X183042470Y-118379529D01*
X183043598Y-118373859D01*
X183082766Y-118176946D01*
X183082766Y-118176944D01*
X183083893Y-118171279D01*
X183083982Y-118164527D01*
X183086596Y-117964750D01*
X183086672Y-117958968D01*
X183085693Y-117953270D01*
X183055556Y-117777885D01*
X183872000Y-117777885D01*
X183876475Y-117793124D01*
X183877865Y-117794329D01*
X183885548Y-117796000D01*
X185307885Y-117796000D01*
X185323124Y-117791525D01*
X185324329Y-117790135D01*
X185326000Y-117782452D01*
X185326000Y-117777885D01*
X185834000Y-117777885D01*
X185838475Y-117793124D01*
X185839865Y-117794329D01*
X185847548Y-117796000D01*
X187269885Y-117796000D01*
X187285124Y-117791525D01*
X187286329Y-117790135D01*
X187288000Y-117782452D01*
X187288000Y-116786313D01*
X187287819Y-116781547D01*
X187273679Y-116595653D01*
X187272237Y-116586230D01*
X187215719Y-116342399D01*
X187212863Y-116333286D01*
X187120120Y-116100823D01*
X187115917Y-116092243D01*
X186989077Y-115876482D01*
X186983626Y-115868639D01*
X186825607Y-115674543D01*
X186819034Y-115667617D01*
X186633479Y-115499660D01*
X186625927Y-115493802D01*
X186417098Y-115355843D01*
X186408761Y-115351202D01*
X186181465Y-115246418D01*
X186172511Y-115243088D01*
X185931973Y-115173887D01*
X185922639Y-115171955D01*
X185851966Y-115162838D01*
X185837736Y-115165096D01*
X185834000Y-115178171D01*
X185834000Y-117777885D01*
X185326000Y-117777885D01*
X185326000Y-115178422D01*
X185322227Y-115165571D01*
X185307130Y-115163651D01*
X185158692Y-115189958D01*
X185149460Y-115192329D01*
X184912444Y-115272785D01*
X184903675Y-115276525D01*
X184681553Y-115391909D01*
X184673453Y-115396931D01*
X184471341Y-115544584D01*
X184464085Y-115550781D01*
X184286644Y-115727296D01*
X184280404Y-115734525D01*
X184131700Y-115935853D01*
X184126630Y-115943934D01*
X184010090Y-116165440D01*
X184006301Y-116174196D01*
X183924605Y-116410788D01*
X183922186Y-116420010D01*
X183877083Y-116666969D01*
X183876147Y-116674975D01*
X183872088Y-116752427D01*
X183872000Y-116755763D01*
X183872000Y-117777885D01*
X183055556Y-117777885D01*
X183051692Y-117755395D01*
X183051691Y-117755392D01*
X183050714Y-117749705D01*
X182977224Y-117550500D01*
X182868661Y-117368023D01*
X182728663Y-117208385D01*
X182724138Y-117204818D01*
X182724133Y-117204813D01*
X182566451Y-117080507D01*
X182566449Y-117080506D01*
X182561917Y-117076933D01*
X182534792Y-117062662D01*
X182379120Y-116980759D01*
X182379115Y-116980757D01*
X182374008Y-116978070D01*
X182171229Y-116915105D01*
X181998824Y-116894700D01*
X180176139Y-116894700D01*
X180091329Y-116902493D01*
X180024315Y-116908650D01*
X180024312Y-116908651D01*
X180018561Y-116909179D01*
X180013002Y-116910747D01*
X180013001Y-116910747D01*
X179997549Y-116915105D01*
X179814204Y-116966814D01*
X179623772Y-117060725D01*
X179453642Y-117187767D01*
X179449728Y-117192001D01*
X179449726Y-117192003D01*
X179345986Y-117304229D01*
X179285057Y-117340674D01*
X179253461Y-117344700D01*
X179194335Y-117344700D01*
X179126214Y-117324698D01*
X179105240Y-117307795D01*
X173979104Y-112181660D01*
X173973250Y-112175394D01*
X173940398Y-112137735D01*
X173935404Y-112132010D01*
X173883365Y-112095437D01*
X173878071Y-112091504D01*
X173834026Y-112056968D01*
X173834024Y-112056967D01*
X173828048Y-112052281D01*
X173821126Y-112049156D01*
X173818592Y-112047621D01*
X173804585Y-112039632D01*
X173801958Y-112038223D01*
X173795738Y-112033852D01*
X173762297Y-112020814D01*
X173736502Y-112010757D01*
X173730429Y-112008205D01*
X173672462Y-111982031D01*
X173664994Y-111980647D01*
X173662138Y-111979752D01*
X173646653Y-111975342D01*
X173643769Y-111974601D01*
X173636689Y-111971841D01*
X173573640Y-111963541D01*
X173567142Y-111962511D01*
X173504611Y-111950922D01*
X173497030Y-111951359D01*
X173497029Y-111951359D01*
X173442709Y-111954491D01*
X173435456Y-111954700D01*
X172218459Y-111954700D01*
X172150338Y-111934698D01*
X172117502Y-111904090D01*
X172115938Y-111901995D01*
X172102233Y-111883642D01*
X171946315Y-111739513D01*
X171766742Y-111626211D01*
X171733068Y-111612776D01*
X171706096Y-111602015D01*
X171569529Y-111547530D01*
X171563861Y-111546403D01*
X171563859Y-111546402D01*
X171393567Y-111512529D01*
X171330657Y-111479622D01*
X171295525Y-111417927D01*
X171299325Y-111347032D01*
X171340851Y-111289446D01*
X171400066Y-111264255D01*
X171510855Y-111248191D01*
X171516319Y-111246336D01*
X171516324Y-111246335D01*
X171706448Y-111181796D01*
X171711916Y-111179940D01*
X171897172Y-111076192D01*
X172060420Y-110940420D01*
X172196192Y-110777172D01*
X172299940Y-110591916D01*
X172328664Y-110507299D01*
X172366335Y-110396324D01*
X172366336Y-110396319D01*
X172368191Y-110390855D01*
X172369019Y-110385146D01*
X172369020Y-110385141D01*
X172388542Y-110250500D01*
X172398659Y-110180723D01*
X172400249Y-110120000D01*
X172380821Y-109908561D01*
X172323186Y-109704204D01*
X172229275Y-109513772D01*
X172102233Y-109343642D01*
X171946315Y-109199513D01*
X171766742Y-109086211D01*
X171733068Y-109072776D01*
X171706096Y-109062015D01*
X171569529Y-109007530D01*
X171563861Y-109006403D01*
X171563859Y-109006402D01*
X171393567Y-108972529D01*
X171330657Y-108939622D01*
X171295525Y-108877927D01*
X171299325Y-108807032D01*
X171340851Y-108749446D01*
X171400066Y-108724255D01*
X171510855Y-108708191D01*
X171516319Y-108706336D01*
X171516324Y-108706335D01*
X171706448Y-108641796D01*
X171711916Y-108639940D01*
X171897172Y-108536192D01*
X172060420Y-108400420D01*
X172064111Y-108395982D01*
X172067888Y-108392205D01*
X172130200Y-108358179D01*
X172156983Y-108355300D01*
X176901191Y-108355300D01*
X176909762Y-108355592D01*
X176967184Y-108359507D01*
X176974660Y-108358202D01*
X176974663Y-108358202D01*
X177029850Y-108348570D01*
X177036375Y-108347607D01*
X177091928Y-108340884D01*
X177099473Y-108339971D01*
X177106577Y-108337287D01*
X177109483Y-108336573D01*
X177125055Y-108332312D01*
X177127874Y-108331461D01*
X177135351Y-108330156D01*
X177142297Y-108327107D01*
X177142300Y-108327106D01*
X177193581Y-108304595D01*
X177199689Y-108302103D01*
X177259163Y-108279630D01*
X177265424Y-108275326D01*
X177268069Y-108273944D01*
X177282110Y-108266129D01*
X177284703Y-108264595D01*
X177291664Y-108261540D01*
X177342120Y-108222823D01*
X177347429Y-108218967D01*
X177399849Y-108182939D01*
X177420177Y-108160124D01*
X177441099Y-108136641D01*
X177446080Y-108131365D01*
X179613758Y-105963687D01*
X183872000Y-105963687D01*
X183872181Y-105968453D01*
X183886321Y-106154347D01*
X183887763Y-106163770D01*
X183944281Y-106407601D01*
X183947137Y-106416714D01*
X184039880Y-106649177D01*
X184044083Y-106657757D01*
X184170923Y-106873518D01*
X184176374Y-106881361D01*
X184334393Y-107075457D01*
X184340966Y-107082383D01*
X184526521Y-107250340D01*
X184534073Y-107256198D01*
X184742902Y-107394157D01*
X184751239Y-107398798D01*
X184978535Y-107503582D01*
X184987489Y-107506912D01*
X185228027Y-107576113D01*
X185237361Y-107578045D01*
X185308034Y-107587162D01*
X185322264Y-107584904D01*
X185326000Y-107571829D01*
X185326000Y-107571578D01*
X185834000Y-107571578D01*
X185837773Y-107584429D01*
X185852870Y-107586349D01*
X186001308Y-107560042D01*
X186010540Y-107557671D01*
X186247556Y-107477215D01*
X186256325Y-107473475D01*
X186478447Y-107358091D01*
X186486547Y-107353069D01*
X186688659Y-107205416D01*
X186695915Y-107199219D01*
X186873356Y-107022704D01*
X186879596Y-107015475D01*
X187028300Y-106814147D01*
X187033370Y-106806066D01*
X187149910Y-106584560D01*
X187153699Y-106575804D01*
X187235395Y-106339212D01*
X187237814Y-106329990D01*
X187282917Y-106083031D01*
X187283853Y-106075025D01*
X187287912Y-105997573D01*
X187288000Y-105994237D01*
X187288000Y-104972115D01*
X187283525Y-104956876D01*
X187282135Y-104955671D01*
X187274452Y-104954000D01*
X185852115Y-104954000D01*
X185836876Y-104958475D01*
X185835671Y-104959865D01*
X185834000Y-104967548D01*
X185834000Y-107571578D01*
X185326000Y-107571578D01*
X185326000Y-104972115D01*
X185321525Y-104956876D01*
X185320135Y-104955671D01*
X185312452Y-104954000D01*
X183890115Y-104954000D01*
X183874876Y-104958475D01*
X183873671Y-104959865D01*
X183872000Y-104967548D01*
X183872000Y-105963687D01*
X179613758Y-105963687D01*
X179747090Y-105830355D01*
X179809402Y-105796329D01*
X179873547Y-105799117D01*
X179988771Y-105834895D01*
X180161176Y-105855300D01*
X181983861Y-105855300D01*
X182068671Y-105847507D01*
X182135685Y-105841350D01*
X182135688Y-105841349D01*
X182141439Y-105840821D01*
X182160044Y-105835574D01*
X182289309Y-105799117D01*
X182345796Y-105783186D01*
X182536228Y-105689275D01*
X182706358Y-105562233D01*
X182793117Y-105468378D01*
X182846568Y-105410555D01*
X182846570Y-105410552D01*
X182850487Y-105406315D01*
X182963789Y-105226742D01*
X182971770Y-105206739D01*
X183015546Y-105097014D01*
X183042470Y-105029529D01*
X183056327Y-104959865D01*
X183082766Y-104826946D01*
X183082766Y-104826944D01*
X183083893Y-104821279D01*
X183084113Y-104804510D01*
X183086400Y-104629764D01*
X183086672Y-104608968D01*
X183083564Y-104590880D01*
X183055556Y-104427885D01*
X183872000Y-104427885D01*
X183876475Y-104443124D01*
X183877865Y-104444329D01*
X183885548Y-104446000D01*
X185307885Y-104446000D01*
X185323124Y-104441525D01*
X185324329Y-104440135D01*
X185326000Y-104432452D01*
X185326000Y-104427885D01*
X185834000Y-104427885D01*
X185838475Y-104443124D01*
X185839865Y-104444329D01*
X185847548Y-104446000D01*
X187269885Y-104446000D01*
X187285124Y-104441525D01*
X187286329Y-104440135D01*
X187288000Y-104432452D01*
X187288000Y-103436313D01*
X187287819Y-103431547D01*
X187273679Y-103245653D01*
X187272237Y-103236230D01*
X187215719Y-102992399D01*
X187212863Y-102983286D01*
X187120120Y-102750823D01*
X187115917Y-102742243D01*
X186989077Y-102526482D01*
X186983626Y-102518639D01*
X186825607Y-102324543D01*
X186819034Y-102317617D01*
X186633479Y-102149660D01*
X186625927Y-102143802D01*
X186417098Y-102005843D01*
X186408761Y-102001202D01*
X186181465Y-101896418D01*
X186172511Y-101893088D01*
X185931973Y-101823887D01*
X185922639Y-101821955D01*
X185851966Y-101812838D01*
X185837736Y-101815096D01*
X185834000Y-101828171D01*
X185834000Y-104427885D01*
X185326000Y-104427885D01*
X185326000Y-101828422D01*
X185322227Y-101815571D01*
X185307130Y-101813651D01*
X185158692Y-101839958D01*
X185149460Y-101842329D01*
X184912444Y-101922785D01*
X184903675Y-101926525D01*
X184681553Y-102041909D01*
X184673453Y-102046931D01*
X184471341Y-102194584D01*
X184464085Y-102200781D01*
X184286644Y-102377296D01*
X184280404Y-102384525D01*
X184131700Y-102585853D01*
X184126630Y-102593934D01*
X184010090Y-102815440D01*
X184006301Y-102824196D01*
X183924605Y-103060788D01*
X183922186Y-103070010D01*
X183877083Y-103316969D01*
X183876147Y-103324975D01*
X183872088Y-103402427D01*
X183872000Y-103405763D01*
X183872000Y-104427885D01*
X183055556Y-104427885D01*
X183051692Y-104405395D01*
X183051691Y-104405392D01*
X183050714Y-104399705D01*
X182977224Y-104200500D01*
X182868661Y-104018023D01*
X182728663Y-103858385D01*
X182724138Y-103854818D01*
X182724133Y-103854813D01*
X182566451Y-103730507D01*
X182566449Y-103730506D01*
X182561917Y-103726933D01*
X182537679Y-103714181D01*
X182379120Y-103630759D01*
X182379115Y-103630757D01*
X182374008Y-103628070D01*
X182171229Y-103565105D01*
X181998824Y-103544700D01*
X180176139Y-103544700D01*
X180091329Y-103552493D01*
X180024315Y-103558650D01*
X180024312Y-103558651D01*
X180018561Y-103559179D01*
X180013002Y-103560747D01*
X180013001Y-103560747D01*
X179997549Y-103565105D01*
X179814204Y-103616814D01*
X179623772Y-103710725D01*
X179453642Y-103837767D01*
X179395487Y-103900679D01*
X179344900Y-103955404D01*
X179309513Y-103993685D01*
X179196211Y-104173258D01*
X179117530Y-104370471D01*
X179102507Y-104446000D01*
X179101509Y-104451016D01*
X179067025Y-104515530D01*
X176674761Y-106907795D01*
X176612449Y-106941820D01*
X176585666Y-106944700D01*
X172270731Y-106944700D01*
X172202610Y-106924698D01*
X172169773Y-106894089D01*
X172105686Y-106808266D01*
X172105685Y-106808265D01*
X172102233Y-106803642D01*
X171946315Y-106659513D01*
X171766742Y-106546211D01*
X171733068Y-106532776D01*
X171706096Y-106522015D01*
X171569529Y-106467530D01*
X171563861Y-106466403D01*
X171563859Y-106466402D01*
X171393567Y-106432529D01*
X171330657Y-106399622D01*
X171295525Y-106337927D01*
X171299325Y-106267032D01*
X171340851Y-106209446D01*
X171400066Y-106184255D01*
X171510855Y-106168191D01*
X171516319Y-106166336D01*
X171516324Y-106166335D01*
X171706448Y-106101796D01*
X171711916Y-106099940D01*
X171897172Y-105996192D01*
X172060420Y-105860420D01*
X172196192Y-105697172D01*
X172299940Y-105511916D01*
X172330565Y-105421699D01*
X172366335Y-105316324D01*
X172366336Y-105316319D01*
X172368191Y-105310855D01*
X172369019Y-105305146D01*
X172369020Y-105305141D01*
X172398126Y-105104397D01*
X172398659Y-105100723D01*
X172400249Y-105040000D01*
X172391955Y-104949736D01*
X172405640Y-104880073D01*
X172428331Y-104849114D01*
X173278348Y-103999097D01*
X173284614Y-103993243D01*
X173322263Y-103960400D01*
X173327990Y-103955404D01*
X173364553Y-103903379D01*
X173368479Y-103898094D01*
X173403032Y-103854027D01*
X173403036Y-103854021D01*
X173407719Y-103848048D01*
X173410845Y-103841126D01*
X173412374Y-103838600D01*
X173420368Y-103824585D01*
X173421777Y-103821958D01*
X173426148Y-103815738D01*
X173449243Y-103756502D01*
X173451799Y-103750420D01*
X173453797Y-103745996D01*
X173477969Y-103692462D01*
X173479353Y-103684994D01*
X173480248Y-103682138D01*
X173484658Y-103666653D01*
X173485399Y-103663769D01*
X173488159Y-103656689D01*
X173496459Y-103593640D01*
X173497490Y-103587133D01*
X173502381Y-103560747D01*
X173509078Y-103524611D01*
X173505509Y-103462715D01*
X173505300Y-103455463D01*
X173505300Y-97303159D01*
X173523817Y-97237407D01*
X176352335Y-92613687D01*
X183872000Y-92613687D01*
X183872181Y-92618453D01*
X183886321Y-92804347D01*
X183887763Y-92813770D01*
X183944281Y-93057601D01*
X183947137Y-93066714D01*
X184039880Y-93299177D01*
X184044083Y-93307757D01*
X184170923Y-93523518D01*
X184176374Y-93531361D01*
X184334393Y-93725457D01*
X184340966Y-93732383D01*
X184526521Y-93900340D01*
X184534073Y-93906198D01*
X184742902Y-94044157D01*
X184751239Y-94048798D01*
X184978535Y-94153582D01*
X184987489Y-94156912D01*
X185228027Y-94226113D01*
X185237361Y-94228045D01*
X185308034Y-94237162D01*
X185322264Y-94234904D01*
X185326000Y-94221829D01*
X185326000Y-94221578D01*
X185834000Y-94221578D01*
X185837773Y-94234429D01*
X185852870Y-94236349D01*
X186001308Y-94210042D01*
X186010540Y-94207671D01*
X186247556Y-94127215D01*
X186256325Y-94123475D01*
X186478447Y-94008091D01*
X186486547Y-94003069D01*
X186688659Y-93855416D01*
X186695915Y-93849219D01*
X186873356Y-93672704D01*
X186879596Y-93665475D01*
X187028300Y-93464147D01*
X187033370Y-93456066D01*
X187149910Y-93234560D01*
X187153699Y-93225804D01*
X187235395Y-92989212D01*
X187237814Y-92979990D01*
X187282917Y-92733031D01*
X187283853Y-92725025D01*
X187287912Y-92647573D01*
X187288000Y-92644237D01*
X187288000Y-91622115D01*
X187283525Y-91606876D01*
X187282135Y-91605671D01*
X187274452Y-91604000D01*
X185852115Y-91604000D01*
X185836876Y-91608475D01*
X185835671Y-91609865D01*
X185834000Y-91617548D01*
X185834000Y-94221578D01*
X185326000Y-94221578D01*
X185326000Y-91622115D01*
X185321525Y-91606876D01*
X185320135Y-91605671D01*
X185312452Y-91604000D01*
X183890115Y-91604000D01*
X183874876Y-91608475D01*
X183873671Y-91609865D01*
X183872000Y-91617548D01*
X183872000Y-92613687D01*
X176352335Y-92613687D01*
X177069696Y-91441032D01*
X179073328Y-91441032D01*
X179074307Y-91446729D01*
X179074307Y-91446730D01*
X179090564Y-91541337D01*
X179109286Y-91650295D01*
X179182776Y-91849500D01*
X179291339Y-92031977D01*
X179431337Y-92191615D01*
X179435862Y-92195182D01*
X179435867Y-92195187D01*
X179593549Y-92319493D01*
X179598083Y-92323067D01*
X179603192Y-92325755D01*
X179780880Y-92419241D01*
X179780885Y-92419243D01*
X179785992Y-92421930D01*
X179988771Y-92484895D01*
X180161176Y-92505300D01*
X181983861Y-92505300D01*
X182068671Y-92497507D01*
X182135685Y-92491350D01*
X182135688Y-92491349D01*
X182141439Y-92490821D01*
X182160044Y-92485574D01*
X182340236Y-92434754D01*
X182340235Y-92434754D01*
X182345796Y-92433186D01*
X182536228Y-92339275D01*
X182706358Y-92212233D01*
X182850487Y-92056315D01*
X182963789Y-91876742D01*
X183042470Y-91679529D01*
X183056327Y-91609865D01*
X183082766Y-91476946D01*
X183082766Y-91476944D01*
X183083893Y-91471279D01*
X183084215Y-91446730D01*
X183085536Y-91345733D01*
X183086672Y-91258968D01*
X183080501Y-91223054D01*
X183055556Y-91077885D01*
X183872000Y-91077885D01*
X183876475Y-91093124D01*
X183877865Y-91094329D01*
X183885548Y-91096000D01*
X185307885Y-91096000D01*
X185323124Y-91091525D01*
X185324329Y-91090135D01*
X185326000Y-91082452D01*
X185326000Y-91077885D01*
X185834000Y-91077885D01*
X185838475Y-91093124D01*
X185839865Y-91094329D01*
X185847548Y-91096000D01*
X187269885Y-91096000D01*
X187285124Y-91091525D01*
X187286329Y-91090135D01*
X187288000Y-91082452D01*
X187288000Y-90086313D01*
X187287819Y-90081547D01*
X187273679Y-89895653D01*
X187272237Y-89886230D01*
X187215719Y-89642399D01*
X187212863Y-89633286D01*
X187120120Y-89400823D01*
X187115917Y-89392243D01*
X186989077Y-89176482D01*
X186983626Y-89168639D01*
X186825607Y-88974543D01*
X186819034Y-88967617D01*
X186633479Y-88799660D01*
X186625927Y-88793802D01*
X186417098Y-88655843D01*
X186408761Y-88651202D01*
X186181465Y-88546418D01*
X186172511Y-88543088D01*
X185931973Y-88473887D01*
X185922639Y-88471955D01*
X185851966Y-88462838D01*
X185837736Y-88465096D01*
X185834000Y-88478171D01*
X185834000Y-91077885D01*
X185326000Y-91077885D01*
X185326000Y-88478422D01*
X185322227Y-88465571D01*
X185307130Y-88463651D01*
X185158692Y-88489958D01*
X185149460Y-88492329D01*
X184912444Y-88572785D01*
X184903675Y-88576525D01*
X184681553Y-88691909D01*
X184673453Y-88696931D01*
X184471341Y-88844584D01*
X184464085Y-88850781D01*
X184286644Y-89027296D01*
X184280404Y-89034525D01*
X184131700Y-89235853D01*
X184126630Y-89243934D01*
X184010090Y-89465440D01*
X184006301Y-89474196D01*
X183924605Y-89710788D01*
X183922186Y-89720010D01*
X183877083Y-89966969D01*
X183876147Y-89974975D01*
X183872088Y-90052427D01*
X183872000Y-90055763D01*
X183872000Y-91077885D01*
X183055556Y-91077885D01*
X183051692Y-91055395D01*
X183051691Y-91055392D01*
X183050714Y-91049705D01*
X182977224Y-90850500D01*
X182868661Y-90668023D01*
X182728663Y-90508385D01*
X182724138Y-90504818D01*
X182724133Y-90504813D01*
X182566451Y-90380507D01*
X182566449Y-90380506D01*
X182561917Y-90376933D01*
X182537679Y-90364181D01*
X182379120Y-90280759D01*
X182379115Y-90280757D01*
X182374008Y-90278070D01*
X182171229Y-90215105D01*
X181998824Y-90194700D01*
X180176139Y-90194700D01*
X180091329Y-90202493D01*
X180024315Y-90208650D01*
X180024312Y-90208651D01*
X180018561Y-90209179D01*
X180013002Y-90210747D01*
X180013001Y-90210747D01*
X179997549Y-90215105D01*
X179814204Y-90266814D01*
X179623772Y-90360725D01*
X179453642Y-90487767D01*
X179309513Y-90643685D01*
X179196211Y-90823258D01*
X179117530Y-91020471D01*
X179116403Y-91026139D01*
X179116402Y-91026141D01*
X179077984Y-91219286D01*
X179076107Y-91228721D01*
X179076031Y-91234496D01*
X179076031Y-91234500D01*
X179075262Y-91293256D01*
X179073328Y-91441032D01*
X177069696Y-91441032D01*
X177177535Y-91264750D01*
X179915412Y-86789199D01*
X179968021Y-86741528D01*
X180022781Y-86728952D01*
X184009493Y-86725385D01*
X187353387Y-86722394D01*
X187421526Y-86742335D01*
G37*
%TD.AperFunction*%
%TD*%
M02*
