%TF.GenerationSoftware,KiCad,Pcbnew,(6.0.0)*%
%TF.CreationDate,2022-10-07T21:40:30-07:00*%
%TF.ProjectId,waveblaster-to-midi-module,77617665-626c-4617-9374-65722d746f2d,rev?*%
%TF.SameCoordinates,PX525bfc0PY8670810*%
%TF.FileFunction,Soldermask,Top*%
%TF.FilePolarity,Negative*%
%FSLAX46Y46*%
G04 Gerber Fmt 4.6, Leading zero omitted, Abs format (unit mm)*
G04 Created by KiCad (PCBNEW (6.0.0)) date 2022-10-07 21:40:30*
%MOMM*%
%LPD*%
G01*
G04 APERTURE LIST*
G04 Aperture macros list*
%AMRoundRect*
0 Rectangle with rounded corners*
0 $1 Rounding radius*
0 $2 $3 $4 $5 $6 $7 $8 $9 X,Y pos of 4 corners*
0 Add a 4 corners polygon primitive as box body*
4,1,4,$2,$3,$4,$5,$6,$7,$8,$9,$2,$3,0*
0 Add four circle primitives for the rounded corners*
1,1,$1+$1,$2,$3*
1,1,$1+$1,$4,$5*
1,1,$1+$1,$6,$7*
1,1,$1+$1,$8,$9*
0 Add four rect primitives between the rounded corners*
20,1,$1+$1,$2,$3,$4,$5,0*
20,1,$1+$1,$4,$5,$6,$7,0*
20,1,$1+$1,$6,$7,$8,$9,0*
20,1,$1+$1,$8,$9,$2,$3,0*%
G04 Aperture macros list end*
%ADD10RoundRect,0.250000X-0.600000X-0.600000X0.600000X-0.600000X0.600000X0.600000X-0.600000X0.600000X0*%
%ADD11C,1.700000*%
%ADD12C,6.400000*%
%ADD13O,1.800000X2.800000*%
%ADD14C,1.600000*%
%ADD15O,1.600000X1.600000*%
%ADD16R,1.248000X1.248000*%
%ADD17C,1.248000*%
%ADD18O,2.400000X4.800000*%
%ADD19O,3.400000X1.700000*%
%ADD20R,1.600000X1.600000*%
G04 APERTURE END LIST*
D10*
%TO.C,J7*%
X167590000Y-80080000D03*
D11*
X170130000Y-80080000D03*
X167590000Y-82620000D03*
X170130000Y-82620000D03*
X167590000Y-85160000D03*
X170130000Y-85160000D03*
X167590000Y-87700000D03*
X170130000Y-87700000D03*
X167590000Y-90240000D03*
X170130000Y-90240000D03*
X167590000Y-92780000D03*
X170130000Y-92780000D03*
X167590000Y-95320000D03*
X170130000Y-95320000D03*
X167590000Y-97860000D03*
X170130000Y-97860000D03*
X167590000Y-100400000D03*
X170130000Y-100400000D03*
X167590000Y-102940000D03*
X170130000Y-102940000D03*
X167590000Y-105480000D03*
X170130000Y-105480000D03*
X167590000Y-108020000D03*
X170130000Y-108020000D03*
X167590000Y-110560000D03*
X170130000Y-110560000D03*
%TD*%
D12*
%TO.C,H1*%
X182716000Y-58900000D03*
X182716000Y-113800000D03*
%TD*%
D13*
%TO.C,J1*%
X180300000Y-80190000D03*
X188200000Y-78190000D03*
X185800000Y-80190000D03*
%TD*%
D14*
%TO.C,R4*%
X176700000Y-92110000D03*
D15*
X176700000Y-84490000D03*
%TD*%
D16*
%TO.C,U1*%
X170130000Y-71440000D03*
D17*
X170130000Y-68900000D03*
X170130000Y-66360000D03*
X162510000Y-66360000D03*
X162510000Y-68900000D03*
X162510000Y-71440000D03*
%TD*%
D18*
%TO.C,J3*%
X185580000Y-91350000D03*
D19*
X181080000Y-91350000D03*
%TD*%
D14*
%TO.C,R3*%
X173350000Y-92120000D03*
D15*
X173350000Y-84500000D03*
%TD*%
D20*
%TO.C,D1*%
X173300000Y-70684315D03*
D15*
X173300000Y-65604315D03*
%TD*%
D13*
%TO.C,J2*%
X180300000Y-69080000D03*
X188200000Y-67080000D03*
X185800000Y-69080000D03*
%TD*%
D18*
%TO.C,J4*%
X185580000Y-104600000D03*
D19*
X181080000Y-104600000D03*
%TD*%
D14*
%TO.C,R2*%
X173350000Y-81760000D03*
D15*
X173350000Y-74140000D03*
%TD*%
D14*
%TO.C,R1*%
X159200000Y-72660000D03*
D15*
X159200000Y-65040000D03*
%TD*%
M02*
