M48
; DRILL file {KiCad (6.0.0)} date Fri Oct  7 21:40:30 2022
; FORMAT={-:-/ absolute / inch / decimal}
; #@! TF.CreationDate,2022-10-07T21:40:30-07:00
; #@! TF.GenerationSoftware,Kicad,Pcbnew,(6.0.0)
; #@! TF.FileFunction,Plated,1,2,PTH
FMAT,2
INCH
; #@! TA.AperFunction,Plated,PTH,ComponentDrill
T1C0.0291
; #@! TA.AperFunction,Plated,PTH,ComponentDrill
T2C0.0315
; #@! TA.AperFunction,Plated,PTH,ComponentDrill
T3C0.0394
; #@! TA.AperFunction,Plated,PTH,ComponentDrill
T4C0.0512
; #@! TA.AperFunction,Plated,PTH,ComponentDrill
T5C0.1260
%
G90
G05
T1
X6.398Y-2.6126
X6.398Y-2.7126
X6.398Y-2.8126
X6.698Y-2.6126
X6.698Y-2.7126
X6.698Y-2.8126
T2
X6.2677Y-2.5606
X6.2677Y-2.8606
X6.8228Y-2.5828
X6.8228Y-2.7828
X6.8248Y-2.9189
X6.8248Y-3.2189
X6.8248Y-3.3268
X6.8248Y-3.6268
X6.9567Y-3.3264
X6.9567Y-3.6264
T3
X6.598Y-3.1528
X6.598Y-3.2528
X6.598Y-3.3528
X6.598Y-3.4528
X6.598Y-3.5528
X6.598Y-3.6528
X6.598Y-3.7528
X6.598Y-3.8528
X6.598Y-3.9528
X6.598Y-4.0528
X6.598Y-4.1528
X6.598Y-4.2528
X6.598Y-4.3528
X6.698Y-3.1528
X6.698Y-3.2528
X6.698Y-3.3528
X6.698Y-3.4528
X6.698Y-3.5528
X6.698Y-3.6528
X6.698Y-3.7528
X6.698Y-3.8528
X6.698Y-3.9528
X6.698Y-4.0528
X6.698Y-4.1528
X6.698Y-4.2528
X6.698Y-4.3528
T5
X7.1935Y-2.3189
X7.1935Y-4.4803
T3
G00X7.0984Y-2.7
M15
G01X7.0984Y-2.7394
M16
G05
G00X7.0984Y-3.1374
M15
G01X7.0984Y-3.1768
M16
G05
G00X7.1035Y-3.5965
M15
G01X7.1547Y-3.5965
M16
G05
G00X7.1035Y-4.1181
M15
G01X7.1547Y-4.1181
M16
G05
G00X7.315Y-2.7
M15
G01X7.315Y-2.7394
M16
G05
G00X7.315Y-3.1374
M15
G01X7.315Y-3.1768
M16
G05
G00X7.4094Y-2.6213
M15
G01X7.4094Y-2.6606
M16
G05
G00X7.4094Y-3.0587
M15
G01X7.4094Y-3.098
M16
G05
T4
G00X7.3063Y-3.5551
M15
G01X7.3063Y-3.6378
M16
G05
G00X7.3063Y-4.0768
M15
G01X7.3063Y-4.1594
M16
G05
T0
M30
